<svg xmlns="http://www.w3.org/2000/svg" width="20" height="20" fill="#292d32" xmlns:v="https://vecta.io/nano"><path d="M10.05 14.375a.63.63 0 0 1-.625-.625V9.584a.63.63 0 0 1 .625-.625.63.63 0 0 1 .625.625v4.167a.63.63 0 0 1-.625.625z"/><path d="M12.084 12.292H7.917a.63.63 0 0 1-.625-.625.63.63 0 0 1 .625-.625h4.167a.63.63 0 0 1 .625.625.63.63 0 0 1-.625.625zm2.083 6.666H5.834c-3.675 0-4.792-1.117-4.792-4.792V5.833c0-3.675 1.117-4.792 4.792-4.792h1.25c1.458 0 1.917.475 2.5 1.25l1.25 1.667c.275.367.317.417.833.417h2.5c3.675 0 4.792 1.117 4.792 4.792v5c0 3.675-1.117 4.792-4.792 4.792zM5.834 2.292c-2.975 0-3.542.567-3.542 3.542v8.333c0 2.975.567 3.542 3.542 3.542h8.333c2.975 0 3.542-.567 3.542-3.542v-5c0-2.975-.567-3.542-3.542-3.542h-2.5c-1.067 0-1.417-.367-1.833-.917l-1.25-1.667c-.433-.575-.558-.75-1.5-.75h-1.25 0z"/></svg>