<svg xmlns="http://www.w3.org/2000/svg" width="25" height="25" fill="#ff2929" xmlns:v="https://vecta.io/nano"><path d="M15.625 23.698h-6.25c-5.656 0-8.073-2.417-8.073-8.073v-6.25c0-5.656 2.417-8.073 8.073-8.073h6.25c5.656 0 8.073 2.417 8.073 8.073v6.25c0 5.656-2.417 8.073-8.073 8.073zM9.375 2.865c-4.802 0-6.51 1.708-6.51 6.51v6.25c0 4.802 1.708 6.51 6.51 6.51h6.25c4.802 0 6.51-1.708 6.51-6.51v-6.25c0-4.802-1.708-6.51-6.51-6.51h-6.25zM12.5 15.531a.77.77 0 0 1-.552-.229l-3.677-3.677c-.302-.302-.302-.802 0-1.104s.802-.302 1.104 0l3.125 3.125 3.125-3.125c.302-.302.802-.302 1.104 0s.302.802 0 1.104l-3.677 3.677a.77.77 0 0 1-.552.229z"/></svg>