<svg xmlns="http://www.w3.org/2000/svg" width="25" height="25" fill="#00bc1c" xmlns:v="https://vecta.io/nano"><path d="M15.625 23.698h-6.25c-5.656 0-8.073-2.417-8.073-8.073v-6.25c0-5.656 2.417-8.073 8.073-8.073h6.25c5.656 0 8.073 2.417 8.073 8.073v6.25c0 5.656-2.417 8.073-8.073 8.073zM9.375 2.865c-4.802 0-6.51 1.708-6.51 6.51v6.25c0 4.802 1.708 6.51 6.51 6.51h6.25c4.802 0 6.51-1.708 6.51-6.51v-6.25c0-4.802-1.708-6.51-6.51-6.51h-6.25zm6.802 11.937a.77.77 0 0 1-.552-.229L12.5 11.448l-3.125 3.125c-.302.302-.802.302-1.104 0s-.302-.802 0-1.104l3.677-3.677c.302-.302.802-.302 1.104 0l3.677 3.677c.302.302.302.802 0 1.104a.77.77 0 0 1-.552.229z"/></svg>