<svg xmlns="http://www.w3.org/2000/svg" width="25" height="25" fill="#ffb300" xmlns:v="https://vecta.io/nano"><path d="M15.625 23.698h-6.25c-5.656 0-8.073-2.417-8.073-8.073v-6.25c0-5.656 2.417-8.073 8.073-8.073h6.25c5.656 0 8.073 2.417 8.073 8.073v6.25c0 5.656-2.417 8.073-8.073 8.073zM9.375 2.865c-4.802 0-6.51 1.708-6.51 6.51v6.25c0 4.802 1.708 6.51 6.51 6.51h6.25c4.802 0 6.51-1.708 6.51-6.51v-6.25c0-4.802-1.708-6.51-6.51-6.51h-6.25zm7.032 10.156H8.073a.79.79 0 0 1-.781-.781.79.79 0 0 1 .781-.781h8.333a.79.79 0 0 1 .781.781.79.79 0 0 1-.781.781z"/></svg>