<svg xmlns="http://www.w3.org/2000/svg" width="24" height="24" fill="none" xmlns:v="https://vecta.io/nano"><path d="M4.741 2.5A.75.75 0 0 0 4 3.25V18.5a1.5 1.5 0 1 0 0 3h.75.75 13 .75.75a1.5 1.5 0 1 0 0-3V3.25a.75.75 0 0 0-.396-.661.75.75 0 0 0-.77.037l-1.855 1.236-2.093-1.256a.75.75 0 0 0-.771 0L12 3.875 9.886 2.606a.75.75 0 0 0-.771 0L7.021 3.862 5.166 2.626a.75.75 0 0 0-.425-.126zM9.5 4.125l2.114 1.268a.75.75 0 0 0 .771 0L14.5 4.125l2.114 1.269a.75.75 0 0 0 .802-.02l1.084-.723V18.5 20h-13v-1.5V4.651l1.084.723a.75.75 0 0 0 .802.02L9.5 4.125zM7.75 8a.75.75 0 0 0-.537.216.75.75 0 0 0-.223.534.75.75 0 0 0 .223.534.75.75 0 0 0 .537.216h8.5a.75.75 0 0 0 .537-.216.75.75 0 0 0 .224-.534.75.75 0 0 0-.224-.534A.75.75 0 0 0 16.25 8h-8.5zm0 4a.75.75 0 0 0-.537.216.75.75 0 0 0-.223.534.75.75 0 0 0 .223.534.75.75 0 0 0 .537.216h4.5a.75.75 0 0 0 .537-.216.75.75 0 0 0 .223-.534.75.75 0 0 0-.223-.534.75.75 0 0 0-.537-.216h-4.5zm7.5 0a.75.75 0 0 0-.537.216.75.75 0 0 0-.223.534.75.75 0 0 0 .223.534.75.75 0 0 0 .537.216h1a.75.75 0 0 0 .537-.216.75.75 0 0 0 .224-.534.75.75 0 0 0-.224-.534.75.75 0 0 0-.537-.216h-1zm-7.5 3a.75.75 0 0 0-.537.216.75.75 0 0 0-.223.534.75.75 0 0 0 .223.534.75.75 0 0 0 .537.216h3.5a.75.75 0 0 0 .537-.216.75.75 0 0 0 .223-.534.75.75 0 0 0-.223-.534.75.75 0 0 0-.537-.216h-3.5zm7.5 0a.75.75 0 0 0-.537.216.75.75 0 0 0-.223.534.75.75 0 0 0 .223.534.75.75 0 0 0 .537.216h1a.75.75 0 0 0 .537-.216.75.75 0 0 0 .224-.534.75.75 0 0 0-.224-.534.75.75 0 0 0-.537-.216h-1z" fill="#292d32"/></svg>