<svg xmlns="http://www.w3.org/2000/svg" width="24" height="24" fill="none" xmlns:v="https://vecta.io/nano"><path d="M8.168 3C6.671 3 5.36 4.031 5.009 5.486L4.643 7H3.75a.75.75 0 0 0-.537.216.75.75 0 0 0-.223.534.75.75 0 0 0 .223.534.75.75 0 0 0 .537.216h.53l-.215.89C3.441 9.791 3 10.459 3 11.25v6.25.25 1.75a1 1 0 0 0 1 1h1a1 1 0 0 0 1-1v-1h12v1a1 1 0 0 0 1 1h1a1 1 0 0 0 1-1v-1.75-.25-6.25c0-.791-.441-1.459-1.065-1.86l-.215-.89h.53a.75.75 0 0 0 .537-.216.75.75 0 0 0 .223-.534.75.75 0 0 0-.223-.534A.75.75 0 0 0 20.25 7h-.893l-.366-1.514C18.64 4.031 17.329 3 15.832 3H8.168zm0 1.5h7.664c.812 0 1.511.55 1.701 1.339L18.297 9H5.703l.764-3.161C6.657 5.05 7.356 4.5 8.168 4.5zm-2.918 6h13.5a.74.74 0 0 1 .75.75V17h-15v-5.75a.74.74 0 0 1 .75-.75zM7 12a1 1 0 0 0-1 1 1 1 0 0 0 1 1 1 1 0 0 0 1-1 1 1 0 0 0-1-1zm10 0a1 1 0 0 0-1 1 1 1 0 0 0 1 1 1 1 0 0 0 1-1 1 1 0 0 0-1-1zm-6.75 2a.75.75 0 0 0-.537.216.75.75 0 0 0-.223.534.75.75 0 0 0 .223.534.75.75 0 0 0 .537.216h3.5a.75.75 0 0 0 .537-.216.75.75 0 0 0 .223-.534.75.75 0 0 0-.223-.534.75.75 0 0 0-.537-.216h-3.5z" fill="#292d32"/></svg>