<svg xmlns="http://www.w3.org/2000/svg" width="24" height="24" fill="none" xmlns:v="https://vecta.io/nano"><g fill="#292d32"><path d="M11.151 8.97H1.939c-.398 0-.727-.33-.727-.727s.33-.727.727-.727h9.212c.398 0 .727.33.727.727s-.33.727-.727.727zm-3.394 7.758H5.818c-.398 0-.727-.33-.727-.727s.33-.727.727-.727h1.939c.398 0 .727.33.727.727s-.33.727-.727.727zm6.303 0h-3.879c-.398 0-.727-.33-.727-.727s.33-.727.727-.727h3.879c.398 0 .727.33.727.727s-.33.727-.727.727z"/><path d="M17.028 20.606H6.245c-3.859 0-5.033-1.164-5.033-4.984V7.651c0-3.821 1.173-4.984 5.033-4.984h7.816c.398 0 .727.33.727.727s-.33.727-.727.727H6.245c-3.045 0-3.578.524-3.578 3.53v7.961c0 3.006.533 3.53 3.578 3.53h10.773c3.045 0 3.578-.524 3.578-3.53v-3.956c0-.398.33-.727.727-.727s.727.33.727.727v3.956c.01 3.83-1.164 4.994-5.023 4.994z"/></g><g fill="#ff8329"><path d="M15.049 11.093c-.378 0-.737-.136-.989-.398-.31-.31-.446-.756-.378-1.222l.194-1.377a1.96 1.96 0 0 1 .504-1.008l3.598-3.598c1.425-1.425 2.667-.611 3.287 0 .611.611 1.425 1.852 0 3.287l-3.598 3.598a1.96 1.96 0 0 1-1.009.504l-1.377.194-.233.019zm4.567-6.943c-.194 0-.369.136-.611.368l-3.588 3.598c-.029.039-.087.145-.097.194l-.194 1.309 1.319-.184c.049-.01.155-.068.194-.097l3.598-3.598c.456-.456.524-.708 0-1.222-.252-.252-.436-.368-.621-.368z"/><path d="M20.237 7.505c-.068 0-.136-.01-.194-.029-1.328-.378-2.385-1.425-2.754-2.754-.107-.388.116-.785.504-.902.388-.107.785.116.902.504.242.844.912 1.513 1.755 1.755.388.107.611.514.504.892-.107.32-.398.533-.718.533z"/></g></svg>