<svg width="24" height="24" viewBox="0 0 24 24" fill="none" xmlns="http://www.w3.org/2000/svg">
<path d="M11.8788 9.69698H2.66673C2.26915 9.69698 1.93945 9.36728 1.93945 8.9697C1.93945 8.57213 2.26915 8.24243 2.66673 8.24243H11.8788C12.2764 8.24243 12.6061 8.57213 12.6061 8.9697C12.6061 9.36728 12.2764 9.69698 11.8788 9.69698Z" fill="#292D32"/>
<path d="M8.48503 17.4545H6.54563C6.14806 17.4545 5.81836 17.1248 5.81836 16.7273C5.81836 16.3297 6.14806 16 6.54563 16H8.48503C8.8826 16 9.2123 16.3297 9.2123 16.7273C9.2123 17.1248 8.8826 17.4545 8.48503 17.4545Z" fill="#292D32"/>
<path d="M14.7877 17.4545H10.9089C10.5113 17.4545 10.1816 17.1248 10.1816 16.7273C10.1816 16.3297 10.5113 16 10.9089 16H14.7877C15.1853 16 15.515 16.3297 15.515 16.7273C15.515 17.1248 15.1853 17.4545 14.7877 17.4545Z" fill="#292D32"/>
<path d="M17.7552 21.3334H6.97218C3.11279 21.3334 1.93945 20.1698 1.93945 16.3492V8.37829C1.93945 4.55768 3.11279 3.39404 6.97218 3.39404H14.7879C15.1855 3.39404 15.5152 3.72374 15.5152 4.12132C15.5152 4.51889 15.1855 4.84859 14.7879 4.84859H6.97218C3.92733 4.84859 3.394 5.37222 3.394 8.37829V16.3395C3.394 19.3456 3.92733 19.8692 6.97218 19.8692H17.7455C20.7904 19.8692 21.3237 19.3456 21.3237 16.3395V12.3831C21.3237 11.9856 21.6534 11.6559 22.051 11.6559C22.4485 11.6559 22.7782 11.9856 22.7782 12.3831V16.3395C22.7879 20.1698 21.6146 21.3334 17.7552 21.3334Z" fill="#292D32"/>
<path d="M15.777 11.8205C15.3988 11.8205 15.04 11.6848 14.7879 11.423C14.4776 11.1127 14.3418 10.6666 14.4097 10.2012L14.6036 8.82418C14.6521 8.47509 14.8654 8.05812 15.1079 7.8157L18.7054 4.21812C20.1309 2.79267 21.3721 3.60721 21.9927 4.21812C22.6036 4.82903 23.4182 6.07024 21.9927 7.50539L18.3951 11.103C18.143 11.3551 17.726 11.5587 17.3867 11.6072L16.0097 11.8012C15.9321 11.8108 15.8545 11.8205 15.777 11.8205ZM20.3442 4.87751C20.1503 4.87751 19.9757 5.01327 19.7333 5.246L16.1454 8.84358C16.1164 8.88236 16.0582 8.98903 16.0485 9.03752L15.8545 10.3466L17.1733 10.1624C17.2218 10.1527 17.3285 10.0945 17.3673 10.0654L20.9648 6.46782C21.4206 6.01206 21.4885 5.75994 20.9648 5.246C20.7127 4.99388 20.5285 4.87751 20.3442 4.87751Z" fill="#FF8329"/>
<path d="M20.9647 8.23271C20.8969 8.23271 20.829 8.22302 20.7708 8.20362C19.4423 7.82544 18.3853 6.77817 18.0169 5.44968C17.9102 5.06181 18.1332 4.66423 18.5211 4.54787C18.909 4.4412 19.3066 4.66423 19.4229 5.05211C19.6653 5.89575 20.3344 6.56484 21.1781 6.80726C21.566 6.91393 21.789 7.3212 21.6823 7.69938C21.5756 8.01938 21.2847 8.23271 20.9647 8.23271Z" fill="#FF8329"/>
</svg>
