<svg width="380" height="213" viewBox="0 0 380 213" fill="none" xmlns="http://www.w3.org/2000/svg">
<rect width="380" height="213" rx="24" fill="url(#paint0_linear_301_1573)"/>
<mask id="mask0_301_1573" style="mask-type:alpha" maskUnits="userSpaceOnUse" x="0" y="0" width="380" height="213">
<rect width="380" height="213" rx="24" fill="url(#paint1_linear_301_1573)"/>
</mask>
<g mask="url(#mask0_301_1573)">
<path opacity="0.5" d="M394.44 56.8257C409.24 78.7558 414.522 98.3105 406.282 107.887C393.043 123.272 349.911 107.072 309.945 71.7034C269.978 36.3344 248.311 -4.81021 261.55 -20.1957C271.17 -31.3756 296.574 -25.8779 325.079 -8.46627" stroke="white" stroke-width="0.985701"/>
<path d="M306.79 -32.5591C319.331 -8.00395 320.808 15.9733 308.254 30.5627C288.083 54.003 239.333 44.333 199.366 8.96406C159.399 -26.4049 143.351 -74.0792 163.521 -97.5196C178.178 -114.552 207.926 -114.102 238.428 -99.0131" stroke="white" stroke-width="0.985701"/>
<path opacity="0.7" d="M420.053 40.7944C434.853 62.7245 440.136 82.2793 431.895 91.8553C418.656 107.241 375.525 91.0411 335.558 55.6721C295.591 20.3032 273.924 -20.8415 287.163 -36.227C296.783 -47.4069 322.188 -41.9091 350.692 -24.4975" stroke="white" stroke-width="0.985701"/>
</g>
<defs>
<linearGradient id="paint0_linear_301_1573" x1="150" y1="88" x2="403" y2="-58" gradientUnits="userSpaceOnUse">
<stop offset="0.310644" stop-color="#2969FF"/>
<stop offset="1" stop-color="#2969FF" stop-opacity="0"/>
</linearGradient>
<linearGradient id="paint1_linear_301_1573" x1="190" y1="0" x2="190" y2="213" gradientUnits="userSpaceOnUse">
<stop stop-color="#2969FF"/>
<stop offset="1" stop-color="#2969FF" stop-opacity="0"/>
</linearGradient>
</defs>
</svg>
