<svg xmlns="http://www.w3.org/2000/svg" width="24" height="24" fill="none" xmlns:v="https://vecta.io/nano"><g fill="#292d32"><path d="M14.5 9.25H2c-.41 0-.75-.34-.75-.75s.34-.75.75-.75h12.5c.41 0 .75.34.75.75s-.34.75-.75.75zm-6.5 8H6c-.41 0-.75-.34-.75-.75s.34-.75.75-.75h2c.41 0 .75.34.75.75s-.34.75-.75.75zm6.5 0h-4c-.41 0-.75-.34-.75-.75s.34-.75.75-.75h4c.41 0 .75.34.75.75s-.34.75-.75.75z"/><path d="M17.56 21.25H6.44c-3.98 0-5.19-1.2-5.19-5.14V7.89c0-3.94 1.21-5.14 5.19-5.14h8.06c.41 0 .75.34.75.75s-.34.75-.75.75H6.44c-3.14 0-3.69.54-3.69 3.64v8.21c0 3.1.55 3.64 3.69 3.64h11.11c3.14 0 3.69-.54 3.69-3.64v-2.08c0-.41.34-.75.75-.75s.75.34.75.75v2.08c.01 3.95-1.2 5.15-5.18 5.15z"/></g><g fill="#2969ff"><path d="M20 10.25c-.1 0-.19-.02-.29-.06a.75.75 0 0 1-.46-.69v-6c0-.41.34-.75.75-.75s.75.34.75.75v4.19l.72-.72c.29-.29.77-.29 1.06 0s.29.77 0 1.06l-2 2a.75.75 0 0 1-.53.22z"/><path d="M20 10.25a.74.74 0 0 1-.53-.22l-2-2c-.29-.29-.29-.77 0-1.06s.77-.29 1.06 0l2 2c.29.29.29.77 0 1.06a.74.74 0 0 1-.53.22z"/></g></svg>