<svg xmlns="http://www.w3.org/2000/svg" width="24" height="24" fill="#292d32" xmlns:v="https://vecta.io/nano"><path d="M19 10.75h-2c-2.42 0-3.75-1.33-3.75-3.75V5c0-2.42 1.33-3.75 3.75-3.75h2c2.42 0 3.75 1.33 3.75 3.75v2c0 2.42-1.33 3.75-3.75 3.75zm-2-8c-1.58 0-2.25.67-2.25 2.25v2c0 1.58.67 2.25 2.25 2.25h2c1.58 0 2.25-.67 2.25-2.25V5c0-1.58-.67-2.25-2.25-2.25h-2zm-10 20H5c-2.42 0-3.75-1.33-3.75-3.75v-2c0-2.42 1.33-3.75 3.75-3.75h2c2.42 0 3.75 1.33 3.75 3.75v2c0 2.42-1.33 3.75-3.75 3.75zm-2-8c-1.58 0-2.25.67-2.25 2.25v2c0 1.58.67 2.25 2.25 2.25h2c1.58 0 2.25-.67 2.25-2.25v-2c0-1.58-.67-2.25-2.25-2.25H5zm1-4c-2.62 0-4.75-2.13-4.75-4.75S3.38 1.25 6 1.25 10.75 3.38 10.75 6 8.62 10.75 6 10.75zm0-8A3.26 3.26 0 0 0 2.75 6 3.26 3.26 0 0 0 6 9.25 3.26 3.26 0 0 0 9.25 6 3.26 3.26 0 0 0 6 2.75zm12 20c-2.62 0-4.75-2.13-4.75-4.75s2.13-4.75 4.75-4.75 4.75 2.13 4.75 4.75-2.13 4.75-4.75 4.75zm0-8A3.26 3.26 0 0 0 14.75 18 3.26 3.26 0 0 0 18 21.25 3.26 3.26 0 0 0 21.25 18 3.26 3.26 0 0 0 18 14.75z"/></svg>