<svg width="20" height="20" viewBox="0 0 20 20" fill="none" xmlns="http://www.w3.org/2000/svg">
<path d="M18.3327 18.9584H4.16602C2.44102 18.9584 1.04102 17.5584 1.04102 15.8334V1.66675C1.04102 1.32508 1.32435 1.04175 1.66602 1.04175C2.00768 1.04175 2.29102 1.32508 2.29102 1.66675V15.8334C2.29102 16.8667 3.13268 17.7084 4.16602 17.7084H18.3327C18.6744 17.7084 18.9577 17.9917 18.9577 18.3334C18.9577 18.6751 18.6744 18.9584 18.3327 18.9584Z" fill="#292D32"/>
<path d="M4.16587 14.7917C4.0242 14.7917 3.8742 14.7417 3.75753 14.6417C3.4992 14.4167 3.46587 14.025 3.69087 13.7584L7.51587 9.29168C7.93253 8.80834 8.53253 8.51668 9.16587 8.49168C9.7992 8.47502 10.4242 8.70834 10.8742 9.15834L11.6659 9.95002C11.8742 10.1583 12.1492 10.2583 12.4409 10.2583C12.7325 10.25 12.9992 10.1167 13.1909 9.89168L17.0159 5.42502C17.2409 5.16669 17.6325 5.13334 17.8992 5.35834C18.1575 5.58334 18.1909 5.97501 17.9659 6.24167L14.1409 10.7084C13.7242 11.1917 13.1242 11.4833 12.4909 11.5083C11.8575 11.525 11.2325 11.2917 10.7825 10.8417L9.9992 10.05C9.79087 9.84168 9.51587 9.73335 9.2242 9.74168C8.93253 9.75002 8.66587 9.88335 8.4742 10.1084L4.6492 14.575C4.51587 14.7167 4.34087 14.7917 4.16587 14.7917Z" fill="#2969FF"/>
</svg>
