<svg xmlns="http://www.w3.org/2000/svg" width="24" height="24" fill="#292d32" xmlns:v="https://vecta.io/nano"><path d="M7 21h6.72c1.62 0 3.17-.69 4.25-1.88l3.53-3.88c1.68-1.84 1.68-4.62 0-6.47l-3.53-3.88C16.89 3.69 15.34 3 13.72 3H7a5.76 5.76 0 0 0-5.75 5.75v6.5A5.76 5.76 0 0 0 7 21zm6.72-16.5c1.19 0 2.34.51 3.14 1.39l3.54 3.89a3.3 3.3 0 0 1 0 4.45l-3.53 3.88c-.8.88-1.95 1.39-3.14 1.39H7a4.26 4.26 0 0 1-4.25-4.25v-6.5A4.26 4.26 0 0 1 7 4.5h6.72zM8 15.22a.74.74 0 0 0 .53-.22l4.94-4.95c.29-.29.29-.77 0-1.06s-.77-.29-1.06 0l-4.94 4.95c-.29.29-.29.77 0 1.06a.74.74 0 0 0 .53.22z"/><path d="M12.94 15.22a.74.74 0 0 0 .53-.22c.29-.29.29-.77 0-1.06L8.53 9c-.29-.29-.77-.29-1.06 0s-.29.77 0 1.06L12.41 15a.74.74 0 0 0 .53.22z"/></svg>