<svg width="32" height="32" viewBox="0 0 32 32" fill="none" xmlns="http://www.w3.org/2000/svg">
<path d="M19.3332 12.3334H2.6665C2.11984 12.3334 1.6665 11.88 1.6665 11.3334C1.6665 10.7867 2.11984 10.3334 2.6665 10.3334H19.3332C19.8798 10.3334 20.3332 10.7867 20.3332 11.3334C20.3332 11.88 19.8798 12.3334 19.3332 12.3334Z" fill="#292D32"/>
<path d="M10.6667 23H8C7.45333 23 7 22.5467 7 22C7 21.4533 7.45333 21 8 21H10.6667C11.2133 21 11.6667 21.4533 11.6667 22C11.6667 22.5467 11.2133 23 10.6667 23Z" fill="#292D32"/>
<path d="M19.3333 23H14C13.4533 23 13 22.5467 13 22C13 21.4533 13.4533 21 14 21H19.3333C19.88 21 20.3333 21.4533 20.3333 22C20.3333 22.5467 19.88 23 19.3333 23Z" fill="#292D32"/>
<path d="M23.4132 28.3333H8.5865C3.27984 28.3333 1.6665 26.7333 1.6665 21.48V10.52C1.6665 5.26663 3.27984 3.66663 8.5865 3.66663H19.3332C19.8798 3.66663 20.3332 4.11996 20.3332 4.66663C20.3332 5.21329 19.8798 5.66663 19.3332 5.66663H8.5865C4.39984 5.66663 3.6665 6.38663 3.6665 10.52V21.4666C3.6665 25.6 4.39984 26.32 8.5865 26.32H23.3998C27.5865 26.32 28.3198 25.6 28.3198 21.4666V18.6933C28.3198 18.1466 28.7732 17.6933 29.3198 17.6933C29.8665 17.6933 30.3198 18.1466 30.3198 18.6933V21.4666C30.3332 26.7333 28.7198 28.3333 23.4132 28.3333Z" fill="#292D32"/>
<path d="M26.6665 13.6667C26.1198 13.6667 25.6665 13.2133 25.6665 12.6667V4.66667C25.6665 4.26667 25.9065 3.89333 26.2798 3.74667C26.6532 3.6 27.0798 3.68 27.3732 3.96L30.0398 6.62667C30.4265 7.01333 30.4265 7.65333 30.0398 8.04C29.6532 8.42667 29.0132 8.42667 28.6265 8.04L27.6665 7.08V12.6667C27.6665 13.2133 27.2132 13.6667 26.6665 13.6667Z" fill="#2969FF"/>
<path d="M24.0001 8.33338C23.7468 8.33338 23.4934 8.24004 23.2934 8.04004C22.9068 7.65338 22.9068 7.01338 23.2934 6.62671L25.9601 3.96004C26.3468 3.57338 26.9868 3.57338 27.3734 3.96004C27.7601 4.34671 27.7601 4.98671 27.3734 5.37338L24.7068 8.04004C24.5068 8.24004 24.2534 8.33338 24.0001 8.33338Z" fill="#2969FF"/>
</svg>
