<svg xmlns="http://www.w3.org/2000/svg" width="20" height="20" fill="none" xmlns:v="https://vecta.io/nano"><path d="M18.334 18.958H4.167c-1.725 0-3.125-1.4-3.125-3.125V1.667a.63.63 0 0 1 .625-.625.63.63 0 0 1 .625.625v14.167a1.88 1.88 0 0 0 1.875 1.875h14.167a.63.63 0 0 1 .625.625.63.63 0 0 1-.625.625z" fill="#292d32"/><path d="M4.167 14.792c-.142 0-.292-.05-.408-.15a.63.63 0 0 1-.067-.883l3.825-4.467c.417-.483 1.017-.775 1.65-.8a2.33 2.33 0 0 1 1.708.667l.792.792c.208.208.483.308.775.308.292-.008.558-.142.75-.367l3.825-4.467a.63.63 0 0 1 .883-.067.63.63 0 0 1 .067.883l-3.825 4.467c-.417.483-1.017.775-1.65.8a2.33 2.33 0 0 1-1.708-.667L10 10.05c-.208-.208-.483-.317-.775-.308a1.02 1.02 0 0 0-.75.367L4.65 14.575c-.133.142-.308.217-.483.217z" fill="#2969ff"/></svg>