<svg xmlns="http://www.w3.org/2000/svg" width="24" height="24" fill="none" xmlns:v="https://vecta.io/nano"><path d="M5.249 1c-.957 0-1.75.793-1.75 1.75v7.5 1.879c-.57.455-1 1.086-1 1.871 0 1.181.853 2.134 1.96 2.39.448 1.778 1.193 3.362 2.243 4.525C7.853 22.189 9.352 23 10.999 23s3.147-.811 4.298-2.086c1.05-1.163 1.795-2.747 2.243-4.524 1.107-.256 1.959-1.209 1.959-2.39 0-.785-.431-1.413-1-1.865V10.25v-7.5c0-.957-.793-1.75-1.75-1.75h-11.5zm15.989.989a.75.75 0 0 0-.527.227.75.75 0 0 0-.212.533v3.5a.75.75 0 0 0 .216.537.75.75 0 0 0 .534.223.75.75 0 0 0 .534-.223.75.75 0 0 0 .216-.537v-3.5c.002-.1-.017-.2-.055-.293a.75.75 0 0 0-.413-.413.75.75 0 0 0-.293-.055zM5.249 2.5h11.5c.148 0 .25.102.25.25V9.5h-12V2.75c0-.148.102-.25.25-.25zm5.75 1.5a.75.75 0 0 0-.75.75v.75h-.75a.75.75 0 1 0 0 1.5h.75v.75a.75.75 0 1 0 1.5 0V7h.75a.75.75 0 1 0 0-1.5h-.75v-.75a.75.75 0 0 0-.75-.75zm10.25 3.5a.75.75 0 0 0-.75.75.75.75 0 0 0 .75.75.75.75 0 0 0 .75-.75.75.75 0 0 0-.75-.75zM4.999 11h12v1.44a.75.75 0 0 0 .429.678c.344.163.571.484.571.883a.99.99 0 0 1-1 1c.132 0 .123-.003-.03-.003a.75.75 0 0 0-.733.596c-.372 1.771-1.117 3.28-2.052 4.315S12.158 21.5 10.999 21.5s-2.249-.557-3.184-1.592-1.68-2.544-2.052-4.315a.75.75 0 0 0-.733-.596c-.153 0-.164.003-.031.003a.99.99 0 0 1-1-1c0-.402.232-.729.572-.891a.75.75 0 0 0 .428-.678V11zm3.5 2a1 1 0 0 0-1 1 1 1 0 0 0 1 1 1 1 0 0 0 1-1 1 1 0 0 0-1-1zm5 0a1 1 0 0 0-1 1 1 1 0 0 0 1 1 1 1 0 0 0 1-1 1 1 0 0 0-1-1z" fill="#292d32"/></svg>