<svg xmlns="http://www.w3.org/2000/svg" width="24" height="24" fill="none" xmlns:v="https://vecta.io/nano"><path d="M9.5 1.5c-1.786 0-3.25 1.464-3.25 3.25 0 .658.247 1.237.587 1.75H4.25A1.26 1.26 0 0 0 3 7.75v3.5c0 .585.45 1.015 1 1.146v6.355C4 20.536 5.464 22 7.25 22h9.5c1.786 0 3.25-1.464 3.25-3.25v-6.354c.55-.13 1-.56 1-1.146v-3.5a1.26 1.26 0 0 0-1.25-1.25h-2.587c.34-.513.587-1.092.587-1.75 0-1.786-1.464-3.25-3.25-3.25-1.024 0-1.903.511-2.5 1.259-.597-.748-1.476-1.259-2.5-1.259zm0 1.5a1.74 1.74 0 0 1 1.75 1.75V6.5H9.5a1.74 1.74 0 0 1-1.75-1.75A1.74 1.74 0 0 1 9.5 3zm5 0a1.74 1.74 0 0 1 1.75 1.75A1.74 1.74 0 0 1 14.5 6.5h-1.75V4.75A1.74 1.74 0 0 1 14.5 3zm-10 5h5 1.75v3H4.5V8zm8.25 0h1.75 5v3h-6.75V8zM5.5 12.5h5.75v8h-4a1.74 1.74 0 0 1-1.75-1.75V12.5zm7.25 0h5.75v6.25a1.74 1.74 0 0 1-1.75 1.75h-4v-8z" fill="#292d32"/></svg>