<svg xmlns="http://www.w3.org/2000/svg" width="24" height="24" fill="none" xmlns:v="https://vecta.io/nano"><path d="M12 3c-.621 0-1.227.168-1.707.553S9.5 4.564 9.5 5.25a.75.75 0 0 0 .216.537.75.75 0 0 0 .534.223.75.75 0 0 0 .534-.223A.75.75 0 0 0 11 5.25c0-.281.079-.404.232-.527S11.655 4.5 12 4.5c.595 0 1 .404 1 1 0 .477-.172.779-.375.905-.65.405-1.125 1.117-1.125 1.945v.574L1.294 15.049A2.67 2.67 0 0 0 0 17.335 2.68 2.68 0 0 0 2.665 20h18.67A2.68 2.68 0 0 0 24 17.335a2.67 2.67 0 0 0-1.294-2.286L13 9.225v-.874c0-.26.144-.502.418-.672.746-.465 1.082-1.321 1.082-2.179A2.51 2.51 0 0 0 12 3zm-.09 7.429a.75.75 0 0 0 .313.08l9.711 5.826c.352.211.565.589.565 1 0 .653-.512 1.165-1.165 1.165H2.665c-.653 0-1.165-.512-1.165-1.165 0-.411.214-.789.565-1l9.845-5.906z" fill="#292d32"/></svg>