<svg xmlns="http://www.w3.org/2000/svg" width="24" height="24" fill="none" xmlns:v="https://vecta.io/nano"><path d="M11.976 2a.75.75 0 0 0-.44.161L4.43 7.76A3.75 3.75 0 0 0 3 10.705v9.545a1.26 1.26 0 0 0 1.25 1.25h5a1.26 1.26 0 0 0 1.25-1.25v-5c0-.148.102-.25.25-.25h2.5c.148 0 .25.102.25.25v5a1.26 1.26 0 0 0 1.25 1.25h5A1.26 1.26 0 0 0 21 20.25v-9.545a3.75 3.75 0 0 0-1.43-2.945l-7.106-5.599A.75.75 0 0 0 11.976 2zM12 3.705l6.643 5.233c.542.427.857 1.077.857 1.767V20H15v-4.75c0-.957-.793-1.75-1.75-1.75h-2.5c-.957 0-1.75.793-1.75 1.75V20H4.5v-9.295c0-.69.315-1.339.857-1.767L12 3.705z" fill="#292d32"/></svg>