<svg width="32" height="32" viewBox="0 0 32 32" fill="none" xmlns="http://www.w3.org/2000/svg">
<path d="M19.3332 12.3334H2.6665C2.11984 12.3334 1.6665 11.88 1.6665 11.3334C1.6665 10.7867 2.11984 10.3334 2.6665 10.3334H19.3332C19.8798 10.3334 20.3332 10.7867 20.3332 11.3334C20.3332 11.88 19.8798 12.3334 19.3332 12.3334Z" fill="#292D32"/>
<path d="M10.6667 23H8C7.45333 23 7 22.5467 7 22C7 21.4533 7.45333 21 8 21H10.6667C11.2133 21 11.6667 21.4533 11.6667 22C11.6667 22.5467 11.2133 23 10.6667 23Z" fill="#292D32"/>
<path d="M19.3333 23H14C13.4533 23 13 22.5467 13 22C13 21.4533 13.4533 21 14 21H19.3333C19.88 21 20.3333 21.4533 20.3333 22C20.3333 22.5467 19.88 23 19.3333 23Z" fill="#292D32"/>
<path d="M23.4132 28.3333H8.5865C3.27984 28.3333 1.6665 26.7333 1.6665 21.48V10.52C1.6665 5.26663 3.27984 3.66663 8.5865 3.66663H19.3332C19.8798 3.66663 20.3332 4.11996 20.3332 4.66663C20.3332 5.21329 19.8798 5.66663 19.3332 5.66663H8.5865C4.39984 5.66663 3.6665 6.38663 3.6665 10.52V21.4666C3.6665 25.6 4.39984 26.32 8.5865 26.32H23.3998C27.5865 26.32 28.3198 25.6 28.3198 21.4666V18.6933C28.3198 18.1466 28.7732 17.6933 29.3198 17.6933C29.8665 17.6933 30.3198 18.1466 30.3198 18.6933V21.4666C30.3332 26.7333 28.7198 28.3333 23.4132 28.3333Z" fill="#292D32"/>
<path d="M26.6665 13.6666C26.5332 13.6666 26.4132 13.64 26.2798 13.5866C25.9065 13.4266 25.6665 13.0666 25.6665 12.6666V4.66663C25.6665 4.11996 26.1198 3.66663 26.6665 3.66663C27.2132 3.66663 27.6665 4.11996 27.6665 4.66663V10.2533L28.6265 9.29329C29.0132 8.90663 29.6532 8.90663 30.0398 9.29329C30.4265 9.67996 30.4265 10.32 30.0398 10.7066L27.3732 13.3733C27.1865 13.56 26.9332 13.6666 26.6665 13.6666Z" fill="#2969FF"/>
<path d="M26.6668 13.6666C26.4134 13.6666 26.1601 13.5733 25.9601 13.3733L23.2934 10.7066C22.9068 10.32 22.9068 9.67996 23.2934 9.2933C23.6801 8.90663 24.3201 8.90663 24.7068 9.2933L27.3734 11.96C27.7601 12.3466 27.7601 12.9866 27.3734 13.3733C27.1734 13.5733 26.9201 13.6666 26.6668 13.6666Z" fill="#2969FF"/>
</svg>
