<svg xmlns="http://www.w3.org/2000/svg" xmlns:xlink="http://www.w3.org/1999/xlink" width="156" height="156" fill="none" xmlns:v="https://vecta.io/nano"><style><![CDATA[.B{fill:#232323}.C{fill:#fff}.D{fill:#2969ff}]]></style><path d="M120.432 140.372a401.68 401.68 0 0 0-4.862-23.764l-1.649-6.647c-.24-.923-1.659-.533-1.429.393l5.536 23.597 1.445 6.686c.131.632 1.067.357.959-.265z" class="B"/><path d="M132.775 36.643c2.279.343 4.639.229 6.844.905 4.112 1.26 4.979 4.886 5.247 8.652.351 4.905.624 9.828.624 14.739.016 8.914-.822 17.803-1.928 26.64-.504 4.036-.9 8.14-1.872 12.076-.694 2.808-.833 6.447-3.152 8.516-1.217 1.092-2.835 1.585-4.407 2.01-8.083 2.186-16.433 3.224-24.804 3.083-8.424-.143-15.04-3.744-22.684-7.054" class="C"/><path d="M132.66 37.06c3.619.549 8.285.092 10.361 3.794.746 1.331 1.038 2.883 1.186 4.385.223 2.251.312 4.524.424 6.786.468 9.63.045 19.224-.973 28.809-.496 4.666-1.008 9.36-1.735 13.992-.325 2.065-.836 4.081-1.236 6.131-.329 1.684-.581 3.466-1.377 5.009-.906 1.759-2.48 2.652-4.321 3.215-2.17.668-4.409 1.164-6.635 1.611a88.54 88.54 0 0 1-13.817 1.657c-2.26.092-4.544.156-6.801-.008a32.19 32.19 0 0 1-6.191-1.082c-4.023-1.092-7.826-2.833-11.625-4.524l-2.892-1.273c-.376-.156-.803-.11-1.031.27-.19.312-.103.87.27 1.031 4.017 1.744 7.956 3.681 12.109 5.106 2.01.703 4.076 1.238 6.177 1.6 2.255.376 4.514.468 6.798.457 4.85-.033 9.69-.458 14.472-1.27a88.76 88.76 0 0 0 7.065-1.494c2.028-.516 4.212-1.011 5.886-2.349 1.435-1.147 2.205-2.871 2.663-4.609.478-1.801.78-3.663 1.178-5.483 1.039-4.724 1.468-9.597 2.028-14.396 1.148-9.933 1.753-19.874 1.323-29.872-.104-2.496-.252-4.988-.443-7.475-.128-1.733-.264-3.496-.827-5.148-.502-1.48-1.342-2.808-2.61-3.744-1.625-1.201-3.688-1.502-5.65-1.654-1.181-.091-2.365-.137-3.538-.3-.543-.073-.78.752-.231.835l-.006-.006z" class="B"/><path d="M96.389 61.636c3.398-1.274 7.332-.143 10.241 2.017 3.443 2.551 8.451 8.187 9.171 12.602s-3.506 9.639-6.587 12.31c-3.744 3.249-8.474 5.242-13.332 6.251-3.563.741-7.22.977-10.773 1.771-5.029 1.125-9.003 3.519-11.815 7.867-3.923 6.064-7.681 12.238-11.494 18.372l-6.131 9.828c-2.44 3.878-4.75 5.095-9.319 2.983l-11.076-5.117c-2.254-1.042-4.965-2.455-6.396-4.586-.741-1.111-1.034-2.624-.376-3.785.537-.945 1.596-1.488 2.66-1.716s2.162-.187 3.248-.262c4.649-.326 7.235-2.111 9.429-6.059 4.368-7.861 9.096-15.577 14.976-22.385S75.165 74.949 86.47 73.205" class="C"/><path d="M96.527 62.13c3.557-1.287 7.371.051 10.215 2.317 2.607 2.079 4.836 4.592 6.589 7.429.8 1.306 1.501 2.71 1.808 4.221s-.048 3.106-.646 4.524c-1.277 3.028-3.588 5.7-6.101 7.781-2.994 2.48-6.607 4.153-10.338 5.184-4.165 1.151-8.499 1.343-12.717 2.225-3.295.688-6.438 1.978-9.048 4.139-2.984 2.473-4.859 6.022-6.897 9.251l-14.316 22.985c-.736 1.17-1.576 2.401-2.777 3.137-1.037.635-2.22.705-3.387.437-1.906-.44-3.685-1.462-5.449-2.278l-6.132-2.837c-1.738-.802-3.507-1.56-5.115-2.613-1.388-.905-2.964-2.184-3.276-3.913-.365-2.028 1.529-2.915 3.234-3.074 1.795-.169 3.572-.128 5.331-.606 2.895-.78 5.051-2.727 6.593-5.254 1.045-1.716 1.977-3.507 2.991-5.243 1.05-1.798 2.131-3.578 3.242-5.34 4.008-6.321 8.549-12.305 13.914-17.553 5.012-4.9 10.801-9.416 17.447-11.847 1.61-.599 3.274-1.04 4.969-1.317.897-.142.516-1.505-.376-1.365-7.388 1.167-13.92 5.362-19.5 10.151-5.649 4.836-10.516 10.533-14.754 16.633-2.471 3.557-4.739 7.251-6.9 11.005-1.644 2.858-3.025 6.251-6.068 7.903-1.318.716-2.824 1.046-4.307 1.176-1.975.171-4.139-.044-5.823 1.209-1.622 1.206-1.872 3.248-1.072 5.021.761 1.688 2.368 2.944 3.9 3.9 1.682 1.05 3.521 1.826 5.316 2.652l6.432 2.964c2.869 1.325 6.288 3.334 9.415 1.56 1.282-.725 2.242-1.92 3.051-3.12 1.259-1.872 2.41-3.822 3.602-5.736l7.441-12.012 3.665-5.887c1.193-1.9 2.352-3.841 3.635-5.682a16.75 16.75 0 0 1 7.986-6.099c4.008-1.484 8.343-1.682 12.516-2.434 3.986-.718 7.899-2.028 11.37-4.137 3.074-1.874 5.717-4.377 7.754-7.346 1.883-2.753 3.228-6.071 2.158-9.394-1.048-3.26-3.329-6.145-5.68-8.58-2.424-2.507-5.259-4.753-8.763-5.446-1.803-.357-3.662-.312-5.4.323-.624.223-.351 1.214.273.989v-.002z" class="B"/><path d="M51.967 118.655c-3.588-2.44-7.295-5.012-9.43-8.787-.672-1.188-1.092-2.868-.073-3.772.679-.601 1.688-.562 2.56-.805 2.496-.693 4.134-4.326 5.496-6.279 1.877-2.709 3.894-5.319 6.04-7.82 4.474-5.182 9.564-9.984 15.388-13.628 3.097-1.934 6.443-3.546 9.995-4.434 1.677-.418 3.05-.56 4.329-1.83 1.167-1.156 1.872-2.711 3.195-3.727 1.073-.822 2.449-1.181 3.802-1.217 4.396-.115 8.679 3.636 8.703 8.034.017 3.285-2.102 6.254-4.68 8.287s-5.641 3.349-8.482 4.992c-8.05 4.68-14.216 11.932-20.214 19.047-2.384 2.827-4.783 5.677-6.552 8.925-.841 1.548-1.551 3.204-2.749 4.495s-3.064 2.159-4.736 1.606" class="C"/><path d="M52.226 118.212c-2.214-1.51-4.41-3.048-6.312-4.95-.946-.926-1.783-1.957-2.496-3.073-.537-.858-1.262-2.111-.866-3.161.418-1.107 2.09-.897 3.009-1.248.97-.377 1.771-1.081 2.44-1.864 1.466-1.716 2.496-3.767 3.817-5.597 3.423-4.76 7.266-9.238 11.574-13.221 4.16-3.847 8.825-7.323 14.04-9.62a29.48 29.48 0 0 1 4.14-1.471c1.147-.312 2.34-.485 3.432-.956 1.2-.515 2.058-1.404 2.835-2.432s1.476-2.147 2.625-2.792c4.153-2.34 9.731 1.025 10.639 5.399.502 2.416-.566 4.902-2.087 6.739-1.736 2.095-4.056 3.519-6.419 4.805-2.496 1.357-5.001 2.652-7.332 4.29a57.23 57.23 0 0 0-6.24 5.121c-4.036 3.778-7.607 8.016-11.165 12.239-1.881 2.23-3.761 4.481-5.341 6.942-.78 1.21-1.42 2.483-2.095 3.751-.624 1.172-1.327 2.375-2.407 3.187-.936.709-2.111 1.106-3.268.768-.877-.257-1.248 1.092-.376 1.363 2.797.871 5.304-1.179 6.699-3.408.78-1.248 1.379-2.601 2.126-3.867a39 39 0 0 1 2.605-3.826c1.827-2.393 3.814-4.669 5.772-6.956 1.888-2.209 3.81-4.389 5.831-6.478 4.014-4.143 8.413-7.786 13.508-10.525 4.746-2.551 10.653-5.505 11.67-11.416.86-4.992-3.085-9.611-7.979-10.268a8.22 8.22 0 0 0-3.891.376c-1.357.499-2.363 1.388-3.235 2.522-.797 1.036-1.498 2.232-2.669 2.892-1.103.624-2.437.757-3.643 1.092-5.831 1.6-11.095 4.992-15.717 8.814s-8.736 8.302-12.396 13.057c-1.672 2.17-3.189 4.407-4.649 6.721-.608.962-1.257 1.923-2.111 2.688a3.94 3.94 0 0 1-1.19.761c-.624.235-1.296.246-1.927.438-1.201.365-1.956 1.34-1.928 2.609s.66 2.413 1.348 3.432c1.524 2.26 3.577 4.056 5.761 5.664 1.092.808 2.221 1.582 3.351 2.349.547.373 1.061-.516.518-.886l-.002-.003z" class="B"/><path d="M96.39 61.636c3.398-1.274 7.332-.143 10.241 2.017 3.443 2.551 8.451 8.187 9.171 12.602s-3.507 9.639-6.588 12.31c-3.744 3.249-8.473 5.242-13.331 6.251-3.563.741-7.22.977-10.773 1.771-5.029 1.125-9.003 3.519-11.815 7.867-3.923 6.064-7.681 12.238-11.494 18.372" class="C"/><path d="M96.526 62.13c6.256-2.259 12.092 3.321 15.494 7.926 1.578 2.134 3.304 4.819 3.147 7.588-.167 2.931-2.067 5.7-3.939 7.844-4.479 5.164-10.808 7.847-17.442 8.948-3.685.613-7.474.856-11.049 2.006-2.808.9-5.409 2.356-7.514 4.427-1.14 1.122-2.073 2.404-2.937 3.744l-3.198 5.028-6.337 10.225-1.56 2.599c-.468.78.732 1.478 1.221.714l6.608-10.567 3.29-5.228c.964-1.515 1.872-3.092 3.058-4.454a16.93 16.93 0 0 1 7.388-4.904c3.616-1.236 7.474-1.491 11.223-2.101 6.864-1.117 13.471-3.9 18.134-9.204 2.028-2.307 3.94-5.109 4.382-8.213.416-2.922-.949-5.674-2.549-8.031a30.54 30.54 0 0 0-6.203-6.741c-2.564-2.028-5.786-3.457-9.123-3.12a9.85 9.85 0 0 0-2.366.526c-.624.223-.351 1.214.273.989h.001z" class="B"/><path d="M100.286 65.603c3.131-1.834 7.194-1.39 10.435.242 3.827 1.927 9.722 6.627 11.185 10.855s-1.812 10.095-4.394 13.252c-3.14 3.841-7.455 6.61-12.07 8.433-3.385 1.337-6.948 2.193-10.313 3.588-4.766 1.965-8.268 5.002-10.296 9.765-2.831 6.644-5.483 13.369-8.193 20.063l-4.368 10.73c-1.743 4.237-3.813 5.828-8.675 4.524l-11.791-3.153c-2.398-.642-5.312-1.572-7.076-3.432-.919-.969-1.466-2.41-1.016-3.666.367-1.023 1.32-1.739 2.329-2.143s2.098-.552 3.154-.813c4.524-1.112 6.77-3.312 8.259-7.577 2.964-8.489 6.307-16.899 10.937-24.609s13.26-19.321 24.096-22.966" class="C"/><path d="M100.545 66.046c3.337-1.903 7.372-1.133 10.577.654a28.91 28.91 0 0 1 7.85 6.388c.979 1.15 1.917 2.46 2.375 3.917.486 1.544.298 3.204-.126 4.741-.895 3.242-2.799 6.302-5.068 8.764-2.595 2.808-5.83 4.955-9.303 6.533-3.948 1.794-8.23 2.68-12.222 4.36-3.065 1.292-5.889 3.172-7.965 5.802a19.35 19.35 0 0 0-2.599 4.457l-2.652 6.336-5.179 12.792-2.586 6.382c-.805 1.978-1.54 4.01-2.456 5.939-.519 1.092-1.173 2.259-2.206 2.944-.983.652-2.129.763-3.276.652-.867-.083-1.716-.312-2.551-.544l-3.368-.902-6.632-1.774c-1.797-.48-3.625-.936-5.304-1.745-1.479-.718-3.239-1.829-3.521-3.588-.326-2.028 1.889-2.852 3.465-3.212 1.696-.387 3.359-.759 4.919-1.56 2.689-1.383 4.338-3.819 5.357-6.601 1.47-4.011 2.881-8.031 4.554-11.962 2.895-6.814 6.396-13.371 10.791-19.344 4.022-5.46 8.845-10.627 14.772-14.029 1.424-.831 2.925-1.521 4.482-2.062.858-.29.49-1.658-.376-1.363-6.837 2.32-12.424 7.229-17.021 12.664-4.721 5.575-8.58 11.842-11.73 18.422-1.927 4.024-3.611 8.162-5.162 12.343-.713 1.921-1.295 3.917-2.114 5.792-.58 1.331-1.354 2.571-2.435 3.551s-2.401 1.602-3.769 2.028c-1.903.593-4.056.663-5.688 1.92-1.607 1.239-1.964 3.211-1.076 5.006.816 1.649 2.562 2.741 4.185 3.471 1.794.807 3.694 1.292 5.588 1.799l6.948 1.858c2.975.796 6.784 2.379 9.681.501 1.144-.741 1.955-1.872 2.571-3.07.962-1.872 1.664-3.889 2.456-5.832l5.402-13.386 5.395-13.143a16.92 16.92 0 0 1 6.633-7.669c3.588-2.224 7.758-3.178 11.7-4.564 3.858-1.359 7.516-3.22 10.678-5.838 2.811-2.325 5.087-5.228 6.674-8.513 1.469-3.059 2.424-6.63.883-9.844-1.507-3.111-4.315-5.605-7.044-7.625-2.847-2.112-6.053-3.878-9.672-3.992a10.07 10.07 0 0 0-5.346 1.261c-.574.328-.058 1.214.518.886h-.006z" class="B"/><path d="M90.125 76.871c-10.842 3.646-19.467 15.257-24.096 22.966-2.546 4.24-4.705 8.7-6.624 13.26-.81 1.925-1.352 4.582-2.761 6.107-1.264 1.372-3.328 1.788-2.278 4.368.657 1.612 2.239 2.623 3.744 3.493 2 1.157 4.034 2.249 6.103 3.276 3.613 1.803 8.199 2.788 12.179 3.534 2.749-7.432 5.315-14.831 8.433-22.152 2.028-4.763 5.536-7.8 10.296-9.766 3.365-1.387 6.928-2.243 10.313-3.588 4.615-1.824 8.93-4.593 12.07-8.433 2.582-3.157 5.856-9.028 4.395-13.252s-7.359-8.928-11.186-10.855c-3.241-1.632-7.304-2.076-10.434-.242" class="C"/><path d="M89.987 76.376c-5.192 1.761-9.7 5.076-13.572 8.903-3.689 3.652-6.875 7.808-9.68 12.168a89.49 89.49 0 0 0-4.469 7.809c-1.51 2.964-3.012 6.014-4.106 9.161-.454 1.304-.866 2.669-1.66 3.816-.601.868-1.538 1.335-2.267 2.068-2.061 2.067-.083 4.908 1.777 6.287 1.275.945 2.718 1.683 4.104 2.443 1.518.831 3.048 1.672 4.628 2.377 2.922 1.303 6.04 2.095 9.164 2.743l2.281.449c.192.045.394.016.565-.081s.299-.257.358-.445l4.38-11.921 2.245-5.825c.733-1.841 1.424-3.733 2.34-5.495 1.399-2.692 3.507-4.952 6.096-6.533 3.197-1.97 6.864-2.93 10.404-4.095s6.926-2.614 9.984-4.733a26.45 26.45 0 0 0 7.071-7.142c1.738-2.629 3.229-5.724 3.382-8.92.145-3.075-1.56-5.657-3.564-7.837-2.156-2.333-4.659-4.318-7.421-5.887-2.922-1.663-6.418-2.548-9.741-1.677-.826.222-1.62.552-2.36.981-.791.452-.08 1.675.713 1.223 2.964-1.694 6.751-1.198 9.697.285 2.617 1.318 5.029 3.145 7.116 5.195 1.919 1.883 3.988 4.276 4.056 7.107.069 3.055-1.43 6.068-3.051 8.569-1.773 2.705-4.062 5.034-6.736 6.855-2.99 2.058-6.304 3.463-9.745 4.591s-7.008 2.097-10.157 3.939c-2.591 1.495-4.778 3.601-6.369 6.134-.924 1.491-1.56 3.12-2.229 4.746l-2.257 5.706-4.249 11.5-1.042 2.837.925-.525c-3.065-.571-6.139-1.21-9.089-2.237-3.039-1.057-5.889-2.683-8.664-4.279-1.173-.669-2.448-1.359-3.287-2.449-.557-.722-1.103-1.889-.445-2.705.597-.741 1.515-1.165 2.139-1.889.872-1.013 1.381-2.268 1.825-3.512.479-1.343.936-2.672 1.502-3.982a121.55 121.55 0 0 1 2.076-4.565 92.84 92.84 0 0 1 4.469-8.238c2.568-4.189 5.48-8.19 8.823-11.797 3.975-4.288 8.708-8.224 14.312-10.14.624-.212.356-1.203-.273-.989v.006z" class="B"/><path d="M104.968 32.74a67.88 67.88 0 0 0-16.285 4.212l-8.288 3.708-4.082 2.053c-.658.339-3.349 1.248-3.621 1.881 1.716-5.507 2.593-8.797 3.558-13.09.983-4.368 2.073-8.769 2.708-13.21.427-2.987.406-6.146-.858-8.892s-4-4.944-7.012-4.889c-.616.011-1.374.248-1.459.858-.134.966 1.352 1.438.597 2.496-.265.373-.693.59-1.109.78a23.12 23.12 0 0 1-3.691 1.323 7.02 7.02 0 0 1-1.693.312 4.92 4.92 0 0 0-1.703.271c-.338.13-.644.33-.898.588s-.449.568-.574.907-.174.703-.146 1.063.133.712.307 1.029c.195.354.385.342.373.757-.012.448-.193.947-.298 1.381a42.99 42.99 0 0 1-.744 2.674c-.547 1.81-1.148 3.605-1.576 5.447-.875 3.772-1.649 7.565-2.324 11.379-.388 2.193-.744 4.402-.794 6.629-.114 5.047 1.421 10.17 4.56 14.123s7.917 6.642 12.948 6.956" class="C"/><path d="M104.968 32.191a68.29 68.29 0 0 0-14.694 3.533c-4.836 1.764-9.483 4.037-14.067 6.38-.715.365-1.477.624-2.21.955-.61.273-1.488.604-1.816 1.239l1.081.456c1.154-3.699 2.229-7.419 3.12-11.193 1.031-4.377 2.09-8.772 2.844-13.208.696-4.101 1.134-8.699-1.248-12.375-.961-1.482-2.329-2.739-3.959-3.444-1.237-.534-3.61-1.17-4.629.112-.468.591-.304 1.314.098 1.884.137.197.41.446.44.694.052.44-.509.733-.821.889-1.028.511-2.1.928-3.203 1.248-.502.162-1.013.294-1.53.395-.568.101-1.147.062-1.716.156-1.872.312-3.218 2.139-2.533 4.022.118.328.451.641.504.961.038.223-.089.535-.147.747l-.242.922c-.293 1.131-.641 2.248-.989 3.362-1.415 4.524-2.368 9.157-3.237 13.811-.824 4.415-1.587 8.836-.816 13.316 1.346 7.825 6.956 14.765 14.868 16.581a17.96 17.96 0 0 0 2.808.407c.719.048.716-1.07 0-1.118-3.675-.248-7.221-1.783-10.024-4.159-2.942-2.496-5.008-5.867-6.084-9.558-1.19-4.079-.992-8.193-.292-12.34.749-4.434 1.577-8.901 2.705-13.26.555-2.147 1.296-4.238 1.864-6.382l.368-1.426c.1-.387.221-.844.115-1.248-.089-.334-.378-.552-.504-.874a2.12 2.12 0 0 1-.014-1.518c.41-1.07 1.495-1.381 2.538-1.429s2.009-.312 2.997-.624a22.66 22.66 0 0 0 2.902-1.092c.674-.312 1.424-.822 1.496-1.633.058-.658-.39-1.044-.677-1.574-.413-.768.733-.768 1.229-.738 1.705.103 3.276.991 4.449 2.198 2.831 2.906 2.975 7.282 2.423 11.076-.643 4.407-1.716 8.736-2.697 13.079-.759 3.363-1.633 6.696-2.621 9.998l-.924 3.011c-.197.624.772 1.055 1.081.456.193-.374 1.092-.682 1.515-.869.599-.262 1.218-.48 1.81-.758 2.232-1.055 4.407-2.231 6.646-3.276 4.483-2.101 9.082-3.92 13.884-5.148a72.94 72.94 0 0 1 8.058-1.574c.605-.084.468-1.159-.147-1.08l-.003.011z" class="B"/><g class="D"><path d="M86.624 63.152a11.62 11.62 0 0 1-4.037 6.839c-.225.184-.468.393-.499.683-.02.259.156.491.323.688.862.991 1.9 1.814 3.062 2.426a7.54 7.54 0 0 1 2.459-3.249c1.805-1.367 4.618-1.813 5.571-4.07"/><path d="M86.129 63.024a11.8 11.8 0 0 1-3.733 6.164c-.412.357-.877.666-1.022 1.225-.168.647.217 1.178.624 1.639.871.988 1.913 1.813 3.075 2.434.498.27.978 0 1.175-.477.407-.981 1.032-1.856 1.828-2.56.66-.585 1.456-.98 2.239-1.37 1.597-.796 3.167-1.66 3.806-3.432.248-.686-.833-1.131-1.175-.495-.847 1.577-2.638 2.165-4.139 2.939a8.53 8.53 0 0 0-4.1 4.483l1.176-.477c-.992-.52-1.894-1.195-2.672-2-.105-.101-.203-.209-.293-.323-.079-.111-.083.072-.051-.022.051-.156.401-.354.523-.468.418-.369.807-.77 1.164-1.2 1.371-1.663 2.261-3.669 2.573-5.802.094-.635-.833-.936-.989-.273l-.008.014z"/></g><path d="M121.769 71.819c-1.006.087-2.02-.049-2.969-.397s-1.809-.901-2.52-1.619c-2.309-2.36-2.585-5.969-3.71-9.073-1.032-2.837-2.823-5.336-5.179-7.223-1.538-1.226-3.331-2.211-4.471-3.813-1.619-2.276-1.591-5.304-1.318-8.085.132-1.356.312-2.736.917-3.958.615-1.248 1.629-2.257 2.717-3.12 1.648-1.312 2.936-2.147 5.047-2.109a48.93 48.93 0 0 1 7.221.663c4.665.78 9.24 2.326 13.229 4.903 6.496 4.198 11.296 11.491 11.121 19.224-.124 5.511-2.764 10.833-6.781 14.606-5.975 5.616-16.751 9.065-24.818 6.833-3.627-1.003-6.969-4.079-7.004-7.841-.01-1.033.468-2.293 1.502-2.365.825-.058 1.469.711 1.803 1.468s.535 1.618 1.144 2.184c-.242-1.074-.188-2.193.156-3.239.086-.339.272-.645.535-.877.721-.548 1.788.1 2.184.911s.468 1.771.945 2.535a6.04 6.04 0 0 1 .488-3.136c.156-.365.387-.735.749-.905.654-.312 1.429.197 1.79.822s.468 1.367.809 2.006c-.081-.825-.156-1.682.125-2.46s1.037-1.454 1.861-1.36c.697.079 1.225.658 1.624 1.236s.78 1.217 1.39 1.552 1.569.168 1.766-.505" class="C"/><g class="B"><path d="M101.314 14.457c-.687-.286-1.439-.377-2.173-.261-.633.08-1.22.376-1.661.838-.42.468-.605 1.178-.365 1.763.135.298.339.56.594.764a4.04 4.04 0 0 0 2.856.936c1.034-.076 2.01-.504 2.766-1.214"/><path d="M101.47 13.892c-1.232-.499-2.791-.51-3.925.257-1.022.693-1.552 2.078-.895 3.2 1.438 2.462 5.368 2.34 7.151.404.483-.524-.169-1.51-.804-1.042-.73.537-1.51 1.006-2.432 1.076a3.34 3.34 0 0 1-2.496-.813c-.693-.641-.374-1.513.406-1.922.835-.435 1.831-.354 2.688-.031.711.267.997-.852.312-1.129h-.005z"/></g><path d="M110.195 20.943c-.206 1.565-.532 3.113-.975 4.628-.376 1.267-.705 2.437-.566 3.772a13.36 13.36 0 0 0 .218 1.334c.099.482.383 1.078.128 1.538-.295.532-.987 1.026-1.44 1.423-.533.47-1.095.906-1.683 1.306-.439.32-.925.572-1.44.746a2.28 2.28 0 0 1-1.591-.056c-.863-.399-1.248-1.435-1.27-2.385s.264-1.892.348-2.828a2.72 2.72 0 0 0-.129-1.271c-.347-.85-1.474-1.041-2.166-1.527-.771-.54-1.381-1.28-1.763-2.14-.83-1.903-.53-4.17.445-6.003a10.23 10.23 0 0 1 1.471-2.062 6.76 6.76 0 0 1 3.514-2.068c1.356-.311 2.775-.196 4.063.33 1.761.729 3.245 2.231 2.836 5.265z" class="C"/><g class="B"><use xlink:href="#B"/><use xlink:href="#B"/><path d="M99.187 20.185c.624.089 1.248.415.839 1.134-.227.398-.658.615-.914.986-.481.696.312 1.12.866 1.354.371.156.624-.468.273-.649-.196-.103-.519-.203-.437-.423.066-.172.356-.368.468-.516.283-.312.448-.712.468-1.133 0-.877-.763-1.171-1.51-1.248-.278-.027-.346.451-.067.491l.014.003zm3.162 1.187a.37.37 0 0 0-.16.039c-.05.025-.093.06-.127.104a.39.39 0 0 0-.071.148c-.012.054-.012.11.001.164a.33.33 0 0 0 .074.133.34.34 0 0 0 .276.11.34.34 0 0 0 .146-.046c.058-.033.109-.077.15-.13s.071-.113.088-.178a.51.51 0 0 0 .012-.198.5.5 0 0 0-.067-.187.49.49 0 0 0-.134-.146c-.054-.039-.115-.067-.181-.082a.49.49 0 0 0-.198-.005.5.5 0 0 0-.185.072c-.089.068-.158.159-.198.264s-.05.218-.029.329a.6.6 0 0 0 .428.468.56.56 0 0 0 .581-.303c.117-.211-.078-.512-.328-.427l-.133.048a.48.48 0 0 0-.109.047c-.058.047.156-.039.144 0 .02 0 .012 0-.021-.012l.047.048s.02.028.013.036-.01-.073 0-.073c-.003.017-.008.033-.014.048-.028.047-.075.037-.124.031-.018 0-.039-.048 0 0 0-.012-.018-.019-.025-.034s-.005-.04 0-.059.027-.052 0-.017c-.015.023-.026.034 0 0 .016-.023.011-.014 0 0 .099-.07.203-.022.312.148l-.037.134c-.008.004-.015.009-.022.016a.48.48 0 0 0 .072-.058c.034-.036.056-.08.065-.129a.25.25 0 0 0-.015-.143c-.019-.045-.05-.084-.091-.112a.26.26 0 0 0-.137-.045l-.003-.002zm-3.768-.624a.37.37 0 0 0-.16.039c-.05.025-.093.06-.127.104s-.058.094-.071.149-.012.11 0 .164a.29.29 0 0 0 .074.133.34.34 0 0 0 .125.087c.047.019.1.027.151.023a.34.34 0 0 0 .145-.046.5.5 0 0 0 .183-.693.5.5 0 0 0-.514-.234c-.066.011-.129.036-.185.072-.089.068-.158.159-.198.264s-.05.218-.029.329a.6.6 0 0 0 .429.468.56.56 0 0 0 .58-.303c.117-.211-.078-.512-.328-.427l-.133.048a.43.43 0 0 0-.109.048c-.058.045.156-.041.144 0 .02 0 .014 0-.019-.012l.045.048s.02.03.012.036-.009-.073 0-.073c-.002.017-.007.034-.014.05-.028.045-.075.036-.122.03-.02 0-.039-.048 0 0-.008-.012-.019-.019-.025-.034s-.005-.04 0-.059.026-.051 0-.017c-.016.023-.027.034 0 0 .016-.023.012-.014 0 0 .098-.07.203-.022.312.148l-.038.134-.022.016c.026-.017.05-.036.072-.058.034-.036.056-.08.066-.129s.004-.098-.015-.144a.25.25 0 0 0-.091-.112.26.26 0 0 0-.137-.045l-.005-.003zm11.12 4.416c.109.312.218.722.012 1.016-.055.083-.129.151-.216.199s-.185.074-.284.076a.61.61 0 0 1-.51-.256c-.326-.42-.312-1.014-.174-1.527s.384-.997.468-1.521-.009-1.133-.435-1.451c-.385-.289-.945-.254-1.365-.019s-1.178.947-1.265 1.463c-.106-.611-.035-1.239.204-1.811.213-.499.549-.936.72-1.459a1.53 1.53 0 0 0 .096-.599 1.54 1.54 0 0 0-.146-.589c-.247-.437-.576-.195-.994-.226a2.07 2.07 0 0 1-1.052-.385c-.166-.12-.705-.583-.642-.83-.281 1.092-1.372 1.279-2.34 1.274-1.931 0-3.888-.496-5.49-1.574s-2.82-2.778-3.131-4.68a4.07 4.07 0 0 1 .078-1.85c.334-1.075 1.285-1.903 2.37-2.201 1.104-.274 2.27-.122 3.267.427a6.66 6.66 0 0 1 2.412 2.307c.498-.766 1.702-.802 2.423-.24.422.349.725.82.869 1.348.156.504.078.923.504 1.281.302-.869.989-1.549 1.936-1.665a2.64 2.64 0 0 1 1.329.215 2.63 2.63 0 0 1 1.051.843 3.11 3.11 0 0 1 .468 2.597c.31-.174.653-.28 1.007-.308a2.45 2.45 0 0 1 1.043.143 1.95 1.95 0 0 1 .836.627c.217.281.354.616.395.968a1.64 1.64 0 0 1-1.053 1.665 1.98 1.98 0 0 1 .784.501c.218.227.378.503.467.804s.107.62.049.929a1.99 1.99 0 0 1-.383.848c-.454.585-1.214.874-1.953.897a2.42 2.42 0 0 1 .755 1.442c.033.276-.007.555-.117.811a1.57 1.57 0 0 1-.507.643 1.2 1.2 0 0 1-1.485-.133z"/><path d="M109.168 25.311c.02.067.163.49.067.529-.064.026-.145-.331-.156-.37-.061-.501.209-1.017.374-1.473.312-.844.424-1.852-.193-2.593-1.264-1.513-3.64 0-4.031 1.544h1.404c-.23-1.573 1.479-2.702.95-4.303-.211-.638-.718-1.001-1.389-.947a1.43 1.43 0 0 1-.912-.156c-.103-.059-.198-.132-.281-.217-.112-.106-.156-.268-.156-.084.019-.836-1.2-.973-1.434-.195-.165.554-.689.696-1.22.735-.763.046-1.529-.007-2.279-.156-1.547-.292-3.055-.936-4.204-2.028-1.037-.986-1.816-2.357-1.93-3.803-.111-1.552.914-2.844 2.474-3.037 1.894-.232 3.446 1.055 4.428 2.541.312.468.905.435 1.223 0 .41-.563 1.305-.204 1.646.231.55.707.369 1.652 1.037 2.303.407.396 1.001.178 1.186-.312.349-.936 1.287-1.404 2.229-1.023 1.04.431 1.429 1.598 1.189 2.636a.72.72 0 0 0 .26.741c.111.085.244.136.382.147a.72.72 0 0 0 .401-.085c.643-.323 1.487-.321 1.956.295.344.449.312 1.234-.285 1.471-.697.275-.701 1.153 0 1.427a1.25 1.25 0 0 1 .656.604 1.24 1.24 0 0 1 .086.888c-.193.699-.909 1.014-1.58 1.062-.6.042-.962.757-.504 1.218.347.349.634.831.503 1.342-.092.363-.486.707-.838.401-.715-.624-1.763.42-1.044 1.044.961.833 2.39.657 3.056-.46.684-1.145.177-2.446-.667-3.335l-.506 1.218c1.384-.067 2.747-.811 3.039-2.265.282-1.404-.518-2.635-1.806-3.143v1.427c1.404-.551 2.048-2.198 1.221-3.521-.87-1.393-2.618-1.604-4.004-.9l1.045.803c.405-1.805-.376-3.705-2.173-4.368-1.73-.644-3.368.37-3.985 2.003l1.186-.312c-.221-.215-.209-.515-.278-.803a3.87 3.87 0 0 0-.329-.863 2.87 2.87 0 0 0-1.263-1.284c-1.074-.519-2.34-.261-3.039.707h1.223c-1.133-1.716-2.88-3.059-4.992-3.176-1.872-.105-3.937 1.072-4.379 2.997-.448 1.959.406 4.04 1.641 5.538 1.331 1.611 3.249 2.652 5.285 3.054 1.815.367 4.691.696 5.381-1.56l-1.434-.193c-.017.601.491 1.092.936 1.416a2.72 2.72 0 0 0 1.006.468c.225.05.749.164.981.034-.135-.137-.177-.156-.127-.039.029.076.037.16.021.24a1.39 1.39 0 0 1-.129.468c-.156.389-.412.739-.58 1.126a4.17 4.17 0 0 0-.275 2.376c.111.733 1.248.662 1.404 0 .109-.446 1.222-1.629 1.626-.922.223.39 0 .936-.128 1.323-.172.512-.359 1.023-.354 1.571 0 .849.514 1.814 1.482 1.752 1.082-.07 1.265-1.215.96-2.044-.237-.66-1.26-.404-1.06.289zm-4.599 2.379a6.51 6.51 0 0 1-1.824.156c-.624-.025-1.169-.253-1.771-.359-.727-.128-1.168.78-.511 1.212 1.327.863 3.165.547 4.499-.07.536-.248.156-1.073-.393-.936v-.003zm-1.1-7.123c-.468-.509-1.148-.544-1.789-.421-.359.069-.275.644.086.633.468-.012.99-.125 1.404.181.237.176.485-.192.312-.393h-.013zm-2.551 4.279c.545-.044 1.301-.139 1.425-.796.06-.329-.379-.555-.562-.237-.207.359-.535.468-.927.552-.268.052-.212.502.064.48z"/></g><path d="M112.654 39.409c2.63 8.413 2.63 13.692 3.722 22.506.156 1.264.297 2.621-.209 3.766-.326.677-.813 1.265-1.418 1.711-2.63 2.08-6.043 2.201-9.236 2.198-4.462 0-9.08-.145-13.104-2.312-.233-.101-.431-.269-.569-.482-.145-.261-.134-.593-.119-.902.485-9.293.897-16.719 4.405-25.536" class="C"/><path d="M112.135 39.552l1.805 7.519.912 6.731.78 7.488c.156 1.276.443 2.711-.02 3.955-.421 1.126-1.537 1.897-2.563 2.429-2.092 1.083-4.534 1.203-6.842 1.217-2.563.016-5.164 0-7.701-.401a20.44 20.44 0 0 1-3.702-.925c-.572-.209-1.131-.453-1.672-.732-.187-.095-.532-.204-.654-.398-.147-.239 0-.908.013-1.162l.524-7.8a68.9 68.9 0 0 1 1.217-8.268c.641-2.964 1.601-5.806 2.596-8.667.262-.753-.974-1.292-1.303-.549-2.259 5.072-3.302 10.678-3.861 16.173-.281 2.757-.437 5.524-.58 8.291-.033.654-.133 1.338-.062 1.99.08.725.504 1.161 1.123 1.491a17.53 17.53 0 0 0 3.839 1.485c2.666.69 5.444.835 8.187.861 2.536.025 5.171.078 7.628-.647 2.42-.713 4.992-2.32 5.329-5.028.17-1.374-.114-2.772-.276-4.134l-.468-4.199c-.624-5.755-1.334-11.496-3.207-17.004-.222-.65-1.23-.387-1.039.287l-.003-.003z" class="B"/><g class="D"><path d="M107.236 71.894c-1.804.914-3.931.852-5.951.729-3.323-.204-6.667-.524-9.853-1.491s-6.231-2.63-8.396-5.159c-1.172-1.37-2.184-2.886-3.9-3.646-1.509-.671-3.037-.51-3.561-2.459-.228-.85-.156-1.752-.028-2.624.351-2.403 1.1-4.731 2.217-6.887.139-.267.299-.547.568-.685a1.53 1.53 0 0 1 .78-.095c1.547.089 3.215.451 4.68-.125 1.505-.59 2.767-1.704 4.103-2.583 2.838-1.872 6.167-2.764 9.503-3.215 2.883-.388 6.311-.92 9.183-.557 4.115.523 8.268 1.392 11.881 3.432s6.656 5.396 7.5 9.458c.805 3.869-.496 8.014-3.011 11.062s-6.14 5.059-9.956 6.084"/><path d="M106.997 71.485c-1.9.888-4.093.724-6.127.587-2.237-.156-4.474-.362-6.674-.811-3.852-.78-7.689-2.351-10.399-5.296-1.248-1.354-2.243-2.973-3.881-3.9-.685-.39-1.434-.591-2.176-.836-.652-.214-1.209-.521-1.474-1.192-.398-1.009-.209-2.184-.025-3.221a21.82 21.82 0 0 1 .799-3.12 19.61 19.61 0 0 1 1.273-3.019c.262-.49.468-.488 1-.451s1.053.1 1.58.14c1.031.08 2.103.076 3.083-.295.918-.376 1.784-.866 2.579-1.459 1.703-1.201 3.379-2.293 5.355-3.001s3.987-1.092 6.04-1.365 4.127-.568 6.209-.593 4.139.32 6.164.732c2.062.421 4.118.991 6.04 1.855 3.351 1.507 6.37 3.925 8.012 7.271 1.682 3.432 1.35 7.458-.427 10.781-1.799 3.38-4.919 5.842-8.418 7.312a22.87 22.87 0 0 1-2.685.925c-.78.218-.446 1.412.333 1.204 3.9-1.037 7.67-3.056 10.286-6.192 2.652-3.181 4.036-7.46 3.245-11.575-.741-3.852-3.404-7.086-6.586-9.246-3.701-2.515-8.189-3.575-12.56-4.175-2.169-.28-4.365-.289-6.536-.026-2.192.239-4.413.502-6.566.989s-4.299 1.248-6.213 2.384c-1.796 1.067-3.498 2.947-5.66 3.201-1.154.136-2.312-.101-3.465-.156-1.108-.048-1.619.52-2.081 1.456-1.011 2.043-1.703 4.23-2.05 6.483-.278 1.827-.342 4.212 1.588 5.16.682.337 1.435.468 2.139.746.922.365 1.672 1.012 2.34 1.735.691.752 1.293 1.579 1.992 2.32.686.723 1.439 1.38 2.25 1.959a19.92 19.92 0 0 0 5.476 2.705c2.228.725 4.551 1.114 6.876 1.36 2.249.237 4.62.515 6.879.282a8.33 8.33 0 0 0 2.945-.839c.551-.278.068-1.075-.478-.819z"/></g><path d="M106.998 71.485c-2.325.981-4.933.655-7.374.445-2.636-.228-5.281-.601-7.82-1.363-2.148-.646-4.212-1.602-6.015-2.964a14.3 14.3 0 0 1-2.368-2.268c-.703-.841-1.357-1.733-2.175-2.471-.849-.758-1.864-1.306-2.964-1.597-.977-.275-1.753-.521-2.09-1.571-.243-.763-1.412-.451-1.204.332.257.966.814 1.716 1.727 2.153.885.417 1.86.574 2.7 1.092.983.602 1.732 1.513 2.46 2.388a18.13 18.13 0 0 0 2.46 2.529c4.089 3.327 9.332 4.426 14.466 4.836 2.797.22 6.12.702 8.683-.721.551-.312.067-1.05-.478-.819h-.007z" class="B"/><path d="M141.854 57.211c-.125 5.512-2.764 10.833-6.781 14.606-5.975 5.616-16.752 9.065-24.818 6.833-3.627-1.003-6.969-4.079-7.005-7.841-.009-1.033.468-2.293 1.502-2.365.826-.058 1.47.711 1.804 1.468s.535 1.618 1.143 2.184c-.241-1.074-.187-2.193.156-3.239.086-.339.273-.645.535-.877.721-.548 1.788.1 2.184.911s.468 1.771.946 2.535c-.12-1.07.048-2.152.488-3.134.156-.365.387-.735.749-.905.653-.312 1.429.197 1.789.822s.468 1.367.81 2.006c-.081-.825-.156-1.682.125-2.46s1.037-1.454 1.861-1.36c.697.08 1.224.658 1.624 1.236s.78 1.217 1.39 1.552 1.569.169 1.765-.505" class="C"/><g class="B"><path d="M108.537 32.878c7.566 0 15.394 1.362 21.84 5.524 5.616 3.622 10.101 9.703 10.782 16.472.706 6.998-2.853 13.884-8.423 18.015-5.217 3.863-12.07 6.095-18.575 5.658-3.172-.212-6.331-1.147-8.476-3.622-.98-1.131-1.66-2.6-1.657-4.115 0-.477.111-1.337.624-1.56.624-.256 1.092.75 1.267 1.172.329.8.588 1.591 1.217 2.218.58.58 1.474-.019 1.317-.766a5.3 5.3 0 0 1-.021-2.165c.08-.379.189-1.298.754-1.108.499.168.73.707.876 1.164.224.702.384 1.404.76 2.053s1.57.416 1.492-.404a5.64 5.64 0 0 1 .127-1.972c.085-.328.27-1.215.662-1.342s.741.468.861.735c.275.585.415 1.209.696 1.786.341.693 1.56.382 1.493-.404-.086-.895-.292-2.209.535-2.842s1.476.468 1.884 1.052c.52.742 1.141 1.494 2.088 1.646s1.833-.279 2.184-1.195-1.103-1.289-1.44-.396c-.069.181-.518.111-.66.045-.407-.189-.683-.66-.924-1.016-.558-.825-1.22-1.693-2.268-1.872-1.017-.172-1.948.399-2.496 1.226-.66.983-.601 2.224-.493 3.349l1.493-.404c-.396-.805-.513-1.727-1.112-2.427-.543-.624-1.404-1.058-2.25-.822-.877.246-1.31 1.092-1.6 1.888a6.76 6.76 0 0 0-.364 2.964l1.492-.403c-.511-.866-.526-1.944-1.092-2.785-.49-.722-1.334-1.309-2.239-1.248-2.301.148-2.276 3.719-1.936 5.315l1.317-.766c-.642-.638-.76-1.607-1.203-2.37s-1.204-1.471-2.148-1.504c-1.838-.062-2.526 2.045-2.417 3.544.262 3.632 3.12 6.451 6.353 7.763s6.99 1.307 10.38.842a31.86 31.86 0 0 0 10.396-3.352c3.179-1.663 6.048-3.889 8.254-6.734 2.376-3.065 3.967-6.708 4.446-10.566.922-7.419-2.808-14.687-8.36-19.434-6.184-5.293-14.412-7.371-22.394-7.689a59.3 59.3 0 0 0-3.027-.041c-.569 0-.571.886 0 .886l-.015.008z"/><path d="M140.637 61.793c-1.305 4.561-4.277 8.644-8.151 11.433a29.72 29.72 0 0 1-8.862 4.285c-3.153.936-6.474 1.412-9.764 1.145-3.164-.257-6.295-1.248-8.388-3.764-.955-1.147-1.613-2.621-1.593-4.131 0-.533.142-1.348.672-1.622.713-.37 1.273.69 1.487 1.198.328.78.563 1.576 1.183 2.184.099.098.227.162.365.182a.65.65 0 0 0 .402-.072c.122-.067.22-.171.279-.298a.66.66 0 0 0 .046-.406c-.177-.798-.173-1.625.01-2.421.103-.431.252-1.24.858-1.058.567.17.843.732 1.01 1.248.22.691.368 1.404.742 2.028.3.504 1.297.398 1.228-.293-.074-.66-.034-1.328.12-1.973.1-.395.312-1.359.78-1.504.417-.128.818.393.975.697.312.594.435 1.268.735 1.872.271.549 1.292.367 1.228-.293-.092-.967-.278-2.29.594-2.977.846-.665 1.569.325 2.009.967.531.772 1.137 1.577 2.128 1.716.839.12 1.669-.267 1.966-1.092.266-.741-.902-1.092-1.167-.36-.092.256-.484.265-.702.207-.395-.105-.687-.479-.916-.793-.594-.819-1.128-1.811-2.184-2.09-1-.267-1.953.246-2.527 1.059-.679.961-.613 2.198-.507 3.31l1.229-.293c-.394-.794-.513-1.705-1.092-2.407-.497-.602-1.334-1.017-2.118-.791-.836.242-1.248 1.083-1.515 1.839a6.61 6.61 0 0 0-.339 2.855l1.228-.293c-.487-.818-.526-1.816-1.001-2.64-.426-.736-1.248-1.359-2.124-1.345-1.023.017-1.56.886-1.808 1.771-.304 1.094-.335 2.245-.09 3.354l1.092-.594c-.661-.651-.78-1.619-1.228-2.399s-1.21-1.481-2.167-1.446c-1.872.069-2.273 2.328-2.102 3.788.402 3.463 3.299 6.134 6.417 7.332 3.217 1.234 6.944 1.22 10.307.741 3.558-.52 7.002-1.64 10.184-3.313 3.173-1.661 6.018-3.877 8.226-6.708a21.93 21.93 0 0 0 3.725-7.206"/></g><g class="D"><path d="M89.153 47.892l-1.328-7.822c.54-.109 1.092.086 1.596.303 1.529.654 2.981 1.546 4.092 2.783s1.855 2.847 1.855 4.51"/><path d="M89.686 47.892l-.519-3.867-.702-3.955-.64.638c.891-.026 1.8.523 2.557.947.781.428 1.502.957 2.145 1.572a7.25 7.25 0 0 1 1.508 2.094c.381.806.498 1.661.699 2.519.144.624 1.14.641 1.268 0 .423-2.115-.981-4.368-2.469-5.747-.796-.731-1.689-1.35-2.652-1.839-.977-.502-2.101-1.092-3.223-.8-.161.046-.298.154-.382.299s-.106.318-.065.481c.381 1.248.577 2.593.811 3.881l.624 3.914c.079.59 1.115.457 1.048-.142l-.009.005z"/><path d="M87.828 40.067c.54-.109 1.092.086 1.596.303 1.529.654 2.981 1.546 4.092 2.783s1.855 2.847 1.855 4.51"/></g><path d="M87.828 40.601c.916-.112 1.863.485 2.629.927.77.465 1.474 1.032 2.092 1.685.62.608 1.127 1.321 1.499 2.106.377.816.396 1.696.686 2.527.041.136.125.255.24.339s.252.13.395.13.28-.046.394-.13.198-.203.24-.339c.32-1.017-.122-2.215-.557-3.139a8.31 8.31 0 0 0-1.934-2.588c-.78-.705-1.766-1.262-2.707-1.732-.969-.485-2.014-1.003-3.12-.827-.587.092-.456 1.122.142 1.048l.002-.008z" class="B"/><path d="M87.966 66.438a11.63 11.63 0 0 1-4.039 6.839c-.225.184-.468.393-.499.682-.02.261.156.491.323.69a10.59 10.59 0 0 0 3.062 2.424c.507-1.288 1.358-2.412 2.46-3.249 1.803-1.365 4.616-1.811 5.569-4.068" class="D"/><g class="B"><path d="M87.472 66.3a11.81 11.81 0 0 1-3.733 6.164c-.412.357-.877.666-1.022 1.225-.168.647.217 1.176.624 1.638.871.989 1.912 1.814 3.075 2.435.498.27.978 0 1.176-.477a7.02 7.02 0 0 1 1.827-2.56c.66-.584 1.456-.978 2.239-1.368 1.597-.796 3.167-1.66 3.806-3.432.248-.688-.833-1.133-1.175-.496-.847 1.579-2.638 2.165-4.139 2.941-1.874.941-3.336 2.539-4.106 4.49l1.175-.477a10.55 10.55 0 0 1-2.668-1.998 3.37 3.37 0 0 1-.293-.323c-.08-.111-.083.07-.052-.022.053-.156.401-.354.523-.468.418-.37.808-.771 1.165-1.2 1.37-1.663 2.259-3.669 2.571-5.802.094-.635-.833-.936-.989-.273l-.005.005zm1.74-22.668a16.4 16.4 0 0 1 .484 4.115c0 .71 1.14.703 1.092 0a20.34 20.34 0 0 0-.738-4.348c-.156-.543-.981-.312-.844.232h.006zm-3.123 6.792a.47.47 0 0 1 .036-.24.33.33 0 0 1 .229-.209l-.928-.379a.83.83 0 0 1-.026.395 1.81 1.81 0 0 1-.271.415c-.406.549.385 1.295.936.936.725-.488.903-1.463.524-2.226-.14-.281-.605-.423-.866-.226-.58.435-.925 1.103-.696 1.836.214.688 1.204.401 1.069-.295l-.006-.006zm-7.431 9.185a6.43 6.43 0 0 0 2.148.156c.696-.083.741-1.131 0-1.12a7.96 7.96 0 0 1-1.846-.137c-.715-.156-1.02.936-.303 1.092v.009zm-.856-5.864l.156-.596a.67.67 0 0 1 .229-.346l-1.05-.611a7.69 7.69 0 0 0-.362 1.206c-.048.312.051.624.367.749.267.108.661.033.792-.259.176-.442.315-.897.415-1.362a.63.63 0 0 0-.032-.398c-.053-.125-.146-.231-.264-.3a.63.63 0 0 0-.391-.082c-.136.016-.263.075-.362.169-.468.445-.573 1.073-.552 1.689.017.583.905.747 1.048.142h.006zm2.07.482a2.34 2.34 0 0 1 .442-1.1l-1.128-.312c.039.392-.076.654-.223 1.009-.123.295.108.661.377.769.145.061.308.067.458.018s.277-.15.358-.285c.312-.482.325-1.128.218-1.672s-.85-.56-1.106-.144a2.65 2.65 0 0 0-.418 1.571.52.52 0 0 0 .13.34c.083.094.197.155.32.172.231.026.534-.114.571-.373v.006zm21.039-9.321c3.614-.257 7.508-.326 10.62 1.184a2.07 2.07 0 0 1 .763.537c.093.105.143.241.14.381a.55.55 0 0 1-.156.374c-.393.362-1.137.12-1.688-.094-2.475-.958-5.358-.78-8.102-.83-.531-.009-1.112-.045-1.493-.339s-.312-.923.204-.995"/><path d="M100.91 45.362l5.785.156a15.53 15.53 0 0 1 2.774.524 10.59 10.59 0 0 1 1.383.495c.213.089.419.193.617.312 0 0 .539.393.321-.039 0 .011-.387-.062-.398-.066a5.6 5.6 0 0 1-.594-.2c-.446-.165-.901-.302-1.364-.412a17.42 17.42 0 0 0-2.886-.384l-2.964-.059c-.479 0-.965.016-1.443-.023-.086-.008-.564-.156-.607-.131s.01.281-.121.321c.947-.292.547-1.633-.404-1.465-.863.156-1.272 1.153-.854 1.903.468.852 1.574.936 2.443.945 2.109.038 4.267-.094 6.343.365.91.201 1.844.752 2.786.732s1.698-.794 1.37-1.738c-.301-.866-1.433-1.248-2.206-1.535a13.74 13.74 0 0 0-2.875-.713c-2.369-.34-4.728-.204-7.093.1-.563.072-.605.919 0 .911h-.013zm25.94 11.734c.595-.184 1.626-.739 2.219-.312a.47.47 0 0 1 .223.387c0 .042-.12.083-.063.111-.096-.045.099-.365.166-.427.455-.426 1.369-.641 1.973-.663s1.268.223 1.439.875c.215.835 1.48.482 1.288-.356-.377-1.652-2.228-2.068-3.671-1.716-1.226.304-3.087 1.198-2.414 2.783.634 1.502 2.837.633 2.475-.891-.165-.697-.797-1.184-1.482-1.303-.856-.147-1.639.245-2.422.527-.607.217-.362 1.176.269.978v.006z"/></g><path d="M120.89 51.605c.747 0 .749-1.161 0-1.161s-.749 1.161 0 1.161zm-1.549.867c.719 0 .721-1.12 0-1.12s-.722 1.12 0 1.12zm2.045 2.031c.703 0 .703-1.092 0-1.092s-.705 1.092 0 1.092zm-22.081-5.012l.588-.1a.47.47 0 0 0 .275-.217c.059-.105.076-.229.047-.346a.47.47 0 0 0-.566-.321l-.59.1a.47.47 0 0 0-.321.566.47.47 0 0 0 .568.323v-.005z" class="C"/><path d="M86.507 45.138a7.76 7.76 0 0 0-.733-2.702c-.217-.445-.527-.819-.764-1.248-.209-.374.175-.257.431-.212l.752.164c.541.083.855-.566.377-.895-.892-.615-3.084-.661-2.719.956.145.646.718 1.179 1.02 1.763a6.65 6.65 0 0 1 .688 2.173c.078.588 1.006.624.948 0v.002zm35.027 1.052c.972-1.702 2.435-2.941 3.858-4.257l2.201-1.92 1.164-.872c.423-.29.895-.527 1.265-.883.509-.488-.011-1.404-.696-1.195-.972.303-1.872 1.129-2.652 1.763-.823.685-1.61 1.41-2.36 2.175-1.374 1.371-3.111 2.891-3.672 4.816-.156.527.613.852.886.374h.006zm-41.462-4.891c.861.788 1.293 2.143 1.693 3.206.468 1.24.683 2.591 1.215 3.8.254.577 1.178.271 1.159-.312-.045-1.441-.736-2.964-1.293-4.27-.468-1.092-.987-2.686-2.173-3.2-.468-.206-1.053.364-.601.78v-.005z" class="B"/><g class="D"><path d="M69.531 18.146c-1.058.136-2.126-.296-2.964-.945-.828-.648-1.48-1.493-1.898-2.458s-.589-2.018-.496-3.066a6.31 6.31 0 0 1 1.088-2.91c.599-.864 1.405-1.565 2.344-2.039a4.99 4.99 0 0 1 3.064-.488c1.047.193 1.987.792 2.735 1.549 1.644 1.668 2.393 4.212 1.78 6.468s-2.624 4.109-4.947 4.399"/><path d="M69.531 17.575c-2.239.203-4.056-2.065-4.524-4.037-.223-.975-.177-1.993.133-2.944a5.52 5.52 0 0 1 1.628-2.457c.818-.741 1.863-1.181 2.964-1.248 1.092-.039 2.1.427 2.902 1.154 1.544 1.404 2.382 3.64 1.942 5.703-.479 2.25-2.321 3.83-4.513 4.332-.65.156-.519 1.212.156 1.176 2.571-.137 4.733-2.115 5.525-4.508.819-2.468.069-5.296-1.632-7.212-.936-1.059-2.222-1.872-3.644-2.037-1.374-.167-2.808.248-3.947 1.017-2.093 1.409-3.341 3.947-3.051 6.482.345 2.964 2.833 6.059 6.061 5.719.719-.075.735-1.207 0-1.14z"/></g><g class="C"><path d="M64.629 11.7a5.57 5.57 0 0 0 1.368 4.248c.468.527.936 1.128 1.596 1.404a6.41 6.41 0 0 0 2.167.516c2.912.156 5.234-2.572 5.229-5.366 0-1.594-.658-3.251-1.864-4.312a.3.3 0 0 0-.426-.003.3.3 0 0 0-.003.426c1.026 1.215 1.716 2.682 1.583 4.299a4.85 4.85 0 0 1-2.374 3.73 3.81 3.81 0 0 1-2.412.482c-.78-.084-1.704-.303-2.251-.889s-1.092-1.118-1.457-1.819a5.15 5.15 0 0 1-.577-2.716c.027-.367-.54-.362-.571 0h-.008z"/><path d="M76.44 18.659a6.06 6.06 0 0 0-2.299-2.92 2.28 2.28 0 0 0-1.051-.431c-.191-.023-.384.007-.559.087s-.324.207-.43.367a1.43 1.43 0 0 0-.136.724c.007.718.132 1.429.37 2.106-2.218-.624-4.799.515-5.841 2.569"/></g><g class="B"><path d="M76.908 18.53c-.512-1.588-1.772-3.53-3.537-3.886-.85-.172-1.778.221-2.044 1.092-.284.936 0 2.145.301 3.048l.898-.899c-2.532-.668-5.485.513-6.646 2.916-.392.81.761 1.513 1.223.714 1.003-1.739 3.058-2.733 5.034-2.221.513.133 1.083-.356.899-.899a5.53 5.53 0 0 1-.348-1.913c.008-.245-.013-.418.256-.468s.624.17.852.312a5.9 5.9 0 0 1 2.225 2.577c.226.501 1.053.145.886-.374zM70.23 8.457c-.91-.337-1.813.1-2.353.858-.507.713-.864 1.842-.126 2.533a1.4 1.4 0 0 0 1.139.312c.521-.052 1.08-.399 1.605-.325.878.125.613 1.092.172 1.538a2.93 2.93 0 0 1-1.716.822c-.434.059-.449.749 0 .697.916-.101 1.816-.501 2.396-1.239.496-.633.647-1.627-.03-2.201-.828-.702-1.741.058-2.635.044-.936-.017-.677-1.092-.373-1.629.365-.641 1.022-1.125 1.783-.885.342.108.468-.409.145-.53l-.008.003z"/><path d="M67.82 8.151a4.14 4.14 0 0 0 .29.927c.179.384.764.048.572-.335a5.48 5.48 0 0 1-.329-.738c-.019-.071-.066-.131-.13-.167s-.139-.046-.21-.026-.131.066-.167.13-.046.139-.026.21zm2.669 6.033a2.74 2.74 0 0 0 .261.744c.176.312.7.103.587-.248l-.245-.661c-.022-.08-.075-.148-.147-.189a.31.31 0 0 0-.237-.03c-.08.022-.148.075-.189.147a.31.31 0 0 0-.03.237z"/></g><path d="M70.718 7.185l.086.059c.027.017.058.028.089.033a.24.24 0 0 0 .18-.046.24.24 0 0 0 .063-.071c.03-.055.038-.119.022-.179s-.055-.112-.108-.145l-.084-.061c-.027-.016-.057-.026-.088-.03s-.062-.002-.093.006-.058.022-.083.041-.046.043-.061.069c-.03.055-.038.119-.022.179s.054.112.106.146h-.008z" class="C"/><path d="M62.275 14.268c-.257.115-.646.023-.874-.112-.632-.377-1.162.569-.569.976.649.446 1.404.312 1.98-.168a.44.44 0 0 0 .034-.582.45.45 0 0 0-.571-.114z" class="B"/><path d="M99.744 34.743a2.95 2.95 0 0 0-.242 1.706c.091.58.353 1.12.753 1.55.864.972 2.215 1.404 3.483 1.437 2.863.07 5.346-1.892 6.527-4.396.198-.418-.405-.788-.624-.368-1.064 1.989-2.764 3.625-5.062 3.987-1.092.173-2.293.014-3.245-.587-1.007-.635-1.666-1.919-1.162-3.079.125-.287-.289-.541-.427-.25z" class="D"/><path d="M103.406 105.56c.707-5.993-.742-12.441 1.922-17.854.442-.9 1.025-1.78 1.894-2.279.691-.395 1.499-.515 2.285-.624a263.81 263.81 0 0 1 22.082-2.142" class="C"/><path d="M103.924 105.702c.78-5.422-.438-11.185 1.479-16.425.411-1.123.98-2.471 2.028-3.147.565-.365 1.248-.481 1.908-.574l2.326-.293 9.296-1.014c3.54-.323 7.083-.555 10.63-.772 1.045-.062 1.058-1.689 0-1.636-6.58.325-13.171.974-19.695 1.881-1.485.208-3.142.265-4.535.855-1.235.523-2.054 1.604-2.63 2.778-1.281 2.61-1.66 5.515-1.741 8.39-.094 3.276.156 6.552-.117 9.815-.052.595.967.743 1.053.142h-.002zm6.512-16.572c1.196.908 2.12 2.604 1.605 4.069-.407 1.159-1.119 2.243-1.387 3.446-.111.504-.097.972.332 1.31.772.613 1.939.335 2.833.254l7.075-.644 7.945-.805c.788-.086.811-1.321 0-1.248l-13.714 1.284c-1.061.108-2.168.324-3.229.24-.325-.025.037-.034-.058.126.028-.048.008-.128.011-.14.061-.246.134-.488.22-.725.409-1.111 1.058-2.198 1.271-3.371.328-1.796-.987-3.714-2.363-4.716-.563-.41-1.081.516-.541.927v-.006zm-14.529 55.827c2.198-8.309 4.056-16.706 5.687-25.146l1.316-7.176c.128-.803-1.081-1.167-1.248-.342l-2.399 12.616-2.678 12.673-1.577 7.125c-.129.58.741.827.895.246l.005.004zm42.553-2.315c-1.361-7.978-2.944-15.9-4.799-23.77l-1.63-6.652c-.239-.925-1.657-.533-1.429.393l5.471 23.611 1.426 6.689c.131.633 1.067.359.961-.264v-.007zm-7.161-55.098a3.05 3.05 0 0 1 .677 2.042c0 .719 1.092.718 1.114 0a4.06 4.06 0 0 0-1.067-2.763c-.434-.499-1.144.225-.722.721h-.002zM72.456 77.037c.208-1.025-.248-1.884-.694-2.777-.493-.983-.641-1.97.388-2.671s2.526-.686 3.727-.736c1.477-.061 2.955.014 4.429.087.972.05.974-1.471 0-1.513l-4.849-.027c-1.418.105-3.016.282-4.167 1.197-.963.764-1.445 1.984-1.045 3.178.349 1.041 1.385 1.977 1.248 3.133-.066.546.852.668.961.129h.002z" class="B"/><g class="D"><path d="M49.251 12.215a12.38 12.38 0 0 0 3.529-4.772l3.304 5.817c-2.117 1.172-3.033 3.12-3.744 5.313-.596-1.326-.922-5.555-3.067-6.415"/><path d="M49.608 12.571a12.86 12.86 0 0 0 3.661-4.836h-.978l3.276 5.841.217-.825c-2.184 1.228-3.295 3.363-4.056 5.664l1.168-.156c-.435-1.02-.59-2.412-.977-3.54-.451-1.315-1.123-2.616-2.474-3.165-.66-.268-1.143.864-.488 1.161 1.109.502 1.56 1.821 1.884 2.902s.496 2.242.95 3.287c.236.541 1.017.312 1.17-.156.646-2.001 1.541-3.872 3.432-4.962.136-.083.235-.216.275-.37s.019-.318-.059-.457l-3.341-5.8c-.267-.468-.858-.289-1.034.134a12.25 12.25 0 0 1-3.338 4.565c-.495.426.217 1.117.711.711l.002.003zM81.937 9.14c.602-.285.975-.899 1.239-1.51s.468-1.265.864-1.794a13.66 13.66 0 0 0 1.638 3.239c-.59.083-.906.719-1.122 1.274l-.504 1.29a2.84 2.84 0 0 0-1.493-2.012"/><path d="M82.169 9.536c1.404-.643 1.56-2.265 2.396-3.393l-1.114-.147c.406 1.221.994 2.315 1.615 3.432l.423-1.036c-1.338.29-1.705 1.962-2.131 3.054h1.388c-.104-.516-.323-1.001-.642-1.42a3.48 3.48 0 0 0-1.198-.997c-.78-.398-1.469.741-.696 1.19a2.35 2.35 0 0 1 1.147 1.608c.156.766 1.156.599 1.388 0l.524-1.345c.125-.295.257-.651.594-.729.565-.129.624-.796.312-1.182-.68-.838-1.168-1.895-1.549-2.9a.62.62 0 0 0-.512-.424.63.63 0 0 0-.342.052c-.107.049-.198.127-.262.226-.671.983-.733 2.554-1.806 3.217-.512.312-.066 1.033.468.792h-.005zm.09 9.122c.192-.443.357-1.045.66-1.424l-.819-.217a6.19 6.19 0 0 0 1.231 2.299l.128-.997a3.32 3.32 0 0 0-1.198 1.326h1.125l-.646-.983c-.468-.679-1.576-.067-1.128.658l.649.981c.25.371.902.468 1.125 0 .155-.354.402-.66.715-.886.328-.234.438-.686.128-.997a6.77 6.77 0 0 1-1.236-1.78c-.245-.482-.859-.184-.914.248-.061.477-.379 1.016-.562 1.459s.557.732.738.312h.005z"/></g><path d="M58.386 120.569l2.184 1.56c.345.245.68-.329.332-.568l-2.223-1.507c-.312-.213-.598.289-.296.507l.003.008z" class="B"/><g class="D"><path d="M61.546 118.404c.924-3.71 2.85-7.135 4.599-10.508 1.651-3.242 3.464-6.4 5.432-9.46 1.997-3.058 4.212-5.978 6.763-8.6 2.616-2.694 5.56-5.045 8.642-7.176 3.451-2.387 7.073-4.504 10.674-6.641.381-.226.036-.819-.348-.594-6.502 3.777-13.085 7.681-18.503 12.959-5.312 5.173-9.218 11.544-12.623 18.085a199.53 199.53 0 0 0-2.847 5.671c-.947 1.972-1.806 3.989-2.288 6.129-.073.322.413.459.495.138l.006-.002z"/><path d="M63.336 123.708a86.9 86.9 0 0 1 10.563-21.372A78.96 78.96 0 0 1 90.36 84.613c3.844-3.022 7.973-5.524 12.247-7.878.359-.197.044-.718-.312-.543-3.911 1.888-7.616 4.32-11.076 6.93-3.336 2.508-6.463 5.282-9.351 8.295a81.82 81.82 0 0 0-13.853 19.67 89.02 89.02 0 0 0-5.117 12.508c-.09.276.342.393.432.12l.005-.006zm3.625 2.574c5.492-15.001 14.891-28.264 27.225-38.417a91.72 91.72 0 0 1 11.039-7.725c.351-.211.034-.757-.323-.551-6.942 4.017-13.291 9.143-18.841 14.921a89.38 89.38 0 0 0-14.099 19.26 86 86 0 0 0-5.505 12.371c-.114.321.395.457.51.14h-.005zm4.408 2.657c4.745-11.321 10.018-23.088 19.793-30.997a36.82 36.82 0 0 1 8.268-5.022c.301-.134.083-.666-.228-.54-11.399 4.644-18.876 15.544-23.935 26.278-1.573 3.332-2.984 6.735-4.368 10.14-.12.297.357.421.477.133l-.008.008zm40.53-46.371c.22-.163.422-.349.603-.555l.59-.602c.278-.296-.165-.743-.448-.448l-.569.624a3.88 3.88 0 0 0-.524.633c-.027.049-.038.105-.03.16a.26.26 0 0 0 .218.218c.055.008.111-.003.16-.03zM55.01 115.85c3.381-10.478 9.157-20.279 16.492-28.462a83.84 83.84 0 0 1 6.575-6.536c.325-.29-.156-.758-.477-.468-8.379 7.288-15.132 16.517-19.695 26.631a83.38 83.38 0 0 0-3.324 8.725c-.089.274.342.391.429.118v-.008zm26.625-38.073c.069-.005.134-.036.181-.087s.073-.117.073-.187-.026-.136-.073-.187-.112-.082-.181-.087c-.069.005-.133.036-.181.087a.27.27 0 0 0-.073.187c0 .07.026.136.073.187s.112.082.181.087zm-30.674 33.376a76.6 76.6 0 0 1 14.13-21.718l5.254-5.128c.312-.275-.144-.722-.452-.452a73.14 73.14 0 0 0-16.247 20.5 70.9 70.9 0 0 0-3.092 6.627c-.095.231.312.404.407.171zm22.903-30.705a.26.26 0 1 0 0-.521.26.26 0 1 0 0 .521zm-24.869 27.52c1.342-3.042 3.037-5.915 5.05-8.56.165-.22-.207-.51-.385-.296a32.27 32.27 0 0 0-5.061 8.685c-.09.225.298.391.396.167v.005zm8.48-13.226c.076 0 .148-.03.202-.084s.084-.126.084-.202-.03-.148-.084-.202-.126-.084-.202-.084-.148.03-.202.084-.084.126-.084.202.03.148.084.202.126.084.202.084z"/></g><path d="M47.832 135.014c1.041.156.817 1.461.741 2.202-.036.356.343.699.682.682a3.07 3.07 0 0 1 3.093 2.184c.256.842 1.56.491 1.324-.365-.519-1.927-2.434-3.288-4.418-3.189l.683.682c.14-1.404-.228-3.223-1.956-3.312-.624-.033-.78 1.019-.156 1.109l.006.007zm-15.64-14.14c.686.995.281 2.272-.064 3.322-.101.312.118.74.452.797a2.77 2.77 0 0 1 1.686.936c.446.531.574 1.146.711 1.805.117.559 1.066.589 1.159 0 .301-1.893-1.404-3.73-3.212-3.998l.452.797c.442-1.463.754-3.074-.312-4.346-.402-.483-1.248.156-.878.679l.005.008zm8.641 17.481c-1.197.396-1.702 1.675-1.445 2.858.285 1.313 1.482 2.152 2.546 2.825a60.01 60.01 0 0 0 8.424 4.472 45.53 45.53 0 0 0 8.837 2.827 38.41 38.41 0 0 0 4.775.669c1.493.114 3.012.169 4.493-.104 1.526-.281 2.942-1.003 3.856-2.282.866-1.211 1.106-2.712.485-4.078-.312-.668-1.484-.184-1.2.505.409.988.156 2.042-.468 2.883-.729.972-1.872 1.441-3.039 1.655-1.257.229-2.571.156-3.839.077a35.33 35.33 0 0 1-3.944-.493c-5.304-.971-10.36-3.038-15.046-5.677-1.223-.69-2.552-1.367-3.646-2.256-.456-.37-.936-.861-1.017-1.469-.059-.439.076-1.082.537-1.269.686-.279.426-1.39-.312-1.143h.002zM26.078 123.24c-1.351 0-2.173 1.362-1.987 2.604.223 1.502 1.51 2.794 2.485 3.881a28.55 28.55 0 0 0 7.176 5.772c1.524.863 3.153 1.665 4.836 2.155.878.254 1.168-1.008.368-1.334l-4.568-2.089a29.55 29.55 0 0 1-4.086-2.777 28.32 28.32 0 0 1-3.555-3.422c-.551-.624-1.218-1.322-1.457-2.145-.175-.603 0-1.599.78-1.631.651-.025.657-1.014 0-1.015l.008.001zM15.054 64.614V51.499l-.013-3.306c0-.833-.156-2.051.889-2.29.49-.112 1.033-.086 1.532-.114l1.616-.09 3.229-.178c1.977-.109 4.039-.299 5.959.298.423.131 1.092.289 1.248.767s.02 1.103 0 1.58l-.087 3.313-.179 6.511-.092 3.31-.044 1.544c-.016.563.061 1.217-.048 1.766-.078.396-.206.468-.613.46l-.877-.034-1.872-.073-3.621-.143-7.462-.251c-.468.008-.446.666 0 .707 2.435.229 4.906.223 7.351.312l3.622.133 1.755.064c.537.019 1.13.115 1.663.033 1.008-.156.802-1.331.822-2.089l.1-3.752.195-7.284.101-3.752.047-1.766c0-.421-.008-.856-.264-1.212-.505-.702-1.702-.936-2.496-1.078-1.026-.172-2.068-.235-3.108-.186l-7.065.395c-.827.048-1.903-.045-2.513.636-.563.632-.501 1.568-.496 2.354l.156 16.536c0 .073.029.144.081.195a.28.28 0 0 0 .195.081c.073 0 .143-.029.195-.081s.081-.122.081-.195l.011-.008z" class="B"/><path d="M16.682 62.235l-.066-12.659c0-.491.028-1.056.416-1.359.257-.2.604-.226.936-.245l4.806-.273c1.546-.087 3.157-.164 4.577.454.187.065.353.181.477.335.147.209.145.484.137.738L27.612 62.4a.57.57 0 0 1-.075.321c-.108.143-.312.156-.494.143l-10.477-.398" class="D"/><g class="C"><path d="M16.255 59.01l1.47-1.774.668-.806a2.44 2.44 0 0 1 .312-.376c.228-.179.278-.13.457-.011.299.2.565.624.81.891l.814.886.742.805c.189.204.378.485.658.568.538.156.884-.398 1.206-.732a12.55 12.55 0 0 1 1.63-1.434c.555-.406.908-.432 1.434.011.384.324.721.693 1.189.897s.849-.442.393-.672c-.842-.429-1.468-1.582-2.554-1.36-.566.115-1.055.573-1.488.928a11.9 11.9 0 0 0-.881.792c-.201.198-.593.799-.881.844l.298.039c-.367-.167-.716-.685-.991-.975l-.978-1.031c-.399-.42-.973-1.34-1.633-1.295-.624.042-1.034.835-1.381 1.267l-1.702 2.129c-.229.287.169.697.409.409zm6.52-6.892c-.535.066-.856.769-.59 1.239s.986.574 1.404.234a1 1 0 0 0 .287-1.134.94.94 0 0 0-.42-.446c-.186-.098-.399-.129-.605-.091"/><path d="M22.776 51.887c-.624-.02-1.065.672-.995 1.248.079.661.739 1.066 1.373.998a1.32 1.32 0 0 0 .884-.505 1.32 1.32 0 0 0 .262-.984c-.026-.175-.087-.342-.18-.492s-.216-.279-.36-.38a1.29 1.29 0 0 0-.482-.206c-.173-.035-.351-.034-.524.002-.401.083-.312.771.098.724.32-.036.669.09.727.449a.61.61 0 0 1-.108.455.61.61 0 0 1-.399.244c-.742.1-.863-.833-.234-1.092.052-.016.097-.051.127-.097s.041-.102.034-.156-.034-.104-.075-.141-.093-.058-.148-.06v-.006z"/></g><path d="M17.803 45.459c1.292-1.036 2.473-2.202 3.526-3.48l1.426-1.9c.156-.243.343-.495.296-.803a.75.75 0 0 0-.103-.281l-.156-.192c-.033-.109.014-.106.139.012a.39.39 0 0 0-.107.266c0 .099.038.194.107.266l3.072 3.399 1.465 1.618c.526.582 1.03 1.248 1.632 1.758.287.242.805-.073.56-.432-.424-.624-.998-1.153-1.501-1.708l-1.54-1.696-3.156-3.471v.532c.431-.529.186-1.523-.624-1.452a.86.86 0 0 0-.716.599c-.14.424.287.736.147 1.084-.198.485-.68.981-.997 1.396l-1.223 1.479a29.42 29.42 0 0 1-2.635 2.621c-.267.235.117.601.384.385h.005zm-2.56-11.718c-2.666-1.164-3.781-4.55-4.331-7.176-.658-3.142-.694-6.915 1.231-9.641 1.845-2.611 5.66-3.379 8.413-1.769 1.668.977 2.527 2.763 3.064 4.551.611 1.962.784 4.034.507 6.07-.594 4-3.448 7.644-7.572 8.33-.516.087-.298.875.217.788 3.878-.655 6.864-3.884 7.844-7.6.558-2.112.526-4.356.072-6.483-.421-1.972-1.178-4.125-2.713-5.512-2.48-2.239-6.566-2.184-9.114-.094-2.905 2.379-3.268 6.708-2.772 10.17a17.73 17.73 0 0 0 1.538 5.21c.738 1.524 1.816 2.955 3.416 3.627.27.114.468-.359.2-.476v.005z" class="B"/><path d="M15.648 31.721c-2.463-1.011-3.538-5.086-3.721-7.426-.181-2.289.164-4.796 1.755-6.446 1.909-1.984 5.524-2.028 7.355.031.638.716 1.045 1.607 1.345 2.516.769 2.34.853 4.958-.095 7.231s-3.014 4.126-5.44 4.508" class="D"/><g class="B"><path d="M33.401 41.133l-.098-5.85-.371.285c1.962.386 3.96.561 5.959.524l3.061-.041c.503.021 1.002.096 1.488.225.392.109.515.212.593.624a5.55 5.55 0 0 1 .039.722l.086 1.544c.022.396.095.849-.017 1.237-.156.548-.632.558-1.114.594l-1.602.094c-2.104.085-4.211.033-6.309-.156-.494-.045-.491.728 0 .772 1.955.171 3.918.223 5.88.156.874-.031 1.791-.025 2.652-.181.298-.04.576-.173.793-.381s.364-.479.417-.775c.156-.766 0-1.615-.053-2.385l-.087-1.34c-.023-.32-.05-.632-.312-.853-.529-.445-1.495-.501-2.154-.552-.908-.073-1.819-.011-2.728.016-2.184.062-4.345-.142-6.515-.415-.078 0-.152.031-.207.086s-.086.13-.086.207l.218 5.85c.013.298.468.301.468 0v-.008z"/><path d="M35.817 35.905a14.72 14.72 0 0 0 1.983-2.104c.236-.312.496-.66.446-1.073a.86.86 0 0 0-.19-.437c-.112-.143-.335-.242-.325-.446-.022-.147.066-.229.267-.248a.43.43 0 0 1 .183.221c.034.092.034.194.001.287-.007.203.005.406.036.607a2.58 2.58 0 0 0 .544.927c.655.794 1.388 1.532 2.115 2.26.342.343.875-.189.532-.532l-1.275-1.315c-.396-.424-.947-.885-1.161-1.435-.176-.456.073-.944-.262-1.357a1.01 1.01 0 0 0-.986-.351c-.68.156-.914 1.069-.454 1.568.156.156.19.106.276.324s0 .328-.139.541a9.62 9.62 0 0 1-.64.811c-.409.49-.847.956-1.301 1.404-.228.225.112.557.348.349v-.002zM13.345 14.871l2.973-3.909.793-1.058c.156-.204.409-.448.402-.729a.52.52 0 0 0-.197-.382.85.85 0 0 0-.228-.123.97.97 0 0 0-.13-.05l-.062-.023c0 .037.312-.178.381-.218.187-.103.574-.256.761-.041s.091.725.134.986c.115.682.459 1.293.808 1.872l2.615 4.357c.248.413.897.036.646-.378l-2.964-4.912c-.239-.424-.393-.891-.452-1.374a2.13 2.13 0 0 0-.184-.824c-.289-.523-.867-.593-1.381-.382-.381.156-1.115.546-1.008 1.061a.59.59 0 0 0 .138.252c.066.072.149.125.241.156.033.016.265.07.275.103-.025-.089-.417.459-.454.509l-3.487 4.805c-.156.225.212.516.384.296l-.005.008z"/></g><path d="M12.558 28.053c.011-.455.117-.903.311-1.314s.472-.779.815-1.077a3.19 3.19 0 0 1 1.236-.663c.385-.111.78-.181 1.128-.402.674-.434.81-1.181.365-1.831-.237-.349-.524-.624-.541-1.076-.008-.245.048-.487.164-.703s.286-.397.494-.525c.87-.52 1.958-.031 2.39.817s.011 1.783.449 2.615c.351.671.998 1.103 1.496 1.652a3.26 3.26 0 0 1 .78 2.799c-.089.468.636.677.727.2.312-1.647-.357-2.964-1.535-4.068-.287-.241-.541-.519-.755-.827-.289-.468-.184-.947-.218-1.465a2.94 2.94 0 0 0-.831-1.888c-.983-.97-2.789-.969-3.53.296a1.99 1.99 0 0 0-.115 1.838c.156.338.583.641.646 1.014.122.715-1 .838-1.457.995-.741.262-1.379.754-1.821 1.404s-.663 1.425-.633 2.21c0 .058.023.113.064.154s.096.064.154.064.114-.023.154-.064.064-.096.064-.154z" class="C"/><defs ><path id="B" d="M109.685 20.802c-.329 1.973-.922 3.845-1.421 5.777-.261.93-.353 1.899-.271 2.861l.204 1.323c.076.374.343.888.123 1.239-.206.326-.591.587-.884.827l-1.058.867c-.674.516-1.462 1.157-2.313 1.337s-1.436-.289-1.657-1.081c-.233-.831-.02-1.702.115-2.532.148-.905.312-1.927-.156-2.774-.344-.624-.983-.964-1.605-1.259a4.51 4.51 0 0 1-1.823-1.52c-.461-.66-.738-1.432-.8-2.235-.299-3.349 2.184-6.92 5.505-7.611 1.506-.312 3.237-.012 4.479.924 1.279.966 1.52 2.488 1.34 3.998-.047.39.365.718.721.721.429 0 .671-.335.721-.721.213-1.688-.108-3.443-1.34-4.689-1.128-1.143-2.785-1.716-4.368-1.814-4.056-.24-7.548 3.073-8.379 6.904-.427 1.972-.145 4.101 1.131 5.711a5.78 5.78 0 0 0 2.14 1.649c.297.142.666.278.889.53.312.36.237.945.188 1.387-.211 1.844-.84 4.17.998 5.449s4.039-.368 5.46-1.552c.76-.633 1.951-1.404 2.137-2.441.102-.571-.134-1.122-.253-1.669-.146-.617-.218-1.25-.215-1.884.028-1.296.499-2.529.807-3.775a28.75 28.75 0 0 0 .624-3.802c.064-.59-.938-.73-1.038-.143z"/></defs></svg>