<svg xmlns="http://www.w3.org/2000/svg" width="100" height="100" fill="none"><path fill="#232323" d="M77.2 89.982a257.294 257.294 0 0 0-3.117-15.233 200.681 200.681 0 0 0-1.057-4.261c-.154-.592-1.063-.342-.916.252a675.617 675.617 0 0 1 3.549 15.126c.318 1.426.627 2.855.926 4.286.084.405.684.229.615-.17Z"/><path fill="#fff" d="M85.112 23.489c1.461.22 2.974.147 4.387.58 2.636.808 3.192 3.132 3.364 5.546.225 3.144.4 6.3.4 9.448.01 5.714-.527 11.412-1.236 17.077-.323 2.587-.577 5.218-1.2 7.741-.445 1.8-.534 4.133-2.021 5.459-.78.7-1.817 1.016-2.825 1.289a57.22 57.22 0 0 1-15.9 1.976c-5.4-.092-9.641-2.4-14.541-4.522"/><path fill="#232323" d="M85.038 23.756c2.32.352 5.311.06 6.642 2.432.478.853.665 1.848.76 2.811.143 1.443.2 2.9.272 4.35.3 6.173.029 12.323-.624 18.467-.318 2.991-.646 6-1.112 8.97-.208 1.323-.536 2.615-.792 3.93-.211 1.08-.373 2.221-.883 3.21-.581 1.128-1.59 1.7-2.77 2.061-1.391.428-2.826.746-4.253 1.033-2.92.586-5.881.941-8.857 1.062-1.449.06-2.913.1-4.36-.005a20.62 20.62 0 0 1-3.968-.694c-2.579-.7-5.017-1.816-7.452-2.9-.616-.275-1.234-.549-1.854-.816-.241-.1-.515-.07-.661.173-.122.2-.066.558.173.661 2.575 1.118 5.1 2.36 7.762 3.273 1.289.45 2.613.794 3.959 1.026 1.446.241 2.894.3 4.358.293a57.805 57.805 0 0 0 13.806-1.772c1.3-.33 2.7-.648 3.773-1.506.92-.735 1.413-1.84 1.707-2.954.306-1.155.5-2.348.755-3.515.666-3.028.941-6.152 1.3-9.228.736-6.367 1.124-12.74.848-19.149-.067-1.6-.161-3.197-.284-4.792-.082-1.11-.169-2.24-.53-3.3-.322-.949-.86-1.8-1.673-2.4-1.042-.77-2.364-.963-3.622-1.06-.757-.058-1.516-.088-2.268-.192-.348-.047-.5.482-.148.535l-.004-.004Z"/><path fill="#fff" d="M61.788 39.51c2.178-.817 4.7-.092 6.565 1.293 2.207 1.635 5.417 5.248 5.88 8.078.461 2.83-2.249 6.179-4.224 7.891-2.4 2.083-5.432 3.36-8.546 4.007-2.284.475-4.628.626-6.906 1.135-3.224.721-5.77 2.256-7.574 5.043-2.515 3.887-4.924 7.845-7.368 11.777a2063.888 2063.888 0 0 1-3.93 6.3c-1.564 2.486-3.045 3.266-5.974 1.912l-7.1-3.28c-1.445-.668-3.183-1.574-4.1-2.94-.475-.712-.663-1.682-.24-2.426.343-.606 1.022-.954 1.704-1.1.682-.146 1.386-.12 2.082-.168 2.98-.209 4.638-1.353 6.044-3.884 2.8-5.039 5.831-9.985 9.6-14.349 3.77-4.364 10.482-10.755 17.73-11.873"/><path fill="#232323" d="M61.876 39.827c2.28-.825 4.725.033 6.548 1.485a18.591 18.591 0 0 1 4.224 4.762c.513.837.962 1.737 1.159 2.706.197.97-.031 1.991-.414 2.9-.82 1.941-2.3 3.654-3.911 4.988-1.92 1.59-4.235 2.662-6.627 3.323-2.67.738-5.448.861-8.152 1.426-2.112.441-4.127 1.268-5.8 2.653-1.913 1.585-3.115 3.86-4.421 5.93-3.086 4.895-6.09 9.84-9.177 14.734-.472.75-1.01 1.54-1.78 2.011-.665.407-1.423.452-2.171.28-1.222-.282-2.362-.937-3.493-1.46l-3.931-1.819c-1.114-.514-2.248-1-3.28-1.675-.89-.58-1.9-1.4-2.1-2.508-.233-1.3.98-1.869 2.074-1.97 1.15-.109 2.29-.083 3.417-.389 1.856-.5 3.238-1.748 4.226-3.368.67-1.1 1.267-2.248 1.917-3.36a118.42 118.42 0 0 1 2.078-3.424C34.83 63 37.742 59.164 41.18 55.8c3.213-3.14 6.924-6.036 11.184-7.594a16.95 16.95 0 0 1 3.185-.844c.575-.09.33-.965-.241-.875-4.736.748-8.923 3.437-12.5 6.507-3.621 3.1-6.741 6.752-9.458 10.662-1.584 2.28-3.038 4.648-4.423 7.054-1.054 1.832-1.94 4.007-3.89 5.066-.845.46-1.81.671-2.761.754-1.266.11-2.653-.028-3.733.775-1.04.773-1.2 2.082-.687 3.22.488 1.081 1.518 1.886 2.5 2.5 1.078.672 2.257 1.17 3.408 1.7l4.123 1.9c1.839.848 4.03 2.136 6.035 1 .822-.466 1.437-1.232 1.956-2 .807-1.2 1.545-2.45 2.309-3.678 1.596-2.564 3.186-5.13 4.77-7.7.78-1.26 1.562-2.518 2.349-3.774.765-1.218 1.508-2.462 2.33-3.642a10.736 10.736 0 0 1 5.119-3.91c2.569-.95 5.348-1.078 8.023-1.56 2.555-.46 5.063-1.3 7.288-2.652A16.34 16.34 0 0 0 73.037 54c1.208-1.765 2.07-3.892 1.384-6.022-.672-2.09-2.134-3.939-3.641-5.5-1.554-1.607-3.371-3.047-5.617-3.49-1.156-.23-2.348-.2-3.462.206-.4.143-.225.778.175.634Z"/><path fill="#fff" d="M33.312 76.061c-2.3-1.564-4.676-3.213-6.045-5.633-.431-.76-.7-1.838-.047-2.418.435-.385 1.082-.36 1.641-.516 1.6-.444 2.65-2.773 3.523-4.025a61.367 61.367 0 0 1 3.872-5.013c2.868-3.322 6.131-6.4 9.864-8.736 1.985-1.24 4.13-2.273 6.407-2.842 1.075-.268 1.955-.359 2.775-1.173.748-.74 1.2-1.738 2.048-2.389.688-.527 1.57-.757 2.437-.78 2.818-.074 5.564 2.331 5.579 5.15.011 2.106-1.347 4.01-3 5.312-1.653 1.303-3.616 2.147-5.437 3.2-5.16 3-9.113 7.65-12.958 12.21-1.528 1.812-3.066 3.64-4.2 5.721-.539.992-.994 2.054-1.762 2.881s-1.964 1.384-3.036 1.03"/><path fill="#232323" d="M33.478 75.777c-1.42-.968-2.827-1.954-4.046-3.173a11.192 11.192 0 0 1-1.6-1.97c-.344-.55-.81-1.353-.555-2.026.268-.71 1.34-.575 1.929-.8.622-.242 1.135-.693 1.564-1.195.94-1.1 1.6-2.415 2.447-3.588 2.194-3.05 4.658-5.922 7.419-8.475 2.667-2.466 5.657-4.694 9-6.167.86-.38 1.747-.695 2.654-.943.735-.2 1.5-.31 2.2-.613.769-.33 1.319-.9 1.817-1.559.498-.659.946-1.376 1.683-1.79 2.662-1.5 6.238.657 6.82 3.461.322 1.55-.363 3.142-1.338 4.32-1.113 1.343-2.6 2.256-4.115 3.08-1.6.87-3.206 1.7-4.7 2.75a36.671 36.671 0 0 0-4 3.283c-2.587 2.422-4.876 5.138-7.157 7.845-1.206 1.43-2.411 2.873-3.424 4.45-.5.776-.91 1.592-1.343 2.405-.4.751-.851 1.522-1.543 2.043-.6.454-1.353.71-2.095.492-.562-.165-.8.7-.241.874 1.793.558 3.4-.756 4.294-2.185.5-.8.884-1.667 1.363-2.479a24.968 24.968 0 0 1 1.67-2.452c1.17-1.534 2.445-2.993 3.7-4.459 1.21-1.416 2.442-2.814 3.738-4.153 2.573-2.656 5.393-4.99 8.659-6.747 3.042-1.635 6.829-3.529 7.48-7.318.552-3.2-1.977-6.16-5.114-6.582a5.269 5.269 0 0 0-2.494.241c-.87.32-1.515.89-2.074 1.617-.511.664-.96 1.431-1.711 1.854-.707.4-1.562.485-2.335.7-3.738 1.026-7.112 3.2-10.075 5.65-2.963 2.45-5.6 5.322-7.946 8.37a55.738 55.738 0 0 0-2.98 4.308c-.39.617-.806 1.233-1.353 1.723a2.515 2.515 0 0 1-.763.488c-.4.151-.831.158-1.235.281-.77.234-1.254.86-1.236 1.672.018.813.423 1.547.864 2.2.977 1.45 2.293 2.6 3.693 3.631.7.518 1.424 1.014 2.148 1.506.35.24.68-.33.332-.568l-.001-.002Z"/><path fill="#fff" d="M61.788 39.51c2.178-.817 4.7-.092 6.565 1.293 2.207 1.635 5.417 5.248 5.88 8.078.461 2.83-2.249 6.179-4.224 7.891-2.4 2.083-5.432 3.36-8.546 4.007-2.284.475-4.628.626-6.906 1.135-3.224.721-5.77 2.256-7.574 5.043-2.515 3.887-4.924 7.845-7.368 11.777"/><path fill="#232323" d="M61.876 39.827c4.01-1.448 7.75 2.13 9.932 5.081 1.01 1.368 2.118 3.09 2.017 4.864-.107 1.88-1.325 3.654-2.525 5.028-2.871 3.31-6.928 5.03-11.181 5.736-2.362.393-4.791.55-7.083 1.286-1.8.577-3.467 1.51-4.817 2.838-.731.72-1.33 1.541-1.883 2.4-.69 1.07-1.373 2.144-2.05 3.223a479.413 479.413 0 0 0-4.062 6.554c-.336.554-.668 1.111-1 1.666-.3.5.469.948.783.458 1.435-2.243 2.827-4.514 4.236-6.774.698-1.12 1.4-2.237 2.109-3.35.618-.972 1.2-1.983 1.96-2.856a10.852 10.852 0 0 1 4.736-3.144c2.318-.792 4.79-.956 7.194-1.347 4.4-.716 8.635-2.5 11.624-5.9 1.3-1.479 2.526-3.275 2.809-5.265.267-1.873-.608-3.637-1.634-5.148a19.58 19.58 0 0 0-3.976-4.32c-1.644-1.3-3.71-2.217-5.848-2a6.311 6.311 0 0 0-1.517.336c-.4.143-.225.778.175.634Z"/><path fill="#fff" d="M64.286 42.053c2.007-1.176 4.611-.891 6.689.155 2.453 1.235 6.232 4.248 7.17 6.958.938 2.71-1.162 6.47-2.817 8.495-2.013 2.462-4.779 4.237-7.737 5.406-2.17.857-4.454 1.406-6.611 2.3-3.055 1.26-5.3 3.207-6.6 6.26-1.815 4.259-3.515 8.57-5.252 12.86-.93 2.295-1.863 4.588-2.8 6.879-1.117 2.716-2.444 3.736-5.561 2.9l-7.558-2.021c-1.537-.412-3.405-1.008-4.536-2.2-.589-.621-.94-1.545-.651-2.35.235-.656.846-1.115 1.493-1.374.647-.26 1.345-.354 2.022-.521 2.9-.713 4.34-2.123 5.294-4.857 1.9-5.442 4.043-10.833 7.011-15.775s8.5-12.385 15.446-14.722"/><path fill="#232323" d="M64.452 42.337c2.139-1.22 4.726-.726 6.78.419a18.528 18.528 0 0 1 5.032 4.095c.628.737 1.229 1.577 1.523 2.511.31.99.19 2.054-.081 3.039-.574 2.078-1.794 4.04-3.25 5.618-1.662 1.8-3.736 3.176-5.962 4.188-2.531 1.15-5.276 1.718-7.835 2.795-1.965.828-3.775 2.033-5.106 3.719-.68.874-1.24 1.835-1.666 2.857a362.131 362.131 0 0 0-1.7 4.062c-1.121 2.726-2.214 5.463-3.32 8.2l-1.658 4.091c-.516 1.268-.987 2.57-1.574 3.807-.333.7-.752 1.448-1.414 1.887-.63.418-1.365.489-2.1.418-.556-.053-1.1-.2-1.635-.349l-2.16-.578-4.25-1.137c-1.152-.308-2.324-.6-3.4-1.119-.948-.46-2.076-1.172-2.257-2.3-.21-1.3 1.21-1.828 2.22-2.059 1.088-.248 2.154-.486 3.154-1 1.724-.886 2.78-2.448 3.434-4.231.942-2.571 1.847-5.148 2.919-7.668 1.856-4.368 4.1-8.571 6.917-12.4 2.578-3.5 5.67-6.812 9.469-8.993a16.346 16.346 0 0 1 2.873-1.322c.55-.186.314-1.063-.241-.874-4.383 1.487-7.964 4.634-10.911 8.118-3.026 3.574-5.5 7.591-7.52 11.809-1.234 2.579-2.314 5.232-3.308 7.912-.457 1.231-.83 2.511-1.355 3.713-.372.853-.868 1.648-1.561 2.276-.693.628-1.54 1.027-2.416 1.3-1.22.38-2.6.425-3.646 1.231-1.03.794-1.26 2.058-.69 3.209.523 1.057 1.642 1.757 2.683 2.225 1.15.517 2.368.828 3.582 1.153l4.454 1.191c1.907.51 4.349 1.525 6.206.321.733-.475 1.253-1.2 1.648-1.968.617-1.2 1.067-2.493 1.574-3.738 1.162-2.857 2.316-5.717 3.463-8.581 1.13-2.816 2.243-5.644 3.458-8.425a10.843 10.843 0 0 1 4.252-4.916c2.3-1.426 4.973-2.037 7.5-2.926 2.473-.871 4.818-2.064 6.845-3.742a16.256 16.256 0 0 0 4.278-5.457c.942-1.961 1.554-4.25.566-6.31-.966-1.994-2.766-3.593-4.515-4.888-1.825-1.354-3.88-2.486-6.2-2.559a6.456 6.456 0 0 0-3.427.808c-.368.21-.037.778.332.568h-.004Z"/><path fill="#fff" d="M57.772 49.276c-6.95 2.337-12.479 9.78-15.446 14.722-1.632 2.718-3.016 5.577-4.246 8.5-.519 1.234-.867 2.937-1.77 3.915-.81.879-2.133 1.146-1.46 2.8.421 1.033 1.435 1.68 2.4 2.239a70.232 70.232 0 0 0 3.912 2.1c2.316 1.156 5.256 1.787 7.807 2.265 1.762-4.764 3.407-9.507 5.406-14.2 1.3-3.053 3.55-5 6.6-6.26 2.157-.89 4.441-1.438 6.611-2.3 2.958-1.17 5.724-2.944 7.737-5.406 1.655-2.024 3.754-5.787 2.817-8.495-.937-2.708-4.717-5.723-7.17-6.958-2.078-1.046-4.682-1.331-6.689-.155"/><path fill="#232323" d="M57.684 48.959c-3.328 1.129-6.218 3.254-8.7 5.707-2.365 2.341-4.407 5.005-6.205 7.8a57.348 57.348 0 0 0-2.865 5.006c-.968 1.9-1.931 3.855-2.632 5.872-.291.836-.555 1.711-1.064 2.446-.385.557-.986.856-1.453 1.326-1.321 1.325-.053 3.146 1.139 4.03.817.606 1.742 1.079 2.631 1.566.973.533 1.954 1.072 2.967 1.524 1.873.835 3.872 1.343 5.874 1.758.487.1.974.195 1.462.288a.5.5 0 0 0 .592-.337c.941-2.545 1.856-5.1 2.808-7.642.467-1.25.946-2.494 1.439-3.734.47-1.18.913-2.393 1.5-3.522a10.669 10.669 0 0 1 3.908-4.188c2.049-1.263 4.4-1.878 6.669-2.625 2.269-.747 4.44-1.676 6.4-3.034a16.964 16.964 0 0 0 4.533-4.578c1.114-1.685 2.07-3.669 2.168-5.718.093-1.971-1-3.626-2.285-5.024a19.79 19.79 0 0 0-4.757-3.774c-1.873-1.066-4.114-1.633-6.244-1.075a6.244 6.244 0 0 0-1.513.629c-.507.29-.051 1.074.457.784 1.9-1.086 4.328-.768 6.216.183 1.678.845 3.224 2.016 4.562 3.33 1.23 1.207 2.556 2.741 2.6 4.556.044 1.958-.917 3.89-1.956 5.493a15.782 15.782 0 0 1-4.318 4.394c-1.917 1.319-4.041 2.22-6.247 2.943-2.206.723-4.492 1.344-6.511 2.525a11.766 11.766 0 0 0-4.083 3.932c-.592.956-1 2-1.429 3.042-.498 1.211-.98 2.43-1.447 3.658-.936 2.447-1.824 4.912-2.724 7.372a512.38 512.38 0 0 1-.668 1.818l.593-.336c-1.965-.366-3.935-.776-5.826-1.434-1.948-.678-3.775-1.72-5.554-2.743-.752-.429-1.569-.871-2.107-1.57-.357-.463-.707-1.211-.285-1.734.383-.475.971-.747 1.371-1.211.559-.649.885-1.454 1.17-2.251.307-.861.6-1.713.963-2.553.423-.984.867-1.96 1.331-2.926a59.53 59.53 0 0 1 2.865-5.281c1.646-2.685 3.513-5.25 5.656-7.562 2.548-2.749 5.582-5.272 9.174-6.5.4-.136.228-.771-.175-.634v.004Z"/><path fill="#fff" d="M67.287 20.987a43.51 43.51 0 0 0-10.439 2.7 76.63 76.63 0 0 0-5.313 2.377c-.877.429-1.748.87-2.617 1.316-.422.217-2.147.8-2.32 1.206 1.1-3.53 1.661-5.639 2.28-8.391.63-2.8 1.33-5.621 1.736-8.468.274-1.915.26-3.94-.55-5.7-.81-1.76-2.564-3.169-4.495-3.134-.395.007-.88.159-.935.55-.086.619.867.922.383 1.6-.17.239-.444.378-.71.5-.764.35-1.556.633-2.367.848a4.5 4.5 0 0 1-1.085.2 3.154 3.154 0 0 0-1.092.174 1.624 1.624 0 0 0-.84 2.3c.125.227.247.219.24.485-.009.287-.125.607-.192.885-.14.577-.3 1.147-.477 1.714-.35 1.16-.736 2.311-1.01 3.492a141.42 141.42 0 0 0-1.49 7.294c-.249 1.406-.477 2.822-.509 4.249-.073 3.235.911 6.519 2.923 9.053 2.012 2.534 5.075 4.258 8.3 4.459"/><path fill="#232323" d="M67.287 20.635a43.778 43.778 0 0 0-9.419 2.265c-3.1 1.131-6.079 2.588-9.017 4.09-.458.234-.947.4-1.417.612-.391.175-.954.387-1.164.794l.693.292c.74-2.371 1.429-4.756 2-7.175.661-2.806 1.34-5.623 1.823-8.467.446-2.629.727-5.576-.8-7.933-.616-.95-1.493-1.756-2.538-2.208-.793-.342-2.314-.75-2.967.072-.3.379-.195.842.063 1.208.088.126.263.286.282.445.033.282-.326.47-.526.57-.66.327-1.346.595-2.053.8a8.51 8.51 0 0 1-.981.253c-.364.065-.735.04-1.1.1-1.2.2-2.063 1.371-1.624 2.578.076.21.289.411.323.616.024.143-.057.343-.094.479-.053.2-.1.394-.155.591a45.86 45.86 0 0 1-.634 2.155c-.907 2.9-1.518 5.87-2.075 8.853-.528 2.83-1.017 5.664-.523 8.536.863 5.016 4.459 9.465 9.531 10.629.592.134 1.194.222 1.8.261.461.031.459-.686 0-.717-2.356-.159-4.629-1.143-6.426-2.666-1.886-1.6-3.21-3.761-3.9-6.127-.763-2.615-.636-5.252-.187-7.91.48-2.842 1.011-5.706 1.734-8.5.356-1.376.831-2.717 1.195-4.091.081-.3.158-.609.236-.914.064-.248.142-.541.074-.8-.057-.214-.242-.354-.323-.56a1.36 1.36 0 0 1-.009-.973c.263-.686.958-.885 1.627-.916.669-.031 1.288-.2 1.921-.4.635-.19 1.257-.424 1.86-.7.432-.2.913-.527.959-1.047.037-.422-.25-.669-.434-1.009-.265-.492.47-.492.788-.473 1.093.066 2.1.635 2.852 1.409 1.815 1.863 1.907 4.668 1.553 7.1-.412 2.825-1.1 5.6-1.729 8.384a96.439 96.439 0 0 1-1.68 6.409c-.193.645-.39 1.288-.592 1.93-.126.4.495.676.693.292.124-.24.7-.437.971-.557.384-.168.781-.308 1.16-.486 1.431-.676 2.825-1.43 4.26-2.1 2.874-1.347 5.822-2.513 8.9-3.3a46.745 46.745 0 0 1 5.165-1.009c.388-.054.3-.743-.094-.692l-.002.007Z"/><path fill="#2969FF" d="M55.528 40.482a7.45 7.45 0 0 1-2.588 4.384c-.144.118-.3.252-.32.438-.013.166.1.315.207.44A6.798 6.798 0 0 0 54.79 47.3a4.832 4.832 0 0 1 1.576-2.083c1.157-.876 2.96-1.162 3.571-2.61"/><path fill="#2969FF" d="M55.211 40.4a7.564 7.564 0 0 1-2.393 3.951c-.264.23-.562.427-.655.785-.108.415.14.755.4 1.051a7.069 7.069 0 0 0 1.971 1.56c.32.173.627 0 .753-.306a4.484 4.484 0 0 1 1.172-1.64c.423-.376.933-.629 1.435-.879 1.024-.51 2.03-1.064 2.44-2.2.16-.44-.534-.725-.753-.317-.543 1.011-1.69 1.388-2.653 1.884a5.468 5.468 0 0 0-2.628 2.874l.754-.306a6.74 6.74 0 0 1-1.713-1.282 2.048 2.048 0 0 1-.188-.207c-.05-.07-.053.046-.033-.014.033-.1.257-.227.335-.3.268-.237.518-.494.746-.769a7.562 7.562 0 0 0 1.65-3.719c.06-.407-.535-.6-.635-.175l-.005.01Z"/><path fill="#fff" d="M78.057 46.038a4.419 4.419 0 0 1-3.52-1.292c-1.48-1.513-1.656-3.826-2.377-5.816a10.554 10.554 0 0 0-3.32-4.63c-.986-.786-2.135-1.417-2.866-2.444-1.038-1.459-1.02-3.4-.845-5.183.085-.869.2-1.754.588-2.537.394-.8 1.044-1.447 1.742-2 1.056-.841 1.882-1.376 3.235-1.352 1.551.027 3.099.169 4.629.425 2.99.5 5.923 1.491 8.48 3.143 4.164 2.691 7.24 7.366 7.129 12.323-.08 3.533-1.772 6.944-4.347 9.363-3.83 3.6-10.738 5.811-15.91 4.38-2.324-.643-4.466-2.615-4.49-5.026-.005-.662.3-1.47.964-1.516.529-.037.942.456 1.156.941.214.485.343 1.037.733 1.4a3.907 3.907 0 0 1 .1-2.076c.055-.218.175-.413.343-.562.462-.351 1.146.064 1.4.584s.3 1.135.606 1.625a3.866 3.866 0 0 1 .313-2.01c.1-.234.248-.471.48-.58.419-.2.916.126 1.147.527.23.401.3.876.519 1.286-.052-.529-.1-1.078.08-1.577.18-.499.665-.932 1.193-.872.447.051.785.422 1.04.792.257.37.5.78.892.995.39.215 1.006.108 1.132-.324"/><path fill="#232323" d="M64.945 9.267a2.574 2.574 0 0 0-1.393-.167 1.784 1.784 0 0 0-1.065.537c-.27.3-.388.755-.234 1.13.087.19.217.359.38.49a2.59 2.59 0 0 0 1.832.6 2.9 2.9 0 0 0 1.773-.778"/><path fill="#232323" d="M65.045 8.905c-.79-.32-1.789-.327-2.516.165-.655.444-.995 1.332-.574 2.051.922 1.578 3.441 1.5 4.584.26.31-.337-.108-.969-.515-.669-.468.344-.968.645-1.559.69a2.139 2.139 0 0 1-1.6-.52c-.444-.412-.24-.97.26-1.233.535-.279 1.174-.227 1.723-.02.456.171.639-.546.2-.724h-.003Z"/><path fill="#fff" d="M70.638 13.425a19.86 19.86 0 0 1-.625 2.967c-.241.812-.452 1.562-.363 2.418.032.287.079.573.14.855.063.31.245.691.082.986-.19.341-.633.658-.923.912-.342.301-.703.58-1.08.837a3.419 3.419 0 0 1-.922.478 1.461 1.461 0 0 1-1.02-.036c-.553-.256-.8-.92-.814-1.529-.014-.609.169-1.213.223-1.813.037-.274.009-.554-.083-.815-.222-.545-.945-.667-1.388-.979a3.318 3.318 0 0 1-1.13-1.372c-.532-1.22-.34-2.673.285-3.848.258-.478.575-.922.943-1.322a4.331 4.331 0 0 1 4.857-1.114c1.129.467 2.08 1.43 1.818 3.375Z"/><path fill="#232323" d="M70.311 13.335c-.21 1.265-.59 2.465-.91 3.703a5.163 5.163 0 0 0-.175 1.834c.03.284.074.568.131.848.05.24.22.569.08.794-.133.209-.38.376-.568.53-.226.185-.446.378-.678.556-.432.33-.937.742-1.483.857-.546.115-.92-.185-1.062-.693-.149-.533-.013-1.091.074-1.623.095-.58.2-1.235-.1-1.778-.22-.4-.63-.618-1.029-.807a2.894 2.894 0 0 1-1.682-2.407c-.192-2.147 1.4-4.436 3.53-4.88.964-.2 2.074-.007 2.87.593.82.619.974 1.595.86 2.563-.03.25.233.46.461.462.275 0 .43-.215.462-.462.137-1.082-.069-2.207-.859-3.006-.723-.733-1.785-1.1-2.8-1.163-2.6-.154-4.838 1.97-5.37 4.426-.275 1.264-.094 2.629.724 3.66.367.457.838.819 1.372 1.058.19.09.427.178.57.34.2.23.152.606.12.889-.135 1.182-.538 2.673.64 3.493 1.178.82 2.59-.236 3.5-.995.487-.406 1.251-.9 1.37-1.565.065-.366-.086-.72-.162-1.07a5.123 5.123 0 0 1-.138-1.208c.018-.831.32-1.621.517-2.42.188-.803.322-1.617.4-2.437.041-.378-.6-.468-.665-.092Z"/><path fill="#232323" d="M70.311 13.335c-.21 1.265-.59 2.465-.91 3.703a5.163 5.163 0 0 0-.175 1.834c.03.284.074.568.131.848.05.24.22.569.08.794-.133.209-.38.376-.568.53-.226.185-.446.378-.678.556-.432.33-.937.742-1.483.857-.546.115-.92-.185-1.062-.693-.149-.533-.013-1.091.074-1.623.095-.58.2-1.235-.1-1.778-.22-.4-.63-.618-1.029-.807a2.894 2.894 0 0 1-1.682-2.407c-.192-2.147 1.4-4.436 3.53-4.88.964-.2 2.074-.007 2.87.593.82.619.974 1.595.86 2.563-.03.25.233.46.461.462.275 0 .43-.215.462-.462.137-1.082-.069-2.207-.859-3.006-.723-.733-1.785-1.1-2.8-1.163-2.6-.154-4.838 1.97-5.37 4.426-.275 1.264-.094 2.629.724 3.66.367.457.838.819 1.372 1.058.19.09.427.178.57.34.2.23.152.606.12.889-.135 1.182-.538 2.673.64 3.493 1.178.82 2.59-.236 3.5-.995.487-.406 1.251-.9 1.37-1.565.065-.366-.086-.72-.162-1.07a5.123 5.123 0 0 1-.138-1.208c.018-.831.32-1.621.517-2.42.188-.803.322-1.617.4-2.437.041-.378-.6-.468-.665-.092Z"/><path fill="#232323" d="M63.581 12.939c.4.057.8.266.538.727-.146.255-.422.394-.586.632-.308.446.2.718.555.868.238.1.4-.3.175-.416-.126-.066-.333-.13-.28-.271.042-.11.228-.236.3-.331.181-.2.287-.457.3-.726 0-.562-.489-.751-.968-.8-.178-.017-.222.289-.043.315l.01.002ZM65.608 13.7a.24.24 0 0 0-.229.292.217.217 0 0 0 .318.126.32.32 0 1 0-.33-.548.387.387 0 0 0 .13.68.359.359 0 0 0 .371-.194c.075-.135-.05-.328-.21-.274l-.085.03a.318.318 0 0 0-.07.03c-.037.03.1-.024.092 0 .013 0 .008 0-.013-.007l.03.03s.013.019.008.024c-.005.005-.006-.047 0-.047a.138.138 0 0 1-.009.03c-.018.03-.048.025-.079.02-.012 0-.025-.03 0 0 0-.007-.012-.011-.016-.021a.07.07 0 0 1 0-.038c0-.011.017-.033 0-.011-.01.015-.017.022 0 0 .01-.015.007-.01 0 0-.006.007-.007.009 0 0 .063-.045.13-.014.2.095l-.024.086a.32.32 0 0 0 .032-.027.162.162 0 0 0-.026-.246.163.163 0 0 0-.088-.03h-.002Z"/><path fill="#232323" d="M63.193 13.3a.24.24 0 0 0-.229.292.215.215 0 0 0 .318.126.32.32 0 0 0-.084-.591.319.319 0 0 0-.246.043.388.388 0 0 0 .13.68.36.36 0 0 0 .371-.194c.075-.135-.05-.328-.21-.274l-.085.03a.274.274 0 0 0-.07.032c-.037.029.1-.026.092 0 .013 0 .01 0-.012-.008l.03.03s.012.02.007.024-.006-.047 0-.047a.12.12 0 0 1-.009.032c-.018.029-.048.023-.078.019-.013 0-.025-.031 0 0-.005-.008-.012-.012-.016-.022a.081.081 0 0 1 0-.038c0-.011.017-.033 0-.011-.01.015-.017.022 0 0 .01-.015.008-.01 0 0-.006.007-.008.009 0 0 .063-.045.13-.014.2.095l-.024.086-.014.01a.283.283 0 0 0 .046-.037.163.163 0 0 0-.114-.275l-.003-.002ZM70.321 16.13c.07.2.14.464.008.652a.394.394 0 0 1-.648.012c-.209-.27-.2-.65-.11-.98.088-.328.245-.638.3-.974.053-.336-.007-.726-.28-.93-.247-.185-.606-.163-.875-.012-.269.15-.755.607-.81.938a2.08 2.08 0 0 1 .13-1.161c.136-.32.352-.6.461-.935a.974.974 0 0 0-.032-.762c-.158-.28-.369-.125-.637-.145a1.324 1.324 0 0 1-.674-.247c-.107-.077-.452-.374-.412-.532-.18.7-.879.82-1.5.817-1.238 0-2.492-.318-3.519-1.01-1.027-.69-1.808-1.78-2.007-3-.075-.393-.058-.799.05-1.185.214-.69.824-1.22 1.52-1.411a2.893 2.893 0 0 1 2.093.274 4.263 4.263 0 0 1 1.546 1.479c.32-.491 1.091-.514 1.553-.154a1.7 1.7 0 0 1 .557.864c.1.323.05.592.323.82.194-.556.634-.992 1.241-1.066a1.693 1.693 0 0 1 1.526.678 2 2 0 0 1 .3 1.665 1.57 1.57 0 0 1 1.314-.106 1.256 1.256 0 0 1 .79 1.023 1.052 1.052 0 0 1-.676 1.067 1.267 1.267 0 0 1 .588 1.976c-.29.375-.778.56-1.252.575.263.243.434.57.484.924a1.012 1.012 0 0 1-.4.932.768.768 0 0 1-.952-.085Z"/><path fill="#232323" d="M69.98 16.225c.012.043.104.314.042.339-.04.017-.093-.212-.1-.237-.039-.321.134-.652.24-.944.2-.541.272-1.187-.124-1.662-.81-.97-2.333 0-2.584.99h.9c-.147-1.008.948-1.732.61-2.758-.136-.41-.46-.642-.89-.607a.918.918 0 0 1-.586-.1.824.824 0 0 1-.18-.14c-.072-.067-.1-.171-.1-.053.012-.536-.769-.624-.919-.125-.106.355-.442.446-.782.47-.49.03-.98-.003-1.46-.1-.993-.186-1.959-.6-2.696-1.3-.665-.631-1.164-1.51-1.237-2.437-.07-.995.586-1.823 1.586-1.947 1.214-.15 2.21.676 2.838 1.629.2.3.58.279.784 0 .263-.361.837-.131 1.055.148.353.453.237 1.059.665 1.476.261.254.642.114.76-.2.224-.6.825-.9 1.43-.656.666.276.915 1.024.761 1.69a.461.461 0 0 0 .67.515c.411-.207.952-.206 1.253.189.22.288.2.79-.183.943-.447.176-.449.739 0 .915a.8.8 0 0 1 .476.956c-.124.448-.583.65-1.013.68-.385.028-.617.486-.323.782.222.224.406.533.322.86-.059.233-.31.453-.537.257-.458-.4-1.13.269-.669.669.616.534 1.532.42 1.96-.295.437-.734.112-1.568-.429-2.138l-.324.78c.887-.042 1.761-.52 1.948-1.451.181-.9-.332-1.69-1.158-2.015v.915c.9-.353 1.313-1.41.783-2.257-.558-.893-1.678-1.028-2.567-.577l.67.515c.26-1.157-.24-2.375-1.393-2.8-1.109-.413-2.159.237-2.554 1.284l.76-.2c-.142-.138-.134-.33-.178-.515a2.5 2.5 0 0 0-.21-.553 1.842 1.842 0 0 0-.81-.823c-.689-.333-1.5-.167-1.949.453h.784c-.726-1.1-1.846-1.961-3.2-2.036-1.2-.067-2.524.687-2.807 1.92-.287 1.257.26 2.59 1.052 3.55.853 1.034 2.083 1.7 3.388 1.959 1.163.235 3.007.446 3.45-1l-.92-.124c-.01.385.315.7.6.908.192.143.412.245.645.3.144.032.48.105.63.022-.088-.088-.115-.1-.083-.025.02.049.024.102.014.154a.901.901 0 0 1-.083.3c-.1.249-.264.474-.372.722a2.677 2.677 0 0 0-.176 1.523c.071.47.8.424.9 0 .07-.286.783-1.044 1.042-.591.143.25 0 .6-.082.848-.11.328-.23.656-.227 1.007 0 .544.33 1.163.95 1.123.694-.045.811-.78.616-1.31-.152-.423-.808-.26-.68.185ZM67.031 17.75a4.173 4.173 0 0 1-1.169.1c-.4-.016-.749-.162-1.135-.23-.466-.082-.749.5-.328.777.851.553 2.03.35 2.884-.045.344-.16.1-.688-.252-.6v-.002Z"/><path fill="#232323" d="M66.326 13.184c-.3-.326-.736-.35-1.147-.27-.23.044-.176.413.055.406.3-.008.635-.08.9.116.152.113.311-.123.2-.252h-.008ZM64.691 15.927c.349-.028.834-.09.913-.51.039-.211-.243-.356-.36-.152-.133.23-.343.3-.594.354-.172.033-.136.322.041.308Z"/><path fill="#fff" d="M72.214 25.262C73.9 30.655 73.9 34.039 74.6 39.689c.1.81.19 1.68-.134 2.414-.21.434-.521.81-.909 1.097-1.686 1.333-3.874 1.411-5.92 1.409-2.86 0-5.82-.093-8.4-1.482a.83.83 0 0 1-.366-.309c-.093-.167-.086-.38-.076-.578.311-5.957.575-10.717 2.824-16.369"/><path fill="#232323" d="M71.881 25.354c.451 1.593.863 3.19 1.157 4.82.258 1.429.433 2.87.585 4.315.168 1.6.317 3.2.5 4.8.1.818.284 1.738-.013 2.535-.27.722-.985 1.216-1.643 1.557-1.34.694-2.906.77-4.386.78-1.643.01-3.31 0-4.936-.257a13.095 13.095 0 0 1-2.373-.593 9.393 9.393 0 0 1-1.072-.47c-.12-.06-.34-.13-.419-.254-.094-.153 0-.582.008-.745.09-1.668.184-3.337.336-5 .153-1.78.413-3.55.78-5.3.411-1.9 1.026-3.722 1.664-5.556.168-.483-.624-.828-.835-.352-1.448 3.25-2.117 6.845-2.475 10.367-.18 1.767-.28 3.54-.372 5.315-.02.419-.085.858-.04 1.276.051.465.323.744.72.956.78.413 1.606.732 2.461.952 1.71.442 3.49.535 5.248.552 1.626.016 3.315.05 4.89-.415 1.551-.457 3.2-1.487 3.416-3.223.11-.881-.073-1.777-.177-2.65-.108-.9-.206-1.794-.3-2.692-.4-3.69-.855-7.37-2.056-10.9-.142-.417-.788-.248-.666.184l-.002-.002Z"/><path fill="#2969FF" d="M68.74 46.086c-1.156.586-2.52.546-3.814.467-2.13-.131-4.274-.336-6.316-.956-2.042-.62-3.994-1.686-5.382-3.307-.751-.878-1.4-1.85-2.5-2.337-.967-.43-1.947-.327-2.283-1.576-.146-.545-.1-1.123-.018-1.682.225-1.54.705-3.033 1.42-4.415.09-.171.193-.351.365-.44a.981.981 0 0 1 .5-.06c.992.057 2.06.289 3-.08.965-.378 1.774-1.092 2.63-1.656 1.819-1.2 3.953-1.772 6.092-2.061 1.848-.25 4.045-.59 5.886-.357 2.638.335 5.3.892 7.616 2.2 2.316 1.308 4.267 3.459 4.808 6.063.516 2.48-.318 5.137-1.93 7.09-1.612 1.955-3.936 3.244-6.382 3.9"/><path fill="#2969FF" d="M68.588 45.824c-1.218.569-2.624.464-3.928.376-1.434-.1-2.868-.232-4.278-.52-2.469-.5-4.929-1.507-6.666-3.395-.8-.868-1.438-1.906-2.488-2.5-.439-.25-.919-.38-1.395-.536-.418-.137-.775-.334-.945-.764-.255-.647-.134-1.4-.016-2.065.121-.678.292-1.347.512-2 .218-.667.49-1.314.816-1.935.168-.314.3-.313.641-.29.341.025.675.065 1.013.09.661.052 1.348.05 1.976-.188a7.555 7.555 0 0 0 1.653-.935c1.092-.77 2.166-1.47 3.433-1.924 1.267-.454 2.556-.7 3.872-.875 1.316-.175 2.646-.364 3.98-.38 1.334-.016 2.653.205 3.951.469 1.322.27 2.64.635 3.872 1.189 2.148.966 4.083 2.516 5.136 4.66 1.078 2.2.865 4.782-.274 6.912C78.3 43.38 76.3 44.958 74.057 45.9c-.56.233-1.136.431-1.721.593-.5.14-.286.905.213.772 2.5-.665 4.917-1.96 6.594-3.97 1.7-2.038 2.587-4.781 2.08-7.42-.475-2.468-2.182-4.541-4.222-5.926-2.372-1.612-5.249-2.292-8.051-2.676a16.886 16.886 0 0 0-4.19-.017c-1.405.153-2.829.322-4.209.634-1.38.312-2.756.8-3.983 1.528-1.151.684-2.242 1.889-3.628 2.052-.74.087-1.482-.065-2.221-.1-.71-.031-1.038.333-1.334.933a14.266 14.266 0 0 0-1.314 4.156c-.178 1.17-.219 2.7 1.018 3.308.437.216.92.3 1.371.478.591.234 1.072.649 1.5 1.112.443.482.829 1.012 1.277 1.487.44.464.922.884 1.442 1.256a12.767 12.767 0 0 0 3.51 1.734c1.428.465 2.917.714 4.408.872 1.442.152 2.961.33 4.409.18a5.337 5.337 0 0 0 1.888-.537c.353-.178.044-.69-.306-.525Z"/><path fill="#232323" d="M68.588 45.824c-1.49.629-3.162.42-4.727.285-1.69-.146-3.385-.385-5.013-.874-1.377-.414-2.7-1.027-3.856-1.9a9.168 9.168 0 0 1-1.518-1.454c-.451-.539-.87-1.111-1.394-1.584a4.636 4.636 0 0 0-1.9-1.024c-.626-.176-1.124-.334-1.34-1.007-.156-.489-.905-.289-.772.213.165.619.522 1.1 1.107 1.38.567.267 1.192.368 1.731.7.63.386 1.11.97 1.577 1.531.472.59 1 1.133 1.577 1.621 2.621 2.133 5.982 2.837 9.273 3.1 1.793.141 3.923.45 5.566-.462.353-.2.043-.673-.306-.525h-.005Z"/><path fill="#fff" d="M90.932 36.674c-.08 3.533-1.772 6.944-4.347 9.363-3.83 3.6-10.738 5.811-15.909 4.38-2.325-.643-4.467-2.615-4.49-5.026-.006-.662.3-1.47.963-1.516.53-.037.942.456 1.156.941.214.485.343 1.037.733 1.4a3.907 3.907 0 0 1 .1-2.076c.055-.218.175-.413.343-.562.462-.35 1.146.064 1.4.584s.3 1.135.606 1.625a3.866 3.866 0 0 1 .313-2.009c.1-.234.248-.47.48-.58.42-.2.916.126 1.147.527.231.401.3.876.52 1.286-.053-.529-.1-1.078.08-1.577.18-.499.664-.932 1.192-.872.447.051.785.422 1.041.792.256.37.5.78.891.995.391.215 1.006.108 1.132-.324"/><path fill="#232323" d="M69.575 21.076c4.85 0 9.868.873 14 3.541 3.6 2.322 6.475 6.22 6.912 10.559.452 4.486-1.83 8.9-5.4 11.548-3.344 2.476-7.737 3.907-11.907 3.627-2.033-.136-4.058-.735-5.433-2.322-.628-.725-1.064-1.667-1.062-2.638 0-.306.07-.857.4-1 .4-.164.7.481.812.751.21.513.377 1.02.78 1.422.372.372.945-.012.844-.491a3.4 3.4 0 0 1-.013-1.388c.05-.243.12-.832.483-.71.32.108.468.453.562.746.143.45.246.9.487 1.316.24.416 1.006.267.956-.259a3.61 3.61 0 0 1 .082-1.264c.054-.21.173-.779.424-.86.25-.081.475.3.552.471.176.375.266.775.446 1.145.219.444 1 .245.957-.259-.055-.574-.187-1.416.343-1.822.53-.406.946.3 1.208.674.333.476.73.958 1.338 1.055.607.097 1.175-.179 1.4-.766.225-.587-.707-.826-.923-.254-.044.116-.332.071-.423.029-.261-.121-.438-.423-.592-.651-.358-.529-.782-1.085-1.454-1.2-.652-.11-1.25.256-1.6.786-.423.63-.385 1.426-.316 2.147l.957-.259c-.254-.516-.33-1.107-.713-1.556-.348-.4-.9-.678-1.442-.527-.562.158-.84.7-1.026 1.21a4.344 4.344 0 0 0-.233 1.9l.956-.258c-.327-.555-.337-1.246-.7-1.785-.314-.463-.855-.839-1.435-.8-1.475.095-1.46 2.384-1.241 3.407l.844-.491c-.411-.409-.487-1.03-.771-1.519-.284-.489-.772-.943-1.377-.964-1.178-.04-1.62 1.311-1.55 2.272.169 2.328 2 4.135 4.073 4.976 2.072.841 4.48.838 6.654.54a20.414 20.414 0 0 0 6.664-2.149c2.038-1.066 3.877-2.493 5.29-4.317 1.524-1.965 2.544-4.3 2.85-6.773.592-4.756-1.8-9.415-5.358-12.458-3.964-3.393-9.238-4.725-14.355-4.929a38.017 38.017 0 0 0-1.94-.026c-.365 0-.366.568 0 .568l-.01.005Z"/><path fill="#232323" d="M90.152 39.611c-.837 2.924-2.742 5.541-5.225 7.33a19.06 19.06 0 0 1-5.681 2.746c-2.021.6-4.15.905-6.26.734-2.027-.165-4.034-.8-5.376-2.413-.612-.735-1.034-1.68-1.021-2.648 0-.342.09-.864.43-1.04.458-.237.817.442.954.768.21.5.36 1.01.758 1.4a.416.416 0 0 0 .7-.38 3.52 3.52 0 0 1 .007-1.553c.066-.276.16-.795.55-.678.363.11.54.47.647.8.14.443.236.9.476 1.3.192.323.83.255.787-.188a3.685 3.685 0 0 1 .077-1.265c.064-.253.2-.87.5-.964.267-.082.524.252.625.447.2.381.279.813.47 1.2.175.352.829.235.788-.188-.06-.62-.178-1.468.38-1.908.543-.426 1.007.208 1.289.62.34.495.729 1.011 1.364 1.1.538.077 1.07-.17 1.26-.7.17-.475-.578-.7-.748-.23-.06.163-.31.17-.45.132-.253-.067-.44-.307-.587-.508-.381-.525-.723-1.16-1.4-1.34-.641-.17-1.252.158-1.62.68-.435.615-.393 1.408-.325 2.121l.788-.188c-.253-.509-.33-1.093-.7-1.543-.32-.386-.855-.652-1.358-.507-.536.155-.8.694-.971 1.18a4.231 4.231 0 0 0-.217 1.83l.787-.189c-.312-.524-.337-1.164-.642-1.692-.273-.472-.8-.87-1.361-.862-.656.011-1 .568-1.16 1.135a4.438 4.438 0 0 0-.057 2.15l.7-.38c-.424-.418-.5-1.039-.787-1.539-.287-.5-.776-.949-1.39-.927-1.2.044-1.456 1.492-1.347 2.428.258 2.22 2.115 3.932 4.114 4.7 2.062.791 4.45.782 6.607.475a20.348 20.348 0 0 0 6.528-2.124c2.034-1.065 3.858-2.485 5.273-4.3a14.057 14.057 0 0 0 2.388-4.619"/><path fill="#2969FF" d="M57.15 30.7a56.28 56.28 0 0 0-.852-5.014c.346-.07.7.055 1.023.194.98.419 1.911.99 2.623 1.784.712.793 1.19 1.825 1.19 2.89"/><path fill="#2969FF" d="M57.491 30.7a63.493 63.493 0 0 0-.333-2.48c-.13-.845-.339-1.687-.45-2.534l-.41.409c.571-.017 1.154.335 1.64.607.5.274.962.613 1.374 1.008.4.386.728.84.967 1.342.244.517.32 1.065.448 1.615.092.4.731.41.813 0 .271-1.356-.629-2.8-1.583-3.684a7.616 7.616 0 0 0-1.7-1.18c-.626-.321-1.347-.7-2.066-.512a.413.413 0 0 0-.286.5c.244.8.37 1.662.52 2.488.15.826.281 1.67.4 2.509.051.378.715.293.672-.091l-.006.003Z"/><path fill="#2969FF" d="M56.3 25.684c.346-.07.7.055 1.023.194.98.419 1.911.99 2.623 1.784.712.793 1.19 1.825 1.19 2.89"/><path fill="#232323" d="M56.3 26.026c.587-.072 1.194.311 1.685.594.494.298.945.661 1.341 1.08.398.39.723.847.961 1.35.242.523.254 1.087.44 1.62a.425.425 0 0 0 .813 0c.205-.652-.078-1.42-.357-2.012a5.327 5.327 0 0 0-1.24-1.659c-.5-.452-1.132-.809-1.735-1.11-.62-.311-1.29-.643-2-.53-.376.059-.292.719.091.672l.001-.005Z"/><path fill="#2969FF" d="M56.389 42.588a7.455 7.455 0 0 1-2.589 4.384c-.144.118-.3.252-.32.437-.013.167.1.315.207.442a6.789 6.789 0 0 0 1.963 1.554 4.839 4.839 0 0 1 1.577-2.083c1.156-.875 2.959-1.161 3.57-2.608"/><path fill="#232323" d="M56.072 42.5a7.57 7.57 0 0 1-2.393 3.951c-.264.23-.562.427-.655.785-.108.415.139.754.4 1.05a7.06 7.06 0 0 0 1.971 1.561c.319.173.627 0 .754-.306a4.5 4.5 0 0 1 1.171-1.64c.423-.375.933-.628 1.435-.878 1.024-.51 2.03-1.064 2.44-2.2.159-.44-.534-.726-.753-.318-.543 1.012-1.691 1.388-2.653 1.885a5.466 5.466 0 0 0-2.632 2.878l.753-.306a6.768 6.768 0 0 1-1.71-1.28 2.194 2.194 0 0 1-.188-.208c-.051-.07-.053.045-.033-.014.034-.1.257-.227.335-.3.268-.237.518-.494.747-.769a7.568 7.568 0 0 0 1.648-3.719c.06-.407-.534-.6-.634-.175l-.003.003ZM57.187 27.969c.214.863.318 1.75.31 2.638 0 .455.73.451.7 0a13.039 13.039 0 0 0-.473-2.787c-.1-.348-.63-.2-.541.149h.004ZM55.185 32.323a.3.3 0 0 1 .023-.154.211.211 0 0 1 .147-.134l-.595-.243a.53.53 0 0 1-.017.253 1.151 1.151 0 0 1-.174.266c-.26.352.247.83.6.6.465-.313.579-.938.336-1.427-.09-.18-.388-.271-.555-.145-.372.279-.593.707-.446 1.177.137.441.772.257.685-.189l-.004-.004ZM50.422 38.21c.45.111.916.145 1.377.1.446-.052.475-.724 0-.717a5.102 5.102 0 0 1-1.183-.088c-.458-.1-.654.6-.194.7v.006ZM49.873 34.452c.03-.128.066-.256.1-.382a.43.43 0 0 1 .147-.222l-.673-.392c-.099.25-.176.51-.232.773-.031.2.033.4.235.48.17.069.424.021.508-.166.113-.283.202-.575.266-.873a.406.406 0 0 0-.673-.392c-.3.285-.367.688-.354 1.083.01.374.58.479.672.091h.004ZM51.2 34.761a1.5 1.5 0 0 1 .283-.705l-.723-.2c.025.251-.05.419-.143.647-.08.189.069.424.242.493a.421.421 0 0 0 .523-.171c.2-.309.208-.723.14-1.072-.068-.349-.545-.359-.71-.092a1.7 1.7 0 0 0-.267 1.007.335.335 0 0 0 .289.328c.148.017.342-.073.366-.239v.004ZM64.686 28.786c2.317-.165 4.813-.21 6.808.759.187.076.354.194.489.344a.356.356 0 0 1-.01.484c-.252.232-.73.077-1.082-.06-1.587-.614-3.435-.5-5.194-.532-.34-.006-.713-.03-.957-.217-.244-.188-.2-.592.13-.638"/><path fill="#232323" d="M64.686 29.078c1.235-.015 2.48-.023 3.708.1.602.058 1.197.17 1.778.336.303.085.599.191.887.317.136.057.268.124.395.2 0 0 .346.252.206-.025 0 .007-.248-.04-.255-.042a3.696 3.696 0 0 1-.38-.128 7.591 7.591 0 0 0-.875-.264 11.119 11.119 0 0 0-1.85-.246c-.634-.035-1.269-.034-1.9-.038-.307 0-.619.01-.925-.015-.055-.005-.362-.1-.389-.084-.027.016.006.18-.078.206.607-.187.351-1.047-.259-.94-.553.1-.815.74-.547 1.22.3.547 1.01.6 1.566.607 1.352.024 2.735-.06 4.066.234.583.129 1.182.482 1.786.469.604-.013 1.088-.51.878-1.114-.193-.555-.919-.8-1.414-.984a8.804 8.804 0 0 0-1.843-.457c-1.519-.218-3.03-.131-4.547.064-.36.046-.388.589 0 .584h-.008ZM81.314 36.6c.38-.118 1.042-.474 1.422-.2a.3.3 0 0 1 .143.248c0 .027-.077.053-.04.07-.062-.028.063-.233.106-.273.292-.273.878-.411 1.265-.425.387-.014.813.143.922.56.138.536.949.31.826-.227-.242-1.06-1.428-1.326-2.353-1.1-.786.195-1.98.768-1.548 1.784.407.963 1.819.406 1.587-.571-.106-.447-.511-.76-.95-.835-.55-.094-1.051.157-1.553.338-.39.139-.232.754.173.627v.004Z"/><path fill="#fff" d="M77.493 33.08c.479 0 .48-.744 0-.744s-.48.744 0 .744ZM76.5 33.636c.46 0 .462-.718 0-.718s-.463.718 0 .718ZM77.81 34.938c.452 0 .452-.7 0-.7-.45 0-.451.7 0 .7ZM63.657 31.725l.377-.064a.3.3 0 0 0 .206-.361.3.3 0 0 0-.363-.206l-.378.064a.3.3 0 0 0-.206.363.3.3 0 0 0 .364.207v-.003Z"/><path fill="#232323" d="M55.453 28.935a4.977 4.977 0 0 0-.47-1.732c-.139-.285-.338-.525-.49-.8-.134-.24.112-.165.276-.136.164.03.318.08.482.105.347.053.548-.363.242-.574-.572-.394-1.977-.424-1.743.613.093.414.46.756.654 1.13.226.436.375.907.441 1.393.05.377.645.4.608 0v.001ZM77.906 29.61c.623-1.092 1.561-1.886 2.473-2.73.458-.424.926-.837 1.411-1.23.242-.197.49-.383.746-.56.271-.186.574-.338.811-.566.326-.313-.007-.9-.446-.766-.623.194-1.2.724-1.7 1.13-.527.439-1.032.904-1.513 1.394-.88.88-1.994 1.853-2.354 3.087-.1.338.393.546.568.24h.004ZM51.328 26.474c.552.505.829 1.374 1.085 2.055.3.795.438 1.661.779 2.436.163.37.755.174.743-.2-.029-.924-.472-1.9-.829-2.737-.3-.7-.633-1.722-1.393-2.05-.3-.133-.675.232-.385.5v-.004Z"/><path fill="#2969FF" d="M44.57 11.632c-.677.087-1.362-.19-1.9-.606a4.046 4.046 0 0 1-1.534-3.541 4.047 4.047 0 0 1 2.2-3.172A3.2 3.2 0 0 1 45.3 4c.67.124 1.274.508 1.753.993 1.054 1.069 1.534 2.7 1.14 4.146-.392 1.446-1.681 2.634-3.17 2.82"/><path fill="#2969FF" d="M44.57 11.266c-1.434.13-2.6-1.324-2.9-2.588a3.54 3.54 0 0 1 1.13-3.462 3.112 3.112 0 0 1 1.9-.8c.7-.025 1.346.274 1.86.74.99.9 1.527 2.333 1.245 3.656-.307 1.442-1.488 2.455-2.893 2.777-.417.1-.333.777.1.754 1.648-.088 3.034-1.356 3.542-2.89.525-1.582.044-3.395-1.046-4.623-.6-.679-1.424-1.2-2.336-1.306-.881-.107-1.8.159-2.53.652-1.342.903-2.142 2.53-1.956 4.155.22 1.9 1.816 3.884 3.885 3.666.46-.048.47-.774 0-.731Z"/><path fill="#fff" d="M41.43 7.5a3.57 3.57 0 0 0 .876 2.723c.3.338.6.723 1.023.9.44.19.91.303 1.39.33 1.866.1 3.354-1.648 3.351-3.44 0-1.021-.422-2.083-1.195-2.763a.193.193 0 1 0-.275.27c.658.78 1.1 1.72 1.015 2.757a3.109 3.109 0 0 1-1.522 2.39c-.467.272-1.01.38-1.546.31-.5-.054-1.092-.194-1.443-.57-.35-.376-.7-.717-.934-1.166A3.3 3.3 0 0 1 41.8 7.5c.017-.235-.346-.232-.366 0h-.005Z"/><path fill="#fff" d="M49 11.961a3.885 3.885 0 0 0-1.474-1.872 1.462 1.462 0 0 0-.674-.276.665.665 0 0 0-.634.291.917.917 0 0 0-.087.464c.005.46.085.916.237 1.35-1.422-.4-3.076.33-3.744 1.647"/><path fill="#232323" d="M49.3 11.878c-.328-1.018-1.136-2.263-2.267-2.49-.545-.11-1.14.141-1.31.7-.182.6 0 1.374.193 1.953l.576-.576c-1.623-.428-3.516.33-4.26 1.87-.251.518.488.97.784.457.643-1.115 1.96-1.752 3.227-1.424.329.085.694-.228.576-.576a3.547 3.547 0 0 1-.223-1.226c.005-.157-.008-.268.164-.3.172-.032.4.11.546.2a3.78 3.78 0 0 1 1.426 1.652c.145.321.675.093.568-.24ZM45.02 5.421c-.583-.216-1.162.064-1.508.55-.325.457-.554 1.181-.081 1.624a.9.9 0 0 0 .73.2c.334-.033.692-.256 1.029-.208.563.08.393.7.11.986a1.877 1.877 0 0 1-1.1.527c-.278.038-.288.48 0 .447.587-.065 1.164-.321 1.536-.794.318-.406.415-1.043-.02-1.411-.53-.45-1.115.037-1.688.028-.6-.011-.434-.7-.24-1.044.235-.411.656-.721 1.144-.567.219.069.3-.262.093-.34l-.005.002Z"/><path fill="#232323" d="M43.475 5.225c.038.205.1.404.186.594.115.246.49.031.367-.215a3.51 3.51 0 0 1-.211-.473.177.177 0 0 0-.342.094ZM45.185 9.092c.032.166.088.327.167.477.113.2.449.066.376-.159-.046-.144-.111-.28-.157-.424a.2.2 0 0 0-.386.106Z"/><path fill="#fff" d="m45.332 4.606.055.038a.152.152 0 0 0 .227-.17.156.156 0 0 0-.07-.092l-.053-.039a.152.152 0 0 0-.208.055.157.157 0 0 0 .054.208h-.005Z"/><path fill="#232323" d="M39.92 9.146c-.165.074-.414.015-.56-.072-.405-.242-.745.365-.365.626.416.286.9.2 1.269-.108a.28.28 0 0 0 .022-.373.289.289 0 0 0-.366-.073Z"/><path fill="#2969FF" d="M63.938 22.27a1.891 1.891 0 0 0 .327 2.088c.554.623 1.42.9 2.233.92 1.835.046 3.427-1.212 4.184-2.817.127-.268-.26-.505-.4-.236-.682 1.275-1.772 2.324-3.245 2.556-.7.11-1.47.009-2.08-.376-.646-.407-1.068-1.23-.745-1.974.08-.184-.185-.347-.274-.16Z"/><path fill="#fff" d="M66.286 67.667c.453-3.842-.476-7.975 1.232-11.445.283-.577.657-1.141 1.214-1.461.443-.253.961-.33 1.465-.4a169.126 169.126 0 0 1 14.155-1.373"/><path fill="#232323" d="M66.618 67.758c.5-3.476-.28-7.17.948-10.529.263-.72.628-1.584 1.3-2.017.362-.234.8-.308 1.223-.368.5-.07.994-.128 1.491-.188 1.984-.241 3.97-.467 5.96-.65 2.268-.207 4.54-.356 6.813-.495.67-.04.678-1.083 0-1.049-4.218.208-8.443.624-12.625 1.206-.952.133-2.014.17-2.907.548-.792.335-1.317 1.028-1.686 1.781-.82 1.673-1.064 3.535-1.116 5.378-.06 2.1.1 4.2-.075 6.292-.033.381.62.476.675.091Z"/><path fill="#232323" d="M70.792 57.135c.767.582 1.36 1.67 1.03 2.608-.262.743-.718 1.438-.89 2.21-.07.322-.062.622.213.84.495.392 1.243.214 1.816.162 1.512-.133 3.024-.27 4.535-.413 1.7-.158 3.397-.33 5.093-.516.505-.055.52-.847 0-.8-2.934.241-5.863.525-8.79.823-.68.07-1.39.208-2.07.154-.209-.016.023-.022-.038.081.018-.03.005-.082.007-.09.04-.157.086-.312.141-.465.262-.712.678-1.409.815-2.16.21-1.152-.633-2.382-1.515-3.024-.36-.263-.693.331-.347.594v-.004ZM61.48 92.921c1.408-5.326 2.6-10.709 3.644-16.119.3-1.529.6-3.059.844-4.6.082-.515-.693-.748-.8-.219-.533 2.691-1 5.4-1.538 8.087a396.562 396.562 0 0 1-1.717 8.124c-.339 1.522-.668 3.046-1.01 4.567-.084.372.474.53.573.158l.003.002ZM88.756 91.437A248.354 248.354 0 0 0 85.68 76.2a200.69 200.69 0 0 0-1.045-4.264c-.153-.593-1.062-.342-.916.252a675.55 675.55 0 0 1 3.507 15.135c.315 1.428.62 2.857.914 4.288.084.406.684.23.616-.169v-.005ZM84.166 56.118c.299.37.453.835.434 1.31 0 .46.7.46.714 0a2.6 2.6 0 0 0-.684-1.772c-.278-.32-.733.144-.463.462h-.001ZM46.446 49.383c.133-.657-.159-1.208-.445-1.78-.316-.63-.41-1.263.25-1.712.66-.449 1.618-.44 2.388-.472.947-.039 1.894.01 2.84.056.622.032.623-.943 0-.97-1.035-.043-2.075-.093-3.109-.017-.909.067-1.933.181-2.67.767-.618.49-.927 1.272-.67 2.037.223.667.887 1.267.8 2.008-.043.35.545.428.615.083h.001Z"/><path fill="#2969FF" d="M31.571 7.83a7.935 7.935 0 0 0 2.262-3.059L35.951 8.5c-1.357.751-1.944 2-2.4 3.406-.382-.85-.59-3.561-1.966-4.112"/><path fill="#2969FF" d="M31.8 8.058a8.242 8.242 0 0 0 2.347-3.1h-.627l2.1 3.744.14-.529c-1.4.787-2.113 2.156-2.6 3.631l.748-.1c-.279-.654-.378-1.546-.626-2.269-.289-.843-.72-1.677-1.586-2.029-.423-.172-.733.554-.313.744.711.322 1 1.167 1.208 1.86.208.693.318 1.437.61 2.107.15.347.651.2.75-.1.413-1.283.987-2.482 2.2-3.181a.394.394 0 0 0 .137-.53l-2.142-3.718c-.17-.3-.55-.185-.663.086a7.855 7.855 0 0 1-2.14 2.926c-.317.273.14.716.456.456l.001.002ZM52.523 5.859c.386-.183.625-.576.794-.968.169-.392.3-.811.554-1.15.256.736.61 1.434 1.05 2.076-.378.053-.581.461-.719.817l-.323.827a1.819 1.819 0 0 0-.957-1.29"/><path fill="#2969FF" d="M52.672 6.113c.9-.412 1-1.452 1.536-2.175l-.714-.094c.26.783.637 1.484 1.035 2.2l.271-.664c-.858.186-1.093 1.258-1.366 1.958h.89a2.227 2.227 0 0 0-1.179-1.55c-.5-.254-.942.476-.446.764a1.506 1.506 0 0 1 .735 1.03c.1.492.741.385.89 0 .112-.286.217-.577.336-.861.08-.19.165-.417.381-.467.362-.083.4-.51.2-.758-.436-.537-.749-1.215-.993-1.86a.4.4 0 0 0-.715-.093c-.43.63-.47 1.637-1.158 2.062-.328.2-.042.662.3.508h-.003ZM52.73 11.96c.123-.284.23-.67.423-.913l-.525-.139c.156.542.425 1.044.79 1.474l.081-.639a2.125 2.125 0 0 0-.768.85h.721c-.136-.212-.269-.424-.414-.63-.3-.435-1.01-.043-.723.422.132.214.275.421.416.629.16.238.578.3.721 0 .1-.227.258-.423.458-.568.21-.15.281-.44.082-.639a4.34 4.34 0 0 1-.792-1.141c-.157-.309-.55-.118-.586.159-.039.306-.243.651-.36.935-.117.284.357.469.473.2h.003Z"/><path fill="#232323" d="M37.427 77.288c.467.338.934.671 1.4 1 .221.157.436-.211.213-.364-.474-.325-.949-.647-1.425-.966-.2-.137-.383.185-.19.325l.002.005Z"/><path fill="#2969FF" d="M39.453 75.9c.592-2.378 1.827-4.574 2.948-6.736a69.625 69.625 0 0 1 3.482-6.064c1.28-1.96 2.7-3.832 4.335-5.513 1.677-1.727 3.564-3.234 5.54-4.6 2.212-1.53 4.534-2.887 6.842-4.257.244-.145.023-.525-.223-.381-4.168 2.42-8.388 4.924-11.86 8.307-3.406 3.316-5.91 7.4-8.093 11.593a127.77 127.77 0 0 0-1.825 3.635c-.607 1.264-1.158 2.557-1.467 3.929-.047.206.265.294.317.088l.004-.001Z"/><path fill="#2969FF" d="M40.6 79.3a55.702 55.702 0 0 1 6.771-13.7 50.615 50.615 0 0 1 10.552-11.361c2.464-1.937 5.111-3.541 7.851-5.05.23-.126.028-.46-.2-.348-2.507 1.21-4.882 2.769-7.1 4.442A49.499 49.499 0 0 0 52.48 58.6a52.443 52.443 0 0 0-8.88 12.609 57.01 57.01 0 0 0-3.28 8.018c-.058.177.22.252.277.077l.003-.004Z"/><path fill="#2969FF" d="M42.924 80.95a57.5 57.5 0 0 1 17.452-24.626 58.808 58.808 0 0 1 7.076-4.952c.225-.135.022-.485-.207-.353-4.45 2.575-8.52 5.861-12.078 9.565A57.301 57.301 0 0 0 46.13 72.93a55.208 55.208 0 0 0-3.529 7.93c-.073.206.253.293.327.09h-.003Z"/><path fill="#2969FF" d="M45.75 82.653c3.041-7.257 6.421-14.8 12.687-19.87a23.594 23.594 0 0 1 5.3-3.22c.193-.085.053-.426-.146-.345-7.307 2.977-12.1 9.964-15.343 16.845-1.008 2.136-1.913 4.317-2.8 6.5-.077.19.23.27.306.085l-.005.005ZM71.73 52.928c.142-.105.271-.224.387-.356.128-.126.255-.254.378-.386.178-.19-.106-.476-.287-.287-.125.13-.246.264-.365.4-.126.123-.238.26-.336.406a.164.164 0 0 0 .223.223ZM35.263 74.263c2.167-6.717 5.87-13 10.572-18.245a53.754 53.754 0 0 1 4.215-4.19c.208-.186-.1-.486-.306-.3-5.37 4.672-9.7 10.588-12.625 17.07a53.487 53.487 0 0 0-2.13 5.594c-.058.176.218.25.274.076v-.005ZM52.33 49.857a.176.176 0 0 0 0-.351.176.176 0 0 0 0 .35ZM32.667 71.252a49.104 49.104 0 0 1 9.058-13.922 51.192 51.192 0 0 1 3.368-3.287c.2-.176-.092-.463-.29-.29a46.891 46.891 0 0 0-10.415 13.14 45.522 45.522 0 0 0-1.982 4.249c-.06.148.2.259.261.11ZM47.35 51.569a.167.167 0 1 0 0-.334.167.167 0 0 0 0 .334ZM31.407 69.21a27.166 27.166 0 0 1 3.237-5.487c.106-.141-.133-.327-.247-.19a20.684 20.684 0 0 0-3.244 5.567c-.058.144.191.25.254.107v.003ZM36.843 60.732a.183.183 0 1 0 0-.367.183.183 0 0 0 0 .367Z"/><path fill="#232323" d="M30.662 86.547c.667.1.524.937.475 1.412-.023.228.22.448.437.437a1.97 1.97 0 0 1 1.983 1.4c.164.54 1 .315.849-.234-.333-1.235-1.56-2.108-2.832-2.044l.438.437c.09-.9-.146-2.066-1.254-2.123-.4-.021-.5.653-.1.711l.004.004ZM20.636 77.483c.44.638.18 1.457-.04 2.13-.066.2.075.474.29.511.42.064.803.277 1.08.6.286.34.368.734.456 1.157.075.358.683.377.743 0 .193-1.214-.9-2.391-2.059-2.563l.29.511c.283-.938.483-1.971-.2-2.786-.258-.31-.8.1-.563.435l.003.005ZM26.175 88.689c-.767.254-1.091 1.074-.926 1.832.183.842.95 1.38 1.632 1.811a38.473 38.473 0 0 0 5.4 2.867 29.201 29.201 0 0 0 5.665 1.812c1.01.207 2.033.35 3.061.429.957.073 1.931.108 2.88-.067.978-.18 1.886-.643 2.472-1.463.555-.776.709-1.738.311-2.614-.2-.428-.951-.118-.769.324.262.633.1 1.309-.3 1.848-.467.623-1.2.924-1.948 1.061-.806.147-1.648.1-2.461.049a22.595 22.595 0 0 1-2.528-.316c-3.4-.622-6.641-1.947-9.645-3.639-.784-.442-1.636-.876-2.337-1.446-.292-.237-.6-.552-.652-.942-.038-.281.049-.693.344-.813.44-.179.273-.891-.2-.733h.001ZM16.717 79c-.866 0-1.393.873-1.274 1.669.143.963.968 1.791 1.593 2.488a18.31 18.31 0 0 0 4.6 3.7c.977.553 2.021 1.067 3.1 1.381.563.163.749-.646.236-.855-1-.409-1.986-.808-2.928-1.339a18.916 18.916 0 0 1-2.619-1.78 18.169 18.169 0 0 1-2.279-2.194c-.353-.4-.781-.847-.934-1.375-.112-.386 0-1.025.5-1.045.417-.016.421-.65 0-.651l.005.001ZM9.65 41.419v-8.407c0-.706-.003-1.412-.008-2.119 0-.534-.1-1.315.57-1.468.314-.072.662-.055.982-.073l1.036-.058 2.07-.114c1.267-.07 2.59-.192 3.82.191.271.084.7.185.8.492.1.307.013.707 0 1.013L18.864 33l-.115 4.174-.059 2.122-.028.99c-.01.361.04.78-.03 1.132-.05.254-.133.3-.394.295a52.762 52.762 0 0 1-.562-.022l-1.2-.047-2.32-.092c-1.59-.063-3.194-.189-4.784-.161-.3.005-.286.427 0 .453 1.561.147 3.145.143 4.712.2l2.322.085 1.125.041c.344.012.724.074 1.066.021.646-.1.514-.853.527-1.339l.064-2.405.125-4.669.065-2.405c.01-.377.025-.754.03-1.132 0-.27-.005-.549-.169-.777-.324-.45-1.09-.6-1.6-.691a9.351 9.351 0 0 0-1.992-.119c-1.51.045-3.02.166-4.529.253-.53.031-1.22-.029-1.61.408-.362.405-.322 1.005-.319 1.509.021 3.533.055 7.067.1 10.6a.177.177 0 0 0 .354 0l.007-.005Z"/><path fill="#2969FF" d="m10.694 39.894-.042-8.115c0-.315.018-.677.267-.87.165-.129.387-.146.6-.158l3.081-.175c.991-.056 2.024-.105 2.934.291.12.042.226.116.306.215.094.134.093.31.088.473L17.7 40a.363.363 0 0 1-.048.206c-.069.092-.2.1-.317.092l-6.716-.255"/><path fill="#fff" d="m10.42 37.827.942-1.137.428-.517c.058-.087.125-.168.2-.241.146-.115.178-.083.293-.007.192.128.362.4.519.571l.522.568.476.516c.12.131.242.311.422.364.345.1.567-.255.773-.469a8 8 0 0 1 1.045-.919c.356-.26.582-.277.919.007.246.208.462.444.762.575.3.131.544-.283.252-.431-.54-.275-.941-1.014-1.637-.872-.363.074-.676.367-.954.595a7.62 7.62 0 0 0-.565.508c-.13.127-.38.512-.565.541l.19.025c-.234-.107-.458-.439-.634-.625l-.627-.661c-.256-.269-.624-.859-1.047-.83-.4.027-.663.535-.885.812l-1.091 1.365c-.147.184.108.447.262.262ZM14.6 33.409c-.343.042-.549.493-.378.794.171.3.632.368.9.15a.64.64 0 0 0 .184-.727.6.6 0 0 0-.657-.344"/><path fill="#fff" d="M14.6 33.26c-.4-.012-.683.432-.638.8.05.425.474.684.88.64a.845.845 0 0 0 .735-.954.83.83 0 0 0-.991-.69c-.257.053-.2.494.063.464.205-.023.429.058.466.288a.39.39 0 0 1-.325.448c-.476.064-.553-.534-.15-.7a.149.149 0 0 0-.04-.291v-.004Z"/><path fill="#232323" d="M11.412 29.14a15.426 15.426 0 0 0 2.26-2.23c.32-.393.633-.8.914-1.219.1-.156.22-.317.19-.515a.488.488 0 0 0-.066-.18c-.032-.04-.064-.083-.1-.123-.021-.07.009-.068.089.008a.247.247 0 0 0 0 .341c.643.738 1.312 1.454 1.969 2.18l.939 1.036c.337.373.66.8 1.046 1.127.184.155.516-.047.359-.277-.272-.4-.64-.739-.962-1.095l-.987-1.087c-.673-.742-1.336-1.5-2.023-2.225v.341c.276-.339.119-.976-.4-.93a.553.553 0 0 0-.46.383c-.09.272.185.472.095.695-.127.311-.436.63-.64.895a18.859 18.859 0 0 1-2.473 2.628c-.17.151.076.385.247.247h.003ZM9.771 21.629c-1.709-.746-2.424-2.917-2.776-4.6-.422-2.014-.445-4.433.79-6.18 1.182-1.674 3.627-2.166 5.392-1.134 1.07.626 1.62 1.771 1.964 2.917a9.01 9.01 0 0 1 .325 3.891c-.38 2.564-2.21 4.9-4.854 5.34-.33.056-.19.561.14.505 2.485-.42 4.4-2.49 5.027-4.872.358-1.354.337-2.792.046-4.156-.27-1.264-.755-2.644-1.739-3.533-1.59-1.435-4.209-1.4-5.842-.06-1.862 1.525-2.095 4.3-1.777 6.519.155 1.157.488 2.284.986 3.34.473.977 1.164 1.894 2.19 2.325.173.073.3-.23.128-.305v.003Z"/><path fill="#2969FF" d="M10.031 20.334c-1.579-.648-2.268-3.26-2.385-4.76-.116-1.467.105-3.074 1.125-4.132 1.224-1.272 3.541-1.3 4.715.02.41.459.67 1.03.862 1.613.493 1.5.547 3.178-.06 4.635-.609 1.457-1.933 2.645-3.488 2.89"/><path fill="#232323" d="M21.41 26.367c-.014-1.247-.1-2.5-.062-3.75l-.238.183c1.258.247 2.538.36 3.82.336.654-.005 1.309-.06 1.962-.026.322.013.642.061.954.144.25.07.33.136.38.4.018.154.026.308.025.463l.055.99c.014.254.06.544-.011.793-.1.35-.405.358-.714.38a31.016 31.016 0 0 1-5.071-.04c-.317-.028-.315.468 0 .496 1.253.11 2.511.143 3.769.1.56-.02 1.148-.016 1.7-.116a.911.911 0 0 0 .776-.741c.1-.491 0-1.035-.034-1.53-.02-.285-.035-.572-.056-.858-.015-.205-.032-.405-.2-.547-.34-.285-.958-.321-1.381-.354-.582-.047-1.166-.007-1.75.01-1.4.04-2.784-.091-4.175-.266a.188.188 0 0 0-.188.188c.1 1.243.088 2.5.14 3.75.008.19.3.193.3 0v-.005Z"/><path fill="#232323" d="M22.959 23.016a9.434 9.434 0 0 0 1.27-1.349c.152-.2.319-.423.287-.688a.548.548 0 0 0-.122-.28c-.072-.092-.215-.155-.208-.286-.014-.094.042-.147.17-.159a.273.273 0 0 1 .119.326c-.005.13.003.26.023.389.073.22.192.423.349.594.42.509.89.982 1.356 1.449.219.22.56-.121.34-.341-.277-.276-.55-.557-.816-.843-.254-.272-.607-.567-.744-.92-.113-.292.047-.605-.168-.87a.648.648 0 0 0-.632-.225c-.436.1-.586.685-.291 1.005.1.1.122.068.177.208.055.14 0 .21-.09.347-.127.18-.263.354-.41.52-.261.314-.542.613-.833.9-.146.144.072.357.223.224v-.001ZM8.554 9.533C9.2 8.706 9.83 7.866 10.46 7.027l.508-.678c.1-.131.262-.287.258-.467a.335.335 0 0 0-.126-.245.545.545 0 0 0-.146-.079.648.648 0 0 0-.083-.032.915.915 0 0 1-.04-.015c0 .024.2-.114.244-.14.12-.066.368-.164.488-.026s.058.465.086.632c.074.437.294.829.518 1.2.554.933 1.113 1.864 1.676 2.793.159.265.575.023.414-.242-.634-1.045-1.326-2.073-1.9-3.149a2.383 2.383 0 0 1-.29-.881 1.364 1.364 0 0 0-.118-.528c-.185-.335-.556-.38-.885-.245-.244.1-.715.35-.646.68a.374.374 0 0 0 .243.261c.02.01.17.045.176.066-.016-.057-.267.294-.291.326-.75 1.023-1.505 2.043-2.235 3.08-.1.144.136.331.246.19l-.003.005Z"/><path fill="#fff" d="M8.05 17.983a2.1 2.1 0 0 1 .722-1.533c.229-.199.5-.344.792-.425.247-.071.5-.116.723-.258.432-.278.519-.757.234-1.174-.152-.224-.336-.4-.347-.69a.89.89 0 0 1 .422-.787c.558-.333 1.255-.02 1.532.524.277.544.007 1.143.288 1.676.225.43.64.707.959 1.059a2.09 2.09 0 0 1 .5 1.794c-.057.3.408.434.466.128.2-1.056-.23-1.9-.984-2.608a2.74 2.74 0 0 1-.484-.53c-.185-.3-.118-.607-.14-.939a1.883 1.883 0 0 0-.533-1.21c-.63-.622-1.788-.621-2.263.19a1.277 1.277 0 0 0-.074 1.178c.1.217.374.411.414.65.078.458-.641.537-.934.638a2.36 2.36 0 0 0-1.573 2.317.14.14 0 1 0 .28 0Z"/></svg>