<svg width="241" height="241" viewBox="0 0 241 241" fill="none" xmlns="http://www.w3.org/2000/svg">
<path d="M186.052 216.857C183.917 204.538 181.413 192.301 178.54 180.145C177.723 176.713 176.884 173.289 175.993 169.876C175.622 168.449 173.431 169.052 173.785 170.483C176.793 182.601 179.61 194.755 182.338 206.937C183.106 210.374 183.85 213.817 184.57 217.266C184.772 218.242 186.218 217.818 186.052 216.857Z" fill="#232323"/>
<path d="M205.12 56.6084C208.641 57.1386 212.287 56.9627 215.693 58.0062C222.046 59.9535 223.385 65.5543 223.8 71.3721C224.342 78.9491 224.764 86.5551 224.764 94.1417C224.788 107.912 223.494 121.645 221.785 135.297C221.007 141.532 220.395 147.873 218.893 153.953C217.821 158.291 217.606 163.914 214.023 167.109C212.143 168.796 209.644 169.558 207.214 170.216C194.728 173.593 181.829 175.196 168.895 174.978C155.881 174.756 145.661 169.194 133.852 164.08" fill="white"/>
<path d="M204.942 57.2519C210.533 58.1002 217.741 57.3941 220.949 63.113C222.101 65.1688 222.552 67.5667 222.781 69.8875C223.125 73.3652 223.263 76.8765 223.436 80.371C224.159 95.248 223.506 110.069 221.932 124.877C221.166 132.085 220.375 139.337 219.252 146.492C218.751 149.683 217.961 152.796 217.344 155.963C216.835 158.566 216.445 161.318 215.216 163.702C213.815 166.42 211.384 167.799 208.54 168.669C205.188 169.7 201.729 170.466 198.29 171.158C191.253 172.57 184.116 173.426 176.945 173.718C173.453 173.86 169.924 173.959 166.437 173.706C163.203 173.461 160 172.901 156.874 172.033C150.659 170.346 144.783 167.656 138.915 165.044C137.43 164.381 135.941 163.721 134.447 163.077C133.866 162.836 133.206 162.909 132.854 163.494C132.56 163.976 132.695 164.839 133.271 165.087C139.476 167.782 145.562 170.775 151.977 172.975C155.084 174.062 158.275 174.889 161.518 175.448C165.003 176.029 168.493 176.171 172.021 176.154C179.514 176.102 186.991 175.446 194.379 174.192C198.047 173.571 201.685 172.801 205.294 171.884C208.427 171.086 211.801 170.322 214.386 168.254C216.604 166.483 217.792 163.82 218.5 161.135C219.238 158.351 219.705 155.476 220.32 152.664C221.925 145.366 222.588 137.837 223.453 130.424C225.227 115.08 226.162 99.7209 225.497 84.2752C225.336 80.4192 225.108 76.5697 224.812 72.7265C224.615 70.049 224.405 67.3257 223.535 64.7735C222.759 62.4864 221.462 60.4355 219.503 58.9895C216.992 57.1338 213.806 56.6687 210.774 56.4349C208.95 56.2951 207.12 56.2228 205.308 55.9722C204.469 55.8589 204.103 57.1338 204.951 57.2616L204.942 57.2519Z" fill="#232323"/>
<path d="M148.909 95.2191C154.158 93.2501 160.236 94.9974 164.731 98.3352C170.05 102.276 177.786 110.983 178.899 117.803C180.013 124.624 173.481 132.695 168.722 136.821C162.938 141.841 155.631 144.918 148.126 146.477C142.621 147.622 136.972 147.986 131.482 149.213C123.713 150.95 117.574 154.65 113.229 161.366C107.168 170.734 101.362 180.273 95.4721 189.749C92.3247 194.815 89.1676 199.876 86.0008 204.932C82.2316 210.923 78.6624 212.803 71.6035 209.54L54.4925 201.635C51.0101 200.025 46.8215 197.842 44.6115 194.55C43.4668 192.834 43.0137 190.496 44.0307 188.703C44.8597 187.243 46.4961 186.404 48.1397 186.052C49.7834 185.7 51.48 185.763 53.1574 185.647C60.3392 185.143 64.335 182.386 67.7234 176.287C74.4714 164.143 81.7761 152.223 90.8594 141.706C99.9427 131.188 116.121 115.786 133.586 113.092" fill="white"/>
<path d="M149.121 95.9831C154.616 93.9948 160.508 96.0626 164.902 99.5619C168.93 102.774 172.373 106.656 175.082 111.038C176.318 113.055 177.4 115.224 177.875 117.56C178.35 119.895 177.8 122.358 176.877 124.549C174.903 129.227 171.334 133.355 167.452 136.57C162.827 140.402 157.245 142.985 151.481 144.578C145.046 146.357 138.351 146.653 131.834 148.015C126.744 149.078 121.888 151.071 117.856 154.409C113.246 158.229 110.349 163.711 107.202 168.7C99.7644 180.497 92.5247 192.414 85.085 204.209C83.9475 206.016 82.6509 207.918 80.7952 209.055C79.1926 210.036 77.3658 210.145 75.5631 209.73C72.6181 209.051 69.8707 207.472 67.145 206.212L57.6713 201.828C54.9866 200.589 52.2536 199.418 49.7689 197.791C47.624 196.393 45.1899 194.417 44.7079 191.747C44.144 188.614 47.0697 187.243 49.7038 186.997C52.4777 186.736 55.2227 186.799 57.9388 186.062C62.4118 184.857 65.7424 181.849 68.1235 177.945C69.7382 175.294 71.1769 172.527 72.7434 169.845C74.3662 167.067 76.0355 164.317 77.7514 161.595C83.9427 151.83 90.9582 142.585 99.2462 134.478C106.99 126.908 115.933 119.931 126.2 116.176C128.686 115.251 131.257 114.57 133.875 114.142C135.261 113.923 134.673 111.817 133.295 112.034C121.881 113.836 111.79 120.317 103.17 127.716C94.4431 135.187 86.9239 143.988 80.3759 153.411C76.5585 158.906 73.0543 164.613 69.7165 170.411C67.1763 174.826 65.0435 180.068 60.3416 182.62C58.3051 183.726 55.9795 184.237 53.6876 184.437C50.6365 184.702 47.2938 184.37 44.691 186.305C42.1846 188.168 41.799 191.323 43.0354 194.063C44.2114 196.67 46.6937 198.61 49.0604 200.088C51.6583 201.71 54.4997 202.908 57.2736 204.185L67.2101 208.764C71.6421 210.81 76.9248 213.914 81.7544 211.174C83.7354 210.053 85.2176 208.207 86.4684 206.354C88.4133 203.462 90.1918 200.449 92.0331 197.492C95.8794 191.313 99.7113 185.127 103.529 178.935C105.407 175.899 107.294 172.867 109.19 169.84C111.034 166.905 112.824 163.906 114.805 161.063C117.856 156.733 122.162 153.444 127.142 151.64C133.333 149.348 140.031 149.042 146.477 147.88C152.635 146.771 158.679 144.747 164.041 141.489C168.792 138.594 172.875 134.727 176.022 130.14C178.93 125.886 181.008 120.76 179.355 115.627C177.735 110.59 174.212 106.134 170.58 102.372C166.835 98.4991 162.456 95.0287 157.043 93.9587C154.257 93.4068 151.384 93.4767 148.699 94.4575C147.735 94.8022 148.157 96.3325 149.121 95.9855V95.9831Z" fill="#232323"/>
<path d="M80.2821 183.307C74.7391 179.538 69.013 175.564 65.7137 169.732C64.675 167.898 64.0267 165.302 65.6004 163.904C66.6488 162.976 68.208 163.037 69.5552 162.661C73.4112 161.591 75.9417 155.978 78.0456 152.96C80.9462 148.775 84.0608 144.743 87.3772 140.879C94.289 132.873 102.153 125.455 111.149 119.825C115.933 116.837 121.103 114.347 126.59 112.976C129.181 112.33 131.302 112.111 133.278 110.149C135.081 108.363 136.17 105.961 138.214 104.392C139.872 103.122 141.997 102.567 144.087 102.512C150.878 102.333 157.496 108.13 157.532 114.923C157.559 119.999 154.286 124.585 150.302 127.725C146.319 130.865 141.588 132.9 137.199 135.437C124.763 142.667 115.237 153.871 105.97 164.863C102.288 169.23 98.5813 173.633 95.8483 178.651C94.5493 181.042 93.4528 183.601 91.6019 185.594C89.751 187.587 86.8687 188.93 84.2851 188.076" fill="white"/>
<path d="M80.682 182.623C77.2623 180.29 73.869 177.913 70.9312 174.976C69.4699 173.544 68.1763 171.952 67.0752 170.228C66.2461 168.902 65.1255 166.967 65.7376 165.345C66.3835 163.634 68.967 163.959 70.3865 163.417C71.8855 162.834 73.1219 161.747 74.1558 160.537C76.4212 157.886 78.0118 154.717 80.053 151.89C85.3406 144.537 91.2788 137.618 97.9328 131.465C104.36 125.522 111.566 120.153 119.623 116.603C121.695 115.687 123.833 114.928 126.019 114.33C127.79 113.848 129.634 113.581 131.321 112.853C133.174 112.058 134.5 110.684 135.7 109.096C136.9 107.508 137.98 105.78 139.756 104.782C146.171 101.167 154.79 106.365 156.192 113.123C156.968 116.856 155.317 120.695 152.968 123.534C150.285 126.771 146.702 128.971 143.05 130.957C139.194 133.054 135.324 135.054 131.723 137.584C128.328 139.992 125.106 142.635 122.083 145.496C115.849 151.333 110.332 157.879 104.835 164.403C101.929 167.849 99.0246 171.327 96.5832 175.127C95.3782 176.998 94.3901 178.964 93.3466 180.923C92.3826 182.733 91.2957 184.592 89.628 185.847C88.182 186.941 86.3672 187.556 84.579 187.033C83.2246 186.635 82.651 188.72 83.9982 189.139C88.3193 190.484 92.1922 187.317 94.3467 183.873C95.5517 181.945 96.4772 179.856 97.6316 177.899C98.8548 175.851 100.199 173.878 101.656 171.99C104.478 168.293 107.549 164.776 110.573 161.243C113.489 157.831 116.458 154.462 119.582 151.235C125.783 144.834 132.579 139.206 140.45 134.974C147.781 131.034 156.908 126.47 158.479 117.338C159.807 109.626 153.712 102.49 146.152 101.475C144.131 101.183 142.069 101.382 140.142 102.056C138.045 102.827 136.49 104.201 135.143 105.953C133.912 107.553 132.83 109.402 131.02 110.421C129.316 111.385 127.255 111.59 125.392 112.108C116.384 114.581 108.252 119.82 101.112 125.725C93.9708 131.629 87.6156 138.551 81.9618 145.897C79.3782 149.249 77.0357 152.705 74.78 156.279C73.8401 157.766 72.8375 159.25 71.5192 160.431C70.9825 160.931 70.3595 161.33 69.6804 161.607C68.7164 161.971 67.6777 161.988 66.704 162.285C64.8483 162.848 63.6819 164.355 63.7253 166.314C63.7687 168.273 64.7447 170.042 65.8075 171.616C68.1621 175.108 71.3337 177.882 74.7077 180.367C76.3947 181.615 78.1395 182.811 79.8843 183.996C80.7302 184.572 81.5231 183.199 80.6845 182.627L80.682 182.623Z" fill="#232323"/>
<path d="M148.909 95.2191C154.158 93.2501 160.236 94.9974 164.731 98.3352C170.05 102.276 177.786 110.983 178.899 117.803C180.013 124.624 173.481 132.695 168.722 136.821C162.938 141.841 155.631 144.918 148.126 146.477C142.621 147.622 136.972 147.986 131.482 149.213C123.713 150.95 117.574 154.65 113.229 161.366C107.168 170.734 101.362 180.273 95.4722 189.749" fill="white"/>
<path d="M149.121 95.9831C158.785 92.4935 167.801 101.114 173.057 108.228C175.494 111.525 178.162 115.673 177.918 119.951C177.661 124.479 174.725 128.757 171.833 132.068C164.914 140.045 155.137 144.19 144.887 145.892C139.195 146.839 133.341 147.215 127.817 148.991C123.479 150.382 119.461 152.63 116.208 155.831C114.446 157.563 113.005 159.544 111.67 161.615C110.007 164.193 108.36 166.783 106.729 169.382C103.435 174.626 100.15 179.88 96.94 185.177C96.1302 186.512 95.3301 187.855 94.53 189.192C93.807 190.397 95.6603 191.477 96.417 190.296C99.8754 184.89 103.23 179.417 106.626 173.971C108.308 171.272 110.002 168.58 111.708 165.895C113.198 163.555 114.6 161.118 116.432 159.014C119.496 155.519 123.436 152.904 127.846 151.437C133.432 149.529 139.392 149.133 145.183 148.191C155.787 146.465 165.994 142.166 173.197 133.972C176.33 130.408 179.285 126.079 179.967 121.283C180.61 116.769 178.502 112.518 176.029 108.877C173.376 104.944 170.146 101.433 166.447 98.463C162.485 95.33 157.508 93.1225 152.353 93.643C151.106 93.7621 149.878 94.0349 148.697 94.4552C147.733 94.7998 148.155 96.3302 149.119 95.9831H149.121Z" fill="#232323"/>
<path d="M154.929 101.348C159.766 98.5135 166.042 99.2004 171.05 101.721C176.962 104.698 186.069 111.959 188.33 118.49C190.59 125.021 185.529 134.085 181.541 138.963C176.689 144.896 170.023 149.174 162.894 151.991C157.665 154.057 152.16 155.38 146.962 157.534C139.599 160.571 134.189 165.263 131.056 172.621C126.682 182.885 122.585 193.275 118.399 203.616C116.159 209.145 113.91 214.67 111.651 220.192C108.959 226.738 105.761 229.196 98.2485 227.181L80.0338 222.31C76.3296 221.317 71.8277 219.881 69.102 217.008C67.6825 215.512 66.8366 213.285 67.5331 211.345C68.0994 209.764 69.5719 208.658 71.1312 208.034C72.6905 207.409 74.3727 207.18 76.0042 206.778C82.9932 205.06 86.4636 201.662 88.7628 195.073C93.3418 181.957 98.5064 168.965 105.659 157.055C112.812 145.145 126.144 127.207 142.884 121.575" fill="white"/>
<path d="M155.329 102.032C160.484 99.0919 166.719 100.282 171.669 103.042C176.26 105.593 180.366 108.933 183.796 112.911C185.309 114.687 186.758 116.711 187.466 118.962C188.216 121.348 187.927 123.912 187.271 126.286C185.888 131.294 182.948 136.023 179.441 139.826C175.433 144.164 170.435 147.48 165.07 149.919C158.971 152.69 152.355 154.059 146.188 156.655C141.452 158.65 137.09 161.554 133.882 165.618C132.243 167.723 130.892 170.039 129.867 172.503C128.482 175.756 127.117 179.02 125.77 182.292C123.069 188.862 120.435 195.458 117.769 202.054C116.439 205.342 115.107 208.628 113.773 211.914C112.53 214.97 111.395 218.107 109.98 221.089C109.178 222.776 108.168 224.578 106.572 225.636C105.054 226.644 103.283 226.815 101.511 226.644C100.171 226.516 98.8604 226.162 97.571 225.802L92.3678 224.409L82.1229 221.669C79.3466 220.927 76.5221 220.223 73.9289 218.973C71.6442 217.864 68.9258 216.148 68.4896 213.43C67.9859 210.297 71.4081 209.024 73.8422 208.467C76.4618 207.87 79.0309 207.296 81.4409 206.057C85.5957 203.922 88.1431 200.158 89.7168 195.861C91.9871 189.665 94.1681 183.454 96.7516 177.381C101.225 166.854 106.633 156.725 113.422 147.497C119.635 139.062 127.086 131.08 136.242 125.824C138.441 124.54 140.76 123.473 143.166 122.638C144.491 122.189 143.923 120.076 142.585 120.531C132.022 124.115 123.392 131.699 116.289 140.096C108.997 148.709 103.034 158.39 98.1687 168.555C95.1924 174.771 92.5896 181.164 90.194 187.623C89.0926 190.59 88.1937 193.675 86.9285 196.572C86.0319 198.627 84.8366 200.543 83.1665 202.057C81.4963 203.57 79.4575 204.532 77.3439 205.19C74.4037 206.106 71.0779 206.214 68.557 208.156C66.0747 210.07 65.5228 213.116 66.8941 215.89C68.1546 218.438 70.8514 220.125 73.3602 221.252C76.1317 222.498 79.067 223.248 81.9928 224.031L92.7269 226.901C97.3228 228.131 103.208 230.577 107.683 227.675C109.45 226.53 110.703 224.783 111.655 222.932C113.142 220.04 114.227 216.924 115.448 213.924C118.249 207.039 121.031 200.146 123.794 193.243C126.52 186.457 129.2 179.641 132.128 172.939C134.252 168.035 137.828 163.9 142.375 161.092C147.918 157.655 154.36 156.182 160.45 154.04C166.41 151.941 172.062 149.066 176.947 145.022C181.289 141.43 184.806 136.945 187.257 131.87C189.527 127.144 191.002 121.628 188.621 116.663C186.293 111.858 181.955 108.004 177.74 104.883C173.341 101.62 168.389 98.8919 162.798 98.7159C159.917 98.5873 157.058 99.2615 154.539 100.663C153.652 101.169 154.449 102.538 155.339 102.032H155.329Z" fill="#232323"/>
<path d="M139.231 118.755C122.481 124.387 109.156 142.325 102.006 154.235C98.0725 160.785 94.7371 167.676 91.7728 174.72C90.522 177.694 89.6833 181.798 87.5071 184.155C85.555 186.274 82.3666 186.917 83.9885 190.903C85.0031 193.393 87.4469 194.954 89.7725 196.299C92.8621 198.086 96.0048 199.773 99.2004 201.36C104.782 204.146 111.867 205.667 118.015 206.819C122.262 195.338 126.226 183.907 131.044 172.597C134.177 165.239 139.597 160.547 146.95 157.51C152.148 155.368 157.653 154.045 162.882 151.967C170.011 149.15 176.677 144.872 181.528 138.939C185.517 134.061 190.576 124.992 188.317 118.466C186.059 111.94 176.949 104.673 171.038 101.697C166.03 99.1762 159.754 98.4893 154.917 101.324" fill="white"/>
<path d="M139.019 117.991C130.998 120.712 124.033 125.833 118.052 131.745C112.352 137.387 107.431 143.807 103.097 150.543C100.595 154.446 98.2906 158.473 96.1928 162.607C93.86 167.186 91.5391 171.898 89.8497 176.759C89.1484 178.774 88.5122 180.883 87.2855 182.654C86.3576 183.996 84.9092 184.717 83.7837 185.85C80.6001 189.043 83.656 193.431 86.5287 195.562C88.4977 197.022 90.727 198.162 92.8694 199.336C95.2144 200.62 97.5786 201.919 100.02 203.009C104.534 205.021 109.351 206.245 114.176 207.246C115.35 207.487 116.524 207.715 117.7 207.94C117.996 208.01 118.308 207.965 118.573 207.814C118.837 207.663 119.035 207.418 119.126 207.127C121.394 200.994 123.599 194.836 125.894 188.71C127.018 185.699 128.174 182.7 129.362 179.711C130.494 176.867 131.562 173.944 132.977 171.223C135.137 167.063 138.394 163.573 142.395 161.13C147.333 158.086 152.999 156.604 158.467 154.804C163.936 153.004 169.168 150.765 173.891 147.492C178.204 144.546 181.912 140.801 184.816 136.459C187.5 132.398 189.804 127.617 190.041 122.679C190.265 117.929 187.631 113.94 184.534 110.571C181.203 106.967 177.336 103.899 173.069 101.475C168.555 98.9064 163.155 97.5399 158.021 98.8847C156.745 99.2276 155.519 99.7373 154.375 100.401C153.153 101.099 154.252 102.989 155.476 102.29C160.055 99.6728 165.907 100.439 170.457 102.731C174.501 104.767 178.227 107.59 181.451 110.756C184.416 113.665 187.611 117.362 187.717 121.736C187.823 126.455 185.507 131.111 183.003 134.974C180.264 139.154 176.728 142.752 172.597 145.564C167.977 148.743 162.858 150.914 157.542 152.657C152.225 154.399 146.716 155.896 141.85 158.742C137.847 161.052 134.469 164.305 132.01 168.218C130.584 170.522 129.6 173.038 128.566 175.549C127.366 178.469 126.204 181.407 125.079 184.365C122.823 190.262 120.683 196.203 118.514 202.131C117.981 203.592 117.444 205.052 116.904 206.513L118.334 205.703C113.598 204.821 108.85 203.833 104.293 202.247C99.5982 200.613 95.1951 198.102 90.9077 195.637C89.0954 194.603 87.1264 193.537 85.8298 191.853C84.9695 190.737 84.126 188.934 85.143 187.674C86.066 186.529 87.4831 185.874 88.4471 184.755C89.7943 183.191 90.5799 181.251 91.2668 179.33C92.0067 177.255 92.7128 175.202 93.5876 173.178C94.6079 170.806 95.6771 168.456 96.7953 166.126C98.8812 161.77 101.186 157.522 103.7 153.399C107.667 146.928 112.166 140.746 117.331 135.174C123.472 128.549 130.784 122.469 139.44 119.509C140.404 119.182 139.99 117.651 139.019 117.982V117.991Z" fill="#232323"/>
<path d="M162.162 50.5788C153.538 51.6963 145.087 53.8821 137.004 57.0858C132.666 58.8113 128.4 60.761 124.199 62.8144C122.086 63.8482 119.987 64.911 117.892 65.9859C116.875 66.5089 112.718 67.9139 112.299 68.8924C114.95 60.3851 116.304 55.3024 117.796 48.6701C119.314 41.9221 120.999 35.1235 121.98 28.2622C122.64 23.647 122.606 18.7668 120.654 14.5252C118.702 10.2836 114.475 6.88789 109.821 6.97224C108.869 6.98911 107.698 7.35543 107.568 8.29774C107.361 9.78953 109.657 10.5198 108.491 12.1537C108.081 12.7297 107.421 13.0647 106.777 13.3587C104.938 14.2002 103.031 14.8839 101.075 15.4024C100.227 15.6697 99.3487 15.8316 98.4606 15.8844C97.5655 15.8681 96.6746 16.0101 95.8289 16.3038C95.3069 16.5042 94.8339 16.8142 94.4418 17.2129C94.0497 17.6115 93.7476 18.0895 93.5557 18.6148C93.3639 19.14 93.2869 19.7002 93.3298 20.2577C93.3727 20.8152 93.5345 21.3571 93.8045 21.8468C94.1057 22.3938 94.3997 22.3746 94.3804 23.0156C94.3612 23.7073 94.0816 24.4785 93.9201 25.1485C93.5827 26.539 93.1971 27.9127 92.7706 29.2792C91.9247 32.0748 90.9968 34.8487 90.3365 37.6949C88.9853 43.5223 87.7883 49.3818 86.7456 55.2735C86.1455 58.6619 85.596 62.0745 85.5189 65.5136C85.343 73.3099 87.7144 81.2243 92.5633 87.3313C97.4122 93.4382 104.794 97.5931 112.566 98.0775" fill="white"/>
<path d="M162.162 49.7303C154.416 50.7044 146.803 52.5351 139.462 55.1889C131.991 57.9146 124.811 61.426 117.731 65.0458C116.627 65.6098 115.449 66.0098 114.316 66.5207C113.374 66.9425 112.017 67.4534 111.511 68.4343L113.181 69.138C114.964 63.4239 116.625 57.676 118.001 51.8462C119.594 45.0838 121.23 38.2948 122.394 31.4408C123.469 25.1049 124.146 18.0026 120.466 12.3222C118.982 10.0327 116.868 8.09028 114.35 7.00096C112.438 6.17674 108.773 5.19346 107.199 7.17448C106.476 8.08787 106.729 9.2037 107.351 10.0858C107.563 10.3894 107.985 10.775 108.031 11.1582C108.11 11.8378 107.245 12.2909 106.763 12.5319C105.174 13.3208 103.519 13.966 101.815 14.4599C101.04 14.71 100.25 14.9136 99.4509 15.0696C98.5737 15.2263 97.6796 15.166 96.7999 15.3106C93.9079 15.7926 91.8281 18.6147 92.8861 21.5236C93.0693 22.0297 93.5826 22.5141 93.6645 23.0082C93.7224 23.3528 93.5272 23.8348 93.438 24.1626C93.3103 24.6446 93.197 25.1121 93.0644 25.5869C92.6114 27.3341 92.0739 29.0597 91.5365 30.7804C89.3506 37.7694 87.8781 44.9271 86.5357 52.1162C85.2633 58.9365 84.0848 65.7664 85.2753 72.6879C87.3551 84.7765 96.0215 95.4986 108.245 98.3038C109.672 98.6275 111.123 98.8378 112.583 98.9328C113.694 99.0075 113.689 97.2796 112.583 97.2049C106.905 96.8217 101.427 94.4502 97.0964 90.7798C92.5511 86.9238 89.3603 81.7158 87.6974 76.0137C85.8585 69.7116 86.1646 63.3564 87.2467 56.9506C88.4035 50.1014 89.6832 43.1992 91.4256 36.4656C92.2836 33.1495 93.4283 29.9177 94.3056 26.6063C94.5008 25.8833 94.6864 25.1386 94.8743 24.4036C95.0286 23.8059 95.2166 23.0998 95.0527 22.4756C94.9153 21.9598 94.4695 21.6224 94.2743 21.126C93.9781 20.3738 93.9704 19.5386 94.2526 18.781C94.8864 17.1278 96.5613 16.6482 98.1736 16.5735C99.7859 16.4988 101.278 16.0915 102.803 15.6095C104.334 15.1502 105.832 14.5865 107.286 13.9225C108.327 13.4405 109.486 12.6524 109.597 11.3992C109.686 10.3822 108.995 9.78692 108.551 8.96752C107.912 7.7818 109.684 7.7818 110.45 7.82759C113.084 7.98665 115.511 9.35794 117.323 11.2233C121.698 15.7131 121.919 22.4732 121.066 28.3343C120.073 35.1425 118.415 41.8303 116.899 48.5397C115.726 53.7357 114.377 58.8842 112.851 63.9854C112.386 65.5391 111.911 67.0895 111.424 68.6367C111.12 69.6007 112.617 70.2659 113.094 69.3404C113.393 68.762 114.781 68.2873 115.434 67.9981C116.359 67.5932 117.316 67.2558 118.23 66.8268C121.678 65.1976 125.038 63.3805 128.496 61.7658C135.423 58.5195 142.527 55.7095 149.945 53.8128C154.046 52.7691 158.201 51.9572 162.393 51.3811C163.328 51.251 163.116 49.5905 162.166 49.7134L162.162 49.7303Z" fill="#232323"/>
<path d="M133.822 97.5615C133.049 101.707 130.841 105.447 127.585 108.127C127.238 108.411 126.862 108.734 126.814 109.183C126.783 109.583 127.055 109.942 127.313 110.245C128.644 111.777 130.248 113.047 132.044 113.993C132.825 112.003 134.139 110.266 135.842 108.973C138.63 106.862 142.975 106.172 144.448 102.685" fill="#2969FF"/>
<path d="M133.059 97.3639C132.176 101.062 130.16 104.391 127.292 106.886C126.655 107.438 125.937 107.915 125.713 108.778C125.453 109.778 126.048 110.597 126.677 111.311C128.023 112.837 129.632 114.111 131.427 115.07C132.196 115.487 132.938 115.07 133.242 114.333C133.871 112.817 134.837 111.465 136.066 110.378C137.086 109.474 138.315 108.864 139.525 108.262C141.993 107.033 144.417 105.698 145.405 102.96C145.788 101.9 144.118 101.213 143.59 102.196C142.282 104.632 139.515 105.541 137.197 106.736C134.307 108.19 132.053 110.655 130.863 113.663L132.68 112.925C131.149 112.122 129.755 111.079 128.552 109.836C128.39 109.68 128.238 109.513 128.099 109.337C127.976 109.166 127.971 109.448 128.019 109.303C128.099 109.062 128.639 108.756 128.827 108.58C129.473 108.009 130.074 107.39 130.625 106.727C132.743 104.158 134.118 101.058 134.599 97.764C134.743 96.7831 133.312 96.318 133.071 97.3422L133.059 97.3639Z" fill="#2969FF"/>
<path d="M188.118 110.952C186.562 111.086 184.996 110.876 183.531 110.338C182.065 109.8 180.736 108.947 179.637 107.838C176.07 104.192 175.643 98.6173 173.906 93.8214C172.312 89.4388 169.544 85.5787 165.905 82.6631C163.528 80.7688 160.759 79.2481 158.998 76.773C156.496 73.2568 156.539 68.579 156.961 64.282C157.166 62.1877 157.443 60.0549 158.378 58.1678C159.328 56.2398 160.894 54.6806 162.576 53.3478C165.121 51.321 167.112 50.0317 170.373 50.0895C174.112 50.1545 177.84 50.4969 181.529 51.1138C188.735 52.3188 195.803 54.7071 201.965 58.6884C212.001 65.1737 219.416 76.4405 219.146 88.3868C218.954 96.9014 214.876 105.122 208.67 110.952C199.44 119.628 182.791 124.956 170.329 121.507C164.726 119.958 159.564 115.205 159.508 109.395C159.494 107.799 160.231 105.852 161.829 105.741C163.104 105.652 164.1 106.84 164.615 108.009C165.131 109.178 165.442 110.508 166.382 111.383C166.009 109.724 166.092 107.995 166.623 106.38C166.756 105.856 167.044 105.384 167.449 105.025C168.563 104.18 170.211 105.18 170.823 106.433C171.436 107.686 171.546 109.168 172.284 110.349C172.098 108.696 172.359 107.023 173.038 105.505C173.279 104.941 173.636 104.37 174.195 104.107C175.205 103.625 176.403 104.411 176.959 105.377C177.516 106.344 177.682 107.488 178.21 108.477C178.085 107.202 177.969 105.879 178.403 104.676C178.837 103.473 180.006 102.43 181.278 102.574C182.355 102.697 183.17 103.592 183.787 104.483C184.404 105.375 184.992 106.363 185.934 106.881C186.876 107.399 188.359 107.141 188.662 106.1" fill="white"/>
<path d="M156.517 22.3335C155.457 21.891 154.295 21.7517 153.16 21.931C152.182 22.0551 151.275 22.5121 150.594 23.2252C149.945 23.9482 149.658 25.0447 150.03 25.9485C150.239 26.4087 150.553 26.8132 150.948 27.1294C152.178 28.1611 153.758 28.679 155.361 28.5754C156.958 28.4583 158.466 27.7964 159.633 26.7004" fill="#232323"/>
<path d="M156.758 21.461C154.854 20.6898 152.447 20.6729 150.695 21.8586C149.116 22.9287 148.297 25.0687 149.311 26.8015C151.533 30.6045 157.604 30.4165 160.359 27.4257C161.106 26.616 160.098 25.0928 159.118 25.8158C157.99 26.6449 156.785 27.3703 155.36 27.4787C154.666 27.5409 153.967 27.4616 153.304 27.2458C152.641 27.03 152.029 26.6821 151.504 26.2231C150.434 25.2326 150.926 23.8854 152.131 23.254C153.42 22.5816 154.96 22.7069 156.283 23.2058C157.382 23.6179 157.823 21.8899 156.765 21.461H156.758Z" fill="#232323"/>
<path d="M170.237 32.3541C169.918 34.7725 169.415 37.163 168.731 39.5046C168.15 41.4615 167.642 43.269 167.856 45.332C167.934 46.0242 168.046 46.7119 168.194 47.3925C168.346 48.1372 168.784 49.0579 168.391 49.7688C167.936 50.5906 166.866 51.3546 166.167 51.9667C165.343 52.6923 164.474 53.366 163.567 53.9839C162.888 54.479 162.138 54.8675 161.342 55.1359C160.539 55.4034 159.666 55.3726 158.884 55.0491C157.551 54.4322 156.956 52.8319 156.922 51.3642C156.888 49.8965 157.329 48.4409 157.46 46.9949C157.55 46.3336 157.481 45.6603 157.26 45.0307C156.725 43.7173 154.982 43.4233 153.915 42.6714C152.723 41.8374 151.781 40.6942 151.191 39.3648C149.909 36.4246 150.372 32.9229 151.878 30.0912C152.501 28.9391 153.264 27.8688 154.151 26.9051C155.588 25.3068 157.484 24.1912 159.579 23.7107C161.674 23.2302 163.866 23.4082 165.856 24.2204C168.577 25.3459 170.869 27.6667 170.237 32.3541Z" fill="white"/>
<path d="M169.45 32.1375C168.941 35.1861 168.025 38.0781 167.254 41.0617C166.851 42.498 166.708 43.9951 166.835 45.4816C166.907 46.1661 167.013 46.8505 167.15 47.5253C167.269 48.1037 167.681 48.8966 167.341 49.4389C167.023 49.9426 166.427 50.345 165.974 50.7162C165.43 51.162 164.899 51.6271 164.34 52.0561C163.299 52.8538 162.082 53.8444 160.766 54.1215C159.45 54.3987 158.549 53.6756 158.207 52.4514C157.848 51.1668 158.176 49.8221 158.385 48.5399C158.614 47.1421 158.867 45.5636 158.144 44.255C157.612 43.291 156.626 42.7656 155.664 42.3101C154.533 41.7927 153.56 40.982 152.847 39.962C152.134 38.942 151.707 37.7498 151.611 36.5092C151.148 31.335 154.985 25.8185 160.116 24.7508C162.441 24.2688 165.116 24.7315 167.035 26.1775C169.011 27.6693 169.382 30.0215 169.105 32.3544C169.033 32.9569 169.669 33.463 170.218 33.4678C170.881 33.4678 171.255 32.9496 171.332 32.3544C171.662 29.7468 171.165 27.0355 169.262 25.1099C167.519 23.3434 164.96 22.4589 162.514 22.3071C156.248 21.9359 150.854 27.0548 149.569 32.9738C148.909 36.02 149.345 39.3096 151.317 41.7968C152.202 42.8952 153.335 43.7682 154.623 44.3441C155.081 44.5634 155.652 44.7731 155.997 45.1635C156.479 45.7202 156.363 46.624 156.286 47.306C155.961 50.1546 154.99 53.748 157.829 55.7242C160.668 57.7004 164.068 55.1554 166.264 53.3262C167.437 52.3477 169.278 51.1572 169.565 49.5545C169.722 48.6725 169.358 47.8218 169.175 46.9758C168.949 46.0221 168.837 45.0448 168.842 44.0646C168.886 42.0619 169.613 40.158 170.088 38.2324C170.541 36.2984 170.863 34.3363 171.052 32.3592C171.151 31.4482 169.604 31.2313 169.45 32.1375Z" fill="#232323"/>
<path d="M169.45 32.1375C168.941 35.1861 168.025 38.0781 167.254 41.0617C166.851 42.498 166.708 43.9951 166.835 45.4816C166.907 46.1661 167.013 46.8505 167.15 47.5253C167.269 48.1037 167.681 48.8966 167.341 49.4389C167.023 49.9426 166.427 50.345 165.974 50.7162C165.43 51.162 164.899 51.6271 164.34 52.0561C163.299 52.8538 162.082 53.8444 160.766 54.1215C159.45 54.3987 158.549 53.6756 158.207 52.4514C157.848 51.1668 158.176 49.8221 158.385 48.5399C158.614 47.1421 158.867 45.5636 158.144 44.255C157.612 43.291 156.626 42.7656 155.664 42.3101C154.533 41.7927 153.56 40.982 152.847 39.962C152.134 38.942 151.707 37.7498 151.611 36.5092C151.148 31.335 154.985 25.8185 160.116 24.7508C162.441 24.2688 165.116 24.7315 167.035 26.1775C169.011 27.6693 169.382 30.0215 169.105 32.3544C169.033 32.9569 169.669 33.463 170.218 33.4678C170.881 33.4678 171.255 32.9496 171.332 32.3544C171.662 29.7468 171.165 27.0355 169.262 25.1099C167.519 23.3434 164.96 22.4589 162.514 22.3071C156.248 21.9359 150.854 27.0548 149.569 32.9738C148.909 36.02 149.345 39.3096 151.317 41.7968C152.202 42.8952 153.335 43.7682 154.623 44.3441C155.081 44.5634 155.652 44.7731 155.997 45.1635C156.479 45.7202 156.363 46.624 156.286 47.306C155.961 50.1546 154.99 53.748 157.829 55.7242C160.668 57.7004 164.068 55.1554 166.264 53.3262C167.437 52.3477 169.278 51.1572 169.565 49.5545C169.722 48.6725 169.358 47.8218 169.175 46.9758C168.949 46.0221 168.837 45.0448 168.842 44.0646C168.886 42.0619 169.613 40.158 170.088 38.2324C170.541 36.2984 170.863 34.3363 171.052 32.3592C171.151 31.4482 169.604 31.2313 169.45 32.1375Z" fill="#232323"/>
<path d="M153.23 31.1831C154.194 31.3205 155.158 31.8242 154.527 32.9352C154.175 33.5497 153.51 33.8847 153.115 34.4583C152.372 35.5331 153.597 36.1887 154.452 36.5502C155.026 36.7912 155.416 35.8272 154.874 35.5476C154.57 35.3885 154.071 35.2343 154.199 34.8945C154.3 34.6294 154.749 34.3257 154.922 34.0968C155.358 33.6147 155.614 32.9964 155.645 32.3471C155.645 30.9927 154.467 30.5372 153.312 30.4191C152.883 30.3782 152.777 31.1156 153.209 31.1783L153.23 31.1831Z" fill="#232323"/>
<path d="M158.115 33.0171C158.03 33.0185 157.945 33.0391 157.869 33.0772C157.792 33.1154 157.725 33.1701 157.672 33.2376C157.619 33.305 157.582 33.3833 157.563 33.4669C157.544 33.5505 157.544 33.6373 157.563 33.7208C157.585 33.7973 157.625 33.8678 157.678 33.9268C157.732 33.9858 157.798 34.0317 157.872 34.061C157.946 34.0903 158.026 34.1023 158.105 34.096C158.185 34.0896 158.261 34.0652 158.33 34.0245C158.42 33.974 158.499 33.9059 158.562 33.8242C158.626 33.7426 158.672 33.6491 158.698 33.5492C158.725 33.4494 158.731 33.3452 158.716 33.243C158.702 33.1407 158.667 33.0424 158.613 32.9539C158.56 32.8654 158.49 32.7886 158.406 32.7278C158.322 32.6671 158.228 32.6238 158.127 32.6005C158.026 32.5772 157.922 32.5743 157.82 32.592C157.718 32.6098 157.621 32.6478 157.535 32.7038C157.397 32.8088 157.291 32.95 157.229 33.1117C157.167 33.2734 157.152 33.4491 157.184 33.6192C157.216 33.7893 157.295 33.9471 157.412 34.0748C157.529 34.2026 157.679 34.2953 157.845 34.3426C158.025 34.3685 158.208 34.3373 158.369 34.2534C158.53 34.1695 158.66 34.0372 158.742 33.8751C158.923 33.5497 158.621 33.0846 158.236 33.2147L158.031 33.2894C157.972 33.3066 157.915 33.3309 157.862 33.3617C157.773 33.434 158.103 33.3015 158.084 33.3617C158.115 33.3617 158.103 33.3617 158.053 33.3424L158.125 33.4172C158.125 33.4172 158.156 33.4605 158.144 33.4726C158.132 33.4846 158.13 33.3593 158.144 33.3593C158.14 33.3849 158.132 33.41 158.123 33.434C158.079 33.5063 158.007 33.4919 157.932 33.4822C157.903 33.4822 157.872 33.4075 157.932 33.4822C157.932 33.4629 157.903 33.4533 157.894 33.4292C157.885 33.3993 157.885 33.3676 157.894 33.3376C157.894 33.3111 157.935 33.2581 157.894 33.3111C157.87 33.3473 157.853 33.3641 157.894 33.3111C157.918 33.275 157.91 33.2894 157.894 33.3111C157.879 33.328 157.877 33.3328 157.894 33.3111C158.045 33.2027 158.207 33.2774 158.376 33.5401L158.318 33.7473C158.306 33.754 158.294 33.7621 158.284 33.7714C158.324 33.7451 158.361 33.7153 158.395 33.6823C158.447 33.6271 158.482 33.5581 158.496 33.4835C158.51 33.4089 158.502 33.3319 158.473 33.2618C158.443 33.1917 158.395 33.1315 158.332 33.0885C158.27 33.0455 158.196 33.0215 158.12 33.0195L158.115 33.0171Z" fill="#232323"/>
<path d="M152.295 32.053C152.209 32.0544 152.125 32.075 152.048 32.1131C151.972 32.1513 151.904 32.206 151.852 32.2734C151.799 32.3409 151.762 32.4192 151.743 32.5028C151.724 32.5864 151.724 32.6732 151.743 32.7567C151.765 32.8332 151.804 32.9037 151.858 32.9627C151.911 33.0216 151.978 33.0676 152.052 33.0969C152.126 33.1262 152.205 33.1382 152.285 33.1318C152.364 33.1255 152.441 33.1011 152.51 33.0604C152.6 33.0099 152.679 32.9418 152.742 32.8601C152.805 32.7785 152.851 32.685 152.878 32.5851C152.904 32.4853 152.91 32.3811 152.896 32.2789C152.881 32.1766 152.846 32.0783 152.793 31.9898C152.74 31.9013 152.669 31.8244 152.586 31.7637C152.502 31.703 152.407 31.6597 152.307 31.6364C152.206 31.6131 152.102 31.6102 152 31.6279C151.898 31.6457 151.801 31.6837 151.714 31.7397C151.577 31.8447 151.471 31.9859 151.409 32.1476C151.347 32.3093 151.331 32.485 151.364 32.6551C151.396 32.8252 151.475 32.983 151.592 33.1107C151.708 33.2385 151.859 33.3312 152.025 33.3785C152.205 33.4044 152.388 33.3732 152.549 33.2893C152.71 33.2054 152.84 33.073 152.922 32.9109C153.102 32.5856 152.801 32.1205 152.416 32.2506L152.211 32.3253C152.151 32.3423 152.094 32.3674 152.042 32.4C151.953 32.4699 152.283 32.3374 152.264 32.4C152.295 32.4 152.285 32.4 152.235 32.3807L152.305 32.4555C152.305 32.4555 152.336 32.5012 152.324 32.5109C152.312 32.5205 152.309 32.3976 152.324 32.3976C152.32 32.4242 152.313 32.4501 152.302 32.4747C152.259 32.5446 152.187 32.5302 152.114 32.5205C152.083 32.5205 152.054 32.4458 152.114 32.5205C152.102 32.5012 152.085 32.4916 152.076 32.4675C152.068 32.4374 152.068 32.406 152.076 32.3759C152.076 32.3494 152.117 32.2964 152.076 32.3494C152.052 32.3856 152.035 32.4024 152.076 32.3494C152.1 32.3133 152.095 32.3277 152.076 32.3494C152.061 32.3663 152.056 32.3711 152.076 32.3494C152.228 32.241 152.389 32.3157 152.558 32.5784L152.5 32.7856L152.466 32.8097C152.506 32.7841 152.543 32.7542 152.577 32.7206C152.629 32.6655 152.664 32.5964 152.678 32.5218C152.692 32.4472 152.684 32.3702 152.655 32.3001C152.626 32.23 152.577 32.1698 152.514 32.1268C152.452 32.0838 152.378 32.0598 152.302 32.0578L152.295 32.053Z" fill="#232323"/>
<path d="M169.474 38.8757C169.642 39.3577 169.811 39.9915 169.493 40.4446C169.408 40.5725 169.293 40.6779 169.159 40.7517C169.024 40.8255 168.873 40.8656 168.72 40.8684C168.566 40.8713 168.414 40.8368 168.277 40.768C168.14 40.6993 168.021 40.5982 167.931 40.4735C167.428 39.8252 167.449 38.907 167.664 38.1141C167.878 37.3212 168.257 36.5741 168.387 35.7644C168.517 34.9546 168.372 34.0147 167.714 33.5231C167.119 33.0772 166.254 33.1302 165.606 33.4942C164.957 33.8581 163.786 34.957 163.651 35.7547C163.487 34.8111 163.597 33.8401 163.967 32.9567C164.295 32.1855 164.815 31.5107 165.078 30.7034C165.189 30.4078 165.24 30.0928 165.227 29.7773C165.213 29.4618 165.137 29.1521 165.001 28.867C164.62 28.1922 164.112 28.5657 163.466 28.5175C162.88 28.4724 162.318 28.2665 161.841 27.9222C161.583 27.7367 160.752 27.0209 160.848 26.6401C160.415 28.3271 158.73 28.6163 157.233 28.6091C154.25 28.6091 151.228 27.8427 148.753 26.1774C146.278 24.5121 144.395 21.8852 143.916 18.9474C143.736 17.998 143.777 17.02 144.036 16.0891C144.552 14.4286 146.022 13.1489 147.697 12.6886C149.402 12.265 151.205 12.5008 152.744 13.349C154.268 14.2011 155.551 15.4278 156.469 16.9134C157.238 15.73 159.099 15.6746 160.212 16.5422C160.864 17.0811 161.333 17.8085 161.555 18.6245C161.796 19.4029 161.675 20.0512 162.333 20.6031C162.8 19.2607 163.861 18.2099 165.324 18.0316C166.026 17.9629 166.733 18.0773 167.378 18.3636C168.023 18.65 168.582 19.0986 169.001 19.6656C169.408 20.241 169.683 20.8984 169.808 21.5917C169.933 22.285 169.904 22.9972 169.724 23.6782C170.202 23.4088 170.733 23.2464 171.28 23.2023C171.826 23.1582 172.376 23.2334 172.891 23.4228C173.402 23.6229 173.848 23.958 174.183 24.3923C174.518 24.8265 174.729 25.3435 174.793 25.8882C174.837 26.4352 174.702 26.9817 174.408 27.4454C174.115 27.9092 173.679 28.2651 173.166 28.4597C173.625 28.6177 174.041 28.8831 174.377 29.2339C174.713 29.5846 174.961 30.0105 175.099 30.4762C175.238 30.942 175.263 31.434 175.174 31.9116C175.084 32.3891 174.881 32.8383 174.583 33.2218C173.882 34.1256 172.708 34.5714 171.566 34.6076C172.2 35.1928 172.612 35.9797 172.732 36.8344C172.783 37.2605 172.721 37.6926 172.552 38.0869C172.383 38.4813 172.112 38.8241 171.768 39.0805C171.419 39.3107 171.002 39.4157 170.585 39.3785C170.169 39.3413 169.777 39.1641 169.474 38.8757Z" fill="#232323"/>
<path d="M168.649 39.1023C168.681 39.2059 168.902 39.8591 168.753 39.9193C168.654 39.9603 168.529 39.4084 168.512 39.3481C168.418 38.5745 168.835 37.7768 169.09 37.0731C169.572 35.7693 169.746 34.2124 168.792 33.0677C166.84 30.73 163.169 33.0677 162.564 35.4536H164.733C164.379 33.0243 167.018 31.2795 166.201 28.8068C165.876 27.8211 165.092 27.2596 164.056 27.3439C163.572 27.4219 163.076 27.3371 162.646 27.1029C162.487 27.0119 162.341 26.8991 162.212 26.7679C162.039 26.6041 161.971 26.3534 161.971 26.6378C162 25.346 160.118 25.134 159.757 26.3365C159.501 27.1921 158.691 27.4114 157.872 27.4717C156.693 27.5422 155.509 27.4613 154.351 27.2307C151.96 26.78 149.632 25.7847 147.856 24.0977C146.253 22.5745 145.051 20.4561 144.875 18.2221C144.704 15.8241 146.287 13.8286 148.697 13.5298C151.623 13.1707 154.021 15.159 155.537 17.4557C156.019 18.1787 156.934 18.1281 157.426 17.4557C158.06 16.5857 159.443 17.14 159.969 17.8124C160.819 18.9041 160.54 20.3646 161.571 21.3695C162.2 21.9817 163.118 21.6443 163.403 20.8875C163.943 19.4415 165.391 18.7185 166.847 19.3066C168.454 19.9717 169.054 21.7744 168.683 23.3795C168.632 23.5888 168.644 23.8082 168.715 24.0113C168.787 24.2144 168.915 24.3924 169.086 24.5238C169.257 24.6551 169.462 24.7342 169.676 24.7514C169.891 24.7686 170.106 24.7232 170.295 24.6206C171.288 24.1218 172.592 24.1242 173.318 25.0761C173.848 25.7702 173.8 26.9824 172.877 27.3487C171.799 27.7729 171.794 29.1297 172.877 29.5539C173.318 29.7292 173.679 30.0613 173.891 30.4864C174.103 30.9116 174.15 31.4 174.024 31.8579C173.725 32.9375 172.619 33.4244 171.582 33.4991C170.655 33.5641 170.095 34.6679 170.804 35.3813C171.339 35.9211 171.782 36.6658 171.58 37.4539C171.438 38.0154 170.83 38.5456 170.286 38.0732C169.182 37.1092 167.563 38.7215 168.674 39.6855C170.158 40.9725 172.366 40.7001 173.395 38.9746C174.45 37.2056 173.667 35.1957 172.363 33.822L171.582 35.7042C173.72 35.6006 175.826 34.451 176.277 32.2049C176.713 30.0359 175.477 28.1344 173.486 27.3487V29.5539C175.655 28.7032 176.651 26.1582 175.373 24.1145C174.029 21.9624 171.329 21.637 169.187 22.724L170.802 23.9651C171.428 21.1767 170.221 18.2414 167.444 17.2171C164.772 16.2218 162.241 17.7883 161.289 20.3115L163.121 19.8295C162.779 19.497 162.798 19.0342 162.692 18.5884C162.576 18.1256 162.405 17.6782 162.183 17.2557C161.762 16.4024 161.078 15.7071 160.231 15.2722C158.573 14.4697 156.616 14.8698 155.537 16.364H157.426C155.676 13.713 152.977 11.638 149.714 11.4572C146.822 11.2957 143.631 13.1129 142.949 16.0868C142.258 19.1138 143.576 22.3287 145.485 24.6423C147.54 27.1318 150.505 28.7393 153.65 29.3611C156.452 29.9274 160.896 30.436 161.962 26.9511L159.747 26.6523C159.72 27.5801 160.506 28.3393 161.193 28.8405C161.656 29.1858 162.185 29.432 162.747 29.5635C163.094 29.6407 163.904 29.8166 164.263 29.6166C164.054 29.4045 163.988 29.3756 164.066 29.5563C164.112 29.6743 164.123 29.803 164.099 29.9274C164.075 30.1782 164.007 30.4229 163.899 30.6504C163.658 31.2505 163.263 31.7928 163.003 32.3905C162.507 33.5464 162.359 34.8222 162.579 36.0609C162.75 37.1936 164.507 37.0827 164.748 36.0609C164.916 35.3716 166.635 33.5449 167.259 34.6366C167.603 35.2391 167.259 36.0826 167.061 36.6803C166.796 37.4707 166.507 38.2612 166.514 39.1071C166.514 40.4182 167.309 41.91 168.804 41.8136C170.476 41.7051 170.758 39.9362 170.288 38.6565C169.922 37.637 168.341 38.0323 168.649 39.1023Z" fill="#232323"/>
<path d="M161.545 42.7775C160.622 42.9901 159.673 43.0713 158.727 43.0185C157.763 42.9799 156.922 42.6281 155.992 42.4642C154.869 42.2666 154.187 43.6692 155.201 44.3368C157.252 45.6695 160.091 45.1827 162.152 44.2283C162.981 43.8451 162.393 42.5702 161.545 42.7823V42.7775Z" fill="#232323"/>
<path d="M159.845 31.7736C159.122 30.9879 158.072 30.9325 157.081 31.1229C156.527 31.2289 156.657 32.1182 157.214 32.1014C157.937 32.0821 158.744 31.9086 159.383 32.3809C159.749 32.6533 160.132 32.0845 159.865 31.7736H159.845Z" fill="#232323"/>
<path d="M155.905 38.384C156.746 38.3165 157.915 38.1695 158.106 37.1549C158.2 36.6464 157.52 36.297 157.238 36.7886C156.917 37.3429 156.411 37.5116 155.806 37.6417C155.392 37.7213 155.479 38.4178 155.905 38.384Z" fill="#232323"/>
<path d="M174.036 60.8813C178.099 73.8785 178.099 82.0339 179.786 95.6504C180.027 97.6025 180.244 99.6992 179.463 101.468C178.959 102.515 178.207 103.422 177.272 104.112C173.209 107.324 167.936 107.512 163.003 107.508C156.11 107.508 148.977 107.283 142.759 103.936C142.399 103.78 142.093 103.521 141.879 103.191C141.655 102.789 141.672 102.276 141.696 101.798C142.446 87.442 143.082 75.9704 148.502 62.349" fill="white"/>
<path d="M173.233 61.1032C174.32 64.9423 175.313 68.7911 176.022 72.7194C176.644 76.1633 177.065 79.6385 177.432 83.1185C177.836 86.9745 178.196 90.8305 178.637 94.6865C178.878 96.6579 179.321 98.8751 178.605 100.796C177.955 102.536 176.231 103.726 174.646 104.548C171.414 106.221 167.642 106.406 164.075 106.428C160.116 106.452 156.098 106.428 152.18 105.809C150.233 105.512 148.318 105.033 146.461 104.38C145.577 104.057 144.714 103.679 143.877 103.249C143.588 103.102 143.055 102.934 142.867 102.635C142.641 102.266 142.867 101.232 142.887 100.839C143.104 96.8194 143.33 92.7971 143.696 88.7893C144.064 84.4975 144.692 80.232 145.576 76.0163C146.567 71.4373 148.049 67.0462 149.586 62.6263C149.991 61.4623 148.083 60.6308 147.574 61.778C144.084 69.6129 142.472 78.2744 141.609 86.7625C141.176 91.0209 140.935 95.2963 140.713 99.5716C140.662 100.581 140.508 101.639 140.616 102.647C140.739 103.767 141.395 104.44 142.352 104.951C144.232 105.946 146.222 106.716 148.283 107.245C152.401 108.31 156.694 108.534 160.93 108.575C164.849 108.614 168.919 108.696 172.715 107.575C176.453 106.474 180.427 103.992 180.948 99.8078C181.21 97.6846 180.772 95.5252 180.521 93.4213C180.261 91.2523 180.025 89.0977 179.798 86.9336C178.834 78.0431 177.738 69.1743 174.843 60.6646C174.501 59.6596 172.944 60.0669 173.238 61.108L173.233 61.1032Z" fill="#232323"/>
<path d="M165.666 111.067C162.877 112.479 159.593 112.383 156.472 112.193C151.338 111.877 146.171 111.383 141.25 109.889C136.329 108.395 131.625 105.825 128.279 101.919C126.47 99.8029 124.905 97.4604 122.254 96.2867C119.924 95.2504 117.562 95.4986 116.752 92.4885C116.401 91.1751 116.511 89.7821 116.709 88.4349C117.251 84.7225 118.408 81.1264 120.134 77.7948C120.348 77.3827 120.596 76.9489 121.011 76.7368C121.393 76.5838 121.808 76.5332 122.216 76.5898C124.607 76.7271 127.183 77.2863 129.446 76.397C131.772 75.486 133.721 73.7653 135.784 72.406C140.168 69.514 145.311 68.1355 150.466 67.439C154.92 66.8389 160.214 66.0171 164.651 66.5786C171.009 67.386 177.424 68.7284 183.006 71.8806C188.587 75.0329 193.289 80.2168 194.593 86.4925C195.837 92.4693 193.827 98.8726 189.942 103.582C186.057 108.291 180.456 111.397 174.561 112.981" fill="#2969FF"/>
<path d="M165.297 110.436C162.362 111.807 158.973 111.554 155.831 111.342C152.375 111.101 148.919 110.783 145.521 110.089C139.571 108.884 133.642 106.457 129.456 101.907C127.528 99.815 125.99 97.3134 123.46 95.8818C122.402 95.2793 121.245 94.9684 120.098 94.5901C119.09 94.2599 118.23 93.7851 117.82 92.7488C117.206 91.1896 117.497 89.3748 117.782 87.7722C118.074 86.1373 118.486 84.5263 119.016 82.9522C119.54 81.3456 120.198 79.7857 120.982 78.2888C121.387 77.5321 121.705 77.5345 122.527 77.5923C123.349 77.6502 124.154 77.7466 124.968 77.8092C126.561 77.9321 128.217 77.9273 129.73 77.3538C131.148 76.7732 132.486 76.0161 133.714 75.1004C136.346 73.2447 138.934 71.5577 141.988 70.4636C145.041 69.3694 148.148 68.7766 151.319 68.3548C154.491 67.9331 157.696 67.4776 160.911 67.439C164.126 67.4004 167.305 67.9331 170.433 68.5693C173.619 69.22 176.795 70.0997 179.764 71.4348C184.941 73.7629 189.605 77.4983 192.142 82.6678C194.74 87.9698 194.227 94.19 191.482 99.3233C188.703 104.546 183.883 108.349 178.478 110.619C177.126 111.181 175.741 111.658 174.33 112.048C173.125 112.386 173.641 114.229 174.843 113.909C180.868 112.306 186.693 109.187 190.735 104.343C194.832 99.4294 196.969 92.8187 195.748 86.4611C194.603 80.5109 190.489 75.5149 185.573 72.1771C179.856 68.2922 172.922 66.6534 166.17 65.7279C162.818 65.295 159.426 65.2812 156.072 65.6869C152.686 66.0557 149.254 66.463 145.928 67.2149C142.602 67.9668 139.286 69.1429 136.329 70.8974C133.555 72.5458 130.926 75.4499 127.586 75.8427C125.802 76.0524 124.014 75.686 122.233 75.6017C120.522 75.527 119.731 76.4042 119.018 77.8502C117.456 81.0069 116.388 84.385 115.851 87.8662C115.422 90.6883 115.324 94.3732 118.305 95.8385C119.358 96.359 120.522 96.5615 121.609 96.9904C123.033 97.5544 124.192 98.5545 125.224 99.6704C126.291 100.832 127.222 102.109 128.301 103.254C129.361 104.371 130.524 105.385 131.777 106.281C134.365 108.101 137.218 109.51 140.236 110.46C143.677 111.581 147.266 112.181 150.859 112.561C154.334 112.928 157.995 113.357 161.485 112.998C163.068 112.85 164.611 112.411 166.035 111.701C166.885 111.272 166.141 110.041 165.297 110.436Z" fill="#2969FF"/>
<path d="M165.297 110.436C161.706 111.952 157.677 111.448 153.905 111.123C149.832 110.771 145.747 110.195 141.824 109.016C138.505 108.019 135.317 106.541 132.531 104.437C131.181 103.413 129.954 102.238 128.873 100.933C127.786 99.6342 126.776 98.2557 125.513 97.1157C124.202 95.9444 122.633 95.0989 120.934 94.6479C119.425 94.2237 118.225 93.843 117.705 92.221C117.329 91.0425 115.524 91.5245 115.844 92.7344C116.242 94.2262 117.102 95.3854 118.512 96.0602C119.878 96.7036 121.385 96.947 122.684 97.7472C124.202 98.6774 125.359 100.085 126.484 101.437C127.621 102.86 128.894 104.168 130.285 105.343C136.601 110.484 144.701 112.181 152.633 112.814C156.954 113.154 162.087 113.899 166.047 111.701C166.898 111.219 166.15 110.079 165.309 110.436H165.297Z" fill="#232323"/>
<path d="M219.146 88.3843C218.953 96.8988 214.875 105.119 208.67 110.949C199.439 119.625 182.791 124.954 170.329 121.505C164.726 119.955 159.563 115.203 159.508 109.392C159.494 107.797 160.231 105.85 161.829 105.739C163.104 105.65 164.099 106.838 164.615 108.007C165.131 109.175 165.441 110.506 166.381 111.381C166.008 109.722 166.092 107.993 166.622 106.377C166.756 105.853 167.044 105.381 167.449 105.023C168.562 104.177 170.211 105.177 170.823 106.43C171.435 107.684 171.546 109.166 172.283 110.347C172.098 108.694 172.359 107.023 173.038 105.505C173.279 104.941 173.635 104.37 174.195 104.107C175.204 103.625 176.402 104.411 176.959 105.377C177.516 106.344 177.682 107.488 178.21 108.476C178.084 107.202 177.969 105.878 178.402 104.676C178.836 103.473 180.005 102.43 181.278 102.574C182.355 102.697 183.169 103.591 183.786 104.483C184.403 105.375 184.991 106.363 185.934 106.881C186.876 107.399 188.358 107.141 188.662 106.1" fill="white"/>
<path d="M167.676 50.7931C179.364 50.7931 191.458 52.897 201.416 59.3269C210.092 64.9229 217.021 74.3171 218.074 84.7741C219.163 95.5853 213.666 106.223 205.06 112.605C197.001 118.572 186.414 122.021 176.364 121.346C171.464 121.018 166.584 119.574 163.27 115.75C161.757 114.003 160.706 111.732 160.711 109.392C160.711 108.655 160.882 107.327 161.675 106.982C162.639 106.587 163.362 108.141 163.632 108.792C164.141 110.028 164.541 111.25 165.512 112.219C166.408 113.116 167.789 112.19 167.546 111.036C167.305 109.935 167.295 108.796 167.515 107.691C167.637 107.105 167.806 105.686 168.679 105.98C169.45 106.24 169.806 107.071 170.033 107.778C170.378 108.862 170.626 109.947 171.207 110.949C171.787 111.952 173.631 111.593 173.511 110.325C173.396 109.306 173.463 108.274 173.708 107.279C173.838 106.773 174.125 105.401 174.73 105.206C175.335 105.011 175.875 105.929 176.06 106.341C176.485 107.245 176.701 108.209 177.135 109.101C177.663 110.171 179.545 109.691 179.442 108.476C179.309 107.093 178.991 105.064 180.268 104.085C181.546 103.107 182.548 104.808 183.18 105.71C183.982 106.857 184.941 108.019 186.404 108.252C187.867 108.486 189.236 107.821 189.778 106.406C190.32 104.992 188.074 104.416 187.554 105.794C187.448 106.074 186.754 105.965 186.534 105.864C185.905 105.572 185.479 104.845 185.108 104.295C184.245 103.02 183.223 101.68 181.603 101.403C180.032 101.138 178.593 102.02 177.747 103.297C176.728 104.816 176.82 106.734 176.986 108.472L179.292 107.847C178.68 106.604 178.499 105.18 177.574 104.097C176.735 103.133 175.405 102.463 174.099 102.827C172.744 103.208 172.074 104.514 171.626 105.743C171.1 107.209 170.909 108.773 171.064 110.322L173.368 109.701C172.58 108.363 172.556 106.698 171.681 105.399C170.925 104.283 169.621 103.377 168.223 103.471C164.668 103.7 164.707 109.216 165.232 111.682L167.266 110.498C166.276 109.513 166.093 108.016 165.408 106.838C164.724 105.659 163.548 104.565 162.09 104.514C159.251 104.418 158.188 107.674 158.357 109.99C158.761 115.6 163.177 119.955 168.17 121.982C173.164 124.009 178.969 124.002 184.206 123.283C189.818 122.495 195.251 120.743 200.266 118.104C205.178 115.535 209.61 112.096 213.018 107.7C216.688 102.965 219.146 97.3374 219.886 91.3775C221.311 79.9155 215.548 68.6873 206.971 61.3537C197.418 53.1766 184.707 49.9665 172.375 49.4748C170.819 49.4122 169.259 49.3953 167.7 49.4122C166.82 49.4122 166.818 50.781 167.7 50.781L167.676 50.7931Z" fill="#232323"/>
<path d="M217.266 95.4624C215.249 102.509 210.658 108.816 204.674 113.125C200.51 116.077 195.883 118.315 190.983 119.746C186.112 121.192 180.981 121.927 175.899 121.515C171.011 121.117 166.174 119.587 162.94 115.699C161.465 113.928 160.448 111.65 160.479 109.317C160.479 108.493 160.699 107.235 161.518 106.811C162.619 106.24 163.485 107.876 163.815 108.662C164.321 109.867 164.685 111.096 165.642 112.036C165.795 112.188 165.993 112.286 166.206 112.317C166.42 112.347 166.637 112.308 166.827 112.205C167.016 112.102 167.167 111.94 167.258 111.744C167.348 111.549 167.373 111.329 167.329 111.118C167.056 109.885 167.062 108.607 167.345 107.377C167.505 106.712 167.733 105.461 168.671 105.743C169.546 106.006 169.972 106.874 170.23 107.671C170.57 108.739 170.799 109.84 171.377 110.804C171.84 111.583 173.38 111.419 173.274 110.351C173.159 109.332 173.222 108.301 173.46 107.303C173.614 106.693 173.942 105.204 174.665 104.979C175.308 104.782 175.927 105.587 176.171 106.057C176.653 106.975 176.843 108.016 177.306 108.949C177.725 109.797 179.301 109.515 179.203 108.496C179.06 107.001 178.774 104.958 180.121 103.897C181.427 102.871 182.545 104.399 183.225 105.392C184.044 106.585 184.982 107.828 186.512 108.043C187.809 108.228 189.091 107.63 189.549 106.356C189.961 105.211 188.156 104.669 187.746 105.799C187.604 106.194 186.999 106.209 186.662 106.119C186.052 105.958 185.601 105.38 185.247 104.895C184.329 103.63 183.505 102.097 181.873 101.666C180.328 101.254 178.856 102.047 177.969 103.302C176.92 104.787 177.022 106.698 177.185 108.416L179.085 107.963C178.475 106.736 178.292 105.329 177.398 104.244C176.629 103.314 175.337 102.673 174.125 103.023C172.833 103.396 172.197 104.695 171.785 105.864C171.288 107.278 171.11 108.784 171.262 110.274L173.158 109.821C172.406 108.558 172.346 107.016 171.611 105.743C170.953 104.606 169.683 103.644 168.331 103.666C166.75 103.693 165.921 105.035 165.538 106.401C165.067 108.091 165.019 109.87 165.398 111.583L167.085 110.665C166.063 109.66 165.88 108.163 165.189 106.958C164.497 105.753 163.318 104.671 161.841 104.724C158.949 104.83 158.33 108.32 158.592 110.576C159.214 115.926 163.689 120.052 168.507 121.903C173.477 123.809 179.234 123.787 184.43 123.047C189.926 122.244 195.246 120.513 200.162 117.928C205.064 115.362 209.46 111.94 212.87 107.565C215.464 104.245 217.416 100.47 218.625 96.4336" fill="#232323"/>
<path d="M137.729 73.987C137.228 69.9302 136.544 65.9023 135.678 61.9033C136.512 61.7346 137.365 62.0359 138.144 62.3708C140.505 63.3806 142.749 64.7592 144.465 66.6703C146.181 68.5814 147.331 71.0685 147.331 73.6376" fill="#2969FF"/>
<path d="M138.553 73.987C138.325 71.9915 138.058 70.0001 137.751 68.0126C137.435 65.9738 136.934 63.9446 136.666 61.9033L135.678 62.889C137.054 62.848 138.459 63.6963 139.628 64.3518C140.835 65.0129 141.949 65.8297 142.942 66.7811C143.906 67.7112 144.695 68.8066 145.273 70.0153C145.861 71.2613 146.041 72.582 146.352 73.9075C146.574 74.8715 148.114 74.898 148.312 73.9075C148.965 70.6395 146.796 67.1595 144.496 65.0291C143.266 63.9 141.888 62.944 140.399 62.1877C138.891 61.4116 137.153 60.5007 135.42 60.9513C135.171 61.0229 134.96 61.1888 134.831 61.4138C134.702 61.6389 134.667 61.9053 134.731 62.1563C135.319 64.0843 135.623 66.1618 135.984 68.1524C136.346 70.1431 136.662 72.1771 136.948 74.1991C137.071 75.1101 138.672 74.9052 138.568 73.9798L138.553 73.987Z" fill="#2969FF"/>
<path d="M135.683 61.8984C136.517 61.7297 137.37 62.031 138.149 62.366C140.51 63.3758 142.754 64.7543 144.47 66.6654C146.186 68.5765 147.335 71.0637 147.335 73.6327" fill="#2969FF"/>
<path d="M135.683 62.7227C137.098 62.5492 138.561 63.4722 139.744 64.1542C140.933 64.8727 142.02 65.7481 142.976 66.757C143.933 67.6968 144.717 68.7982 145.292 70.0105C145.875 71.271 145.904 72.6302 146.352 73.9147C146.416 74.1246 146.546 74.3084 146.722 74.439C146.899 74.5696 147.112 74.6401 147.332 74.6401C147.551 74.6401 147.765 74.5696 147.941 74.439C148.118 74.3084 148.247 74.1246 148.311 73.9147C148.805 72.3434 148.123 70.4925 147.451 69.0658C146.726 67.5504 145.711 66.192 144.463 65.0676C143.258 63.9783 141.735 63.1179 140.281 62.3925C138.785 61.643 137.17 60.8429 135.461 61.1152C134.555 61.2574 134.758 62.848 135.681 62.7347L135.683 62.7227Z" fill="#232323"/>
<path d="M135.897 102.637C135.122 106.782 132.913 110.522 129.658 113.203C129.311 113.487 128.935 113.81 128.887 114.256C128.855 114.658 129.128 115.015 129.386 115.321C130.717 116.852 132.321 118.122 134.116 119.066C134.899 117.076 136.214 115.339 137.917 114.046C140.703 111.937 145.048 111.248 146.521 107.761" fill="#2969FF"/>
<path d="M135.133 102.425C134.25 106.122 132.233 109.451 129.366 111.947C128.73 112.499 128.012 112.976 127.788 113.839C127.527 114.839 128.123 115.656 128.752 116.369C130.097 117.898 131.706 119.172 133.502 120.131C134.271 120.548 135.013 120.131 135.319 119.394C135.949 117.879 136.913 116.527 138.141 115.439C139.161 114.538 140.39 113.928 141.599 113.326C144.067 112.096 146.492 110.761 147.48 108.024C147.863 106.961 146.193 106.274 145.665 107.257C144.356 109.696 141.59 110.602 139.271 111.8C136.376 113.253 134.118 115.723 132.928 118.736L134.743 117.999C133.214 117.194 131.823 116.152 130.622 114.911C130.46 114.755 130.309 114.588 130.169 114.412C130.046 114.241 130.041 114.521 130.089 114.379C130.171 114.138 130.709 113.832 130.897 113.656C131.543 113.085 132.145 112.465 132.697 111.802C134.814 109.233 136.187 106.134 136.669 102.84C136.813 101.859 135.382 101.394 135.141 102.418L135.133 102.425Z" fill="#232323"/>
<path d="M137.82 67.4054C138.337 69.4844 138.588 71.6207 138.568 73.7629C138.568 74.8595 140.329 74.8499 140.255 73.7629C140.119 71.4894 139.737 69.2372 139.115 67.0463C138.874 66.2076 137.599 66.5643 137.811 67.4054H137.82Z" fill="#232323"/>
<path d="M132.996 77.8984C132.981 77.772 133 77.6439 133.051 77.5273C133.079 77.4486 133.126 77.378 133.188 77.3217C133.25 77.2653 133.324 77.2251 133.405 77.2043L131.971 76.6187C132.007 76.8222 131.993 77.0315 131.93 77.2284C131.821 77.4605 131.68 77.6762 131.511 77.8695C130.884 78.7178 132.106 79.8698 132.957 79.3155C134.078 78.5611 134.352 77.0549 133.767 75.8764C133.55 75.4426 132.832 75.2233 132.429 75.527C131.533 76.1993 131 77.2308 131.354 78.3635C131.685 79.4263 133.215 78.9829 133.005 77.908L132.996 77.8984Z" fill="#232323"/>
<path d="M121.517 92.0885C122.602 92.3548 123.724 92.4362 124.836 92.3295C125.91 92.2017 125.98 90.5822 124.836 90.5991C123.88 90.6395 122.923 90.5684 121.985 90.387C120.881 90.146 120.408 91.833 121.517 92.074V92.0885Z" fill="#232323"/>
<path d="M120.194 83.0294C120.266 82.7209 120.353 82.4124 120.435 82.1088C120.493 81.8975 120.617 81.7101 120.789 81.5738L119.167 80.629C118.93 81.2337 118.743 81.8568 118.608 82.492C118.533 82.974 118.688 83.456 119.174 83.6488C119.587 83.8151 120.196 83.6994 120.399 83.2487C120.67 82.5664 120.885 81.8626 121.04 81.1448C121.09 80.9397 121.073 80.7237 120.99 80.5293C120.908 80.3349 120.764 80.1724 120.582 80.0661C120.399 79.9598 120.187 79.9154 119.978 79.9395C119.768 79.9637 119.571 80.0551 119.418 80.2001C118.695 80.8869 118.533 81.8581 118.565 82.8101C118.591 83.7114 119.962 83.9645 120.184 83.0294H120.194Z" fill="#232323"/>
<path d="M123.392 83.774C123.47 83.1585 123.705 82.5734 124.074 82.075L122.332 81.593C122.392 82.1979 122.214 82.6028 121.987 83.1522C121.797 83.6077 122.153 84.1741 122.57 84.3404C122.795 84.4343 123.046 84.4444 123.277 84.3687C123.509 84.2931 123.705 84.1367 123.831 83.9283C124.313 83.1836 124.332 82.1858 124.168 81.3447C124.004 80.5036 122.855 80.4795 122.459 81.123C121.995 81.8444 121.769 82.6933 121.814 83.5499C121.816 83.7432 121.887 83.9293 122.015 84.0744C122.143 84.2194 122.318 84.3138 122.51 84.3404C122.867 84.3813 123.334 84.1644 123.392 83.7644V83.774Z" fill="#232323"/>
<path d="M155.893 69.3742C161.477 68.9766 167.492 68.8705 172.3 71.2034C172.751 71.3868 173.154 71.6703 173.479 72.0324C173.623 72.1941 173.7 72.4041 173.696 72.6204C173.691 72.8367 173.605 73.0433 173.455 73.1989C172.847 73.758 171.698 73.3845 170.847 73.0543C167.022 71.5745 162.569 71.8493 158.33 71.7722C157.51 71.7577 156.611 71.7023 156.023 71.2492C155.435 70.7961 155.541 69.8225 156.339 69.7116" fill="#232323"/>
<path d="M155.893 70.078C158.87 70.0418 161.868 70.0225 164.83 70.319C166.28 70.458 167.714 70.7291 169.115 71.1287C169.844 71.3339 170.558 71.5892 171.252 71.8927C171.581 72.0299 171.899 72.191 172.204 72.3747C172.204 72.3747 173.038 72.982 172.701 72.3144C172.701 72.3313 172.103 72.218 172.086 72.2132C171.775 72.1271 171.468 72.0241 171.168 71.9047C170.479 71.6505 169.776 71.4381 169.062 71.2685C167.595 70.9463 166.103 70.748 164.603 70.6756C163.075 70.5913 161.545 70.5937 160.024 70.5841C159.284 70.5841 158.532 70.6082 157.795 70.5479C157.662 70.5359 156.922 70.3069 156.857 70.3455C156.792 70.384 156.872 70.7793 156.669 70.8419C158.132 70.3913 157.515 68.3187 156.045 68.5789C154.712 68.8199 154.081 70.3599 154.727 71.5191C155.45 72.835 157.159 72.9651 158.501 72.9796C161.759 73.0374 165.092 72.835 168.3 73.5435C169.705 73.8544 171.149 74.7052 172.604 74.6738C174.06 74.6425 175.226 73.4471 174.72 71.9891C174.255 70.6515 172.505 70.0611 171.312 69.6176C169.876 69.0914 168.387 68.7221 166.871 68.5163C163.21 67.9909 159.566 68.2006 155.913 68.6705C155.043 68.7814 154.977 70.09 155.913 70.078H155.893Z" fill="#232323"/>
<path d="M195.967 88.2062C196.885 87.9218 198.478 87.0638 199.394 87.7242C199.496 87.7872 199.582 87.8749 199.642 87.9793C199.702 88.0836 199.735 88.2014 199.738 88.3219C199.738 88.3869 199.553 88.4496 199.642 88.493C199.492 88.4231 199.794 87.929 199.897 87.8326C200.601 87.1747 202.013 86.8421 202.946 86.8084C203.879 86.7746 204.905 87.153 205.168 88.1604C205.5 89.4497 207.455 88.9051 207.159 87.6109C206.575 85.0587 203.717 84.4152 201.488 84.9599C199.594 85.4298 196.718 86.8108 197.757 89.2593C198.738 91.5802 202.141 90.2378 201.582 87.8832C201.326 86.806 200.35 86.054 199.292 85.8709C197.969 85.6443 196.759 86.2492 195.55 86.6855C194.612 87.0204 194.99 88.5026 195.967 88.1965V88.2062Z" fill="#232323"/>
<path d="M186.758 79.723C187.913 79.723 187.915 77.9299 186.758 77.9299C185.601 77.9299 185.601 79.723 186.758 79.723Z" fill="white"/>
<path d="M184.365 81.0629C185.476 81.0629 185.479 79.3325 184.365 79.3325C183.252 79.3325 183.249 81.0629 184.365 81.0629Z" fill="white"/>
<path d="M187.525 84.2007C188.611 84.2007 188.611 82.5137 187.525 82.5137C186.438 82.5137 186.435 84.2007 187.525 84.2007Z" fill="white"/>
<path d="M153.413 76.4573L154.322 76.3031C154.501 76.2502 154.653 76.1302 154.745 75.968C154.838 75.8058 154.864 75.6141 154.819 75.4331C154.766 75.2529 154.645 75.1004 154.482 75.0078C154.318 74.9151 154.125 74.8896 153.944 74.9366L153.033 75.0909C152.853 75.1437 152.7 75.2645 152.607 75.4278C152.515 75.591 152.489 75.7839 152.536 75.9657C152.589 76.1468 152.71 76.3003 152.873 76.3935C153.037 76.4867 153.231 76.5122 153.413 76.4646V76.4573Z" fill="white"/>
<path d="M133.642 69.7334C133.52 68.2848 133.136 66.8704 132.509 65.5592C132.174 64.8724 131.694 64.294 131.328 63.6312C131.005 63.0528 131.598 63.2336 131.993 63.3035C132.388 63.3734 132.76 63.4963 133.155 63.5565C133.991 63.6843 134.475 62.6817 133.738 62.1732C132.359 61.2237 128.973 61.1513 129.537 63.6505C129.761 64.6483 130.646 65.4725 131.113 66.3738C131.658 67.4233 132.018 68.5591 132.176 69.7309C132.297 70.6395 133.731 70.6949 133.642 69.7309V69.7334Z" fill="#232323"/>
<path d="M187.753 71.3578C189.255 68.7285 191.515 66.8149 193.713 64.7809C194.817 63.759 195.945 62.7637 197.114 61.8142C197.697 61.3418 198.296 60.8928 198.912 60.467C199.565 60.0187 200.295 59.6524 200.866 59.1029C201.652 58.3486 200.849 56.9339 199.791 57.2569C198.29 57.7244 196.899 59.0017 195.694 59.9802C194.423 61.0378 193.206 62.1591 192.048 63.3397C189.925 65.4581 187.242 67.8054 186.375 70.7794C186.134 71.594 187.322 72.0952 187.744 71.3578H187.753Z" fill="#232323"/>
<path d="M123.7 63.8023C125.031 65.0194 125.698 67.1137 126.315 68.7549C127.038 70.6708 127.371 72.7579 128.193 74.6256C128.585 75.5173 130.012 75.045 129.983 74.1436C129.913 71.9168 128.846 69.5646 127.985 67.5475C127.262 65.8605 126.46 63.3974 124.628 62.6046C123.905 62.2864 123.001 63.1661 123.7 63.8096V63.8023Z" fill="#232323"/>
<path d="M107.416 28.0331C105.782 28.2427 104.131 27.5752 102.837 26.5726C101.559 25.5707 100.551 24.2654 99.9047 22.7751C99.2587 21.2848 98.9951 19.6568 99.1378 18.0388C99.315 16.4238 99.8927 14.8786 100.819 13.5436C101.745 12.2086 102.989 11.1261 104.44 10.3943C105.897 9.64649 107.555 9.38228 109.173 9.63994C110.79 9.93878 112.243 10.8642 113.398 12.0331C115.938 14.6094 117.095 18.5401 116.148 22.0249C115.2 25.5098 112.094 28.3729 108.506 28.8211" fill="#2969FF"/>
<path d="M107.416 27.1511C103.958 27.4644 101.15 23.9602 100.427 20.914C100.082 19.4072 100.153 17.8351 100.632 16.3656C101.112 14.8961 101.981 13.5843 103.148 12.5706C104.411 11.4263 106.026 10.7463 107.727 10.6426C109.414 10.5823 110.971 11.3029 112.209 12.426C114.595 14.595 115.89 18.0485 115.21 21.2369C114.47 24.7121 111.624 27.1535 108.238 27.9295C107.233 28.1705 107.435 29.8021 108.479 29.7466C112.45 29.5346 115.791 26.4787 117.015 22.7817C118.28 18.9691 117.121 14.5998 114.494 11.6403C113.048 10.0039 111.062 8.7483 108.864 8.49284C106.741 8.23497 104.526 8.87603 102.767 10.0642C99.5329 12.2404 97.6049 16.1615 98.0531 20.0777C98.5857 24.6567 102.43 29.4382 107.416 28.9128C108.527 28.7971 108.551 27.0474 107.416 27.1511Z" fill="#2969FF"/>
<path d="M99.8438 18.0751C99.7246 19.2556 99.8508 20.4479 100.215 21.5773C100.578 22.7066 101.172 23.7485 101.957 24.6375C102.68 25.4521 103.403 26.38 104.423 26.8065C105.484 27.2657 106.617 27.5357 107.77 27.6042C112.27 27.8452 115.856 23.6301 115.849 19.3138C115.849 16.8508 114.832 14.2914 112.969 12.6526C112.882 12.5647 112.764 12.5148 112.641 12.5139C112.517 12.513 112.399 12.5612 112.311 12.6478C112.223 12.7344 112.173 12.8524 112.172 12.9757C112.171 13.0991 112.219 13.2178 112.306 13.3057C113.892 15.1831 114.957 17.4485 114.752 19.9477C114.641 21.1301 114.251 22.2692 113.613 23.2711C112.975 24.273 112.108 25.1089 111.084 25.71C109.959 26.3631 108.648 26.625 107.358 26.4547C106.153 26.3245 104.727 25.9871 103.881 25.081C103.035 24.1748 102.194 23.353 101.63 22.2709C100.954 20.9804 100.645 19.529 100.738 18.0751C100.779 17.5088 99.9041 17.516 99.8559 18.0751H99.8438Z" fill="white"/>
<path d="M118.09 28.826C117.407 26.9872 116.165 25.4091 114.537 24.3145C114.061 23.9593 113.502 23.7305 112.913 23.6493C112.618 23.6133 112.32 23.6597 112.05 23.7836C111.78 23.9074 111.55 24.1037 111.385 24.3506C111.219 24.6987 111.146 25.0842 111.176 25.4689C111.186 26.5773 111.379 27.6765 111.747 28.7224C108.32 27.7584 104.334 29.5177 102.724 32.6916" fill="white"/>
<path d="M118.813 28.626C118.022 26.1726 116.075 23.1721 113.349 22.6227C112.036 22.3576 110.602 22.9649 110.192 24.3097C109.754 25.7557 110.192 27.6234 110.657 29.0188L112.046 27.6306C108.134 26.5992 103.572 28.4235 101.779 32.1349C101.174 33.3857 102.955 34.4726 103.668 33.2387C105.218 30.5516 108.392 29.0164 111.446 29.8069C112.238 30.0117 113.118 29.2574 112.834 28.4187C112.481 27.4733 112.3 26.473 112.296 25.4641C112.308 25.0857 112.277 24.8182 112.691 24.7411C113.106 24.6639 113.655 25.0037 114.007 25.2231C115.519 26.1835 116.715 27.5683 117.444 29.2044C117.793 29.978 119.071 29.4285 118.813 28.626Z" fill="#232323"/>
<path d="M108.498 13.0645C107.093 12.5439 105.698 13.2187 104.864 14.39C104.081 15.4914 103.529 17.2362 104.669 18.3038C104.909 18.5071 105.191 18.6555 105.495 18.7388C105.799 18.822 106.117 18.8381 106.428 18.7858C107.233 18.7063 108.096 18.1689 108.908 18.2846C110.265 18.4774 109.855 19.9716 109.173 20.6608C108.455 21.3675 107.522 21.8145 106.522 21.9309C105.852 22.0225 105.828 23.0877 106.522 23.0082C107.937 22.8515 109.327 22.2346 110.224 21.0946C110.99 20.1162 111.224 18.581 110.178 17.6941C108.898 16.6096 107.488 17.7833 106.107 17.7616C104.661 17.7351 105.061 16.0746 105.531 15.2456C106.095 14.255 107.11 13.5079 108.286 13.8791C108.814 14.0454 109.009 13.2477 108.51 13.0597L108.498 13.0645Z" fill="#232323"/>
<path d="M104.775 12.5922C104.867 13.0853 105.018 13.5659 105.223 14.0237C105.5 14.6166 106.404 14.0984 106.107 13.5056C105.91 13.1386 105.74 12.7576 105.599 12.3656C105.569 12.2563 105.497 12.1635 105.398 12.1074C105.299 12.0514 105.183 12.0368 105.073 12.0668C104.964 12.0968 104.871 12.1691 104.815 12.2676C104.759 12.3661 104.745 12.4829 104.775 12.5922Z" fill="#232323"/>
<path d="M108.896 21.9116C108.974 22.3122 109.109 22.6994 109.298 23.0612C109.57 23.5432 110.38 23.2202 110.204 22.678C110.093 22.3309 109.937 22.0032 109.826 21.6561C109.792 21.5328 109.711 21.4279 109.599 21.3646C109.488 21.3014 109.356 21.2849 109.233 21.3187C109.11 21.3526 109.005 21.4341 108.942 21.5453C108.878 21.6565 108.862 21.7882 108.896 21.9116Z" fill="#232323"/>
<path d="M109.25 11.1004L109.383 11.192C109.425 11.2179 109.472 11.2352 109.521 11.2427C109.569 11.2501 109.619 11.2477 109.667 11.2356C109.715 11.2235 109.76 11.2018 109.799 11.172C109.839 11.1421 109.872 11.1047 109.896 11.0619C109.943 10.9773 109.955 10.878 109.93 10.7847C109.905 10.6914 109.846 10.6111 109.764 10.5606L109.633 10.4666C109.592 10.4423 109.546 10.4265 109.498 10.4201C109.45 10.4136 109.402 10.4166 109.355 10.4289C109.309 10.4412 109.265 10.4626 109.227 10.4918C109.189 10.521 109.156 10.5575 109.132 10.5991C109.086 10.6836 109.074 10.7824 109.098 10.8755C109.122 10.9687 109.181 11.0491 109.262 11.1004H109.25Z" fill="white"/>
<path d="M96.2073 22.0418C95.8097 22.2201 95.2096 22.0779 94.8577 21.8682C93.8817 21.285 93.0623 22.7479 93.9781 23.3769C94.9807 24.0662 96.1471 23.8589 97.0364 23.1166C97.1539 22.9993 97.2242 22.843 97.2339 22.6773C97.2437 22.5115 97.1923 22.348 97.0894 22.2177C96.9869 22.0888 96.8421 22.0005 96.6806 21.9683C96.5191 21.9361 96.3514 21.9621 96.2073 22.0418Z" fill="#232323"/>
<path d="M154.091 53.6732C153.706 54.4947 153.576 55.4123 153.717 56.3084C153.857 57.2045 154.262 58.0382 154.879 58.7028C156.214 60.2043 158.301 60.8718 160.26 60.9224C164.683 61.0309 168.519 57.9991 170.344 54.1311C170.65 53.4852 169.717 52.914 169.38 53.5623C167.736 56.6351 165.109 59.1631 161.559 59.7223C159.872 59.9898 158.017 59.744 156.547 58.8161C154.99 57.8352 153.973 55.8518 154.751 54.0588C154.944 53.6153 154.305 53.2225 154.091 53.6732Z" fill="#2969FF"/>
<path d="M159.749 163.078C160.841 153.818 158.602 143.858 162.718 135.495C163.4 134.105 164.302 132.745 165.644 131.974C166.712 131.364 167.96 131.179 169.175 131.01C180.495 129.429 191.866 128.326 203.288 127.701" fill="white"/>
<path d="M160.549 163.297C161.754 154.92 159.872 146.017 162.834 137.922C163.468 136.187 164.347 134.105 165.967 133.061C166.839 132.497 167.895 132.319 168.914 132.174C170.119 132.006 171.31 131.866 172.508 131.721C177.289 131.14 182.073 130.596 186.869 130.155C192.337 129.656 197.81 129.297 203.29 128.962C204.905 128.865 204.924 126.352 203.29 126.434C193.125 126.935 182.943 127.937 172.864 129.34C170.57 129.661 168.01 129.75 165.858 130.661C163.95 131.468 162.684 133.138 161.795 134.953C159.816 138.985 159.231 143.472 159.106 147.914C158.961 152.975 159.347 158.036 158.925 163.078C158.845 163.996 160.419 164.225 160.552 163.297H160.549Z" fill="#232323"/>
<path d="M170.608 137.695C172.457 139.098 173.884 141.718 173.088 143.981C172.459 145.771 171.36 147.446 170.946 149.304C170.775 150.083 170.796 150.806 171.459 151.329C172.652 152.276 174.455 151.847 175.836 151.722C179.48 151.4 183.123 151.069 186.765 150.726C190.86 150.346 194.952 149.931 199.039 149.483C200.256 149.35 200.292 147.442 199.039 147.555C191.968 148.136 184.909 148.82 177.853 149.538C176.214 149.705 174.503 150.04 172.864 149.909C172.363 149.871 172.922 149.856 172.775 150.105C172.818 150.03 172.787 149.907 172.792 149.888C172.886 149.509 172.999 149.134 173.132 148.767C173.763 147.051 174.766 145.371 175.096 143.559C175.602 140.785 173.57 137.821 171.445 136.274C170.575 135.64 169.775 137.071 170.608 137.705V137.695Z" fill="#232323"/>
<path d="M148.164 223.94C151.56 211.104 154.43 198.131 156.949 185.093C157.672 181.408 158.395 177.721 158.983 174.007C159.18 172.766 157.313 172.204 157.055 173.479C155.77 179.964 154.645 186.493 153.348 192.969C152.037 199.509 150.658 206.036 149.21 212.548C148.393 216.216 147.6 219.888 146.774 223.554C146.574 224.451 147.918 224.831 148.157 223.935L148.164 223.94Z" fill="#232323"/>
<path d="M213.902 220.363C211.8 208.039 209.354 195.801 206.489 183.642C205.681 180.208 204.852 176.781 203.97 173.366C203.602 171.937 201.411 172.542 201.763 173.973C204.737 186.098 207.52 198.259 210.215 210.449C210.973 213.888 211.707 217.333 212.417 220.783C212.62 221.761 214.066 221.337 213.902 220.375V220.363Z" fill="#232323"/>
<path d="M202.84 135.245C203.56 136.134 203.932 137.256 203.886 138.399C203.886 139.51 205.573 139.508 205.606 138.399C205.615 136.82 205.026 135.295 203.958 134.131C203.288 133.36 202.191 134.478 202.842 135.245H202.84Z" fill="#232323"/>
<path d="M111.935 119.013C112.255 117.43 111.552 116.102 110.862 114.723C110.101 113.205 109.872 111.68 111.462 110.597C113.053 109.515 115.364 109.537 117.22 109.46C119.502 109.366 121.784 109.482 124.062 109.595C125.563 109.672 125.566 107.322 124.062 107.257C121.57 107.154 119.063 107.033 116.572 107.216C114.381 107.378 111.913 107.652 110.134 109.065C108.647 110.246 107.903 112.13 108.52 113.974C109.06 115.581 110.66 117.027 110.448 118.813C110.347 119.657 111.764 119.845 111.932 119.013H111.935Z" fill="#232323"/>
<path d="M76.0864 18.8702C78.4745 16.8913 80.3454 14.3611 81.5378 11.498L86.6422 20.4849C83.3719 22.2948 81.9572 25.3049 80.8582 28.6934C79.9376 26.6449 79.4339 20.1114 76.1202 18.7835" fill="#2969FF"/>
<path d="M76.6382 19.4196C79.0924 17.416 81.0318 14.8544 82.2944 11.9486H80.7834L85.8444 20.9716L86.1794 19.6968C82.8054 21.5934 81.0894 24.8927 79.9134 28.4475L81.7184 28.2065C81.0461 26.6303 80.8075 24.4806 80.2098 22.7382C79.5133 20.7065 78.4746 18.6966 76.3875 17.8483C75.3681 17.4338 74.621 19.1834 75.6332 19.6413C77.3467 20.4173 78.0432 22.4538 78.5445 24.1239C79.0458 25.7941 79.3109 27.5871 80.0122 29.2018C80.3761 30.0381 81.5835 29.6838 81.8197 28.9608C82.8174 25.8688 84.2007 22.9792 87.1217 21.2946C87.3319 21.1664 87.4841 20.9615 87.5462 20.7232C87.6082 20.4849 87.5753 20.2318 87.4542 20.0173L82.292 11.0569C81.8799 10.3339 80.9665 10.6111 80.6942 11.2642C79.5484 13.9847 77.7822 16.3995 75.5368 18.3158C74.7728 18.9738 75.8718 20.0414 76.6358 19.4148L76.6382 19.4196Z" fill="#2969FF"/>
<path d="M126.581 14.12C127.511 13.679 128.087 12.7318 128.494 11.7871C128.901 10.8424 129.217 9.83262 129.829 9.01562C130.446 10.7885 131.297 12.4711 132.36 14.0188C131.449 14.1465 130.96 15.1298 130.627 15.9878L129.849 17.9808C129.728 17.3207 129.457 16.6972 129.057 16.1582C128.657 15.6192 128.139 15.1792 127.542 14.8719" fill="#2969FF"/>
<path d="M126.94 14.7322C129.109 13.7393 129.35 11.2329 130.642 9.49049L128.921 9.26395C129.547 11.151 130.456 12.8404 131.415 14.5659L132.068 12.9657C130.001 13.414 129.434 15.9975 128.776 17.6845H130.921C130.761 16.8878 130.422 16.1379 129.93 15.4912C129.438 14.8446 128.805 14.3181 128.08 13.9514C126.875 13.3368 125.81 15.0961 127.005 15.7902C127.463 16.051 127.859 16.4083 128.164 16.8374C128.47 17.2665 128.679 17.757 128.776 18.2749C129.017 19.4582 130.562 19.2004 130.921 18.2749C131.191 17.5833 131.444 16.882 131.731 16.1975C131.924 15.742 132.129 15.1925 132.649 15.072C133.522 14.872 133.613 13.8429 133.131 13.2453C132.08 11.9511 131.326 10.3171 130.738 8.76508C130.681 8.59249 130.577 8.43941 130.437 8.32347C130.298 8.20754 130.128 8.13346 129.948 8.10979C129.768 8.08611 129.584 8.1138 129.419 8.18965C129.254 8.26551 129.114 8.38645 129.015 8.53854C127.979 10.0568 127.882 12.4837 126.224 13.508C125.434 13.99 126.123 15.1034 126.947 14.7322H126.94Z" fill="#2969FF"/>
<path d="M127.079 28.8234C127.376 28.139 127.631 27.2087 128.099 26.6231L126.833 26.2881C127.208 27.5938 127.856 28.8048 128.735 29.8404L128.933 28.3004C128.14 28.8011 127.5 29.5097 127.082 30.3489H128.819C128.492 29.838 128.171 29.3271 127.822 28.8306C127.099 27.7823 125.387 28.727 126.079 29.8476C126.397 30.3634 126.742 30.8623 127.082 31.3635C127.467 31.9371 128.475 32.0865 128.819 31.3635C129.059 30.817 129.44 30.3443 129.923 29.9947C130.429 29.6332 130.6 28.9343 130.121 28.4547C129.341 27.6464 128.697 26.7179 128.212 25.7049C127.834 24.9602 126.884 25.4205 126.8 26.088C126.706 26.8255 126.214 27.657 125.932 28.3414C125.65 29.0258 126.792 29.4717 127.072 28.8234H127.079Z" fill="#2969FF"/>
<path d="M90.1992 186.264C91.3239 187.079 92.4485 187.882 93.5732 188.674C94.1058 189.052 94.624 188.166 94.0865 187.797C92.9442 187.014 91.7994 186.238 90.6523 185.469C90.1703 185.139 89.7293 185.915 90.1944 186.252L90.1992 186.264Z" fill="#232323"/>
<path d="M95.0816 182.919C96.5083 177.188 99.4846 171.896 102.186 166.685C104.737 161.676 107.538 156.799 110.578 152.071C113.663 147.347 117.085 142.836 121.025 138.785C125.067 134.623 129.614 130.991 134.377 127.699C139.708 124.011 145.304 120.741 150.866 117.439C151.454 117.09 150.921 116.174 150.328 116.521C140.284 122.356 130.113 128.388 121.743 136.541C113.537 144.532 107.503 154.375 102.242 164.48C100.731 167.372 99.2653 170.292 97.8434 173.24C96.3806 176.287 95.0527 179.403 94.308 182.709C94.1947 183.206 94.9466 183.418 95.0719 182.921L95.0816 182.919Z" fill="#2969FF"/>
<path d="M97.8458 191.113C101.742 179.41 107.233 168.3 114.164 158.096C121.184 147.717 129.762 138.482 139.594 130.716C145.532 126.048 151.912 122.182 158.515 118.546C159.069 118.242 158.583 117.437 158.033 117.707C151.991 120.623 146.267 124.38 140.922 128.412C135.769 132.286 130.938 136.571 126.477 141.226C117.884 150.245 110.673 160.485 105.076 171.614C101.954 177.845 99.3119 184.305 97.171 190.937C97.0312 191.364 97.6988 191.544 97.8385 191.123L97.8458 191.113Z" fill="#2969FF"/>
<path d="M103.446 195.089C111.931 171.914 126.451 151.425 145.506 135.741C150.89 131.35 156.59 127.361 162.559 123.806C163.101 123.481 162.612 122.638 162.06 122.956C151.336 129.161 141.527 137.081 132.952 146.007C124.394 154.907 117.068 164.914 111.171 175.761C107.838 181.899 104.995 188.289 102.666 194.873C102.49 195.369 103.275 195.579 103.454 195.089H103.446Z" fill="#2969FF"/>
<path d="M110.255 199.194C117.586 181.704 125.732 163.526 140.833 151.307C144.731 148.17 149.026 145.562 153.606 143.549C154.071 143.342 153.734 142.52 153.254 142.715C135.644 149.89 124.093 166.729 116.278 183.312C113.848 188.46 111.667 193.716 109.53 198.977C109.344 199.435 110.082 199.627 110.267 199.182L110.255 199.194Z" fill="#2969FF"/>
<path d="M172.869 127.557C173.209 127.304 173.522 127.017 173.802 126.699C174.11 126.395 174.416 126.086 174.713 125.768C175.142 125.31 174.457 124.621 174.021 125.077C173.72 125.392 173.428 125.713 173.141 126.041C172.838 126.337 172.566 126.665 172.331 127.019C172.29 127.094 172.274 127.181 172.286 127.266C172.297 127.351 172.337 127.43 172.398 127.49C172.458 127.551 172.537 127.59 172.622 127.602C172.707 127.614 172.794 127.598 172.869 127.557Z" fill="#2969FF"/>
<path d="M84.9836 178.974C90.206 162.786 99.1303 147.644 110.462 135.003C113.659 131.453 117.051 128.082 120.62 124.905C121.122 124.457 120.379 123.734 119.883 124.182C106.939 135.442 96.5058 149.7 89.4565 165.324C87.4944 169.717 85.7798 174.217 84.3208 178.803C84.1835 179.227 84.8486 179.408 84.9836 178.986V178.974Z" fill="#2969FF"/>
<path d="M126.115 120.155C126.222 120.147 126.322 120.099 126.394 120.021C126.467 119.942 126.508 119.839 126.508 119.732C126.508 119.625 126.467 119.522 126.394 119.444C126.322 119.365 126.222 119.317 126.115 119.309C126.009 119.317 125.909 119.365 125.836 119.444C125.764 119.522 125.723 119.625 125.723 119.732C125.723 119.839 125.764 119.942 125.836 120.021C125.909 120.099 126.009 120.147 126.115 120.155Z" fill="#2969FF"/>
<path d="M78.7273 171.717C84.0457 159.375 91.4279 148.028 100.557 138.165C103.133 135.394 105.859 132.762 108.674 130.244C109.156 129.819 108.452 129.128 107.975 129.545C97.7733 138.507 89.2706 149.235 82.8749 161.214C81.1079 164.543 79.5135 167.96 78.0983 171.452C77.9513 171.809 78.5803 172.076 78.7273 171.717Z" fill="#2969FF"/>
<path d="M114.111 124.281C114.218 124.281 114.32 124.239 114.396 124.163C114.471 124.088 114.513 123.986 114.513 123.879C114.513 123.772 114.471 123.67 114.396 123.594C114.32 123.519 114.218 123.476 114.111 123.476C114.004 123.476 113.902 123.519 113.826 123.594C113.751 123.67 113.708 123.772 113.708 123.879C113.708 123.986 113.751 124.088 113.826 124.163C113.902 124.239 114.004 124.281 114.111 124.281Z" fill="#2969FF"/>
<path d="M75.6907 166.796C77.7634 162.098 80.3818 157.659 83.4919 153.572C83.7473 153.233 83.1713 152.784 82.8966 153.115C79.6058 157.151 76.9677 161.678 75.0786 166.531C74.9388 166.878 75.5389 167.136 75.6907 166.789V166.796Z" fill="#2969FF"/>
<path d="M88.7916 146.364C88.9086 146.364 89.0208 146.318 89.1035 146.235C89.1862 146.152 89.2327 146.04 89.2327 145.923C89.2327 145.806 89.1862 145.694 89.1035 145.611C89.0208 145.528 88.9086 145.482 88.7916 145.482C88.6746 145.482 88.5625 145.528 88.4798 145.611C88.397 145.694 88.3506 145.806 88.3506 145.923C88.3506 146.04 88.397 146.152 88.4798 146.235C88.5625 146.318 88.6746 146.364 88.7916 146.364Z" fill="#2969FF"/>
<path d="M73.8953 208.578C75.5028 208.819 75.1581 210.836 75.04 211.981C74.9846 212.531 75.5702 213.061 76.0932 213.034C77.1522 212.982 78.1983 213.286 79.0645 213.897C79.9307 214.509 80.5671 215.393 80.8722 216.408C81.2675 217.71 83.2822 217.168 82.9183 215.844C82.1158 212.868 79.1587 210.764 76.0932 210.918L77.1488 211.972C77.3657 209.803 76.7969 206.993 74.1267 206.855C73.1627 206.805 72.9217 208.429 73.8857 208.569L73.8953 208.578Z" fill="#232323"/>
<path d="M49.7324 186.734C50.7928 188.272 50.1662 190.245 49.6335 191.867C49.4769 192.349 49.8167 193.01 50.3324 193.099C51.3461 193.253 52.2707 193.766 52.9377 194.545C53.6269 195.364 53.8245 196.314 54.0366 197.333C54.2174 198.196 55.6826 198.242 55.8272 197.333C56.2924 194.407 53.6582 191.571 50.8651 191.156L51.564 192.388C52.246 190.127 52.728 187.638 51.082 185.674C50.4602 184.927 49.154 185.915 49.7251 186.722L49.7324 186.734Z" fill="#232323"/>
<path d="M63.0814 213.741C61.2329 214.353 60.4521 216.329 60.8497 218.156C61.2907 220.185 63.1392 221.481 64.7828 222.52C68.9306 225.165 73.2823 227.475 77.7968 229.43C82.1872 231.346 86.7618 232.809 91.4495 233.797C93.8844 234.295 96.3483 234.641 98.8265 234.83C101.133 235.006 103.48 235.091 105.767 234.669C108.124 234.235 110.313 233.119 111.725 231.143C113.062 229.273 113.434 226.955 112.474 224.843C111.992 223.812 110.182 224.559 110.621 225.624C111.252 227.15 110.862 228.779 109.898 230.078C108.773 231.579 107.006 232.305 105.203 232.635C103.261 232.989 101.232 232.876 99.2723 232.753C97.2288 232.614 95.1947 232.36 93.1799 231.991C84.9859 230.492 77.175 227.299 69.9354 223.221C68.046 222.156 65.9926 221.11 64.3032 219.737C63.5995 219.165 62.8572 218.406 62.7319 217.466C62.6403 216.789 62.85 215.796 63.561 215.507C64.6214 215.076 64.2189 213.36 63.079 213.741H63.0814Z" fill="#232323"/>
<path d="M40.2878 190.39C38.2007 190.39 36.9307 192.494 37.2175 194.412C37.5621 196.733 39.5503 198.729 41.0566 200.408C44.2454 203.961 47.9894 206.972 52.1426 209.325C54.4972 210.658 57.0132 211.897 59.6136 212.654C60.9704 213.047 61.4187 211.097 60.1824 210.593C57.7724 209.607 55.3961 208.646 53.1259 207.366C50.9058 206.115 48.7945 204.68 46.8141 203.076C44.8331 201.477 42.9954 199.708 41.3217 197.789C40.471 196.825 39.4395 195.748 39.0708 194.475C38.8008 193.545 39.0708 192.005 40.2758 191.957C41.2807 191.918 41.2904 190.39 40.2758 190.388L40.2878 190.39Z" fill="#232323"/>
<path d="M23.2563 99.8198C23.2563 93.0718 23.2563 86.3182 23.2563 79.5589C23.2563 77.8575 23.2499 76.1552 23.237 74.4521C23.237 73.1652 22.996 71.283 24.6107 70.9142C25.3675 70.7407 26.2061 70.7817 26.9773 70.7383L29.4741 70.5985L34.4628 70.3238C37.5163 70.1551 40.7023 69.8611 43.669 70.7841C44.3221 70.9865 45.356 71.23 45.597 71.9698C45.838 72.7097 45.6283 73.6737 45.597 74.4112L45.462 79.53L45.1849 89.5893L45.0427 94.7033L44.9752 97.0892C44.9511 97.9593 45.0692 98.969 44.9005 99.8174C44.78 100.43 44.5824 100.54 43.9534 100.528C43.5027 100.514 43.0496 100.495 42.599 100.475L39.707 100.362L34.1133 100.14C30.2814 99.9885 26.4182 99.6848 22.5863 99.7523C21.8633 99.7644 21.8971 100.781 22.5863 100.844C26.3483 101.198 30.1658 101.189 33.9422 101.326L39.5383 101.531L42.2495 101.63C43.0785 101.659 43.9943 101.808 44.8186 101.68C46.3754 101.439 46.0573 99.6246 46.0886 98.4533L46.2429 92.6573L46.5441 81.405L46.7008 75.6089C46.7249 74.7004 46.761 73.7918 46.7731 72.8808C46.7731 72.2301 46.761 71.5577 46.3658 71.0082C45.5849 69.9237 43.7365 69.5622 42.5098 69.3429C40.9244 69.0764 39.315 68.9802 37.7091 69.0561C34.07 69.1646 30.4309 69.4562 26.7942 69.6659C25.5169 69.7406 23.854 69.596 22.9117 70.6491C22.0417 71.6252 22.1381 73.0712 22.1453 74.2858C22.1967 82.8012 22.277 91.3165 22.3863 99.8318C22.3863 99.945 22.4312 100.053 22.5112 100.133C22.5912 100.213 22.6997 100.258 22.8129 100.258C22.926 100.258 23.0345 100.213 23.1145 100.133C23.1945 100.053 23.2394 99.945 23.2394 99.8318L23.2563 99.8198Z" fill="#232323"/>
<path d="M25.7725 96.1446L25.6713 76.5875C25.6713 75.8283 25.7147 74.9559 26.3148 74.4883C26.7124 74.1799 27.2475 74.1389 27.7608 74.11L35.186 73.6882C37.5743 73.5533 40.0638 73.4352 42.2569 74.3895C42.5461 74.4904 42.8015 74.6698 42.9944 74.9077C43.2209 75.2306 43.2185 75.6548 43.2065 76.0476L42.657 96.4001C42.6684 96.5734 42.6282 96.7461 42.5413 96.8965C42.375 97.1182 42.0593 97.1375 41.7774 97.1182L25.5918 96.5037" fill="#2969FF"/>
<path d="M25.1122 91.1632L27.3824 88.423L28.4139 87.1771C28.5547 86.9678 28.7162 86.7733 28.8959 86.5962C29.2477 86.3191 29.3249 86.3962 29.602 86.5794C30.0647 86.8879 30.4744 87.5434 30.8528 87.9555L32.1108 89.3244L33.258 90.5679C33.5496 90.8836 33.8412 91.3174 34.275 91.4452C35.1064 91.6862 35.6415 90.8306 36.1379 90.3149C36.9116 89.505 37.7542 88.7639 38.6564 88.1001C39.5143 87.4735 40.059 87.4325 40.8712 88.117C41.464 88.6182 41.9846 89.187 42.7076 89.5027C43.4306 89.8184 44.0186 88.8207 43.3149 88.464C42.0135 87.8012 41.0471 86.0203 39.3697 86.3625C38.4949 86.5408 37.7406 87.2469 37.0706 87.7964C36.5886 88.1844 36.1427 88.5941 35.7089 89.0207C35.3981 89.3268 34.7931 90.2546 34.3473 90.3245L34.8076 90.3848C34.2413 90.1269 33.7014 89.3268 33.2773 88.8785L31.7662 87.2855C31.1492 86.6372 30.2623 85.2153 29.2429 85.2852C28.2789 85.3503 27.6451 86.5746 27.1101 87.2421L24.4808 90.5318C24.1265 90.9752 24.741 91.609 25.1122 91.1632Z" fill="white"/>
<path d="M35.1857 80.5157C34.3591 80.617 33.8626 81.7039 34.2748 82.4293C34.6869 83.1547 35.7979 83.3162 36.4437 82.7908C36.6926 82.5825 36.8694 82.3011 36.949 81.9865C37.0286 81.6719 37.007 81.3403 36.8872 81.0387C36.7544 80.7431 36.5261 80.5006 36.2389 80.3503C35.9518 80.1999 35.6225 80.1504 35.3038 80.2097" fill="white"/>
<path d="M35.1861 80.159C34.2221 80.1277 33.5401 81.1977 33.6485 82.087C33.7714 83.1089 34.7909 83.7331 35.7693 83.6294C36.0374 83.5962 36.2963 83.5101 36.5308 83.376C36.7654 83.242 36.971 83.0628 37.1358 82.8487C37.3005 82.6346 37.4212 82.3899 37.4907 82.1289C37.5602 81.8678 37.5772 81.5956 37.5407 81.3279C37.5008 81.0582 37.4062 80.7995 37.2626 80.5678C37.1191 80.336 36.9296 80.1361 36.7059 79.9804C36.4821 79.8246 36.2289 79.7162 35.9617 79.662C35.6946 79.6078 35.4191 79.6088 35.1524 79.665C34.533 79.7927 34.6704 80.8555 35.3042 80.7832C35.7983 80.7278 36.3381 80.923 36.4273 81.4773C36.4468 81.5996 36.4421 81.7246 36.4133 81.8451C36.3846 81.9656 36.3323 82.0793 36.2595 82.1796C36.1868 82.2799 36.095 82.3648 35.9894 82.4296C35.8837 82.4943 35.7664 82.5376 35.644 82.557C34.4969 82.7112 34.3113 81.27 35.2825 80.87C35.3633 80.8445 35.4325 80.7912 35.4778 80.7196C35.5231 80.648 35.5416 80.5626 35.5301 80.4787C35.5186 80.3947 35.4777 80.3176 35.4148 80.2608C35.3518 80.2041 35.2708 80.1715 35.1861 80.1687V80.159Z" fill="white"/>
<path d="M27.5027 70.2274C29.4984 68.6273 31.3236 66.8256 32.9493 64.8507C33.7229 63.906 34.4749 62.9227 35.1521 61.9153C35.3931 61.5394 35.6823 61.1514 35.61 60.6742C35.5861 60.5205 35.532 60.3731 35.4509 60.2404C35.3738 60.1416 35.2967 60.0404 35.2099 59.944C35.1593 59.7753 35.2316 59.7801 35.4244 59.9632C35.3188 60.074 35.2598 60.2211 35.2598 60.3741C35.2598 60.5272 35.3188 60.6743 35.4244 60.7851C36.974 62.5636 38.5863 64.2892 40.1697 66.0364L42.4327 68.5356C43.2449 69.4345 44.0233 70.4636 44.9535 71.2517C45.397 71.6252 46.1971 71.1384 45.8187 70.5841C45.1632 69.6201 44.2763 68.8031 43.5003 67.9452L41.1216 65.3255C39.4997 63.5373 37.9019 61.7105 36.2462 59.9632V60.7851C36.9114 59.9681 36.533 58.4329 35.2822 58.5413C35.0285 58.5732 34.7893 58.6774 34.5931 58.8415C34.397 59.0056 34.2522 59.2227 34.176 59.4668C33.9591 60.1223 34.6195 60.6043 34.4026 61.1417C34.0965 61.8912 33.3518 62.6576 32.8626 63.2987C32.2601 64.0843 31.6262 64.8411 30.9731 65.5834C29.703 67.0174 28.3434 68.3697 26.9026 69.6322C26.4905 69.9961 27.0834 70.56 27.4955 70.2274H27.5027Z" fill="#232323"/>
<path d="M23.548 52.126C19.4294 50.3281 17.7062 45.096 16.8579 41.04C15.8409 36.1862 15.7854 30.3564 18.7594 26.1462C21.6104 22.1118 27.5029 20.9261 31.7565 23.4132C34.3328 24.9219 35.6607 27.6813 36.4898 30.4432C37.4332 33.4741 37.7006 36.6751 37.273 39.8205C36.3548 45.9997 31.9469 51.6295 25.5749 52.6899C24.7772 52.8249 25.1145 54.0419 25.9098 53.907C31.9011 52.8948 36.5138 47.9061 38.0273 42.1654C38.8901 38.9023 38.8395 35.4367 38.1382 32.1495C37.4875 29.1032 36.3186 25.7774 33.9472 23.6349C30.1153 20.1766 23.8035 20.2609 19.868 23.4903C15.3806 27.1656 14.819 33.8533 15.5854 39.2011C15.9589 41.9905 16.7604 44.7055 17.9617 47.2505C19.1016 49.6051 20.7669 51.8151 23.2396 52.8538C23.6565 53.0297 23.9626 52.2995 23.548 52.1187V52.126Z" fill="#232323"/>
<path d="M24.1745 49.005C20.3691 47.4433 18.7087 41.1484 18.4267 37.5334C18.1471 33.9979 18.6797 30.125 21.1379 27.5753C24.0878 24.5097 29.6717 24.4423 32.5011 27.6235C33.4868 28.7297 34.1158 30.1058 34.5785 31.5108C35.7666 35.1258 35.8968 39.1698 34.4315 42.6811C32.9662 46.1925 29.7754 49.0556 26.0278 49.646" fill="#2969FF"/>
<path d="M51.6004 63.5445C51.5643 60.5392 51.3594 57.5194 51.4486 54.5069L50.875 54.948C53.9063 55.5437 56.9925 55.8152 60.0812 55.7577C61.6574 55.7457 63.2359 55.6131 64.8097 55.6951C65.5863 55.7272 66.3572 55.8435 67.1088 56.0421C67.7137 56.2108 67.9041 56.3699 68.0246 57.0061C68.0689 57.3764 68.089 57.7491 68.0848 58.1219L68.2174 60.5079C68.2511 61.12 68.3644 61.8189 68.1909 62.419C67.9499 63.2649 67.2148 63.2818 66.4701 63.3372C65.6459 63.3998 64.8193 63.4481 63.9951 63.4818C60.7446 63.6136 57.489 63.5331 54.249 63.2408C53.4851 63.1709 53.4899 64.3663 54.249 64.4337C57.2691 64.6983 60.3025 64.7788 63.3323 64.6747C64.6819 64.6265 66.099 64.6362 67.4293 64.3952C67.8898 64.3334 68.3188 64.1272 68.6548 63.8064C68.9908 63.4856 69.2165 63.0665 69.2995 62.6094C69.5405 61.4261 69.2995 60.115 69.2175 58.9245C69.1717 58.2352 69.1332 57.5436 69.0826 56.8543C69.0464 56.3602 69.0055 55.8782 68.6006 55.536C67.7836 54.8492 66.2918 54.7624 65.2724 54.6829C63.8697 54.5696 62.4623 54.666 61.0573 54.707C57.6833 54.8034 54.3454 54.4877 50.9931 54.0659C50.873 54.0659 50.7577 54.1137 50.6727 54.1986C50.5878 54.2836 50.54 54.3988 50.54 54.519C50.781 57.5146 50.7521 60.544 50.8774 63.5565C50.8967 64.0168 51.6004 64.0216 51.6004 63.5565V63.5445Z" fill="#232323"/>
<path d="M55.3309 55.4685C56.4561 54.488 57.4821 53.399 58.394 52.2174C58.7579 51.7354 59.1604 51.198 59.0833 50.5594C59.0511 50.3111 58.9491 50.0772 58.7892 49.8846C58.6157 49.6628 58.2711 49.511 58.288 49.1953C58.2542 48.9688 58.3892 48.841 58.7001 48.8121C58.8308 48.8902 58.9305 49.0111 58.9823 49.1542C59.0341 49.2974 59.0349 49.4541 58.9845 49.5978C58.973 49.9113 58.9916 50.2252 59.0399 50.5353C59.2167 51.0662 59.5032 51.5539 59.881 51.9668C60.8932 53.1935 62.0259 54.3334 63.1489 55.4589C63.6767 55.9891 64.5009 55.1673 63.9707 54.6371C63.3008 53.9719 62.6444 53.2947 62.0018 52.6055C61.3896 51.9499 60.5389 51.239 60.2087 50.3883C59.9364 49.6845 60.322 48.9302 59.8039 48.2916C59.6236 48.0708 59.3864 47.9036 59.1179 47.808C58.8494 47.7124 58.5599 47.6921 58.2807 47.7493C57.23 47.9903 56.8685 49.4002 57.5794 50.1714C57.8204 50.4124 57.8734 50.3352 58.006 50.6726C58.1385 51.01 58.006 51.1787 57.7915 51.5089C57.4847 51.9439 57.1549 52.3623 56.8034 52.7621C56.172 53.5188 55.4948 54.2394 54.7935 54.9311C54.4416 55.2781 54.967 55.7915 55.3309 55.4709V55.4685Z" fill="#232323"/>
<path d="M20.615 22.9745C22.1719 20.9814 23.6902 18.957 25.2085 16.9351L26.4327 15.3011C26.6737 14.9854 27.0642 14.6094 27.0545 14.1756C27.0488 14.0613 27.0188 13.9494 26.9664 13.8476C26.914 13.7458 26.8406 13.6563 26.7509 13.5852C26.644 13.5041 26.5253 13.4399 26.399 13.3948C26.3342 13.3645 26.2673 13.3387 26.199 13.3176C26.011 13.2526 25.9797 13.2381 26.1026 13.2815C26.1026 13.3393 26.5846 13.0068 26.6906 12.9441C26.9798 12.785 27.5775 12.5489 27.8667 12.8814C28.1559 13.214 28.0065 14.0021 28.0739 14.4046C28.2523 15.4577 28.7825 16.4024 29.3223 17.2966C30.6591 19.5459 32.0055 21.7896 33.3615 24.0277C33.7447 24.6663 34.7472 24.0831 34.3592 23.4445C32.8313 20.926 31.1636 18.4485 29.7802 15.8554C29.4105 15.2002 29.173 14.4788 29.0813 13.7322C29.0725 13.2933 28.9758 12.8606 28.7969 12.4597C28.3511 11.6523 27.457 11.5439 26.6641 11.8692C26.0761 12.1102 24.941 12.7127 25.1072 13.508C25.145 13.6533 25.2183 13.7868 25.3205 13.8966C25.4227 14.0064 25.5507 14.0891 25.6929 14.137C25.7435 14.1611 26.1026 14.2455 26.117 14.2961C26.0785 14.1587 25.4736 15.0046 25.4157 15.0818C23.6082 17.5472 21.7887 20.0054 20.0294 22.5046C19.7884 22.8516 20.3571 23.3023 20.6222 22.9625L20.615 22.9745Z" fill="#232323"/>
<path d="M19.4007 43.339C19.4182 42.6361 19.5819 41.9446 19.8815 41.3085C20.1811 40.6724 20.6099 40.1057 21.1407 39.6445C21.6931 39.1658 22.3451 38.8159 23.0494 38.6203C23.6447 38.4492 24.2544 38.3407 24.7919 37.9985C25.833 37.3285 26.0426 36.1741 25.3558 35.1691C24.9895 34.6293 24.546 34.2051 24.5195 33.5062C24.5067 33.1285 24.594 32.7541 24.7726 32.4209C24.9512 32.0878 25.2148 31.8079 25.5365 31.6096C26.8813 30.807 28.5611 31.5614 29.2287 32.8724C29.8962 34.1835 29.2455 35.627 29.9227 36.9116C30.465 37.9479 31.4651 38.6154 32.2339 39.4638C32.7555 40.0421 33.1358 40.7336 33.3449 41.4838C33.554 42.234 33.5862 43.0225 33.4389 43.7873C33.3016 44.5103 34.4222 44.8332 34.562 44.0958C35.044 41.5508 34.0101 39.5168 32.1906 37.8105C31.7473 37.4378 31.3552 37.0083 31.0241 36.5332C30.5783 35.8102 30.7397 35.0703 30.6867 34.2702C30.6251 33.1749 30.1688 32.1389 29.4022 31.3541C27.8839 29.8551 25.0931 29.8575 23.9484 31.812C23.6924 32.236 23.5426 32.7154 23.5115 33.2097C23.4805 33.7039 23.5691 34.1984 23.77 34.651C24.011 35.174 24.6714 35.6415 24.7678 36.2175C24.9557 37.3213 23.2229 37.5117 22.5168 37.7551C21.3718 38.1595 20.3861 38.9196 19.7041 39.9243C19.022 40.929 18.6792 42.1256 18.7259 43.339C18.7259 43.4285 18.7614 43.5144 18.8247 43.5776C18.888 43.6409 18.9738 43.6764 19.0633 43.6764C19.1528 43.6764 19.2386 43.6409 19.3019 43.5776C19.3651 43.5144 19.4007 43.4285 19.4007 43.339Z" fill="white"/>
</svg>
