<svg xmlns="http://www.w3.org/2000/svg" width="24" height="24" fill="none" xmlns:v="https://vecta.io/nano"><path d="M3.999 8.75C2.213 8.75.749 10.214.749 12s1.464 3.25 3.25 3.25 3.25-1.464 3.25-3.25-1.464-3.25-3.25-3.25zm8 0c-1.786 0-3.25 1.464-3.25 3.25s1.464 3.25 3.25 3.25 3.25-1.464 3.25-3.25-1.464-3.25-3.25-3.25zm8 0c-1.786 0-3.25 1.464-3.25 3.25s1.464 3.25 3.25 3.25 3.25-1.464 3.25-3.25-1.464-3.25-3.25-3.25zm-16 1.5A1.74 1.74 0 0 1 5.749 12a1.74 1.74 0 0 1-1.75 1.75A1.74 1.74 0 0 1 2.249 12a1.74 1.74 0 0 1 1.75-1.75zm8 0a1.74 1.74 0 0 1 1.75 1.75 1.74 1.74 0 0 1-1.75 1.75 1.74 1.74 0 0 1-1.75-1.75 1.74 1.74 0 0 1 1.75-1.75zm8 0a1.74 1.74 0 0 1 1.75 1.75 1.74 1.74 0 0 1-1.75 1.75 1.74 1.74 0 0 1-1.75-1.75 1.74 1.74 0 0 1 1.75-1.75z" fill="#292d32"/></svg>