<svg xmlns="http://www.w3.org/2000/svg" width="24" height="24" fill="#292d32" xmlns:v="https://vecta.io/nano"><path d="M16 22.75H8c-3.02 0-4.75-1.73-4.75-4.75V8.25C3.25 5.1 4.85 3.5 8 3.5c.41 0 .75.34.75.75a1.5 1.5 0 0 0 1.5 1.5h3.5a1.5 1.5 0 0 0 1.5-1.5c0-.41.34-.75.75-.75 3.15 0 4.75 1.6 4.75 4.75V18c0 3.02-1.73 4.75-4.75 4.75zM7.35 5.02c-1.58.13-2.6.84-2.6 3.23V18c0 2.22 1.03 3.25 3.25 3.25h8c2.22 0 3.25-1.03 3.25-3.25V8.25c0-2.39-1.02-3.09-2.6-3.23-.34 1.28-1.51 2.23-2.9 2.23h-3.5a2.97 2.97 0 0 1-2.12-.88 3.02 3.02 0 0 1-.78-1.35z"/><path d="M13.75 7.25h-3.5a2.97 2.97 0 0 1-2.12-.88 2.97 2.97 0 0 1-.88-2.12 3.01 3.01 0 0 1 3-3h3.5a2.97 2.97 0 0 1 2.12.88 2.97 2.97 0 0 1 .88 2.12 3.01 3.01 0 0 1-3 3zm-3.5-4.5a1.5 1.5 0 1 0 0 3h3.5a1.5 1.5 0 1 0 0-3h-3.5zm1.75 11H8c-.41 0-.75-.34-.75-.75s.34-.75.75-.75h4c.41 0 .75.34.75.75s-.34.75-.75.75zm4 4H8c-.41 0-.75-.34-.75-.75s.34-.75.75-.75h8c.41 0 .75.34.75.75s-.34.75-.75.75z"/></svg>