<svg xmlns="http://www.w3.org/2000/svg" width="24" height="24" fill="none" xmlns:v="https://vecta.io/nano"><path d="M8.5 1C6.466 1 4.777 2.54 4.533 4.511A3.76 3.76 0 0 0 1 8.25v.5A1.26 1.26 0 0 0 2.25 10a3.76 3.76 0 0 0 3.406-2.195C6.383 8.541 7.39 9 8.5 9c2.2 0 4-1.8 4-4s-1.8-4-4-4zm0 1.5A2.49 2.49 0 0 1 11 5a2.49 2.49 0 0 1-2.5 2.5A2.49 2.49 0 0 1 6 5a2.49 2.49 0 0 1 2.5-2.5zm9 0C15.576 2.5 14 4.076 14 6s1.576 3.5 3.5 3.5S21 7.924 21 6s-1.576-3.5-3.5-3.5zm0 1.5a1.99 1.99 0 0 1 2 2 1.99 1.99 0 0 1-2 2 1.99 1.99 0 0 1-2-2 1.99 1.99 0 0 1 2-2zm-13 2.05v.2c0 1.163-.874 2.072-2 2.2v-.2c0-1.163.874-2.072 2-2.2zm4 3.95A5.51 5.51 0 0 0 3 15.5v3.75a.75.75 0 1 0 1.5 0V15.5c0-2.206 1.795-4 4-4 2.077 0 3.788 1.591 3.98 3.618a16.77 16.77 0 0 1 1.722-.779C14.682 12.978 15.978 12 17.5 12c1.93 0 3.5 1.57 3.5 3.5v2.75a.75.75 0 1 0 1.5 0V15.5c0-2.757-2.243-5-5-5-1.766 0-3.318.923-4.208 2.31A5.5 5.5 0 0 0 8.5 10zm7.748 4.845c-.093 0-.185.008-.278.023-1.312.211-2.971 1.088-3.719 1.513-.747-.425-2.408-1.302-3.721-1.513a1.75 1.75 0 0 0-.274-.021 1.76 1.76 0 0 0-1.141.418c-.392.333-.615.82-.615 1.333v5.153a.75.75 0 1 0 1.5 0v-5.153a.25.25 0 0 1 .088-.191c.028-.024.084-.061.161-.061.014 0 .028 0 .043.003 1.068.172 2.54.953 3.208 1.332v4.07a.75.75 0 1 0 1.5 0v-4.07c.668-.38 2.14-1.16 3.207-1.331.015-.003.031-.004.045-.004.079 0 .132.037.16.061.033.028.088.09.088.191v5.153a.75.75 0 1 0 1.5 0v-5.153a1.75 1.75 0 0 0-1.752-1.752z" fill="#292d32"/></svg>