<svg xmlns="http://www.w3.org/2000/svg" width="24" height="24" fill="none" xmlns:v="https://vecta.io/nano"><path d="M9.75 2a.75.75 0 0 0-.694.466L2.418 18.647a2.26 2.26 0 0 0 .49 2.445 2.26 2.26 0 0 0 2.445.49l7.679-3.15a.75.75 0 0 0 .181-.074l8.321-3.413A.75.75 0 0 0 22 14.25C22 7.493 16.507 2 9.75 2zm.483 1.549a10.69 10.69 0 0 1 10.218 10.218l-1.746.717c-.23-4.976-4.213-8.958-9.188-9.188l.717-1.746zM8.926 6.736a.75.75 0 0 0 .147.014 8.16 8.16 0 0 1 8.111 7.187A3.48 3.48 0 0 0 15.5 13.5c-1.924 0-3.5 1.576-3.5 3.5 0 .077.01.152.015.229l-7.23 2.966a.7.7 0 0 1-.815-.163.7.7 0 0 1-.163-.815l.953-2.324A4.75 4.75 0 0 0 5.75 17c2.614 0 4.75-2.136 4.75-4.75 0-1.676-.877-3.152-2.196-3.997l.622-1.517zM7.721 9.674A3.23 3.23 0 0 1 9 12.25a3.24 3.24 0 0 1-3.25 3.25c-.138 0-.272-.018-.405-.035l2.376-5.791zM15.5 15a1.98 1.98 0 0 1 1.115.341l-3.076 1.262c.182-.92.984-1.602 1.961-1.602z" fill="#292d32"/></svg>