<svg xmlns="http://www.w3.org/2000/svg" width="24" height="24" fill="none" xmlns:v="https://vecta.io/nano"><g fill="#292d32"><path d="M19.42 11.75H16c-.41 0-.75-.34-.75-.75V4.01a2.74 2.74 0 0 1 .81-1.95 2.74 2.74 0 0 1 1.95-.81h.01a4.76 4.76 0 0 1 3.33 1.39c.9.91 1.39 2.11 1.39 3.36v2.42c.01 1.99-1.33 3.33-3.32 3.33zm-2.67-1.5h2.67c1.16 0 1.83-.67 1.83-1.83V6c0-.86-.34-1.68-.95-2.3a3.31 3.31 0 0 0-2.28-.95c-.34 0-.66.13-.9.37a1.24 1.24 0 0 0-.37.89v6.24h0z"/><path d="M9 23.33c-.47 0-.91-.18-1.24-.52L6.1 21.14c-.09-.09-.23-.1-.33-.02L4.05 22.4a1.73 1.73 0 0 1-1.83.17A1.74 1.74 0 0 1 1.25 21V6c0-3.02 1.73-4.75 4.75-4.75h12c.41 0 .75.34.75.75s-.34.75-.75.75A1.25 1.25 0 0 0 16.75 4v17a1.74 1.74 0 0 1-.97 1.57 1.73 1.73 0 0 1-1.83-.16l-1.71-1.28c-.1-.08-.24-.06-.32.02l-1.68 1.68a1.77 1.77 0 0 1-1.24.5zm-3.09-3.76c.46 0 .91.17 1.25.52l1.66 1.67c.06.06.14.07.18.07s.12-.01.18-.07l1.68-1.68a1.74 1.74 0 0 1 2.29-.15l1.7 1.27c.11.08.21.05.26.02s.14-.09.14-.22V4c0-.45.11-.88.3-1.25H6C3.78 2.75 2.75 3.78 2.75 6v15c0 .14.09.2.14.23.06.03.16.05.26-.03l1.71-1.28c.31-.23.68-.35 1.05-.35z"/></g><path d="M12 13.76H9c-.41 0-.75-.34-.75-.75s.34-.75.75-.75h3c.41 0 .75.34.75.75s-.34.75-.75.75zm0-4H9c-.41 0-.75-.34-.75-.75s.34-.75.75-.75h3c.41 0 .75.34.75.75s-.34.75-.75.75zm-6.029.25c-.55 0-1-.45-1-1s.45-1 1-1 1 .45 1 1-.45 1-1 1zm0 4c-.55 0-1-.45-1-1s.45-1 1-1 1 .45 1 1-.45 1-1 1z" fill="#2969ff"/></svg>