<svg xmlns="http://www.w3.org/2000/svg" width="24" height="24" fill="none" xmlns:v="https://vecta.io/nano"><path d="M6 2.5a.75.75 0 0 0-.509.199l-3.25 3A.75.75 0 0 0 2 6.25v2a3.68 3.68 0 0 0 1 2.513V21.25a.75.75 0 0 0 .75.75h16.5a.75.75 0 0 0 .75-.75V10.764a3.68 3.68 0 0 0 1.001-2.514v-2h-.002a.75.75 0 0 0-.24-.551l-3.25-3A.75.75 0 0 0 18 2.5H6zM6.293 4h11.414l1.625 1.5H4.668L6.293 4zM3.5 7h4.666v1.25c-.003 1.244-1.025 2.25-2.332 2.25S3.5 9.49 3.5 8.25V7zm6.167 0h4.667v1.25c0 1.24-1.025 2.25-2.334 2.25S9.67 9.494 9.667 8.256V7zm6.167 0h4.667v1.25c0 1.24-1.025 2.25-2.334 2.25s-2.333-1.01-2.333-2.25V7zm-.75 3.354c.697.971 1.793 1.646 3.083 1.646.468 0 .916-.087 1.333-.24v8.74h-8v-6.25a.75.75 0 0 0-.75-.75h-4a.75.75 0 0 0-.75.75v6.25H4.5v-8.74c.417.153.866.24 1.334.24a3.86 3.86 0 0 0 3.082-1.534C9.618 11.395 10.743 12 12 12c1.29 0 2.387-.675 3.084-1.646zM13.75 13.5a.75.75 0 0 0-.75.75v3.5a.75.75 0 0 0 .75.75h3.5a.75.75 0 0 0 .75-.75v-3.5a.75.75 0 0 0-.75-.75h-3.5zM7.5 15H10v5.5H7.5V15zm7 0h2v2h-2v-2z" fill="#292d32"/></svg>