<svg xmlns="http://www.w3.org/2000/svg" width="24" height="24" fill="none" xmlns:v="https://vecta.io/nano"><path d="M6.75 3C4.682 3 3 4.682 3 6.75v1.283a.75.75 0 0 0-.262-.044A.75.75 0 0 0 2 8.75v2.5a.75.75 0 0 0 .313.619.75.75 0 0 0 .687.098v6.283 2.25a1 1 0 0 0 1 1h.5a1 1 0 0 0 1-1h4V19H5.25a.75.75 0 0 1-.75-.75V14h5.795l.23-.988a3.34 3.34 0 0 1 .169-.522l-6.194.01V6.75c0-1.24 1.01-2.25 2.25-2.25h9.5c1.241 0 2.25 1.01 2.25 2.25v3.766c1.032.06 1.945.592 2.5 1.416V8.75a.75.75 0 0 0-.75-.75.74.74 0 0 0-.25.046V6.75C20 4.682 18.318 3 16.25 3h-9.5zm3.5 2.5a.75.75 0 0 0-.537.216.75.75 0 0 0-.223.534.75.75 0 0 0 .223.534.75.75 0 0 0 .537.216h2.5a.75.75 0 0 0 .537-.216.75.75 0 0 0 .223-.534.75.75 0 0 0-.223-.534.75.75 0 0 0-.537-.216h-2.5zm3.44 6a2.26 2.26 0 0 0-2.191 1.738l-.479 2.055-.01.054c-.313.387-.51.872-.51 1.403v3V21a.5.5 0 0 0 .5.5h1a.5.5 0 0 0 .5-.5v-.5h7v.5a.5.5 0 0 0 .5.5h1a.5.5 0 0 0 .5-.5v-1.25-3c0-.531-.196-1.015-.509-1.401l-.012-.056-.48-2.054v-.001c-.236-1.014-1.149-1.738-2.19-1.738h-4.619zm0 1.5h4.619a.74.74 0 0 1 .73.579h.001l.215.922-6.505-.001.21-.921a.74.74 0 0 1 .73-.579zM7 15.5a1 1 0 0 0-1 1 1 1 0 0 0 1 1 1 1 0 0 0 1-1 1 1 0 0 0-1-1zm5.75.5h6.5a.74.74 0 0 1 .75.75V19h-8v-2.25a.74.74 0 0 1 .75-.75zm1 1a.75.75 0 0 0-.75.75.75.75 0 0 0 .75.75.75.75 0 0 0 .75-.75.75.75 0 0 0-.75-.75zm4.5 0a.75.75 0 0 0-.75.75.75.75 0 0 0 .75.75.75.75 0 0 0 .75-.75.75.75 0 0 0-.75-.75z" fill="#292d32"/></svg>