<svg xmlns="http://www.w3.org/2000/svg" width="156" height="156" fill="none" xmlns:v="https://vecta.io/nano"><style><![CDATA[.B{fill:#232323}.C{fill:#fff}.D{fill:#2969ff}]]></style><g class="D"><path d="M31.344 17.182c-.384 1.187-1.86 1.886-3.022 1.429-.1-.052-.21-.079-.323-.078-.287.036-.353.41-.488.666-.279.529-.988.624-1.587.636-1.006.028-2.118 0-2.859-.679-.644-.59-.836-1.532-.828-2.405.008-.899.529-1.601.579-2.451.052-.874-.264-1.669-.086-2.588.119-.624.32-1.235.722-1.716.956-1.143 2.707-1.17 4.164-.855-.156-1.092.669-2.067 1.535-2.744 1.19-.936 2.625-1.618 4.136-1.658s3.087.657 3.842 1.969c1.201-1.682 3.173-2.903 5.234-2.808s4.056 1.767 4.14 3.828a6.24 6.24 0 0 1 5.641-2.172c2.446.371 2.941 3.335 2.583 5.387.747-.541 1.626-.936 2.547-.967s1.884.371 2.388 1.143.435 1.919-.265 2.519c1.131-.379 2.298.7 2.566 1.859.421 1.819-.732 3.771-2.404 4.597s-3.711.652-5.418-.097"/><path d="M30.784 17.029a1.81 1.81 0 0 1-2.015 1.067c-.663-.142-1.183-.331-1.607.374-.229.381-.286.624-.789.7-.462.061-.93.067-1.393.02-1.058-.083-1.827-.558-2.028-1.654-.193-1.031.298-1.833.468-2.808.17-.953-.206-1.892-.059-2.841.335-2.168 2.225-2.477 4.078-2.103.39.08.88-.183.842-.643-.14-1.786 2.246-3.093 3.7-3.527 1.66-.495 3.614-.128 4.579 1.421.282.452.847.395 1.139 0 1.092-1.473 2.881-2.643 4.781-2.416 1.654.197 3.239 1.356 3.374 3.12.039.509.71.92 1.105.459 1.248-1.471 3.822-2.744 5.741-1.783 1.477.743 1.576 2.928 1.328 4.34-.101.568.493 1.206 1.066.821.858-.577 1.966-1.092 3.011-.73.945.323 1.594 1.463.771 2.274-.537.527.013 1.417.719 1.237 1.023-.259 1.677.947 1.716 1.805.044.963-.424 1.899-1.092 2.566-1.587 1.583-3.965 1.307-5.894.613-.728-.262-1.231.914-.53 1.257 2.777 1.357 6.441 1 8.218-1.763.736-1.145 1.03-2.665.523-3.956-.527-1.346-1.872-2.318-3.334-1.95l.719 1.237c1.257-1.234.955-3.257-.431-4.259-1.604-1.159-3.638-.66-5.129.413l1.067.821c.296-2.044-.009-4.791-2.065-5.858-2.399-1.248-5.688.097-7.318 1.998l1.106.457c-.167-2.232-2.041-4.179-4.268-4.483-2.519-.342-4.878 1.167-6.321 3.12h1.139c-1.281-2.045-3.83-2.688-6.068-2.028-2.028.596-4.87 2.374-4.68 4.799l.844-.641c-2.232-.463-4.705-.083-5.521 2.345-.206.617-.285 1.269-.231 1.917.058.725.198 1.374 0 2.092-.349 1.248-.663 2.321-.178 3.588.421 1.103 1.334 1.754 2.482 1.941.978.156 2.391.245 3.243-.365a1.6 1.6 0 0 0 .468-.518c.201-.356-.02-.245.29-.242.521 0 .952.133 1.483-.008a3.02 3.02 0 0 0 2.076-1.928c.257-.707-.85-.991-1.119-.312l-.005.012z"/></g><path d="M37.869 18.461c1.454 1.813 3.744 1.273 5.073-.348.495-.604.679-1.538.208-2.159s-1.334-.697-2.081-.582-1.593.512-1.747 1.262c-.395-.275-.9-.496-1.343-.312-.187.092-.342.237-.446.418s-.153.387-.139.595c.033.417.2.812.476 1.126z" class="C"/><path d="M37.694 18.637c.811.952 1.966 1.418 3.207 1.125 1.128-.267 2.401-1.17 2.738-2.326.831-2.852-3.93-3.259-4.644-.891l.496-.203c-.649-.417-1.532-.675-2.103.019s-.279 1.608.209 2.259c.239.312.78.014.544-.312s-.524-.747-.368-1.182c.248-.697.905-.491 1.376-.194a.34.34 0 0 0 .297.02c.048-.019.091-.049.125-.088a.34.34 0 0 0 .074-.134c.276-.936 1.583-1.19 2.424-1.025 1.404.276 1.145 1.716.376 2.526-1.265 1.328-3.167 1.499-4.401.059-.209-.25-.558.103-.351.346z" class="B"/><path d="M55.068 20.208c-1.487.189-3.337-.493-4.432-1.463-.334-.296-.677-.604-.861-1.009s-.17-.936.156-1.248c.221-.168.482-.275.757-.312.413-.095.886-.179 1.226.073.17.152.31.335.412.54.034.058.081.12.148.123.406.027.715-1.026 1.157-1.143.181-.042.37-.029.544.037s.324.182.431.333.168.331.187.516-.007.371-.077.543c.601-.487 1.604-.278 2.028.373s.234 1.591-.348 2.101c-.38.307-.843.494-1.329.537z" class="C"/><path d="M55.068 19.968c-1.108.066-2.211-.191-3.176-.739-.624-.345-3.008-2.15-1.314-2.652.242-.083.496-.127.752-.13.594.064.49.337.754.615.068.088.161.154.268.187s.22.034.327 0c.228-.062.382-.271.52-.448a4.27 4.27 0 0 1 .303-.437c.526-.53 1.045.122.863.747-.087.296.272.601.543.416.157-.114.342-.183.536-.199s.388.022.561.109.32.221.422.386.157.355.159.549c.013.936-.821 1.343-1.619 1.479-.488.084-.278.814.204.741 1.313-.203 2.529-1.285 2.106-2.732-.084-.27-.229-.517-.425-.721s-.437-.359-.703-.454-.551-.125-.832-.09-.549.135-.784.293l.543.418c.181-.638.056-1.312-.524-1.696a1.12 1.12 0 0 0-1.508.179c-.084.094-.611.841-.409.83-.193-.251-.401-.491-.624-.716-.538-.303-1.36-.156-1.895.092-1.587.721-.468 2.407.454 3.132 1.248.977 2.923 1.529 4.505 1.34.295-.051.307-.534-.005-.502z" class="B"/><path d="M25.547 16.97c.17.259.411.464.694.59s.597.168.903.12a2.6 2.6 0 0 0-.555.793c-.065.149-.091.312-.076.474s.071.317.162.452c1.072 1.379 3.878.98 5.048.031 1.101-.892 1.569-2.56.919-3.819a1.09 1.09 0 0 0-.412-.468 1.34 1.34 0 0 0-.502-.123c-.611-.07-1.276-.13-1.803.187-.059.044-.127.075-.2.09a.41.41 0 0 1-.25-.078c-.844-.487-1.941-1.158-2.975-.789-.966.337-1.51 1.654-.953 2.54z" class="C"/><path d="M25.317 17.104c.197.297.471.535.793.688a1.96 1.96 0 0 0 1.034.18l-.203-.499c-.468.512-.959 1.197-.624 1.919.282.624 1.03.984 1.657 1.131 1.368.32 3.12 0 4.178-.973 1.122-1.039 1.725-3.215.593-4.472-.526-.583-1.661-.587-2.379-.434-.195.042-.434.218-.624.234s-.335-.137-.482-.218a5.91 5.91 0 0 0-1.454-.624c-.875-.209-1.786 0-2.351.733-.269.327-.431.729-.464 1.151s.066.844.281 1.209c.22.346.704.045.541-.312-.346-.769.019-1.789.856-2.05.995-.312 1.772.399 2.616.771.605.267.984-.178 1.622-.198.51-.017 1.092 0 1.404.468.218.337.259.839.24 1.229-.072 1.474-1.186 2.465-2.546 2.785-1.239.292-4.301-.052-2.652-1.931.147-.169.066-.529-.206-.496-.257.044-.522.015-.764-.083s-.452-.262-.606-.473c-.204-.271-.663-.016-.462.267z" class="B"/><g class="D"><path d="M107.197 57.586c-.104-2.515-.701-4.984-1.758-7.268-.655-1.412-1.538-2.799-2.885-3.58-1.229-.714-2.716-.847-4.135-.75-2.115.147-5.471.866-6.886 2.644-1.282 1.611-.484 3.457-.78 5.483-.802 5.46-2.641 10.853-5.086 15.781-1.065 2.147-2.29 4.644-1.27 6.813.432.919 1.218 1.619 2.028 2.225 5.006 3.705 12.012 4.501 17.725 2.012"/><path d="M107.732 57.586a20.08 20.08 0 0 0-1.98-8.022c-1.173-2.387-3.016-3.987-5.725-4.242-2.173-.206-4.59.242-6.585 1.105-.903.39-1.792.919-2.424 1.688-.789.962-1.001 2.117-.984 3.332.02 1.334 0 2.557-.242 3.877l-1.005 4.331a53.46 53.46 0 0 1-3.142 8.424c-1.134 2.396-2.852 4.972-2.396 7.75.415 2.532 2.897 4.154 5.008 5.256a19.07 19.07 0 0 0 16.323.596c.868-.377.234-1.916-.65-1.544-4.073 1.702-8.633 1.826-12.792.348-1.977-.702-4.459-1.88-5.691-3.654-1.485-2.132.156-4.901 1.117-6.9 2.212-4.639 3.916-9.558 4.758-14.628.19-1.119.261-2.255.212-3.388-.044-1.061-.055-2.139.696-2.978 1.248-1.404 3.473-1.908 5.259-2.165 1.207-.173 2.485-.234 3.67.097 1.336.371 2.317 1.306 3.044 2.454 1.541 2.437 2.301 5.41 2.457 8.268.037.685 1.092.693 1.072 0v-.003z"/></g><path d="M113.503 82.289c-.515 10.783-5.553 20.849-5.632 31.679-.081 11.155-.147 22.406-.894 33.557-.042.624-.108 1.288-.496 1.755-.328.394-.825.568-1.301.709-4.775 1.431-9.828 1.498-14.744.951-1.215-.135-2.541-.369-3.34-1.355-.289-.358-.493-.839-.395-1.304.094-.325.262-.625.491-.875 1.268-1.607 3.469-3.323 4.292-5.209 1.084-2.485.582-6.17.379-8.792-.9-11.606-1.033-23.258-.396-34.881.573-10.513 2.056-21.693 8.528-29.684" class="C"/><g class="B"><path d="M113.062 82.288c-.295 5.572-1.839 10.987-3.231 16.36s-2.488 10.692-2.538 16.241l-.263 18.171-.34 9.087-.253 4.457c-.039.61 0 1.339-.22 1.919-.279.727-1.092.861-1.76 1.045-2.769.735-5.624 1.098-8.489 1.078a48.57 48.57 0 0 1-4.368-.203c-1.203-.111-2.774-.123-3.744-.959-.664-.574-.624-1.169-.086-1.811.381-.468.796-.893 1.211-1.322.821-.848 1.657-1.688 2.348-2.652 1.376-1.915 1.527-4.324 1.44-6.608-.101-2.669-.406-5.335-.566-8.001a265.57 265.57 0 0 1-.39-9.101 267.6 267.6 0 0 1 .156-18.227c.432-9.959 1.092-20.748 6.385-29.484a29.69 29.69 0 0 1 2.068-2.997c.489-.624-.369-1.507-.881-.881-6.602 8.089-8.093 19.032-8.692 29.114-.74 12.449-.574 24.935.498 37.36.206 2.4.571 5.317-.663 7.509-.641 1.139-1.604 2.065-2.496 2.998-.741.768-1.889 1.716-2.097 2.819s.657 2.137 1.577 2.652c1.058.582 2.315.672 3.493.78 2.948.287 5.928.343 8.878 0a31.33 31.33 0 0 0 4.455-.825c1.051-.28 2.22-.549 2.741-1.61.56-1.142.413-2.746.485-3.978l.24-4.768c.273-6.364.375-12.735.431-19.106.028-3.111-.067-6.24.114-9.35.17-2.932.68-5.832 1.318-8.697 1.248-5.586 2.964-11.076 3.725-16.763a51.19 51.19 0 0 0 .395-4.249c.028-.566-.852-.563-.881 0l.001.003z"/><path d="M87.193 147.406c1.268-1.607 3.47-3.323 4.292-5.209.771-1.766.739-4.142.583-6.308a12.33 12.33 0 0 1 2.329-.022c.665.048 1.387.125 1.872.613 1.126 1.143.02 3.365.839 4.777.577.995 1.858 1.166 2.956 1.092 2.281-.156 4.524-.902 6.808-.752.143.003.285.028.421.075l-.312 5.85c-.042.624-.108 1.288-.496 1.755-.328.394-.825.567-1.301.709-4.775 1.431-9.828 1.498-14.744.95-1.215-.134-2.541-.368-3.34-1.354-.289-.359-.493-.839-.395-1.304.093-.324.26-.622.487-.872z"/><path d="M87.66 147.873c1.39-1.716 3.314-3.12 4.301-5.141 1.023-2.092.924-4.581.767-6.843l-.66.66c.939-.114 1.89-.105 2.827.026.962.156 1.248.746 1.257 1.654.013 1.38-.262 2.928.88 3.97 1.112 1.015 2.794.875 4.167.694l2.867-.468c.956-.156 2.105-.362 3.05-.122l-.485-.635-.181 3.705-.112 1.846c-.033.482 0 1.125-.295 1.544s-.855.539-1.319.673l-1.7.432a29.95 29.95 0 0 1-3.708.575c-2.326.201-4.665.207-6.992.016-1.22-.095-6.368-.387-4.561-2.727.518-.671-.624-1.329-1.139-.664-.796 1.031-.758 2.199.156 3.154.791.819 1.924 1.134 3.016 1.292a41.2 41.2 0 0 0 8.934.29c1.464-.107 2.918-.311 4.354-.61 1.159-.244 2.688-.44 3.624-1.233.966-.817.91-2.21.983-3.363l.254-4.93a.67.67 0 0 0-.485-.636c-1.769-.449-3.834.143-5.591.431-1.348.219-4.067.806-4.402-1.152-.232-1.362.374-2.889-.558-4.089-1.033-1.327-3.368-1.146-4.845-.999-.334.034-.685.276-.658.659.142 2.066.326 4.489-.691 6.378-.975 1.811-2.714 3.092-3.992 4.68-.521.655.406 1.592.939.933z"/></g><path d="M93.609 141.662a2.87 2.87 0 0 0-1.225-.704c-.46-.129-.945-.142-1.412-.037-.362.086-.2.594.156.543a2.59 2.59 0 0 1 1.111.066 2.58 2.58 0 0 1 .98.527c.27.234.663-.156.396-.395h-.006zm-1.53 2.187a3.07 3.07 0 0 0-1.845-.922c-.325-.041-.404.524-.078.577a2.71 2.71 0 0 1 1.518.752c.054.054.127.084.203.084s.149-.031.203-.085.084-.127.084-.203-.031-.149-.085-.203zm-2.156 1.05l-1.103-.362c-.325-.106-.468.408-.14.511l1.105.353c.32.101.456-.398.139-.502zm27.138-74.131c2.34-.095 4.51 1.493 5.717 3.504 3.058 5.093 2.401 12.706 2.166 18.375-.273 6.561-.894 13.194.376 19.696 2.137 10.948 4.308 21.996 5.792 33.072.083.616.156 1.284-.137 1.818-.244.452-.696.72-1.135.954-4.396 2.351-9.328 3.42-14.259 3.861-1.219.11-2.565.144-3.543-.664-.356-.293-.651-.724-.648-1.198.029-.339.136-.666.312-.957.924-1.826 2.74-3.946 3.17-5.956.57-2.652-.655-6.163-1.376-8.692-2.406-8.452-4.388-17.01-5.945-25.674-1.483-8.254-3.393-15.714-2.118-24.227" class="C"/><g class="B"><path d="M117.061 71.208c5.304-.081 7.02 6.518 7.402 10.685.448 4.816-.02 9.728-.265 14.545-.149 2.885-.28 5.772-.203 8.66a52.11 52.11 0 0 0 .994 8.608l3.276 17.407 1.452 8.821.643 4.418c.092.674.299 1.445.206 2.13-.105.763-.796 1.051-1.404 1.365a31.68 31.68 0 0 1-7.644 2.675 42.9 42.9 0 0 1-4.125.702c-1.2.147-2.529.395-3.735.187-.546-.093-1.26-.351-1.532-.883-.312-.602.342-1.404.649-1.918.649-1.074 1.382-2.097 1.958-3.214 1.092-2.111 1.05-4.282.58-6.565-.519-2.53-1.368-5.002-2.043-7.495a258.92 258.92 0 0 1-2.156-8.52c-1.328-5.637-2.379-11.322-3.462-17.004-1.039-5.46-2.126-10.934-1.982-16.515a40.67 40.67 0 0 1 .36-4.451c.106-.78-1.078-1.128-1.201-.331-.907 5.858-.264 11.7.763 17.504 1.068 6.037 2.184 12.074 3.53 18.057 1.302 5.797 2.903 11.494 4.483 17.219.716 2.599 1.236 5.204-.096 7.688-.61 1.14-1.375 2.184-2.028 3.308-.587 1.016-1.082 2.092-.275 3.142 1.515 1.969 4.68 1.256 6.764.977 2.874-.387 5.721-1.008 8.441-2.019a28.6 28.6 0 0 0 3.732-1.672c1.062-.581 1.686-1.376 1.638-2.632-.056-1.491-.386-3.015-.604-4.49l-.732-4.719c-1.004-6.187-2.165-12.346-3.36-18.498-.611-3.147-1.369-6.299-1.7-9.491-.312-3.073-.304-6.168-.2-9.253.184-5.36.755-10.775.453-16.14-.247-4.382-1.2-10.093-5.471-12.394-.956-.522-2.031-.787-3.12-.769-.567.011-.568.889 0 .881l.014-.006z"/><path d="M111.696 149.223c.924-1.827 2.74-3.947 3.17-5.956.406-1.886-.097-4.212-.68-6.299a12.3 12.3 0 0 1 2.276-.485c.661-.085 1.384-.156 1.953.229 1.332.897.69 3.295 1.774 4.515.763.859 2.053.78 3.12.485 2.206-.599 4.26-1.785 6.524-2.089a1.39 1.39 0 0 1 .427-.003l.855 5.797c.083.616.156 1.284-.137 1.817-.244.453-.696.721-1.134.955-4.396 2.351-9.329 3.419-14.26 3.861-1.219.109-2.565.143-3.543-.665-.356-.293-.651-.723-.647-1.198a2.21 2.21 0 0 1 .302-.964z"/><path d="M112.268 149.557c1.022-1.964 2.619-3.713 3.184-5.892.582-2.251-.027-4.693-.624-6.874l-.46.812c.936-.289 2.003-.571 2.987-.525.91.044 1.165.688 1.326 1.471.264 1.273.312 2.746 1.513 3.542 1.343.889 3.083.373 4.47-.116l2.706-1.022c.908-.324 1.933-.73 2.891-.683l-.636-.483.556 3.661.258 1.831c.076.584.235 1.333-.181 1.827-.298.353-.846.562-1.248.766l-1.524.718c-1.107.476-2.241.885-3.396 1.226a40.63 40.63 0 0 1-6.694 1.374c-1.092.134-6.36.88-5.125-1.633.373-.76-.764-1.429-1.139-.666-.561 1.143-.48 2.235.576 3.056.97.755 2.226.862 3.413.791a42.2 42.2 0 0 0 8.507-1.418c1.397-.381 2.768-.853 4.104-1.414 1.134-.477 2.577-.967 3.454-1.872.977-1.003.607-2.486.435-3.719l-.73-4.883c-.045-.291-.368-.468-.635-.483-1.836-.089-3.756.936-5.43 1.56-1.36.508-3.859 1.56-4.507-.423-.391-1.198-.221-2.652-1.17-3.624-1.248-1.281-3.658-.594-5.137-.137a.67.67 0 0 0-.399.31c-.087.152-.112.332-.069.501.555 2.016 1.193 4.328.563 6.396-.593 1.956-2.053 3.557-2.986 5.351-.383.76.755 1.427 1.147.674z"/></g><path d="M116.832 142.311a2.88 2.88 0 0 0-1.343-.438c-.477-.033-.955.054-1.39.253-.287.131-.083.624.218.514.361-.139.748-.198 1.134-.171a2.64 2.64 0 0 1 1.099.327c.063.038.14.048.211.03s.133-.066.171-.129a.28.28 0 0 0 .029-.212c-.019-.072-.065-.133-.129-.171v-.003zm-1.065 2.448c-.561-.389-1.238-.577-1.92-.534-.373.027-.381.601 0 .587a2.72 2.72 0 0 1 1.63.443c.312.203.595-.29.29-.496zm-1.908 1.465l-1.153-.136c-.337-.039-.337.494 0 .53l1.153.127c.332.036.327-.482 0-.521zM46.011 53.831c1.064.094 2.211.521 3.257.763l7.636 1.605c15.926 2.703 34.114.044 47.529-8.58" class="C"/><path d="M46.011 54.354c1.066.126 2.073.518 3.108.78l3.501.844 6.341 1.192a74.45 74.45 0 0 0 11.488.683c7.752-.139 15.538-1.435 22.84-4.065 4.012-1.446 7.903-3.276 11.481-5.605.709-.468.057-1.599-.67-1.143-12.948 8.129-28.902 10.811-43.965 8.97-2.313-.282-4.611-.683-6.894-1.156l-3.821-.808c-1.137-.256-2.245-.624-3.409-.742-.671-.072-.658.967 0 1.047v.005z" class="B"/><path d="M48.762 53.759c1.214.173 2.278.867 3.377 1.404 1.716.846 3.577 1.343 5.426 1.835 5.544 1.473 11.117 2.951 16.826 3.507 6.292.634 12.646.075 18.731-1.646 2.683-.769 5.329-1.791 7.615-3.396 2.258-1.609 4.128-3.702 5.472-6.128 1.325-2.362 2.167-5.126 1.93-7.855-.089-1.03-.207-2.69-1.217-3.075-1.622-.624-4.237.529-5.853.867a48.02 48.02 0 0 0-6.653 1.902c-2.764 1.011-5.438 2.276-8.268 3.09-.825.237-1.674.437-2.532.426-.956-.012-1.886-.284-2.808-.554-8.53-2.508-17.918-5.006-25.383-9.973-1.154-.768-2.357-1.56-3.728-1.766-.964-.156-2.717.147-2.694 1.445a1.26 1.26 0 0 1-.02.454c-.148.407-.738.335-1.151.204-3.452-1.101-8.892-1.378-10.308 2.733" class="C"/><path d="M48.622 54.263c1.376.242 2.515 1.045 3.764 1.615a26.53 26.53 0 0 0 3.781 1.332l8.555 2.249c5.646 1.331 11.388 2.184 17.197 1.894 5.451-.264 11.131-1.278 16.107-3.588 4.638-2.153 8.384-6.131 10.051-10.995.76-2.22 1.039-4.752.481-7.056-.202-.828-.624-1.633-1.462-1.945-.966-.359-2.075-.192-3.053.022-1.033.226-2.028.59-3.062.825-1.345.312-2.682.624-4.003 1.012-2.763.824-5.39 1.988-8.081 3.006-1.309.496-2.652 1.002-4.036 1.268-1.524.296-2.916-.126-4.368-.552l-7.366-2.184c-5.043-1.56-10.067-3.342-14.684-5.937-1.105-.624-2.162-1.31-3.228-1.998s-2.184-1.312-3.432-1.49a3.91 3.91 0 0 0-2.374.362 2.16 2.16 0 0 0-.828.764c-.096.166-.166.347-.206.535-.027.117-.027.235-.044.352-.034.211.156.09-.03.156-.25.092-1.008-.276-1.278-.343a19.17 19.17 0 0 0-1.331-.265c-.887-.148-1.787-.208-2.686-.179-1.716.07-3.488.535-4.761 1.746-.619.611-1.086 1.359-1.364 2.184-.292.803.983 1.143 1.276.351 1.268-3.432 5.763-3.234 8.675-2.496.753.193 1.688.641 2.398.108.374-.282.398-.638.448-1.069.058-.487.24-.669.722-.816 2.103-.64 4.251 1.36 5.897 2.371 4.137 2.541 8.685 4.368 13.276 5.903 2.328.78 4.68 1.488 7.034 2.184l3.532 1.031c1.178.345 2.377.736 3.619.721 2.576-.033 5.196-1.303 7.541-2.248 2.48-1 4.966-1.947 7.555-2.63 1.142-.301 2.305-.512 3.432-.838.994-.285 2.004-.635 3.038-.729.419-.038 1.029-.089 1.404.139s.483.728.569 1.117c.217 1.062.273 2.151.167 3.229-.429 4.909-3.855 9.564-7.975 12.096-4.426 2.719-9.968 3.866-15.077 4.368-5.502.541-11.01.12-16.424-.949-2.718-.537-5.407-1.204-8.09-1.889-2.604-.666-5.321-1.217-7.738-2.427-1.064-.534-2.086-1.133-3.276-1.335-.658-.112-.936.892-.279 1.008l.016.009z" class="B"/><g class="D"><path d="M76.064 59.58c6.313.363 12.638-.466 18.644-2.445 2.652-.883 5.249-2.016 7.465-3.716 2.188-1.703 3.968-3.874 5.209-6.354 1.223-2.415 1.946-5.214 1.594-7.929-.133-1.025 1.363-5.541.338-5.883-1.647-.549-7.581.88-8.132 2.747-.65 2.215-3.797 2.527-5.928 3.412-1.958.811-3.858 1.755-5.817 2.565-1.392.574-3.016 1.611-4.51 1.85-1.827.292-4.056-.718-5.749-1.292-2.037-.688-4.034-1.493-6.029-2.295l-6.513-2.621a5.13 5.13 0 0 0-1.404-.413c-.98-.097-1.947.385-2.652 1.067-4.231 4.056-6.385 11.308-4.274 16.921.329.877.802 1.753 1.593 2.257 1.806 1.15 5.039.602 7.142.986a72.35 72.35 0 0 0 9.025 1.142z"/><path d="M76.064 60.102c5.719.312 11.491-.231 17.004-1.808 5.042-1.441 9.798-3.661 13.03-7.936 1.553-2.053 2.76-4.446 3.306-6.97a12.95 12.95 0 0 0 .264-3.98c-.066-.672.06-1.287.19-1.948.156-.805.324-1.61.42-2.426.07-.604.156-1.345-.156-1.898-.624-1.092-2.716-.635-3.693-.468-1.616.281-3.38.78-4.73 1.746a3.23 3.23 0 0 0-1.173 1.496c-.373.88-1.159 1.345-2.014 1.694-.936.387-1.934.624-2.891.964-1.278.457-2.507 1.058-3.744 1.618-1.259.571-2.551 1.083-3.794 1.688-1.167.566-2.407 1.309-3.744 1.338-1.248.028-2.476-.418-3.633-.831L76.867 41c-2.757-1.048-5.483-2.184-8.218-3.276-1.248-.502-2.639-1.318-4.026-1.164-1.129.125-2.051.76-2.83 1.552-1.544 1.608-2.764 3.499-3.594 5.568-.868 2.084-1.337 4.312-1.382 6.569-.031 2.117.312 4.508 1.404 6.358 1.2 2.028 3.454 2.257 5.602 2.323 1.17.034 2.32.042 3.476.251a81.05 81.05 0 0 0 4.231.657 64.17 64.17 0 0 0 4.524.41c.853.047.847-1.271 0-1.325a74.17 74.17 0 0 1-8.401-1.051c-2.037-.362-4.154-.064-6.168-.51-1.108-.245-1.847-.816-2.34-1.846-.446-.976-.741-2.015-.875-3.079a15.43 15.43 0 0 1 .452-6.215 17.15 17.15 0 0 1 2.747-5.7c.604-.813 1.335-1.75 2.218-2.27 1.296-.763 2.496-.092 3.752.413l7.702 3.09c2.259.888 4.577 1.836 6.925 2.463 1.066.284 2.173.434 3.262.206 1.115-.234 2.157-.789 3.173-1.289 1.139-.558 2.32-1.03 3.477-1.56 1.256-.568 2.496-1.186 3.794-1.669 1.626-.607 3.479-.892 4.861-2.014.643-.521.832-1.101 1.206-1.792.271-.501.866-.806 1.354-1.055a12.39 12.39 0 0 1 4.611-1.235 5.44 5.44 0 0 1 .888-.008c.201.02.382.156.261-.045.257.438-.01 1.374-.088 1.836-.232 1.378-.608 2.685-.499 4.086.2 2.574-.541 5.14-1.741 7.398-2.388 4.493-6.36 7.371-11.076 9.095-4.998 1.81-10.256 2.801-15.57 2.934-1.31.037-2.619.014-3.928-.05-.658-.034-.655 1.003.014 1.045z"/></g><path d="M105.983 37.312c-2.354.03-4.505 1.524-5.872 3.441s-2.071 4.22-2.652 6.501c-.867 3.37-1.468 6.804-1.797 10.268-.265 2.746-.532 5.501-1.078 8.201-.451 2.237-1.636 4.68-1.404 7.02.115 1.147 1.028 2.014 1.959 2.608 2.708 1.727 5.974 2.115 9.126 2.173 5.639.1 11.414-.78 16.364-3.63 1.031-.594 2.094-1.365 2.445-2.555.4-1.36-.247-2.788-.715-4.128-1.198-3.432-1.471-7.511-1.424-11.138.058-4.368-.663-8.822-2.601-12.686" class="C"/><g class="B"><path d="M105.984 36.805c-3.105.059-5.641 2.184-7.127 4.781-1.786 3.129-2.508 6.942-3.14 10.452-.697 3.872-.878 7.8-1.513 11.688-.289 1.763-.78 3.432-1.267 5.148-.415 1.477-.891 3.331-.3 4.822.56 1.416 1.945 2.34 3.264 2.975a15.94 15.94 0 0 0 4.719 1.368c3.432.484 6.986.362 10.402-.126 3.488-.499 6.942-1.56 9.997-3.337 1.209-.704 2.391-1.632 2.808-3.029.496-1.693-.336-3.349-.85-4.923-1.28-3.9-1.189-7.903-1.298-11.948s-.908-8.028-2.757-11.638c-.405-.794-1.56-.097-1.187.694 1.404 2.977 2.151 6.268 2.367 9.546.212 3.214 0 6.407.453 9.613a24.35 24.35 0 0 0 1.092 4.652c.492 1.404 1.287 3.084.206 4.413-.865 1.067-2.369 1.7-3.588 2.256a26.1 26.1 0 0 1-4.714 1.588c-3.12.752-6.346 1.002-9.555.936-2.992-.069-6.24-.445-8.753-2.231-.53-.379-1.051-.877-1.248-1.515-.228-.738-.079-1.661.064-2.402.298-1.538.877-3.005 1.201-4.538.716-3.393.878-6.864 1.287-10.296.452-3.808 1.17-7.691 2.429-11.321 1.092-3.143 3.36-6.432 7.008-6.604.648-.03.656-1.026 0-1.014v-.009zm-45.3 114.184a7.79 7.79 0 0 1-4.299-5.336l-.538.312 3.758 2.995c.06.055.137.09.218.099a.38.38 0 0 0 .234-.049c.07-.041.126-.104.159-.18a.38.38 0 0 0 .021-.238l-.468-2.275c-.144-.696-.357-1.427-.268-2.143.111-.9.972-1.225 1.669-.638.624.521.76 1.393.905 2.145.087.458.757.321.78-.105.128-2.38.713-4.822 1.872-6.922.359-.65.928-1.076 1.515-.396.343.4.502.921.64 1.42a8.89 8.89 0 0 1 .203 3.709c-.061.404.535.765.733.312.727-1.683 2.799-3.349 4.703-2.405 1.359.672 2.028 2.758.856 3.884-.304.294.014.758.393.676.87-.189 1.9-.437 2.752-.047.725.334 1.248 1.229.718 1.948-.304.415.387.812.689.403.657-.888.273-2.08-.518-2.747-1.067-.903-2.615-.606-3.856-.337l.393.675c1.507-1.454.822-4.056-.867-5.068-2.263-1.36-5.037.483-5.956 2.614l.732.312a9.71 9.71 0 0 0-.365-4.658c-.329-.95-1.117-2.184-2.302-1.812-1.232.379-1.761 2.31-2.14 3.382-.571 1.631-.902 3.337-.984 5.063l.78-.106c-.183-.936-.418-1.975-1.225-2.591-.654-.499-1.605-.643-2.27-.081s-.697 1.471-.599 2.259c.156 1.248.488 2.505.757 3.736l.555-.427-3.834-2.905c-.237-.181-.534.117-.468.363a8.44 8.44 0 0 0 4.655 5.616c.304.141.569-.312.265-.452l.005-.005zm6.441-.449c.041-1.081 1.591-1.604 2.312-.83.273.293.705-.143.438-.44-1.083-1.198-3.303-.312-3.34 1.27-.008.381.576.379.59 0z"/><path d="M53.82 126.625c4.368 5.265 6.983 11.504 8.268 18.181.086.438.724.243.661-.183-.991-6.741-4.226-13.159-8.6-18.324-.192-.227-.513.1-.326.326h-.003z"/><path d="M60.608 136.266c.079-.557.128-1.092.312-1.635a5.43 5.43 0 0 1 .468-.967c.145-.243.184-.579.226-.086.053.624-.09 1.307-.209 1.91-.062.312-.245 1.691-.524 1.829l.388.05-.031-.034a.31.31 0 0 0-.179-.084c-.067-.008-.135.006-.194.04a.31.31 0 0 0-.13.149c-.026.062-.031.132-.014.198l.013.043a.33.33 0 0 0 .395.223c.312-.043.376-.312.468-.575a12.12 12.12 0 0 0 .443-1.665 12.31 12.31 0 0 0 .206-1.658c.02-.346.12-.869-.092-1.19-.443-.665-1.072.14-1.312.524-.515.824-.863 1.872-.752 2.853.03.264.468.389.515.07l.005.005zm-2.139-3.198c-.647-.441-3.248-1.58-3.457-.064-.081.593.496.949 1.006 1.033.396.057.801.035 1.188-.067a3.02 3.02 0 0 0 1.069-.523c.231-.189-.017-.599-.292-.502-.396.14-.771.328-1.19.398-.172.028-.557.082-.743.011-.237-.092-.338-.3-.1-.428.27-.143.905.092 1.175.169.396.112.771.274 1.153.422.275.108.407-.301.19-.449zm-1.721-3.597a3.84 3.84 0 0 1-.031-1.484c.058-.304.215-1.092.573-1.059s.275.838.222 1.137a2.79 2.79 0 0 1-.495 1.113c-.242.347.312.659.563.329a3.11 3.11 0 0 0 .608-2.103c-.037-.454-.156-1.272-.744-1.32-.613-.051-.919.707-1.073 1.173-.253.756-.278 1.57-.073 2.34.08.297.513.17.456-.125l-.005-.001zm45.809-50.104c-.368 3.324-.616 6.68-.837 10.017-.088 1.315.124 2.41.847 3.516.699 1.072 1.617 2.028 1.94 3.292.11.434.74.246.66-.181-.213-1.148-.909-2.019-1.58-2.941a6.88 6.88 0 0 1-.953-1.607c-.286-.766-.231-1.574-.181-2.374l.624-9.722c.012-.338-.481-.323-.515 0h-.005zm2.604-58.957c.205.752.142 1.552-.178 2.262-.44.964-1.328 2.462-2.482 2.529a17.74 17.74 0 0 1-5.295-.468c-.583-.156-1.17-.348-1.639-.725s-.806-.961-.755-1.56c.083-.928 1.051-1.165 1.817-1.293.131-.022.487 0 .587-.084.221-.178.094-.101-.031-.374-.275-.598-.499-1.101-.515-1.78a2.92 2.92 0 0 1 .278-1.385c.312-.602 1.354-1.65 3.636-2.042"/><path d="M104.584 20.569c.25 1.1-.172 2.086-.802 2.972-.271.379-.633.824-1.092.969s-1.082.064-1.577.05c-1.252-.024-2.498-.194-3.711-.505-.569-.156-1.192-.335-1.587-.8-.354-.413-.437-.927.091-1.192.624-.312 1.619-.04 2.028-.736.168-.29.075-.552-.048-.831-.237-.532-.495-.98-.527-1.579-.101-1.855 1.917-2.526 3.402-2.833.78-.156.442-1.315-.327-1.187-1.404.234-2.953.789-3.836 1.983s-.746 3.214.147 4.39l-.069-.534c.354-.245.387-.342.1-.287l-.133.011c-.186.011-.37.042-.549.092-.368.074-.722.206-1.048.392-.323.194-.581.48-.741.821s-.216.722-.159 1.095c.281 2.162 2.866 2.644 4.625 2.883 1.716.232 4.07.604 5.424-.719 1.248-1.215 1.973-3.058 1.56-4.77-.182-.747-1.321-.431-1.153.312l-.017.006z"/></g><path d="M102.615 20.8c-1.885 1.796-2.329 5.287-2.521 7.745-.052.666-.07 1.349.131 1.987.493 1.56 1.973 2.134 3.432 2.357.692.105.895.571.853 1.248l-.156 2.465c-.073 1.173-.072 2.532.825 3.293.556.468 1.34.584 2.066.515a3.79 3.79 0 0 0 1.404-.392c1.541-.802 2.427-2.87 2.577-4.516.195-2.354.241-4.718.137-7.078l-.204-4.264c-.028-1.048-.301-1.872-1.092-2.627a6.52 6.52 0 0 0-2.326-1.415c-.866-.303-1.786-.419-2.7-.342" class="C"/><g class="B"><path d="M102.23 20.416c-1.15 1.122-1.776 2.641-2.161 4.178-.401 1.594-.743 3.449-.632 5.098.117 1.741 1.198 2.975 2.816 3.536.336.111.679.199 1.026.264.486.098.576.13.57.641l-.198 3.253c0 1.675.635 3.304 2.44 3.669 1.726.349 3.432-.402 4.471-1.778 1.115-1.474 1.396-3.21 1.514-5.006.139-2.303.144-4.612.016-6.916-.103-2.061.212-4.558-1.29-6.198-1.429-1.56-3.669-2.307-5.747-2.134-.949.079-.972 1.56 0 1.499 1.624-.092 3.294.404 4.478 1.56s.907 3.129.994 4.666l.13 5.678c-.033 1.649.018 3.443-.67 4.98-.624 1.392-1.834 2.515-3.466 2.298-1.809-.24-1.515-2.388-1.438-3.719.061-1.17.529-3.069-.875-3.63-.573-.226-1.216-.228-1.796-.468-.718-.285-1.309-.78-1.56-1.532-.279-.816-.131-1.761-.058-2.604.064-.773.168-1.542.312-2.304.297-1.54.78-3.12 1.907-4.271.491-.499-.267-1.257-.769-.767l-.014.008z"/><path d="M107.402 31.824c-1.391.299-2.819.395-4.238.285-.73-.045-.916 1.186-.175 1.295a8.5 8.5 0 0 0 4.68-.607c.582-.245.384-1.125-.268-.973h.001zm-7.657-13.5c.749 2.087 1.903 4.212 3.887 5.195a1.45 1.45 0 0 0 .712.193c.419-.026.766-.381.887-.78a2.16 2.16 0 0 0-.062-1.248c.346.345.721.704 1.2.796s1.063-.232 1.051-.719c.468.122.64.69.719 1.168a35.57 35.57 0 0 1 .426 3.88c-.059-.551.007-1.109.193-1.632.195-.546.653-1.111 1.227-1.033.362.048.647.354.78.694.114.349.17.714.165 1.081l.275 2.903c.031.215.113.479.327.502.093.002.185-.027.261-.081.457-.281.727-.78.968-1.257.833-1.655 1.732-3.086 2.166-4.937.139-.593.24-1.226.04-1.802-.21-.607-.747-.936-1.363-.962.039-1.931-2.774-3.009-4.24-3.604a19.02 19.02 0 0 0-6.495-1.32c-1.728-.058-3.597.13-4.904 1.262"/><path d="M99.255 18.458c.652 1.93 1.582 3.875 3.249 5.129.721.541 1.691 1.119 2.58.602.963-.558 1.014-1.73.768-2.689l-1.176.688c.564.559 1.223 1.092 2.067 1.009.67-.07 1.293-.549 1.388-1.239l-.905.505c.331.134.365 1.679.4 1.948l.221 2.395h1.435c-.048-.524-.053-1.092.191-1.574.182-.359.419-.476.666-.105.14.212.086.543.097.789.053 1.02.051 2.095.262 3.1.135.643.653 1.2 1.365.991.744-.218 1.188-1.025 1.514-1.663 1.025-2.001 4.693-8.296.228-8.736l.677.677c-.045-1.382-1.025-2.34-2.143-3.028-1.284-.76-2.658-1.356-4.091-1.775a19.77 19.77 0 0 0-5.89-.833c-1.697.019-3.359.373-4.68 1.485-.69.58.293 1.524.98.98 1.111-.883 2.567-1.059 3.941-1.058a18.69 18.69 0 0 1 5.001.693 19.14 19.14 0 0 1 3.481 1.317c.872.443 2.028 1.112 2.051 2.22 0 .398.312.633.676.677 1.859.215-.025 3.9-.456 4.749l-1.167 2.223c-.093.156-.287.34-.352.51l-.205.17c.416.312.585.344.507.097.038-.114-.107-.697-.115-.755l-.083-.727c-.129-1.261.044-3.608-1.75-3.744-1.666-.13-2.195 2.07-2.137 3.327.042.919 1.471.925 1.435 0a31.95 31.95 0 0 0-.396-3.78c-.141-.885-.392-1.619-1.275-1.975-.488-.197-.878.29-.926.705 0-.012-.297-.025-.408-.067-.232-.089-.44-.342-.611-.509-.112-.106-.255-.173-.408-.191s-.308.015-.441.092a.72.72 0 0 0-.334.787c.072.268.27.936-.106 1.108-.296.131-.797-.235-1.029-.385a5.9 5.9 0 0 1-1.27-1.128c-.824-.955-1.39-2.117-1.849-3.276-.234-.593-1.192-.359-.978.27l.002-.006zm1.95 6.952c1.635.073.827 1.92.598 2.808-.186.721.404.806 1.034.811.395 0 .391-.593 0-.612-.437-.019-.448.012-.321-.398l.17-.591a3.06 3.06 0 0 0 .096-1.259c-.055-.372-.247-.709-.54-.946a1.5 1.5 0 0 0-1.037-.332.26.26 0 0 0-.169.082c-.044.047-.068.11-.068.175s.024.127.068.175a.26.26 0 0 0 .169.082v.005z"/><path d="M100.685 26.378c-.013.07-.012.141.004.211a.5.5 0 0 0 .09.19c.044.056.098.102.161.136a.5.5 0 0 0 .203.057.49.49 0 0 0 .208-.032.5.5 0 0 0 .176-.115.49.49 0 0 0 .113-.178c.025-.067.035-.138.03-.209a.54.54 0 0 0-.418-.565.52.52 0 0 0-.454.125c-.06.055-.113.131-.137.214s-.025.171-.001.254c.018.059.052.112.099.152a.32.32 0 0 0 .165.075.32.32 0 0 0 .18-.03c.056-.027.102-.072.132-.126a.64.64 0 0 0 .052-.126c.009-.033 0-.022-.016.033.019-.028.009-.019-.025.03.025-.023.014-.015-.033.023.03-.017.016-.012-.039.014.049-.016-.093 0-.014 0-.062-.011-.076-.011-.043 0-.053-.025-.064-.03-.035-.012l-.026-.02c.025.022.015.017-.021-.027.029.041-.021-.086 0-.009.013.053-.009-.094 0-.011 0 .052.022-.087 0-.009.03-.05-.021.078 0 0-.029.05.064-.056 0-.009l.032-.025c.054-.02.065-.026.036-.017.059 0 .071-.008.039-.008.053.009.063.009.031 0 .026.007.051.021.07.04-.022-.022-.019-.016.011.019-.008-.01-.014-.021-.019-.033.016.04.019.044.009.014v-.037.017c-.001-.074-.031-.145-.083-.197a.29.29 0 0 0-.197-.084.29.29 0 0 0-.194.083c-.051.051-.082.119-.086.192zm3.128.374a.5.5 0 0 0 .254.537.5.5 0 0 0 .701-.266.51.51 0 0 0 .029-.208c.01-.129-.027-.256-.104-.36a.54.54 0 0 0-.314-.206.52.52 0 0 0-.243.008c-.079.022-.152.063-.212.118a.49.49 0 0 0-.135.215c-.025.083-.025.17-.002.253.018.058.053.11.1.149a.33.33 0 0 0 .165.074.32.32 0 0 0 .179-.032.33.33 0 0 0 .133-.124c.022-.04.039-.082.05-.126.011-.033 0-.022-.016.033a.31.31 0 0 0-.023.03c.024-.022.013-.014-.033.023.028-.016.016-.011-.039.014.048-.014-.095 0-.016 0-.061-.011-.076-.013-.042 0-.053-.025-.065-.03-.036-.014-.042-.036-.051-.042-.026-.019s.017.016-.019-.026c.027.041-.023-.086 0-.011s-.009-.094 0-.009c0 .052.022-.087 0-.009s.03-.052 0-.008.062-.056 0-.009c.047-.033.056-.041.03-.025.054-.02.067-.025.036-.017.059 0 .071-.008.039 0 .054.009.065.009.032 0 .027.006.051.021.069.041-.022-.022-.017-.017.011.017l-.019-.033c.017.041.02.045.011.016-.004-.013-.008-.026-.009-.039v.017c0-.075-.03-.146-.082-.199a.28.28 0 0 0-.199-.082c-.074 0-.146.03-.199.082s-.082.124-.082.199l.011-.002z"/></g><path d="M39.312 55.645c.137-.705.276-1.423.223-2.14-.07-.977-.488-1.891-.897-2.783l-6.761-15.288-3.287-7.878c-.349-.825-2.583-4.479.052-3.783a8.07 8.07 0 0 1 3.287 1.766c.063.074.153.12.25.13.08-.012.154-.051.209-.111.78-.68 1.54-1.518 2.565-1.675 1.22-.189 2.324.649 3.413 1.229 3.12 1.658 3.059-1.108 5.722-1.423 1.105-.131 2.019.772 2.989 1.315 1.547.866 3.341.789 5.018.413 1.12-.25 4.036-2.075 4.31-.07.069.504-.094 1.009-.259 1.49-2.702 7.847-6.884 15.088-11.134 22.216-.646 1.084-1.304 2.196-1.532 3.432-.173.936-.086 1.909.025 2.861a55.4 55.4 0 0 0 3.577 14.096c.278.697.576 1.416.543 2.165s-.51 1.538-1.248 1.663c-1.092.186-1.849-1.048-2.267-2.081.085.522-.024 1.056-.307 1.503s-.721.773-1.229.918-1.052.097-1.528-.133-.85-.627-1.052-1.116c-.541.691-1.201 1.348-2.047 1.582s-1.9-.106-2.214-.927c-.221-.576-.041-1.22.14-1.81 1.566-5.098 2.416-10.31 3.438-15.561z" class="C"/><path d="M39.82 55.785c.206-.984.371-1.953.183-2.955-.197-1.036-.691-1.998-1.12-2.952l-2.847-6.396-5.625-13.301a98.56 98.56 0 0 0-1.872-4.264 9.85 9.85 0 0 1-.484-1.381c-.058-.193.1-.282-.072-.181.14-.083.588.09.716.128 1.037.312 1.908.855 2.746 1.526.697.557 1.19.222 1.777-.304.719-.643 1.454-1.34 2.496-1.133.992.195 1.824.919 2.732 1.329 1.248.565 2.387.512 3.479-.328 1.142-.878 2.129-1.64 3.56-.78.853.515 1.619 1.081 2.6 1.338a7.97 7.97 0 0 0 2.983.147c1.346-.156 2.455-.796 3.756-1.092.674-.156.947-.076.825.702-.165 1.067-.735 2.176-1.133 3.175l-2.742 6.153c-1.992 4.079-4.259 8.018-6.58 11.918-1.268 2.133-2.702 4.176-2.633 6.764.066 2.465.594 5 1.137 7.397a53.07 53.07 0 0 0 2.184 7.257c.364.947 1.303 2.406.878 3.446-.584 1.432-1.705-.363-1.978-1.012s-1.49-.689-1.393.189c.195 1.775-2.028 2.448-2.808.819-.181-.374-.825-.477-1.092-.14-.452.568-1.003 1.22-1.739 1.404-.856.214-1.538-.293-1.393-1.192.139-.864.493-1.724.725-2.568.253-.917.485-1.841.707-2.766.863-3.61 1.505-7.267 2.226-10.906.184-.936-1.248-1.326-1.426-.391-.875 4.639-1.621 9.302-2.884 13.85-.438 1.591-1.579 3.951.312 5.061 1.683.989 3.407-.181 4.466-1.493l-1.092-.14c.585 1.228 2.04 1.945 3.37 1.576s2.201-1.752 2.059-3.098l-1.393.189c.624 1.48 2.042 3.504 3.87 2.301 2.02-1.331.7-3.972.083-5.672a58.05 58.05 0 0 1-2.143-7.271c-.524-2.362-1.148-4.965-1.033-7.398.059-1.248.613-2.349 1.232-3.415l1.894-3.212a193.14 193.14 0 0 0 3.63-6.438c2.312-4.306 4.54-8.8 5.972-13.488.468-1.504.019-3.239-1.841-3.072-1.434.13-2.675 1-4.106 1.2-1.164.156-2.387.105-3.446-.443-.903-.468-1.669-1.218-2.696-1.423-1.529-.303-2.643.643-3.774 1.487-1.443 1.078-2.945-.484-4.295-1.037-.905-.37-1.852-.443-2.757-.033-.436.211-.842.48-1.204.802a3.02 3.02 0 0 0-.548.485l-.09.081c-.14.078-.115.128.072.156.189.101.211.098.066-.012-.062-.055-.126-.109-.193-.156a8.98 8.98 0 0 0-2.699-1.51c-.624-.22-1.443-.477-2.076-.128-1.062.585-.571 2.017-.211 2.88.624 1.509 1.359 2.975 1.988 4.487l2.99 7.02 3.187 7.229 3.179 6.948c.546 1.281.566 2.412.326 3.763-.12.649.872.942 1.012.275zm63.908-30.201c.432-.125.798-.041 1.226.047.281.058.486-.338.204-.487-.476-.248-1.064-.197-1.56-.022-.288.101-.173.548.126.468l.004-.006zm.291 4.501a.9.9 0 0 0 .566-.055c.177-.079.325-.214.419-.384.185-.337-.333-.638-.513-.3a.4.4 0 0 1-.402.217c-.295-.028-.364.468-.07.521z" class="B"/><g class="D"><path d="M107.458 37.615c-.251.263-.456.567-.606.898a1.73 1.73 0 0 0-.232.657 1.98 1.98 0 0 0 .12.646c.119.351.16.724.12 1.092-.064.415-.354.669-.547 1.019a8.02 8.02 0 0 0-.588 1.452 17.47 17.47 0 0 0-.635 3.323c-1.231 10.667.525 21.528 3.989 31.699.221.652.468 1.323.936 1.819.887.92 2.315.994 3.588.97 3.951-.07 7.509-.624 11.288-1.577 3.357-.849 6.773-2.153 8.655-5.271a1.03 1.03 0 0 0 .204-.643c-.041-.178-.123-.344-.242-.484a41.35 41.35 0 0 1-6.316-13.169c-1.248-4.532-1.537-9.43-3.9-13.594l-.804-1.377c-1.276-2.115-2.703-4.187-4.475-5.928-.696-.682-1.478-1.204-2.275-1.736-.738-.493-.716-1.64-.997-2.415-.178-.482-.456-.921-.816-1.288s-.792-.655-1.269-.844c.107 1.026-.194 2.115-.911 2.856-.446.433-.978.769-1.56.986a8.38 8.38 0 0 1-1.701.49c-.242.028-.48.088-.707.179a1.33 1.33 0 0 0-.319.24z"/><path d="M107.073 37.229c-.517.468-1.074 1.212-1.11 1.941-.025.501.273.972.229 1.466s-.526.952-.73 1.404c-.831 1.821-1.045 3.866-1.248 5.836a63.21 63.21 0 0 0 .15 13.276 80.38 80.38 0 0 0 2.527 12.85 89.72 89.72 0 0 0 .884 2.95c.322 1.012.595 2.123 1.121 3.056.906 1.61 2.662 1.986 4.382 1.991 4.169.011 8.383-.662 12.406-1.736 3.254-.871 6.841-2.415 8.566-5.507.381-.679.39-1.278-.037-1.93-.596-.911-1.239-1.786-1.805-2.718-1.098-1.8-2.053-3.683-2.856-5.632-1.553-3.778-2.286-7.722-3.197-11.681-.493-2.142-1.129-4.27-2.156-6.224-1.044-1.988-2.264-3.878-3.646-5.649-.712-.949-1.514-1.828-2.394-2.624-.373-.323-.771-.624-1.173-.906-.372-.264-.857-.468-1.074-.886-.397-.771-.349-1.677-.808-2.449a4.4 4.4 0 0 0-2.062-1.797c-.452-.193-1.129.016-1.092.624.097 1.31-.404 2.362-1.591 2.976-1.092.562-2.459.476-3.412 1.248-.719.587.312 1.601 1.02 1.02.297-.242.793-.229 1.15-.312a8.42 8.42 0 0 0 1.13-.346 5.99 5.99 0 0 0 1.761-.992c1.042-.886 1.479-2.265 1.379-3.602l-1.092.624c.706.301 1.304.767 1.65 1.473.322.657.326 1.416.624 2.084s.858 1.016 1.454 1.427c.821.572 1.575 1.236 2.247 1.978a29.49 29.49 0 0 1 3.31 4.515c1.003 1.632 1.9 3.276 2.496 5.109 1.147 3.49 1.494 7.176 2.496 10.697a41.62 41.62 0 0 0 4.599 10.354c.45.728.924 1.447 1.423 2.156.312.44.388.495.079.959a7.46 7.46 0 0 1-.822 1.031c-1.117 1.182-2.557 2.008-4.064 2.593-3.369 1.309-7.123 1.992-10.709 2.332-.956.09-1.915.15-2.877.179-.872.028-1.802.089-2.652-.167-.903-.271-1.318-.925-1.629-1.778-.365-.997-.678-2.017-.989-3.033a82.11 82.11 0 0 1-2.695-11.711c-.682-4.463-.913-8.984-.688-13.494.111-2.201.221-4.51.875-6.627.146-.52.356-1.02.624-1.488.236-.39.457-.711.504-1.176.054-.537-.175-.973-.231-1.488s.206-1.034.519-1.426c.434-.538-.235-1.248-.766-.769z"/></g><path d="M109.245 44.524c-6.379 3.627-11.929 5.519-19.277 7.351-1.041.259-2.104.516-3.175.441-.902-.062-1.767-.357-2.622-.652-6.984-2.417-13.889-5.044-20.717-7.883L53.286 39.37c-2.552-1.154-6.084-3.331-9.021-2.359-.71.234-1.388.839-1.613 1.56-.072.234.143 2.512.538 2.298-1.179.64-2.596.694-3.925.515s-2.622-.574-3.948-.78c-.532-.084-1.092-.136-1.599.053-2.7 1.008.755 3.933 1.9 4.387a3.11 3.11 0 0 0-1.891 2.969 3.11 3.11 0 0 0 2.091 2.832c-1.123.379-1.56 1.881-1.092 2.964s1.618 1.749 2.774 2.008c-1.012.543-1.248 1.992-.752 3.026 1.248 2.576 5.905 3.09 8.376 3.207 1.824.086 3.657-.103 5.46.126 2.061.264 4.118.724 6.157 1.118l12.299 2.449c8.145 1.56 16.422 2.794 24.738 2.402 5.897-.278 11.896-1.431 16.927-4.524s8.966-8.36 9.337-14.251c.312-4.862-3.423-6.331-7.104-8.979" class="C"/><path d="M108.964 44.044a66.67 66.67 0 0 1-13.631 5.738l-3.744 1.045c-1.362.356-2.789.836-4.212.877-1.356.039-2.641-.504-3.9-.944l-4.148-1.482c-5.426-1.976-10.801-4.079-16.127-6.309l-8.176-3.544c-2.154-.967-4.256-2.175-6.516-2.881-2.095-.655-5.332-.881-6.396 1.552-.362.824-.156 3.83 1.261 3.432l-.527-1.248c-1.969.989-4.192.312-6.213-.13-1.379-.296-3.399-.721-4.331.711-1.178 1.813 1.477 4.147 2.964 4.783v-1.207c-1.387.652-2.332 2.136-2.236 3.683.098 1.577 1.161 2.841 2.599 3.404v-1.362c-.645.265-1.173.752-1.488 1.374s-.396 1.336-.228 2.013c.364 1.611 1.9 2.579 3.407 2.953l-.17-1.304c-1.293.793-1.666 2.454-1.092 3.816.51 1.206 1.632 2.011 2.795 2.523 2.808 1.239 6.001 1.259 9.015 1.239 2.259-.016 4.432.364 6.641.805l6.544 1.303 13.18 2.523c8.407 1.39 17.124 2.249 25.584.849 7.277-1.203 14.405-4.564 18.408-11.012a17.51 17.51 0 0 0 2.219-5.345c.387-1.716.593-3.601.044-5.304-1.072-3.328-4.535-4.93-7.21-6.773-.719-.495-1.357.654-.677 1.157 2.1 1.552 4.931 2.875 6.156 5.304 1.326 2.636.19 6.288-1.039 8.756-3.111 6.24-9.409 9.828-16.011 11.341-7.644 1.75-15.774 1.248-23.484.175-8.036-1.115-15.964-2.926-23.921-4.482-2.14-.418-4.251-.752-6.437-.736-1.707.013-3.404.025-5.096-.223-1.374-.2-2.808-.513-4.017-1.229-1.067-.633-2.437-2.496-.889-3.457.507-.312.443-1.153-.17-1.304-.908-.223-1.897-.671-2.299-1.58-.295-.666-.145-1.716.61-2.028.66-.267.675-1.092 0-1.362-2.111-.821-1.958-3.61-.034-4.524.445-.209.468-1.006 0-1.207-.767-.326-3.781-2.61-1.941-3.153.78-.231 1.742.089 2.515.259.842.184 1.682.385 2.538.504 1.535.212 3.05.12 4.452-.587.699-.353.211-1.457-.527-1.248.165-.047.484.312.562.184a.26.26 0 0 1-.028-.076c.017-.111-.089-.346-.111-.468-.053-.31-.089-.622-.106-.936-.022-.289.055-.423.351-.738.415-.441.994-.624 1.579-.693 2.184-.278 4.368.87 6.273 1.791 4.707 2.281 9.574 4.276 14.422 6.24 4.972 2.013 9.988 3.916 15.046 5.706 2.351.833 4.786 2.011 7.332 1.637 2.384-.348 4.774-1.128 7.078-1.819 4.92-1.467 9.657-3.49 14.118-6.029.624-.354.064-1.312-.561-.961l.001.011z" class="B"/><g class="D"><path d="M107.926 43.571a246.32 246.32 0 0 1-17.346 7.413c-.905.348-1.839.694-2.808.683-.863-.008-1.694-.3-2.507-.587l-7.561-2.669c-4.476-1.58-8.986-3.176-13.073-5.591-1.964-1.161-6.1-4.338-8.476-3.12a3.98 3.98 0 0 0-.92.702c-1.413 1.36-2.197 2.88-2.937 4.644-1.986 4.736-3.744 9.72-3.744 14.918 0 .911.066 1.858.499 2.652s1.329 1.418 2.228 1.261c.477-.083.892-.365 1.329-.576 1.493-.721 2.643-.299 4.128-.012l12.299 2.449c8.145 1.56 16.422 2.794 24.739 2.402 5.897-.278 11.897-1.431 16.928-4.524s10.253-7.516 10.364-14.109c.081-4.87-3.05-9.224-6.731-11.875"/><path d="M107.64 43.09a263.43 263.43 0 0 1-9.304 4.125l-4.572 1.872-4.73 1.777c-1.728.468-3.304-.279-4.911-.849l-4.796-1.703-9.156-3.443c-2.45-1.08-4.812-2.349-7.065-3.794-1.699-1.072-3.788-2.416-5.886-2.317-2.468.119-4.114 2.906-5.05 4.894a53.29 53.29 0 0 0-3.236 8.764c-.758 2.808-1.421 6.056-.986 8.975.189 1.267.827 2.488 2.061 3.003 1.474.616 2.39-.49 3.764-.732.708-.125 1.412.026 2.106.173l2.474.493 4.947.998 10.032 1.916c6.596 1.126 13.29 1.906 19.991 1.641 5.958-.237 12.076-1.309 17.288-4.346 4.246-2.476 8.477-5.838 10.333-10.533 2.028-5.106.312-10.583-3.355-14.46-.883-.926-1.859-1.759-2.913-2.485-.718-.502-1.345.646-.675 1.156 4.032 3.067 7.119 7.984 6.121 13.213-.91 4.761-4.703 8.226-8.58 10.781-4.81 3.172-10.296 4.641-15.995 5.09-6.282.495-12.616-.026-18.834-.962-6.337-.955-12.597-2.332-18.876-3.565-1.301-.256-2.688-.704-4.025-.551-.619.083-1.218.276-1.769.571-.68.34-1.248.591-1.91.039-1.092-.92-.9-2.76-.842-4.028.077-1.511.283-3.013.615-4.49.647-2.944 1.688-5.785 2.836-8.567.509-1.236 1.055-2.466 1.835-3.56.624-.87 1.495-2.011 2.652-2.089 1.977-.134 4.036 1.37 5.616 2.374 2.165 1.377 4.439 2.574 6.8 3.579 2.728 1.167 5.532 2.147 8.33 3.129l4.51 1.583c1.479.519 3 1.221 4.557 1.459 1.457.221 2.794-.289 4.131-.806l4.313-1.716a229.53 229.53 0 0 0 8.513-3.68l4.212-1.964c.648-.312.083-1.262-.561-.961l-.013-.005z"/></g><g class="B"><path d="M107.64 43.09c-5.859 2.705-11.821 5.399-17.924 7.511-.793.275-1.588.476-2.43.359s-1.638-.452-2.431-.733l-4.649-1.655c-2.923-1.041-5.864-2.047-8.736-3.218-2.59-1.055-5.121-2.265-7.477-3.777-1.749-1.123-3.636-2.421-5.728-2.788-2.416-.413-4.037 1.293-5.249 3.206-.724 1.142-1.237 2.401-1.749 3.647-.583 1.415-1.137 2.844-1.624 4.295-1.092 3.262-1.872 6.694-1.841 10.149.011 1.404.251 2.908 1.392 3.85 1.248 1.034 2.479.666 3.761-.055.764-.429.094-1.507-.677-1.156-.543.246-1.1.61-1.705.353-.644-.275-.97-.936-1.12-1.583-.301-1.307-.139-2.794 0-4.114.296-2.88 1.104-5.694 2.083-8.41.891-2.474 1.783-5.26 3.502-7.302.679-.803 1.404-1.571 2.521-1.518.949.045 1.886.468 2.721.885 1.811.917 3.446 2.137 5.232 3.103 2.432 1.317 4.992 2.382 7.582 3.351 2.769 1.037 5.569 1.987 8.359 2.964 2.678.936 5.48 2.452 8.346 1.515 3.112-1.017 6.15-2.404 9.157-3.693a209.42 209.42 0 0 0 9.256-4.224c.647-.312.082-1.257-.562-.961h-.008zm3.711 19.35a49.95 49.95 0 0 1-7.241 3.973c-.696.312-.094 1.343.6 1.028a42.48 42.48 0 0 0 7.142-4.153c.507-.362.037-1.204-.496-.849h-.005zm-4.844-21.951c.156-.991.261-2.221.961-3.001.78-.861 2.078-.685 3.09-1.028 1.716-.585 2.978-2.424 2.454-4.253-.232-.81-1.46-.468-1.262.348.248 1.022-.343 2.064-1.248 2.541-.861.451-1.895.373-2.783.761-1.795.78-2.153 2.757-2.086 4.512.019.479.799.641.88.12h-.006z"/><path d="M106.835 40.926c1.942-.072 3.82-.722 5.215-2.122.277-.281-.131-.663-.425-.424-1.386 1.122-2.992 1.934-4.79 2.103-.28.026-.291.454 0 .443zm6.274-2.862c.076-.005.146-.039.197-.094a.3.3 0 0 0 .08-.203.3.3 0 0 0-.08-.203c-.051-.055-.121-.089-.197-.094-.075.005-.145.039-.196.094a.3.3 0 0 0-.08.203.3.3 0 0 0 .08.203c.051.055.121.089.196.094zm-12.358-3.12a4.46 4.46 0 0 0-.53 2.652c.045.417.701.424.658 0a4.22 4.22 0 0 1 .405-2.34c.177-.352-.343-.664-.533-.312zm12.076 36.786c1.161 1.992 3.707 3.02 5.822 1.872.287-.156.093-.643-.225-.535-1.967.668-4.026.278-5.148-1.596a.26.26 0 0 0-.348-.081c-.057.033-.1.088-.119.151s-.012.132.018.192v-.003zM54.27 61.397c-.055-2.867.242-5.605 1.229-8.315.13-.354-.429-.501-.562-.156-1.016 2.652-1.56 5.624-1.248 8.469.041.359.582.379.574 0l.006.002zm1.792-10.588c.076 0 .149-.03.203-.084s.084-.127.084-.203-.03-.149-.084-.203-.127-.084-.203-.084-.149.03-.203.084-.084.127-.084.203.03.149.084.203.127.084.203.084zm36.265-.871a41.31 41.31 0 0 1 3.412-6.229c.204-.312-.293-.596-.493-.289a40.39 40.39 0 0 0-3.34 6.343c-.101.237.312.416.421.178v-.003zm-59.879-20.71c1.852 3.953 2.307 8.441 4.524 12.237.211.36.772.034.56-.328-2.212-3.786-2.758-8.234-4.68-12.149-.136-.278-.541-.034-.412.24h.008zm7.488 3.806l.432 4.973c.034.385.641.388.605 0l-.449-4.973c-.034-.373-.624-.378-.588 0zm7.76 4.649l3.93-9.009c.117-.284-.371-.493-.502-.211l-3.917 8.934c-.144.331.342.624.49.285zm4.408-10.071c.407 0 .407-.632 0-.632s-.406.632 0 .632zM39.373 63.894c.025 1.615-.172 3.172-.392 4.766-.045.312.412.468.499.137.415-1.59.485-3.268.407-4.903-.016-.329-.52-.332-.515 0zm3.049.663l.29 1.172c.092.368.662.212.569-.156l-.293-1.17c-.092-.367-.658-.211-.566.156v-.002z"/></g><path d="M33.428 18.096a3.4 3.4 0 0 1-1.578-.463c-.48-.281-.884-.676-1.175-1.15a3.8 3.8 0 0 1-.312-3.309c.546-1.404 1.883-2.268 3.242-2.728.833-.281 1.716-.445 2.59-.292a3.08 3.08 0 0 1 1.243.487c.374.251.688.582.92.967a4.21 4.21 0 0 1 .446 1.513c.097.729.101 1.493-.167 2.168-.399 1.005-1.324 1.636-2.198 2.209" class="D"/><path d="M33.427 17.818c-1.958-.137-3.264-1.994-2.95-3.891.296-1.799 1.997-2.867 3.638-3.296 1.987-.518 3.939.125 4.307 2.326.156.936.14 1.953-.418 2.752-.454.647-1.147 1.112-1.761 1.594-.261.204.072.593.343.445.903-.493 1.799-1.115 2.275-2.062.518-1.031.454-2.354.137-3.432-.671-2.303-3.12-2.845-5.195-2.195-1.906.598-3.758 1.941-3.962 4.075-.209 2.184 1.373 4.148 3.588 4.254.365.017.36-.54 0-.565l-.002-.005z" class="B"/><path d="M38.441 17.819c-1.872 1.766-5.522 2.986-7.544.658-.418-.482-.725-1.137-.615-1.777a1.49 1.49 0 0 1 1.192-1.197c.297-.036.599.012.87.139s.501.328.663.58c-.181-.548.022-1.167.373-1.605.406-.509 1.044-.836 1.668-.733.323.058.615.228.826.479s.327.569.328.897c.356-.418.727-.836 1.197-1.092s1.062-.342 1.533-.072c.624.354.847 1.225.679 1.941s-.651 1.293-1.17 1.782z" class="C"/><g class="B"><path d="M38.23 17.606c-1.248 1.128-2.987 1.933-4.699 1.799-.456-.027-.902-.146-1.311-.348a3.43 3.43 0 0 1-1.074-.829c-.406-.482-.708-1.168-.407-1.775.423-.855 1.452-.755 1.98-.061.222.292.7.134.613-.259-.374-1.675 2.441-2.775 2.526-.874.012.281.382.484.591.246.604-.688 1.97-1.973 2.686-.671.549.995-.274 2.061-.953 2.722-.34.332.179.852.521.521 1.005-.972 1.9-2.546.91-3.858-1.105-1.463-2.799-.225-3.654.794l.591.245c-.073-1.118-1.042-1.945-2.173-1.685a2.3 2.3 0 0 0-1.693 2.736l.562-.326c-.78-1.003-2.284-1.147-3.031-.02-.819 1.236.156 2.728 1.209 3.441 2.278 1.544 5.402.312 7.231-1.376.284-.262-.139-.682-.424-.424z"/><path d="M31.028 13.26a12.75 12.75 0 0 1 1.037 1.872c.156.353.697.047.526-.312a13.63 13.63 0 0 0-1.092-1.847c-.2-.284-.669-.02-.468.275l-.003.012zm1.732-1.811a7.16 7.16 0 0 1 .78 2.276c.075.421.699.237.636-.176a6.24 6.24 0 0 0-.936-2.379c-.037-.064-.098-.11-.169-.129s-.147-.009-.211.028-.11.098-.129.169-.009.147.028.211zm2.465-.373c.113.791.161 1.591.144 2.39-.009.387.599.389.602 0a9.6 9.6 0 0 0-.312-2.512c-.076-.292-.48-.156-.44.122h.006zm1.531 3.767a4.27 4.27 0 0 1 1.092-2.549c.262-.312-.156-.746-.448-.448a4.32 4.32 0 0 0-1.154 2.997c0 .329.487.323.508 0h.002zM35.44 19.87a15.85 15.85 0 0 1-.011 3.986c-.044.374.54.368.585 0 .169-1.372.149-2.76-.059-4.126-.05-.34-.56-.194-.515.14z"/></g><path d="M44.772 17.572c-.53-.173-1.009-.473-1.396-.875s-.668-.893-.82-1.429c-.152-.555-.176-1.138-.071-1.703s.338-1.1.681-1.563c.906-1.195 2.432-1.668 3.864-1.738.878-.042 1.778.045 2.571.427.409.188.772.464 1.063.808s.503.748.62 1.183c.105.52.11 1.055.016 1.577-.106.729-.312 1.465-.754 2.04-.66.857-1.716 1.212-2.719 1.524" class="D"/><path d="M44.84 17.3c-1.825-.654-2.596-2.788-1.792-4.524.766-1.652 2.686-2.232 4.379-2.204 1.97.034 3.77 1.101 3.562 3.287-.086.903-.326 1.872-1.003 2.518-.611.583-1.466.858-2.232 1.17-.072.021-.134.069-.17.135s-.045.143-.025.216.069.134.135.17.143.045.216.025c1.005-.228 2.037-.582 2.752-1.365s1.003-1.944 1.059-3.001c.131-2.476-2.012-3.828-4.288-3.795-2.076.031-4.315.846-5.068 2.956-.725 2.028.276 4.268 2.34 4.954.346.116.488-.423.156-.544l-.019.003z" class="B"/><path d="M49.664 18.673c-2.288 1.184-6.128 1.36-7.436-1.432-.27-.577-.387-1.292-.105-1.872a1.49 1.49 0 0 1 1.474-.827c.296.047.572.176.798.373s.391.453.478.74c-.022-.577.342-1.117.799-1.443.53-.377 1.232-.519 1.805-.248.294.144.529.387.663.686s.16.635.072.951c.456-.312.927-.607 1.451-.729s1.115-.039 1.494.35c.496.51.481 1.404.122 2.051s-.981 1.073-1.615 1.401z" class="C"/><g class="B"><path d="M49.512 18.408c-1.477.73-3.326 1.023-4.911.468-.847-.274-1.557-.862-1.983-1.644-.312-.582-.499-1.415-.025-1.97.624-.732 1.636-.353 1.956.468.024.076.074.141.141.184s.147.06.226.05.151-.049.205-.108.084-.135.087-.214c.033-.677.568-1.237 1.209-1.421.838-.24 1.674.373 1.459 1.278-.066.279.245.562.51.391.78-.505 2.714-1.381 2.783.298.044 1.048-.869 1.716-1.691 2.158-.418.226-.047.859.371.636 1.248-.666 2.562-1.981 1.9-3.521-.707-1.646-2.63-.903-3.714-.17l.51.392c.243-1.14-.541-2.232-1.752-2.218a2.3 2.3 0 0 0-2.256 2.184l.66-.089c-.493-1.228-1.961-1.872-3.019-.849s-.449 2.767.434 3.721c1.806 1.95 5.044 1.591 7.203.498.345-.17.042-.685-.303-.52z"/><path d="M43.783 12.263a12.86 12.86 0 0 1 .484 2.089c.055.382.655.226.587-.156a13.64 13.64 0 0 0-.549-2.078c-.116-.328-.635-.192-.527.145h.006zm2.157-1.268a7.21 7.21 0 0 1 .119 2.399c-.042.426.608.412.66 0a6.27 6.27 0 0 0-.246-2.546c-.022-.068-.069-.125-.132-.159s-.136-.042-.205-.023-.128.064-.164.125a.28.28 0 0 0-.032.204zm2.484.251a14.79 14.79 0 0 1-.532 2.399c-.114.371.468.534.582.156a9.55 9.55 0 0 0 .392-2.496c0-.25-.413-.312-.448-.061l.006.002zm.431 4.101a4.24 4.24 0 0 1 1.755-2.153c.339-.223.037-.753-.32-.548a4.28 4.28 0 0 0-1.923 2.566c-.09.312.382.44.488.134zm-2.63 4.41c-.218 1.56-.624 3.075-.507 4.664.028.373.61.377.585 0-.101-1.56.247-3.062.446-4.594.037-.295-.482-.368-.524-.07zm-5.928 5.671a32.97 32.97 0 0 1 .262-5.653c.056-.402-.56-.576-.616-.17-.278 1.928-.353 3.88-.223 5.824.027.367.59.374.577 0zm10.912-.189a14.06 14.06 0 0 1 1.697-5.157c.031-.065.037-.139.016-.207s-.067-.127-.129-.163-.135-.048-.205-.032-.132.057-.173.115a12.67 12.67 0 0 0-1.716 5.444c-.028.332.468.32.513 0h-.003z"/><path d="M51.125 23.283a2.23 2.23 0 0 0-.407-1.518c-.229-.312-.624-.669-1.019-.368s-.172.835.034 1.182a6.38 6.38 0 0 0 1.197 1.491c.312.278.754-.156.457-.457a8.4 8.4 0 0 1-1.192-1.395c-.022-.034-.203-.312-.061-.323.077-.008.276.348.312.402a1.77 1.77 0 0 1 .194.984c-.019.312.468.312.49 0h-.005zm-4.563-.883a3.22 3.22 0 0 1 .541-.672 1.04 1.04 0 0 1 .377-.245c.236-.055.053.098-.037.186-.431.415-1.037.646-1.437 1.078a.32.32 0 0 0-.086.179.31.31 0 0 0 .04.195c.034.059.086.105.149.131a.32.32 0 0 0 .198.015c.526-.133 1.016-.604 1.413-.956.321-.287.75-.746.423-1.192-.649-.888-1.841.468-2.05 1.084-.098.289.312.426.468.198zm-6.517.312a2.74 2.74 0 0 0-.891-1.274c-.323-.254-.896-.58-1.206-.122-.276.41.109.936.359 1.256a3.36 3.36 0 0 0 1.315 1.009.34.34 0 0 0 .132.039.33.33 0 0 0 .136-.018c.043-.015.084-.04.117-.072a.34.34 0 0 0 .078-.113.33.33 0 0 0 .026-.135c-.001-.046-.012-.092-.031-.134a.33.33 0 0 0-.203-.177 2.7 2.7 0 0 1-.794-.493 2.82 2.82 0 0 1-.312-.32c-.097-.117-.156-.287-.262-.395 0-.095-.037-.119-.105-.072.07.02.137.052.197.093a1.92 1.92 0 0 1 .374.289 2.25 2.25 0 0 1 .524.78c.128.328.66.195.538-.148l.006.006zm-9.035-1.161l1.016 3.719c.031.068.084.123.152.154s.144.038.215.018.134-.064.176-.126.06-.136.051-.21L31.562 21.4a.29.29 0 0 0-.137-.167c-.065-.036-.143-.044-.215-.024s-.133.068-.171.133-.048.141-.03.214v-.005zm7.57 52.511c-.218.791-.24 1.658-.34 2.474l-.392 2.916-.869 5.167c-.042.377.552.437.649.089.479-1.732.658-3.602.902-5.379l.295-2.34c.108-.936.296-1.928.218-2.863a.24.24 0 0 0-.056-.162c-.038-.045-.091-.075-.15-.082s-.118.006-.166.04-.083.084-.096.142l.005-.001zm2.241.058l-.066 12.424c0 .401.624.401.624 0l-.064-12.424a.25.25 0 0 0-.079-.163c-.046-.043-.106-.066-.168-.066s-.122.023-.168.066-.074.1-.079.163zm1.737-.276l1.376 6.134 1.454 6.114c.098.29.615.267.571-.076-.262-2.037-.884-4.056-1.348-6.064l-1.487-6.263c-.092-.37-.643-.212-.566.156zm2.49.53c.268 1.87.814 3.69 1.618 5.399.147.312.686.086.552-.232a24.88 24.88 0 0 1-1.621-5.318c-.064-.364-.602-.206-.549.156v-.005z"/><path d="M45.677 76.256a4.49 4.49 0 0 0 2.671 1.307c.351.044.349-.51 0-.551a4.02 4.02 0 0 1-2.328-1.105c-.047-.041-.108-.063-.171-.061s-.122.028-.166.072-.07.104-.072.166a.25.25 0 0 0 .061.171h.005zm-6.99.067a2.72 2.72 0 0 0-1.629 1.8c-.106.379.482.54.59.156a2.24 2.24 0 0 1 1.257-1.444c.289-.13.079-.64-.218-.518v.006zM37.128 7.031a2.37 2.37 0 0 1 2.85 3.164c-.156.398.487.569.635.176.197-.518.244-1.081.137-1.625a2.97 2.97 0 0 0-.743-1.452c-.378-.405-.863-.695-1.398-.839a2.95 2.95 0 0 0-1.63.028c-.036.01-.07.027-.099.051s-.054.052-.072.085-.03.069-.034.106-.001.075.009.111.027.07.051.099.052.054.085.072.069.03.106.034.075.001.111-.009h-.006zm-10.047 4.686c.713.97 1.109 2.014 1.404 3.175.089.354.591.198.537-.148-.19-1.195-.78-2.327-1.504-3.276-.192-.25-.624-.009-.432.253l-.005-.003zm-2.24 1.32c.596.34.991.885 1.278 1.498.125.265.568.078.468-.2a3.12 3.12 0 0 0-1.513-1.716c-.054-.032-.119-.04-.18-.024a.24.24 0 0 0-.145.11c-.032.054-.04.119-.024.18a.24.24 0 0 0 .11.145l.006.008zm4.348-1.69a3.88 3.88 0 0 1 .273 1.888c-.03.334.543.417.593.079a3.23 3.23 0 0 0-.448-2.212c-.168-.273-.537-.034-.418.245zm26.201 1.169c.866.624 1.335 1.647 1.535 2.677.193.995.329 2.34-.312 3.192-.2.267.239.599.468.356.838-.919.638-2.432.42-3.56-.242-1.248-.838-2.303-1.88-3.048-.234-.168-.454.217-.225.384h-.006zm-4.819-3.028a1.03 1.03 0 0 1 1.404-.02.3.3 0 0 0 .208.084c.077 0 .152-.033.206-.088a.3.3 0 0 0 .084-.208c0-.077-.033-.152-.088-.207-.146-.143-.319-.255-.508-.329a1.52 1.52 0 0 0-1.187.034c-.185.085-.352.207-.489.358-.223.25.13.61.373.371l-.003.006zm8.289 7.24a.73.73 0 0 1 .594.576c.076.3.593.247.555-.075a1.2 1.2 0 0 0-.378-.745c-.211-.195-.485-.309-.772-.32-.075 0-.147.03-.2.083s-.083.125-.083.2.03.147.083.2.125.083.2.083zM42.019 9.036a2.13 2.13 0 0 1 1.56.192c.321.173.607-.312.287-.491a2.61 2.61 0 0 0-2.003-.242c-.348.095-.201.624.156.541zm-13.838.144c.025-.192.278-.253.432-.242a1.66 1.66 0 0 1 .658.248c.337.179.636-.332.299-.512-.395-.209-.836-.42-1.29-.282-.177.048-.334.149-.451.29s-.186.315-.2.498c-.03.359.509.345.551 0z"/></g><path d="M125.057 27.396c-.442-1.18-.721-2.414-.831-3.669a14.32 14.32 0 0 1-.033-1.683c.011-.276.011-1.704.192-1.803l-.513.067c.216.045.564 1.371.641 1.619.179.609.314 1.231.404 1.86.128.869 1.38.573 1.443-.195.047-.441.211-.861.474-1.217s.618-.636 1.025-.811c.326-.14 1.143-.373 1.404 0s-.222 1.151-.378 1.463c-.92 1.83-2.496 3.132-4.041 4.409-.595.49.193 1.524.831 1.076a15.69 15.69 0 0 0 3.516-3.313c.791-1.048 1.9-2.71 1.42-4.09-.498-1.432-2.365-1.374-3.502-.828a3.96 3.96 0 0 0-2.219 3.318l1.443-.195c-.229-1.259-.624-2.652-1.298-3.744-.507-.828-1.591-.863-1.872.175-.33 1.201-.257 2.677-.131 3.9a15.11 15.11 0 0 0 .961 3.962c.256.654 1.315.382 1.069-.293l-.005-.006zm-4.995-13.025a9.36 9.36 0 0 1-.696-2.847l-.02-.565.009-.424c.035-.178 0-.189-.079-.034-.137.103-.113.204.078.312l.118.223a1.32 1.32 0 0 1 .075.69c-.114.749.821 1.239 1.267.535.197-.312.658-.961 1.084-.936l-.499-.206c-.028-.023-.144.468-.203.633-.106.28-.237.55-.391.806a6.79 6.79 0 0 1-1.202 1.404c-.536.516.183 1.508.816 1.056a5.75 5.75 0 0 0 1.663-1.867c.364-.64.794-1.533.713-2.289s-.766-1.133-1.468-.869c-.73.275-1.31.914-1.716 1.56l1.292.351a2.62 2.62 0 0 0-.088-1.106 2.61 2.61 0 0 0-.539-.97c-.468-.505-1.301-.85-1.872-.303s-.345 1.668-.248 2.368c.145 1.01.449 1.991.903 2.905.264.549 1.232.156.997-.421l.006-.006zm-6.666 73.114a59.66 59.66 0 0 0 .886 10.97 63.98 63.98 0 0 0 1.171 5.418c.423 1.606 1.092 3.42.576 5.08-.337 1.082-1.908 2.205-1.009 3.41.263.354.661.554 1.015.8.443.312.468.541.272 1.031a3.23 3.23 0 0 0-.256.738c-.189 1.229.741 2.231.802 3.415.017.329-.174.509-.23.802s.061.554.136.834l.733 2.919a115.23 115.23 0 0 1 2.262 12.628c.06.487.83.496.78 0a108.99 108.99 0 0 0-1.872-11.076l-.624-2.638c-.196-.787-.686-1.844-.558-2.622.075-.468.182-.806.082-1.293-.127-.624-.429-1.203-.624-1.811-.223-.715-.127-1.139.156-1.815.191-.468.181-.897-.156-1.291s-.907-.545-1.248-.936c-.624-.73.419-1.613.746-2.261.637-1.248.495-2.702.206-4.028l-1.304-5.268c-.91-4.285-1.325-8.627-1.404-13.001-.005-.068-.036-.132-.086-.179a.27.27 0 0 0-.369 0c-.05.047-.081.11-.086.179l.003-.005zm-14.69-2.465c-1.404 5.719-.936 11.577-.532 17.386l.239 4.387c.044 1.337.243 2.922-.243 4.193-.423 1.108-1.299 1.83-1.134 3.106.1.763 1.229 3.251-.236 3.418-.259.031-.505.312-.328.571 1.429 2.1.925 4.705.576 7.053-.328 2.209-.624 4.524.404 6.597.209.423.816.053.624-.367-1.967-4.368 1.883-9.516-.952-13.665l-.328.571c.878-.103 1.356-.78 1.466-1.627.192-1.461-.994-2.595-.189-4.036.303-.542.665-1.024.85-1.626.162-.606.237-1.233.223-1.861.019-1.532-.07-3.068-.17-4.597-.416-6.454-1.332-12.993.192-19.375.073-.303-.392-.432-.468-.128h.005z" class="D"/><path d="M110.631 85.454c.78 1.739 2.731 2.777 4.6 2.348.428-.098.242-.721-.177-.649-.783.146-1.592.031-2.302-.328s-1.283-.942-1.63-1.658c-.156-.334-.638-.042-.491.287z" class="B"/></svg>