<svg xmlns="http://www.w3.org/2000/svg" width="208" height="207" fill="none" xmlns:v="https://vecta.io/nano"><style><![CDATA[.B{fill:#232323}.C{fill:#fff}]]></style><path d="M127.211 165.35c6.999 2.277 15.099.635 20.8-4.008s8.909-12.08 8.62-19.406-3.992-14.397-9.695-19.044c-3.38-2.749-7.361-4.649-11.301-6.525-4.47-2.128-8.996-4.274-13.851-5.258-6.78-1.374-13.701-.401-20.54-.207-6.344.174-12.611-.681-18.978-.428-13.25.528-26.374 3.134-38.969 7.216-9.709 3.148-19.408 7.355-26.497 14.666-9.21 9.497-14.109 23.482-6.901 35.494 3.912 6.521 10.232 11.342 17.077 14.697 10.698 5.246 23.727 6.788 35.549 6.953 10.643.149 21.272-.801 31.916-1.035 2.103-.047 4.227-.066 6.281.383a14.17 14.17 0 0 1 7.971 4.935c1.088 1.358 1.918 2.913 3.072 4.215 1.595 1.801 5.059 3.446 7.463 2.43 3.153-1.335 2.968-5.807 2.08-9.108-1.15-4.312-2.745-8.475-3.952-12.764-1.104-3.945-2.592-8.073-5.824-10.799-2.779-2.335-6.448-3.279-9.965-4.157-17.518-4.357-35.079-8.725-52.969-11.153" class="C"/><path d="M127.002 166.103c6.669 2.136 14.244.942 20.01-2.995s9.439-10.412 10.311-17.274c.886-6.97-1.4-14.018-5.737-19.496-4.915-6.21-12.505-9.486-19.565-12.66-3.773-1.697-7.662-3.165-11.779-3.769-4.266-.621-8.573-.476-12.866-.244-4.368.234-8.693.37-13.067.163s-8.736-.482-13.104-.275a140.62 140.62 0 0 0-25.191 3.556c-7.804 1.813-15.585 4.126-22.942 7.318-6.849 2.97-13.339 6.975-18.316 12.593-4.564 5.146-8.06 11.501-9.058 18.349-1.04 7.088.803 14.02 5.129 19.739 4.368 5.77 10.481 10.065 17.044 13.041 14.681 6.641 31.46 6.856 47.274 6.21l13.358-.621 6.639-.207c2.07-.031 4.16 0 6.161.58 1.743.501 3.36 1.36 4.749 2.521 1.478 1.242 2.483 2.799 3.579 4.366 1.847 2.647 4.716 4.968 8.154 4.825 3.245-.134 4.936-2.828 5.156-5.796.26-3.519-1.117-7.061-2.184-10.35l-1.976-6.189c-.518-1.747-.986-3.507-1.651-5.208-1.284-3.288-3.162-6.295-6.149-8.295-3.236-2.167-7.178-2.96-10.891-3.883l-12.798-3.144c-8.538-2.052-17.11-3.977-25.75-5.554-4.204-.768-8.418-1.418-12.651-1.996-1.364-.186-1.955 1.894-.576 2.083 16.625 2.277 32.972 6.21 49.236 10.244 3.621.898 7.515 1.561 10.857 3.279 3.099 1.594 5.132 4.266 6.448 7.435 1.433 3.472 2.288 7.206 3.459 10.764 1.063 3.248 2.525 6.726 2.471 10.199-.016 1.174-.22 2.484-1.06 3.376-.972 1.035-2.461.971-3.717.595-1.438-.428-2.72-1.263-3.688-2.404-1.175-1.405-2.03-3.043-3.241-4.423-2.317-2.617-5.473-4.354-8.931-4.917-4.052-.639-8.32-.207-12.391-.029-15.808.686-31.886 2.019-47.47-1.581-7.072-1.631-13.861-4.333-19.789-8.537-5.543-3.933-10.4-9.41-12.212-16.063-3.619-13.322 5.341-26.808 16.074-33.996 5.974-3.999 12.719-6.675 19.539-8.878 7.766-2.526 15.722-4.431 23.793-5.694a131.05 131.05 0 0 1 12.087-1.292c4.185-.253 8.341-.132 12.524.077 4.176.233 8.362.249 12.54.047 4.087-.221 8.185-.532 12.272-.254 8.05.544 15.529 4.282 22.577 7.942 3.273 1.7 6.406 3.672 8.971 6.345a25.73 25.73 0 0 1 5.408 8.46c2.473 6.38 2.179 13.515-1.013 19.597-1.559 2.998-3.794 5.595-6.53 7.589s-5.901 3.33-9.243 3.903a21.06 21.06 0 0 1-9.884-.679c-.965-.306-1.377 1.201-.416 1.507h.016z" class="B"/><path d="M127.211 165.35c6.999 2.277 15.099.635 20.8-4.008s8.909-12.08 8.62-19.406-3.992-14.397-9.695-19.044c-3.38-2.749-7.361-4.649-11.301-6.525-4.47-2.128-8.996-4.274-13.851-5.258-6.78-1.374-13.701-.401-20.54-.207-6.344.174-12.611-.681-18.978-.428-13.25.528-26.374 3.134-38.969 7.216-9.709 3.148-19.408 7.355-26.497 14.666-9.21 9.497-14.109 23.482-6.901 35.494 3.912 6.521 10.232 11.342 17.077 14.697 10.698 5.246 23.727 6.788 35.549 6.953 4.16.06 8.424-.424 12.542.261 2.242.375 4.137.961 5.953 2.316 1.294.967 2.421 3.366 4.418 2.714.52-.17.934-.559 1.304-.958 2.835-3.058 4.064-7.22 5.2-11.224s2.288-8.054 2.04-12.186c-.586-10.143-8.291-10.776-16.538-12.627-9.543-2.142-19.151-4.03-28.848-5.347" class="C"/><path d="M127.003 166.103c6.071 1.946 12.852 1.128 18.389-1.983s9.472-8.487 11.186-14.513c1.733-6.092.994-12.591-1.791-18.257-3.051-6.21-8.247-10.48-14.31-13.627-3.276-1.699-6.638-3.312-10.034-4.761-3.438-1.463-6.964-2.643-10.681-3.144-7.835-1.06-15.762.348-23.631.06-3.952-.143-7.904-.468-11.856-.445a109.74 109.74 0 0 0-11.573.766A148.61 148.61 0 0 0 49.98 114.6c-13.071 3.597-26.926 8.532-35.903 19.193-4.037 4.796-7.155 10.538-8.253 16.742-1.109 6.264-.031 12.658 3.307 18.108 7.095 11.592 20.721 17.628 33.623 20.092a108.46 108.46 0 0 0 21.025 1.863c3.861-.027 7.783-.402 11.604.331 1.583.304 3.103.786 4.464 1.656 1.04.679 1.712 1.73 2.673 2.504.998.808 2.236 1.153 3.463.65 1.429-.585 2.469-2.138 3.278-3.388 1.795-2.78 2.762-6.003 3.665-9.158 1.716-6.003 3.908-13.536.345-19.317-2.484-4.032-7.268-5.345-11.625-6.303l-21.151-4.36c-3.854-.691-7.721-1.277-11.602-1.807-1.364-.186-1.955 1.894-.576 2.083 7.509 1.035 14.976 2.411 22.389 3.968l9.451 2.047c2.165.462 4.368.927 6.427 1.757 1.77.713 3.48 1.787 4.564 3.389 1.456 2.153 1.824 4.819 1.768 7.363-.083 3.672-1.148 7.245-2.151 10.745-.853 2.979-1.758 6.003-3.48 8.618-.539.815-1.706 2.838-2.912 2.339-.938-.383-1.543-1.503-2.276-2.161-2.288-2.047-5.475-2.755-8.439-3.07-3.698-.395-7.419-.025-11.126-.066a132.39 132.39 0 0 1-9.93-.493c-12.85-1.149-26.27-4.643-35.967-13.583-4.499-4.14-7.975-9.444-8.888-15.565-.884-5.825.639-11.807 3.388-16.945 2.976-5.486 7.202-10.202 12.339-13.771 5.271-3.695 11.217-6.299 17.276-8.419 13.616-4.761 28.153-7.895 42.615-8.214 3.773-.083 7.54.182 11.307.346 3.752.147 7.509.105 11.257-.126 3.725-.207 7.463-.447 11.193-.195a36.52 36.52 0 0 1 10.676 2.449c3.289 1.263 6.471 2.821 9.639 4.359 3.12 1.52 6.263 3.159 8.961 5.382 4.736 3.888 7.933 9.322 9.023 15.335 1.054 5.986-.4 12.281-3.848 17.278a21.71 21.71 0 0 1-6.69 6.239 21.82 21.82 0 0 1-8.677 2.942c-2.956.346-5.951.064-8.788-.828-.966-.307-1.377 1.2-.416 1.507v-.013z" class="B"/><path d="M75.808 138.709l10.346-24.445c.391-.925.797-1.863 1.485-2.604 1.248-1.331 3.191-1.72 4.992-2.004 10.177-1.594 19.999-1.053 30.195-1.351 9.47-.278 17.819-1.391 27.086 1.79 8.669 2.977 16.478 8.599 21.632 16.146a39.12 39.12 0 0 1 6.286 28.63c-1.695 9.993-7.207 18.947-15.382 24.989-10.862 8.022-25.297 9.974-38.703 8.191-11.19-1.488-21.867-5.338-32.294-9.499-9.063-3.62-19.136-5.446-28.182-.563-2.325 1.254-4.553 2.898-7.178 3.252s-5.776-1.321-5.755-3.956c0-1.387.867-2.608 1.691-3.726l10.467-14.216c2.665-3.617 4.734-8.175 9.383-9.479 2.515-.706 5.175-.633 7.788-.567a958.42 958.42 0 0 0 61.173-.396" class="C"/><path d="M76.49 139.104l8.518-20.013 2.122-4.968c.649-1.449 1.487-2.502 3.033-3.036 1.491-.518 3.12-.684 4.68-.878l5.466-.52c7.131-.478 14.282-.258 21.424-.414 6.594-.145 13.235-.842 19.812-.07 11.925 1.401 23.365 8.487 29.786 18.599 6.567 10.35 7.777 23.546 3.12 34.875-4.503 10.932-13.853 18.955-25.106 22.431-12.118 3.742-25.064 2.606-37.146-.656-6.681-1.803-13.175-4.213-19.596-6.767-5.911-2.352-12.153-4.182-18.587-3.869a26.79 26.79 0 0 0-9.241 2.07c-2.858 1.219-5.439 3.496-8.541 4.07-1.92.353-5.15-.766-4.576-3.223.331-1.449 1.579-2.733 2.434-3.894l3.272-4.442 6.367-8.645c1.473-2.037 2.704-4.272 4.441-6.106 2.022-2.136 4.489-2.956 7.398-3.105 3.465-.189 6.976.072 10.442.139 14.673.277 29.358.248 44.026-.181l10.816-.414c1.533-.06 1.539-2.436 0-2.378-15.342.586-30.72.749-46.072.602l-11.565-.18c-3.586-.078-7.301-.434-10.837.327-5.818 1.253-8.412 6.792-11.623 11.139l-6.758 9.189-3.328 4.51c-.882 1.23-1.678 2.662-1.589 4.225.154 2.668 2.6 4.486 5.088 4.894 3.22.527 6.084-1.276 8.751-2.811 5.901-3.399 12.576-3.993 19.188-2.636 6.864 1.412 13.268 4.569 19.862 6.862 12.823 4.459 26.383 7.349 39.98 5.347 6.148-.904 12.18-2.838 17.545-5.982 8.086-4.765 14.265-12.168 17.488-20.952s3.291-18.409.192-27.238c-4.16-11.799-13.693-20.803-25.306-25.285-6.427-2.484-13.187-2.98-20.017-2.757l-10.663.414-11.279.145c-3.684.056-7.372.174-11.045.493a94.05 94.05 0 0 0-5.714.672c-1.469.22-2.96.448-4.316 1.083s-2.336 1.726-2.981 3.082c-.78 1.619-1.404 3.275-2.09 4.919l-4.426 10.534-4.289 10.195c-.343.813 1.094 1.424 1.444.604z" class="B"/><path d="M75.808 138.709l10.346-24.445c.391-.925.797-1.863 1.485-2.604 1.248-1.331 3.191-1.72 4.992-2.004 10.177-1.594 19.999-1.053 30.195-1.351 9.47-.278 17.819-1.391 27.086 1.79 8.669 2.977 16.478 8.599 21.632 16.146a39.12 39.12 0 0 1 6.286 28.63c-1.695 9.993-7.207 18.947-15.382 24.989-10.862 8.022-25.297 9.974-38.703 8.191-7.56-1.006-14.926-3.105-22.102-5.632-6.079-2.145-14.682-6.624-20.97-3.219-.965.522-2.036 1.219-3.07.851-1.408-.503-1.473-2.443-1.221-3.91.832-4.855 2.273-9.582 4.014-14.186 1.308-3.455 2.816-9.909 5.674-12.35 1.493-1.277 2.496-.666 4.077-.414 2.118.342 4.389.367 6.635.383h14.508c9.846-.074 19.691-.301 29.536-.679" class="C"/><g class="B"><path d="M76.49 139.104l7.656-17.974 1.955-4.577c.553-1.296 1.009-2.759 1.847-3.908s2.157-1.598 3.486-1.886a44.67 44.67 0 0 1 4.503-.66c6.448-.72 12.927-.704 19.398-.733 6.17-.027 12.322-.414 18.487-.478 5.951-.068 11.771.6 17.35 2.757a43.23 43.23 0 0 1 13.324 8.162 38.72 38.72 0 0 1 9.523 13.211c2.199 5.025 3.3 10.457 3.232 15.937-.154 10.493-4.899 20.632-12.688 27.666-8.008 7.218-18.843 10.418-29.478 10.78-11.829.404-23.685-2.575-34.67-6.756-4.682-1.783-9.536-3.995-14.655-3.921a13.15 13.15 0 0 0-3.661.544c-1.2.375-2.219 1.166-3.397 1.545-2.24.72-.624-4.821-.451-5.616 1.204-5.285 3.16-10.35 4.905-15.478.709-2.084 1.469-4.243 2.748-6.058.505-.717 1.229-1.619 2.184-1.59.495.016.982.184 1.456.275.761.143 1.537.234 2.307.304 3.178.286 6.4.191 9.587.207l9.857-.022 19.824-.354 9.72-.381c1.529-.071 1.544-2.426 0-2.379l-41.82.634c-3.187-.017-6.435.099-9.568-.563-1.223-.259-2.392-.303-3.499.37-.94.569-1.664 1.449-2.288 2.346-1.346 1.974-2.169 4.313-2.935 6.559l-2.444 7.038a76.59 76.59 0 0 0-2.681 9.464c-.462 2.199-1.36 5.434.693 7.142 1.109.923 2.538.766 3.773.207s2.257-1.205 3.584-1.491c2.538-.546 5.213-.062 7.673.621 2.615.717 5.131 1.731 7.656 2.708 2.769 1.07 5.587 2.014 8.426 2.886 6.213 1.904 12.584 3.357 19.066 3.957 11.257 1.035 23.183-.569 33.03-6.363a41.04 41.04 0 0 0 12.067-10.909c3.251-4.401 5.584-9.405 6.861-14.717 2.665-11.278.169-23.648-6.727-32.992-6.656-9.015-17.122-15.461-28.254-17.152-6.155-.934-12.358-.472-18.546-.207-6.751.284-13.52.13-20.265.402-3.361.134-6.719.38-10.053.828-2.66.356-5.922.59-7.779 2.792-.917 1.091-1.385 2.484-1.93 3.784l-1.995 4.761-3.923 9.346-3.915 9.327c-.343.814 1.094 1.425 1.444.605zm24.697-120.18c2.005 1.449 3.328 3.697 3.979 6.071s.709 4.875.561 7.332c-.075 1.223-.112 2.656.843 3.43.711.578 1.716.561 2.618.72a6.21 6.21 0 0 1 2.963 1.463 6.17 6.17 0 0 1 1.786 2.77c.635 2.138.011 4.513-1.262 6.349s-3.133 3.196-5.086 4.289c-4.591 2.565-9.843 3.817-15.097 4.14-2.55.155-5.14.093-7.619-.528s-4.851-1.838-6.564-3.726c-.813-.896-1.402-1.911-1.98-2.964-.534-.971-1.084-1.081-1.926-1.799-1.545-1.316-2.315-3.424-2.459-5.399a6.62 6.62 0 0 1 .279-2.691c.352-.989 1.03-1.822 1.647-2.67 1.953-2.678 3.461-5.937 2.991-9.216-.162-1.128-.553-2.215-.724-3.343s-.087-2.364.603-3.275a4.25 4.25 0 0 1 1.843-1.292c1.159-.47 2.563-.636 3.607.052"/><path d="M100.766 19.638c3.022 2.32 3.965 6.251 3.994 9.87.014 1.689-.385 3.457-.046 5.125.322 1.575 1.525 2.509 3.068 2.766 1.585.265 2.943.532 4.066 1.786a5.06 5.06 0 0 1 1.097 2.126c.191.785.191 1.605-.001 2.39-.771 3.438-3.918 5.533-6.874 7.038-3.38 1.716-7.13 2.736-10.891 3.192-3.721.453-7.677.586-11.261-.666a11.45 11.45 0 0 1-4.22-2.55c-.599-.599-1.12-1.27-1.552-1.998-.456-.745-.815-1.579-1.456-2.188-.476-.445-1.065-.754-1.543-1.201-.576-.553-1.026-1.221-1.323-1.96-.624-1.515-.913-3.533-.148-5.042.894-1.762 2.288-3.209 3.143-5.018s1.456-3.819 1.375-5.858c-.069-1.964-1.229-4.01-.832-5.966.333-1.644 2.808-2.567 4.279-1.892a1.11 1.11 0 0 0 .826.094c.277-.077.514-.258.659-.505s.188-.541.119-.819a1.1 1.1 0 0 0-.488-.671c-1.589-1.14-3.669-.772-5.308.079-1.791.927-2.683 2.691-2.6 4.672.085 2.087 1.04 3.993.82 6.111-.208 2.07-1.198 4.014-2.346 5.724-1.186 1.764-2.496 3.221-2.683 5.434-.157 1.952.251 3.908 1.175 5.637.421.78.977 1.481 1.641 2.07.593.513 1.3.849 1.71 1.532 1.078 1.793 2.111 3.413 3.8 4.705 3.345 2.556 7.665 3.299 11.792 3.225 4.352-.046 8.666-.816 12.763-2.277 3.744-1.381 7.629-3.372 10.001-6.692 2.184-3.059 2.527-7.365-.111-10.259-1.375-1.509-3.068-2.07-5.023-2.395-1.148-.19-1.533-.689-1.572-1.836-.042-1.182.058-2.364.02-3.546-.141-4.432-1.476-8.94-5.222-11.65-.874-.633-1.664.791-.832 1.426l-.015-.012z"/></g><path d="M53.346 63.797c.772-2.321 1.964-5.32 3.879-6.949l4.965-4.492a39.12 39.12 0 0 1 13.483-8.145 51.08 51.08 0 0 1 8.064-1.983c1.826-.317 4.389-1.108 6.209-.35 1.926.801 1.71 3.055 1.664 4.784-.075 2.604-.277 5.318.732 7.787 1.179 2.881 1.177 6.314 1.154 9.394-.048 6.641-1.56 13.383-5.327 18.947-4.576 6.771-12.299 11.48-20.623 13.476s-17.199 1.416-25.411-.857" class="C"/><path d="M54.09 64.003c.636-1.88 1.466-3.749 2.704-5.326.624-.799 1.435-1.399 2.199-2.058l2.874-2.587c3.351-3.057 6.951-5.721 11.097-7.624s8.644-2.764 13.121-3.598c1.568-.292 4.031-.673 4.437 1.381.364 1.838-.046 3.889 0 5.752.01 1.076.127 2.149.347 3.202.254 1.153.778 2.215 1.061 3.36.539 2.19.555 4.469.547 6.711-.019 4.457-.624 8.88-2.176 13.078-2.9 7.816-9.296 13.602-16.89 16.848-9.867 4.217-20.742 3.726-30.952 1.136-1.456-.371-2.08 1.824-.624 2.25 9.697 2.848 20.708 3.039 30.266-.443 8.289-3.02 15.673-8.775 19.329-16.916 1.968-4.38 2.902-9.129 3.081-13.908.089-2.374.104-4.792-.198-7.154a16.54 16.54 0 0 0-.738-3.355c-.445-1.279-.832-2.455-.936-3.823-.15-2.109.208-4.233.025-6.334-.166-1.968-1.169-3.54-3.209-3.947-2.194-.437-4.514.308-6.656.7a49.47 49.47 0 0 0-7.382 1.863c-5.076 1.788-9.735 4.581-13.695 8.212l-3.203 2.977c-.969.888-2.038 1.714-2.866 2.739-1.51 1.863-2.288 4.204-3.033 6.452-.312.944 1.175 1.343 1.491.414h-.021z" class="B"/><path d="M47.399 65.489c.718 1.975 1.325 2.451 2.041 4.426.29.713.496 1.458.614 2.219.208 1.834-.404 2.931-1.999 3.685-1.367.644-2.839.801-3.925-.426 1.535 1.735.354 4.773-1.787 5.672s-4.663.141-6.577-1.172c.996 1.401-.231 3.488-1.872 4.003s-3.415-.031-5.05-.575c.331.942-.266 2.033-1.156 2.484s-1.978.381-2.927.06c-2.912-.985-4.678-4.059-5.03-7.094-.676-5.821.169-11.041 4.256-15.612 4.807-5.372 11.571-7.473 18.547-5.483 1.853.528 3.833 1.335 5.633.646.724-.277 1.346-.778 2.08-1.035 1.385-.472 2.962.054 4.079.998s1.859 2.244 2.527 3.542c3.045 5.906 6.891 12.544 7.785 19.121" class="C"/><path d="M46.592 65.708c.78 2.277 2.481 4.484 2.511 6.953 0 .911-.32 1.575-1.119 2.041-1.025.598-2.219.88-3.12-.054-.959-.998-2.317.455-1.491 1.484.969 1.205 0 3.12-1.177 3.784-1.884 1.066-4.241.089-5.866-1.004-.957-.644-2.136.621-1.558 1.55.524.851-.231 1.89-1.04 2.25-1.412.621-3.224-.087-4.576-.532-.878-.29-1.685.621-1.456 1.449.374 1.395-1.664 1.391-2.475 1.136a5.53 5.53 0 0 1-2.737-2.07c-1.518-2.08-1.718-4.691-1.726-7.177 0-2.528.381-5.113 1.456-7.425a17.63 17.63 0 0 1 4.93-6.21 16.48 16.48 0 0 1 6.785-3.271c2.485-.553 5.066-.524 7.538.085 1.414.35 2.775.89 4.226 1.081 1.398.19 2.82-.095 4.035-.807 1.206-.666 2.3-.743 3.478.079s1.886 2.19 2.535 3.434c3.12 5.972 6.696 12.043 7.711 18.798.1.66.93 1.012 1.518.857.713-.186.951-.857.861-1.511-.965-7.069-4.724-13.499-8.002-19.721-1.456-2.77-3.983-5.695-7.5-4.956-.734.153-1.373.534-2.022.888-.742.416-1.606.562-2.444.414-1.616-.242-3.143-.913-4.751-1.211-3.039-.583-6.175-.419-9.135.478s-5.656 2.5-7.852 4.67c-2.255 2.155-3.948 4.824-4.932 7.777-.942 2.91-1.077 6.034-.782 9.058.316 3.254 1.587 6.539 4.526 8.309 1.481.892 3.424 1.331 5.061.621a3.4 3.4 0 0 0 1.727-1.609c.364-.724.455-1.555.258-2.34l-1.456 1.449c2.253.743 4.992 1.428 7.035-.168 1.496-1.163 2.267-3.279 1.192-4.968l-1.56 1.552c2.508 1.642 6.169 2.561 8.726.495 2.028-1.639 2.666-4.643.959-6.717l-1.491 1.484c2.13 2.163 6.3 1.116 7.405-1.671 1.281-3.229-1.435-6.382-2.583-9.195-.393-.963-1.964-.59-1.608.441l-.01-.002z" class="B"/><path d="M90.035 40.295c7.546-.656 16.372-1.656 23.481 1.242 13.495 5.504 25.665 16.314 35.968 17.432-3.776-2.987-3.505-6.02-4.992-10.282-2.912-8.311-6.904-16.974-5.279-25.985 1.081-6.003 4.869-11.559 10.296-14.391s12.411-2.691 17.49.722c5.731 3.848 9.523 11.735 11.195 18.181 1.547 5.957 2.535 12.006 3.309 18.144 1.342 10.607 2.222 21.574-.832 31.822-4.576 15.376-26.416 18.876-40.196 16.194-9.291-1.809-17.888-6.16-25.449-11.762-3.498-2.594-6.618-5.158-8.627-9.062-1.908-3.707-3.536-6.463-6.906-9.158" class="C"/><path d="M90.035 41.011c4.441-.364 8.894-.797 13.355-.621a32.98 32.98 0 0 1 6.677.89c2.161.542 4.189 1.428 6.194 2.385 7.673 3.658 14.61 8.62 22.169 12.484 3.48 1.78 7.139 3.322 11.053 3.786.832.097 1.327-1.153.695-1.668-1.417-1.153-2.48-2.509-3.087-4.235-.555-1.571-.865-3.217-1.358-4.804-1.346-4.347-3.174-8.52-4.395-12.909s-1.935-9.081-1.04-13.618a19.98 19.98 0 0 1 5.266-10.114c5.546-5.651 14.847-7.055 21.406-2.236 6.254 4.604 9.152 12.716 10.816 19.961 1.115 4.84 1.901 9.75 2.529 14.674.607 4.751 1.119 9.522 1.248 14.31.125 4.761-.131 9.545-1.138 14.204-.717 3.312-1.749 6.473-3.858 9.189-3.636 4.68-9.3 7.377-14.932 8.845-5.863 1.495-11.955 1.892-17.963 1.172-8.183-.958-16.041-4.295-22.976-8.62-3.536-2.204-7.122-4.651-10.044-7.638-1.399-1.447-2.574-3.092-3.486-4.883-.846-1.702-1.828-3.332-2.937-4.877a22.66 22.66 0 0 0-3.952-4.099c-1.113-.898-2.704.671-1.59 1.581a20.74 20.74 0 0 1 4.204 4.529c1.175 1.747 2.02 3.666 3.101 5.467 2.197 3.651 5.562 6.326 8.965 8.808 7.488 5.461 16.043 9.729 25.199 11.497 6.299 1.221 12.884 1.13 19.176-.075 6.213-1.19 12.499-3.651 17.077-8.129 5.824-5.684 7.093-14.142 7.4-21.917.208-5.071-.166-10.143-.726-15.188-.563-5.09-1.248-10.176-2.225-15.206-1.602-8.311-4.029-16.974-10.123-23.223a17.9 17.9 0 0 0-10.762-5.382 18.98 18.98 0 0 0-12.006 2.565c-7.497 4.552-10.895 13.335-10.063 21.807.478 4.852 2.044 9.489 3.715 14.045.792 2.165 1.664 4.316 2.329 6.529.512 1.72.859 3.492 1.573 5.148.727 1.65 1.852 3.096 3.274 4.21l.694-1.668c-3.461-.389-6.764-1.799-9.848-3.339-3.711-1.853-7.26-4.016-10.829-6.123-3.723-2.196-7.473-4.347-11.39-6.198-1.947-.915-3.933-1.811-6.009-2.389a31.73 31.73 0 0 0-6.415-1.035c-4.992-.335-9.984.207-14.957.675-.913.085-.928 1.509 0 1.432h-.006z" class="B"/><g fill="#2969ff"><path d="M195.906 35.41c.222 3.195-.227 6.401-1.318 9.414-2.08 5.678-8.975 11.178-14.839 12.596-2.943.714-6.032.621-9.027.149-2.679-.414-5.329-1.155-7.719-2.428-5.491-2.927-9.244-8.723-9.984-14.877-1.179-9.781 4.657-20.251 14.061-23.739 10.593-3.933 22.102.66 26.796 10.843a22.87 22.87 0 0 1 2.03 8.042z"/><path d="M194.784 35.41c.281 4.689-.697 9.522-3.711 13.229-2.604 3.209-6.211 5.9-10.138 7.264-4.701 1.629-10.225 1.01-14.847-.621-4.04-1.443-7.427-4.278-9.547-7.992-4.031-6.97-2.995-15.732 1.487-22.223 4.416-6.407 12.289-9.872 20.031-8.553 4.136.69 7.947 2.663 10.89 5.637 3.489 3.554 5.469 8.328 5.835 13.26.106 1.426 2.354 1.439 2.248 0-.692-9.315-6.595-17.609-15.691-20.418-8.27-2.552-17.578.021-23.315 6.467s-8.058 16.072-4.761 24.196c1.706 4.204 4.713 7.901 8.684 10.182 4.659 2.679 10.774 3.726 16.087 3.028 5.248-.696 10.133-3.738 13.686-7.566 1.76-1.894 3.21-4.053 4.064-6.5 1.031-3.018 1.455-6.209 1.248-9.39-.089-1.43-2.335-1.441-2.25 0z"/></g><path d="M153.013 73.102c-3.369-8.231-6.304-16.631-8.792-25.167-2.465-8.381-6.644-16.208-5.015-25.237 1.081-6.003 4.869-11.559 10.296-14.391 7.377-3.846 17.168-1.834 23.138 3.579 1.456 1.321 2.803 3.01 2.816 4.968 0 .718-.208 1.47-.714 1.971-.753.729-1.959.741-2.97.46s-1.949-.807-2.976-1.016c1.162 1.151.832 3.326-.516 4.268s-3.314.675-4.543-.414c.185 1.004.331 2.167-.353 2.927-.595.662-1.646.747-2.484.441s-1.516-.927-2.169-1.534c-.05.78-.109 1.594-.504 2.277s-1.231 1.168-1.974.907c-1.04-.364-2.051-1.637-3.103-2.176a22.33 22.33 0 0 0-4.46-1.71" class="C"/><g class="B"><path d="M153.712 72.912c-2.929-7.363-5.485-14.875-7.746-22.468a333.98 333.98 0 0 0-3.343-10.528c-1.121-3.355-2.19-6.792-2.558-10.325-.688-6.624 1.377-13.329 6.431-17.854 4.674-4.183 11.164-5.175 17.113-3.504 3.242.911 6.373 2.577 8.756 4.968.98.981 2.725 3.142 1.714 4.624-.952 1.401-3.823-.395-4.979-.665-.244-.06-.5-.039-.731.058a1.16 1.16 0 0 0-.549.482 1.15 1.15 0 0 0-.151.714c.029.248.138.48.31.661.642.704.403 1.944-.333 2.501-.897.677-2.288.414-3.093-.261-.913-.747-2.14-.043-1.935 1.12.127.716.377 1.979-.655 2.07-.954.091-1.784-.778-2.419-1.362a1.17 1.17 0 0 0-.59-.297c-.222-.041-.45-.016-.658.069a1.17 1.17 0 0 0-.515.414 1.16 1.16 0 0 0-.207.626c-.037.584-.062 2.107-.946 2.093-.624 0-1.535-1.101-2.003-1.461-1.593-1.221-3.717-1.9-5.639-2.418-1.398-.377-1.99 1.772-.597 2.157 1.454.371 2.858.911 4.185 1.608 1.04.576 1.799 1.569 2.877 2.093.534.264 1.14.35 1.727.247a2.8 2.8 0 0 0 1.538-.821c.93-.927 1.082-2.258 1.165-3.498l-1.967.811c1.387 1.283 3.142 2.559 5.135 1.838 2.08-.753 2.13-2.952 1.801-4.79l-1.934 1.122c1.782 1.449 4.52 1.898 6.363.257a4.09 4.09 0 0 0 1.347-2.806c.062-1.075-.304-2.131-1.019-2.94l-1.127 1.927c1.824.414 3.48 1.565 5.431 1.122 1.724-.393 2.685-1.935 2.683-3.641 0-3.573-3.428-6.332-6.192-8.073-5.71-3.594-13.337-4.798-19.696-2.246-6.508 2.612-11.186 8.802-12.498 15.597-1.573 8.131 1.61 15.701 4.174 23.252l4.453 13.77c1.681 4.769 3.509 9.482 5.483 14.138.352.828 1.733.486 1.388-.381h.006zm-81.69 23.507a91.89 91.89 0 0 0 9.867 7.795c1.019.698 2.065 1.381 3.228 1.801 2.704.977 5.701.414 8.582.476 3.328.062 6.619.957 9.955 1.035 6.833.168 13.343-3.092 18.679-7.344a134.57 134.57 0 0 0-4.911-13.089c-13.058 5.828-27.566 7.643-41.667 5.212"/><path d="M71.419 97.019c2.814 2.658 5.798 5.132 8.932 7.408 1.535 1.116 3.095 2.277 4.94 2.82 1.743.517 3.594.509 5.394.443 1.956-.105 3.918-.055 5.866.151 1.955.24 3.894.604 5.857.759a24.47 24.47 0 0 0 10.448-1.515c3.782-1.414 7.197-3.542 10.355-6.03.157-.152.27-.344.326-.555a1.2 1.2 0 0 0-.008-.643c-1.439-4.547-3.118-9.015-5.03-13.387-.283-.648-1.158-.706-1.705-.445-6.24 2.985-13.289 4.722-20.145 5.508-3.445.403-6.915.566-10.383.486-3.536-.087-7.005-.538-10.508-.907-1.352-.141-1.614 2.031-.318 2.343 5.387 1.3 11.184 1.42 16.698 1.097 5.65-.331 11.241-1.322 16.659-2.952a94.54 94.54 0 0 0 8.959-3.312l-1.408-.569c1.809 4.179 3.402 8.454 4.784 12.791l.32-1.201c-5.05 4.016-11.357 7.283-17.98 7.071-3.675-.116-7.255-1.105-10.947-1.012-1.716.044-3.459.228-5.171.021-1.793-.217-3.301-1.035-4.784-2.012-3.48-2.301-6.804-4.826-9.951-7.56-.819-.71-2.007.439-1.204 1.198l.006.002z"/></g><path d="M73.11 56.097c-1.421 7.812-2.735 10.557-4.16 18.367-1.084 5.947-2.08 12.548.813 17.725 2.469 4.43 7.205 6.672 11.796 7.96a48.91 48.91 0 0 0 34.014-2.942c1.691-.803 3.403-1.751 4.545-3.337 1.997-2.774 1.814-6.703 1.343-10.199-1.832-13.639-5.457-18.367-8.055-28.566" class="C"/><path d="M72.268 55.871c-1.664 8.936-4.942 17.649-5.327 26.802-.189 4.49.676 9.056 3.729 12.519 2.731 3.105 6.708 4.85 10.608 5.958 9.641 2.687 19.872 2.415 29.355-.781 2.255-.738 4.447-1.656 6.554-2.745 2.026-1.07 3.773-2.548 4.711-4.67 1.856-4.198.793-9.282 0-13.608-.835-4.373-2.031-8.671-3.575-12.849-1.398-3.867-2.839-7.711-3.885-11.689-.352-1.339-2.42-.774-2.08.571 1.676 6.697 4.615 12.983 6.319 19.665 1.073 4.204 2.08 8.744 1.957 13.101-.058 2.01-.481 4.117-1.889 5.643-1.456 1.573-3.615 2.461-5.551 3.285a47.97 47.97 0 0 1-27.498 2.98c-4.025-.768-8.231-1.937-11.548-4.429-3.478-2.604-5.092-6.51-5.3-10.756-.235-5.082.89-10.302 2.026-15.229 1.026-4.442 2.259-8.818 3.07-13.31.198-1.093-1.479-1.565-1.685-.462l.008.002z" class="B"/><path d="M85.696 37.194v8.94c0 3.062.624 6.444 4.618 7.059 1.81.279 3.754-.323 4.992-1.542.882-.871 1.394-2 1.72-3.142 1.248-4.328.067-8.911.524-13.364" class="C"/><g class="B"><path d="M84.927 37.194c-.017 3.331-.297 6.688-.148 10.017.094 2.029.584 4.212 2.197 5.599 1.98 1.704 4.932 1.931 7.28.876 2.845-1.288 3.952-4.301 4.318-7.191.237-1.822.189-3.654.112-5.486-.083-1.95-.019-3.918-.152-5.864-.073-1.054-1.631-1.372-1.924-.259-.46 1.764-.304 3.633-.223 5.432.081 1.83.187 3.672 0 5.5-.15 1.548-.495 3.3-1.456 4.575-.936 1.242-2.517 1.84-4.048 1.788-2.579-.089-3.861-1.967-4.16-4.324-.208-1.548-.121-3.144-.139-4.701l-.104-5.962c0-.989-1.541-.992-1.545 0h-.008zm-2.862-3.793c-3.071-3.027-4.892-7.089-5.102-11.385-.042-.94 0-1.931.508-2.73.634-1.014 2.276-1.484 3.295-.803-.221-.88.593-1.567 1.04-2.225a7.52 7.52 0 0 1 2.719-2.389 16.36 16.36 0 0 1 7.534-1.913c2.432-.041 5.379.269 7.629 1.192 1.161.476 2.249 1.126 3.439 1.525s2.545.526 3.665-.041c.611-.308 1.368-.805 1.886-.36.203.209.316.488.316.778.11 1.354-.688 2.623-1.628 3.604-2.288 2.387-5.591 3.699-8.903 3.84s-6.619-.828-9.483-2.498"/><path d="M82.68 32.791c-1.957-2.094-3.365-4.635-4.1-7.4a13.32 13.32 0 0 1-.528-4.157c.058-1.074.859-2.575 2.174-1.83.88.497 1.697-.321 1.564-1.196-.067-.453.82-1.314 1.08-1.656.469-.596 1.041-1.105 1.689-1.503 1.49-.896 3.135-1.507 4.851-1.801 3.164-.594 6.899-.354 9.895.857 1.637.662 3.13 1.633 4.911 1.863a5.5 5.5 0 0 0 2.281-.112 6.87 6.87 0 0 0 1.063-.455 1.86 1.86 0 0 1 .493-.236c-.166.012 0-.159-.079.176-.343 1.656-1.31 2.834-2.704 3.811a12.85 12.85 0 0 1-4.414 1.894c-3.989.948-7.764-.234-11.342-1.952-1.215-.584-2.19 1.052-1.061 1.803 3.536 2.352 8.245 3.246 12.407 2.426a13.46 13.46 0 0 0 5.429-2.416c1.515-1.114 3.079-2.573 3.588-4.442.433-1.588-.164-3.858-2.271-3.324-.934.236-1.618.849-2.631.838-1.14-.012-2.211-.528-3.216-1.01a21.12 21.12 0 0 0-12.272-1.83c-2.253.335-4.601 1.103-6.467 2.432a9.48 9.48 0 0 0-2.126 2.161c-.624.828-1.344 1.629-1.194 2.751l1.602-.915a3.63 3.63 0 0 0-2.374-.404 3.62 3.62 0 0 0-2.103 1.168c-1.3 1.501-1.021 3.784-.751 5.589.599 3.867 2.494 7.42 5.377 10.081.813.766 1.999-.414 1.229-1.223v.012z"/></g><path d="M91.42 40.346c1.555-.025 3.087-.387 4.487-1.06s2.638-1.641 3.625-2.838c.921-1.108 1.111-2.472 1.414-3.854.389-1.768.416-3.598.316-5.399-.137-2.469-.597-5.109-2.344-6.866a8.43 8.43 0 0 0-2.87-1.786 14.55 14.55 0 0 0-8.927-.59 7.59 7.59 0 0 0-2.192.884c-1.129.716-1.941 1.863-2.44 3.105s-.709 2.571-.832 3.9c-.395 4.308.183 10.35 4.108 13" class="C"/><g class="B"><path d="M91.419 41.207c4.405-.066 9.1-2.732 10.155-7.197a23.98 23.98 0 0 0 .568-7.673c-.185-2.132-.647-4.318-1.989-6.044-2.951-3.794-9.245-4.438-13.586-3.223-4.919 1.379-6.015 6.361-6.071 10.876-.054 4.328.955 9.172 4.742 11.787 1.113.766 2.138-1.035 1.055-1.797-2.612-1.863-3.44-5.361-3.636-8.375-.208-3.238-.208-8.183 3.033-10.009 1.726-.973 4-1.138 5.938-1.018 2.003.124 4.189.689 5.847 1.851s2.336 3.012 2.65 4.914a20.5 20.5 0 0 1 .094 6.177 16.44 16.44 0 0 1-.716 3.192c-.385 1.06-1.183 1.882-2.043 2.592a9.86 9.86 0 0 1-6.042 2.234c-1.111.025-1.115 1.737 0 1.72l.002-.004zm2.496-13.44c-.068.556-.068 1.117 0 1.673.037.526-.04 1.358.254 1.809-.366-.561-1.248-.056-.905.526.426.714 1.427.516 1.708-.221.198-.52.037-1.153-.017-1.685-.069-.691-.081-1.449-.318-2.101-.112-.31-.655-.395-.724 0h.002zm1.717-2.016a5.05 5.05 0 0 1 1.814-.279 5.44 5.44 0 0 1 .832.083c.148.027.709.271.649-.135 0 .054-1.419-.414-1.539-.426-.52-.087-1.04.021-1.562-.085-.574-.118-.832.737-.245.88.495.124.959.081 1.456.108s.872.306 1.342.381c.533.085 1.335.06 1.279-.673-.054-.687-.799-.845-1.352-.917a6.06 6.06 0 0 0-2.893.319c-.466.166-.268.907.208.745h.013zm-3.697-.931c-.971-.341-2.011-.443-3.03-.296-.451.056-1.173.097-1.134.718.031.544.661.687 1.102.733.971.101 1.995 0 2.966-.035.587-.027.595-.915 0-.913l-1.986.037-.73.019a2.27 2.27 0 0 0-.464-.054c-.183-.068-.208.07-.069.414.103-.024.208-.042.314-.052l.747-.091c.704-.056 1.412.032 2.08.259.476.162.674-.58.208-.745l-.004.006zm-5.914 77.306c-.1 4.8.015 9.608.316 14.401.146 2.314.335 4.628.624 6.93.127 1 .264 1.863 1.009 2.61.645.642 1.641.988 2.022 1.863.466 1.066 2.359.29 1.91-.801-.389-.944-1.04-1.476-1.853-2.047-.863-.6-1.025-1.12-1.169-2.143-.32-2.277-.543-4.57-.724-6.866a173.34 173.34 0 0 1-.551-13.937c0-1.019-1.568-1.019-1.589 0l.006-.01zm20.429 7.547c2.126 2.935 6.148 5.212 9.859 4.177 1.065-.296.863-1.941-.262-1.931-1.506.012-2.968 0-4.405-.507-1.456-.502-2.737-1.408-3.69-2.613-.666-.861-2.166-.043-1.502.874zm-41.242-1.94c2.203.895 4.645 1.021 6.929.359 1.265-.383.743-2.277-.547-1.973a10.58 10.58 0 0 1-5.884-.18c-1.163-.383-1.593 1.364-.497 1.794zm31.586-79.906a.9.9 0 0 0-.4.479.89.89 0 0 0 .009.623.9.9 0 0 0 1.034.554.93.93 0 0 0 .55-.346c.136-.178.203-.397.189-.619a.98.98 0 0 0-.324-.667.96.96 0 0 0-.385-.206.95.95 0 0 0-.437-.013.58.58 0 0 0-.329.238.57.57 0 0 0-.087.395.58.58 0 0 0 .192.354c.105.091.239.143.378.144-.1-.019-.118-.021-.056 0s.042.012 0 0-.052-.023-.01 0c-.069-.056-.085-.068-.054-.039.102.089-.046-.089 0 0l-.031-.077c.017.059.017.041 0-.056 0 .116.037-.133 0-.019.04-.083.048-.104.025-.066l.04-.056c-.067.079.102-.058.014-.015l.048-.021c-.056.019-.042.01.013 0 .106 0-.017 0-.035 0s-.021 0 .067.01c-.054-.017-.04 0 .042.023.077.081-.083-.043 0 0l.042.054c-.025-.048-.023-.037.01.033l-.013-.048c0-.037 0-.021 0 .052 0 0-.015-.093 0-.097-.01.07-.01.079 0 .029l-.021.048c.027-.039.023-.037-.01 0l.048-.041a.41.41 0 0 0 .043-.534c-.064-.08-.154-.135-.254-.155s-.205-.004-.295.046v-.008zm-6.046-.327c-.193.026-.373.107-.519.235s-.25.296-.3.483c-.031.123-.036.251-.015.376s.067.244.135.351a.93.93 0 0 0 .264.269.94.94 0 0 0 .35.143c.574.076.967-.441.969-.969a1.12 1.12 0 0 0-.216-.659 1.13 1.13 0 0 0-.564-.407c-.14-.026-.285-.003-.41.064a.62.62 0 0 0-.064 1.055c.058.025.156.103.054.019.085.072-.056-.058 0 0s.015.087.015.025-.019-.043-.01-.012 0 .029 0-.017c-.023-.116.033.077 0-.031v-.017c0 .033 0 .027 0-.01.131-.099.135-.257.416-.162a.23.23 0 0 1 .154.157c-.027-.066 0-.019 0 .023a.6.6 0 0 0 0-.085c0 .046-.023.075 0 .017.05-.128-.029.056 0-.017a.33.33 0 0 1 .021-.037c.015-.023.015-.023 0 0 .019 0-.191.083-.058.048.11-.031.203-.104.26-.204s.072-.216.042-.326a.44.44 0 0 0-.206-.256c-.099-.056-.216-.072-.327-.044l.01-.01z"/><path d="M82.783 18.512c.381 1.339 1.714 2.204 3.056 2.602 1.402.411 2.888.448 4.31.11 1.371-.327 2.523-.915 3.902-.176.697.373 1.287.917 1.966 1.327.967.584 2.08.874 3.186 1.116a13.04 13.04 0 0 0 3.001.385c1.218-.021 2.412-.341 3.477-.931s1.966-1.432 2.626-2.451c1.275-2.055 1.354-4.815.121-6.897"/><path d="M81.964 18.738c.701 2.395 3.211 3.482 5.527 3.709 1.456.143 2.777-.172 4.172-.503.699-.168 1.3-.207 1.947.157.562.317 1.04.762 1.57 1.122 2.12 1.449 5.331 2.14 7.869 1.842 1.264-.142 2.481-.558 3.567-1.218s2.012-1.548 2.716-2.603c1.565-2.393 1.791-5.862.173-8.28-.903-1.347-2.816-.188-2.153 1.252 1.086 2.36.799 5.071-1.196 6.86-2.146 1.925-4.917 1.685-7.519 1.006a8.07 8.07 0 0 1-2.02-.72c-.514-.298-.973-.679-1.475-.996-1.296-.828-2.602-.917-4.062-.524s-2.798.739-4.318.47c-1.221-.207-2.673-.778-3.149-2.026-.381-1.006-1.964-.621-1.649.451z"/></g><g fill="#2969ff"><path d="M147.503 133.55a5.65 5.65 0 0 1-1.194 1.137c-4.507 3.188-13.135 3.21-18.437 3.782-31.165 3.363-62.521 4.688-93.862 5.322-5.685.116-11.927 1.343-14.993-4.527-1.456-2.78-1.776-5.989-2.061-9.108-.904-9.97-1.645-19.952-2.221-29.947l-.73-14.997c-.137-3.403-1.29-8.951.919-11.909 2.434-3.26 9.605-3.138 13.22-3.62 10.758-1.437 21.613-1.88 32.448-2.505 22.493-1.298 44.947-3.376 67.257-6.508 2.438-.344 4.95-.693 7.336-.089 7.297 1.849 7.039 9.843 8.262 15.732 2.069 10.006 3.401 20.131 4.453 30.292l1.394 15.26c.299 3.542.563 8.673-1.791 11.685z"/><path d="M146.709 132.759c-1.531 1.863-4.117 2.619-6.39 3.14-2.615.599-5.294.849-7.962 1.067l-19.095 1.815c-14.377 1.271-28.787 2.155-43.207 2.782l-21.551.762-19.363.526c-2.192.033-4.541-.063-6.477-1.205-2.398-1.416-3.426-4.198-3.964-6.79-.699-3.345-.811-6.841-1.107-10.242l-.846-10.719-1.294-21.366c-.152-3.124-.196-6.264-.474-9.379-.22-2.472-.597-5.142.094-7.572.603-2.124 2.313-3.059 4.339-3.616 2.184-.602 4.455-.76 6.704-.954 2.949-.255 5.88-.7 8.825-.992 3.619-.358 7.245-.633 10.874-.869l42.921-2.898 21.611-2.213 10.687-1.319c3.476-.455 6.993-1.168 10.496-1.323 2.612-.114 5.266.443 7.086 2.43 1.361 1.486 2.003 3.494 2.447 5.415.482 2.093.721 4.229 1.096 6.342l1.807 9.634c1.184 7.038 2.061 14.113 2.792 21.206l.994 10.534c.258 2.952.624 5.926.611 8.901-.012 2.484-.293 5.098-1.828 7.141-.867 1.153 1.084 2.277 1.941 1.131 1.645-2.191 2.063-5.06 2.127-7.724.073-3.028-.309-6.069-.572-9.079-.638-7.327-1.352-14.649-2.304-21.942-.47-3.594-.992-7.179-1.593-10.764-.56-3.329-1.294-6.624-1.862-9.953-.728-4.243-1.001-9.077-4.066-12.42-4.485-4.908-12.002-2.724-17.693-1.967L100.2 62.905c-14.895 1.536-29.827 2.619-44.778 3.442-7.446.414-14.897.828-22.314 1.621l-8.32.917c-2.4.207-4.894.445-7.164 1.302-2.186.828-3.852 2.194-4.609 4.453-.832 2.465-.572 5.216-.345 7.754.612 6.901.703 13.869 1.121 20.777l1.622 22.184c.297 3.459.431 7.015 1.192 10.412.624 2.77 1.832 5.554 4.16 7.297 4.087 3.049 9.984 1.914 14.729 1.815l22.483-.621c14.976-.513 29.962-1.263 44.911-2.397l22.396-2.008c5.478-.571 11.184-.61 16.531-2.028 2.334-.621 4.909-1.576 6.482-3.493.911-1.097-.67-2.68-1.587-1.573z"/></g><path d="M92.523 64.261l.208-5.266.208-5.264c-.021-1.486-2.101-1.408-2.265 0-.208 1.737-.16 3.519-.166 5.264a52.31 52.31 0 0 0 .156 5.266c0 .243.097.476.27.648s.407.269.652.269.479-.097.652-.269.27-.405.27-.648h.017zm3.661-3.186c1.356 0 1.358-2.097 0-2.097s-1.358 2.097 0 2.097z" class="B"/><path d="M47.399 65.489c.718 1.975 1.325 2.451 2.041 4.426.29.713.496 1.458.614 2.219.208 1.834-.404 2.931-1.999 3.685-1.367.644-2.839.801-3.925-.426 1.535 1.735.354 4.773-1.787 5.672s-4.663.141-6.577-1.172c.996 1.401-.231 3.488-1.872 4.003s-3.415-.031-5.05-.575c.331.942-.266 2.033-1.156 2.484s-1.978.381-2.927.06c-2.912-.985-4.678-4.059-5.03-7.094-.676-5.821.169-11.041 4.256-15.612 4.807-5.372 11.571-7.473 18.547-5.483" class="C"/><g class="B"><path d="M48.298 56.844c-.742.416-1.606.562-2.444.414-1.616-.242-3.143-.913-4.751-1.211-3.036-.581-6.169-.417-9.128.48a19.02 19.02 0 0 0-7.847 4.664 19.12 19.12 0 0 0-4.932 7.777c-.942 2.91-1.077 6.034-.782 9.058.316 3.254 1.587 6.539 4.526 8.309 1.481.892 3.424 1.331 5.061.621a3.4 3.4 0 0 0 1.727-1.609 3.38 3.38 0 0 0 .258-2.34l-1.456 1.449c2.253.743 4.992 1.428 7.034-.168 1.495-1.163 2.267-3.279 1.192-4.968l-1.56 1.552c2.508 1.642 6.169 2.561 8.726.495 2.028-1.639 2.666-4.643.959-6.717l-1.491 1.484c2.13 2.163 6.3 1.116 7.405-1.671 1.281-3.229-1.435-6.382-2.583-9.195-.393-.963-1.963-.59-1.608.441.78 2.277 2.481 4.484 2.511 6.953 0 .911-.32 1.575-1.119 2.041-1.026.598-2.219.88-3.12-.054-.959-.998-2.317.455-1.491 1.484.969 1.205 0 3.12-1.177 3.784-1.885 1.066-4.241.089-5.866-1.004-.957-.644-2.136.621-1.558 1.55.524.851-.231 1.89-1.04 2.25-1.412.621-3.224-.087-4.576-.532-.878-.29-1.685.621-1.456 1.449.374 1.395-1.664 1.391-2.475 1.136a5.53 5.53 0 0 1-2.737-2.07c-1.518-2.08-1.718-4.691-1.726-7.177 0-2.528.381-5.113 1.456-7.425a17.63 17.63 0 0 1 4.93-6.21 16.48 16.48 0 0 1 6.785-3.271 16.52 16.52 0 0 1 7.538.085c1.414.35 2.775.89 4.227 1.081m48.202-25.885c-.949.103-1.857.128-2.689-.4-.48-.304-1.075.431-.624.799 1.009.814 2.224.727 3.43.501.505-.095.397-.958-.121-.901h.004zm-7.209 140.878a20.94 20.94 0 0 1 1.99-8.551c.497-1.077-1.065-2.029-1.622-.944-1.492 2.941-2.226 6.206-2.134 9.499.025 1.128 1.751 1.132 1.766 0v-.004zm3.334-13.205c.994 0 .996-1.538 0-1.538s-.996 1.538 0 1.538zM15.361 93.423c8 4.699 16.432 8.76 24.96 12.42 8.521 3.683 17.248 6.874 26.137 9.557 4.424 1.323 9.138 3.004 13.83 2.797 4.803-.207 8.466-3.01 12.222-5.687l24.224-17.468 26.982-19.94c1.171-.884.029-2.884-1.171-1.993L95.214 107.69l-5.982 4.258c-1.782 1.259-3.625 2.569-5.714 3.277-4.424 1.501-9.152 0-13.458-1.227a263.35 263.35 0 0 1-26.083-8.856c-9.537-3.823-18.71-8.338-27.77-13.159-.951-.505-1.78.894-.847 1.449v-.008z"/><path d="M28.542 138.15l12.403-14.012 6.09-6.991c1.82-2.088 3.609-4.198 5.876-5.823 1.04-.745.089-2.463-1.023-1.743-2.328 1.505-4.139 3.635-5.928 5.714l-6.171 7.168-12.359 14.581c-.637.762.431 1.863 1.113 1.106zm102.683-10.682c-7.731-8.694-15.373-17.508-23.504-25.829-1.096-1.122-2.718.542-1.707 1.697 7.648 8.752 15.835 17.065 23.878 25.461.832.878 2.126-.426 1.329-1.321l.004-.008zm-48.44-31.311c-7.769-8.901-15.6 7.885-4.326 8.247 1.891.06 3.856-.786 4.867-2.378 1.123-1.778.844-4.279-.541-5.869z"/><path d="M83.311 95.634c-1.572-1.877-3.802-3.411-6.367-2.946-2.016.366-3.671 1.929-4.532 3.726-.911 1.898-1.106 4.2-.064 6.094 1.269 2.306 4.129 3.254 6.656 3.105 2.305-.128 4.62-1.327 5.658-3.448a5.98 5.98 0 0 0 .534-3.568 5.99 5.99 0 0 0-1.617-3.228c-.871-.871-2.471.273-1.751 1.344.867 1.29 1.342 3.002.572 4.453-.747 1.407-2.404 2.047-3.935 2.016a6.03 6.03 0 0 1-2.704-.621 3.08 3.08 0 0 1-1.387-1.37 3.59 3.59 0 0 1-.368-1.762c.023-.677.17-1.344.433-1.969.451-1.101 1.456-2.298 2.642-2.726 1.968-.706 3.848.532 5.185 1.95.659.714 1.658-.327 1.048-1.05z"/></g><path d="M148.637 31.45c1.626.896 3.536 1.17 5.2 1.967s3.215 2.463 2.893 4.285c-.193 1.093-1.019 1.973-1.934 2.602-1.155.791-2.489 1.283-3.882 1.432.44 1.172.627 2.422.549 3.67s-.418 2.466-1 3.575" class="C"/><path d="M148.202 32.189c1.207.733 2.519 1.157 3.838 1.635 1.223.443 2.483.994 3.216 2.126 1.664 2.579-2.288 4.432-4.335 4.579-.724.052-1.456.737-1.169 1.528.832 2.292.47 4.401-.329 6.643-.432 1.213 1.325 1.788 1.983.828 1.589-2.323 1.62-5.539.684-8.116l-.847 1.484c3.104-.555 7.488-2.873 6.509-6.686-.402-1.567-1.712-2.855-3.12-3.587-1.76-.915-3.767-1.112-5.562-1.915-.992-.443-1.835.892-.87 1.478l.002.004z" class="B"/><path d="M174.966 47.215c1.68-2.349 3.848-4.308 5.996-6.245l19.737-17.802c.308-.275.635-.592.666-1.004.04-.503-.378-.915-.763-1.242l-7.547-6.523c-4.873 7.659-10.558 14.631-16.758 21.247-3.409-2.354-4.148-7.019-8.004-9.011-1.953 2.389-3.887 4.691-6.277 6.68.981.956 13.208 13.643 12.95 13.9z" class="C"/><path d="M175.551 47.805c1.91-2.418 4.287-4.409 6.619-6.405 2.621-2.244 5.185-4.544 7.752-6.848l7.542-6.794 3.836-3.461c.981-.89 1.749-2.024.975-3.337-.416-.712-1.16-1.227-1.778-1.761l-2.091-1.811-4.478-3.859a1.25 1.25 0 0 0-.476-.289c-.178-.059-.368-.078-.555-.054a1.26 1.26 0 0 0-.523.192 1.25 1.25 0 0 0-.386.399c-4.789 7.543-10.459 14.474-16.564 20.998l1.494-.193c-1.629-1.163-2.594-2.981-3.663-4.618-1.148-1.755-2.461-3.376-4.341-4.39-.441-.236-1.144-.232-1.491.193-1.943 2.372-3.911 4.711-6.276 6.684-.507.414-.439 1.292 0 1.724 3.871 3.823 7.601 7.843 11.251 11.874l1.144 1.296c.121.141.506.462.191.221.044.042.079.092.104.147 0 .014.021.025.025.041-.089-.414-.397-.317.025-1.167-.707 1.426 1.442 2.691 2.153 1.252.51-1.035-.362-1.826-.984-2.544-.902-1.035-1.843-2.049-2.781-3.059l-7.228-7.584-2.167-2.2v1.724c2.34-1.989 4.343-4.312 6.282-6.678l-1.49.19c1.824.985 2.912 2.652 3.994 4.347 1.123 1.762 2.288 3.43 4.008 4.662.416.304 1.146.178 1.494-.191 6.24-6.676 12.014-13.799 16.954-21.493l-1.931.255 7.122 6.167c.233.207.458.443.703.621.16.12.081.083.123-.07-.015.054-.181.186-.208.207-.609.478-1.163 1.052-1.737 1.569l-3.567 3.213-13.905 12.681c-2.338 2.219-4.663 4.432-6.462 7.123-.539.793.705 1.778 1.291 1.027zm-31.694 133.293c-1.146-.163-1.941-.921-2.423-1.941-.375-.787-.936-2.337-.674-3.209.195-.65 1.092-.668 1.633-.441.979.414 1.564 1.553 2.067 2.416.595 1.023 2.236.582 2.232-.6 0-1.278.166-2.466 1.04-3.47.329-.376.832-.983 1.346-.668.584.356.491 1.362.403 1.923l2.519.339c-.014-.673.462-1.163 1.101-1.339.761-.207 1.547.207 2.102.702 1.018.908 2.415 3.312.579 4.115-1.288.557-.366 2.763.965 2.277 3.952-1.449 2.56-6.417-.027-8.498-1.309-1.053-3.045-1.595-4.674-.979-1.533.58-2.762 2.029-2.61 3.726.147 1.656 2.381 1.627 2.564 0 .16-1.411.029-2.927-1.04-3.984a3.03 3.03 0 0 0-1.762-.883c-.67-.09-1.351.046-1.934.386-2.221 1.242-3.536 4.212-2.912 6.669l2.188-.919c-.917-1.449-2.003-3.049-3.779-3.504-1.439-.371-3.168.124-3.915 1.469-.832 1.499-.106 3.857.574 5.293.791 1.656 2.324 2.863 4.206 2.913 1.007.027 1.286-1.646.244-1.793h-.013zM108.314 156.6c-.957 1.19-1.614 2.654-1.248 4.208a3.58 3.58 0 0 0 .959 1.785 3.61 3.61 0 0 0 1.778.983c1.55.317 3.016-.455 4.141-1.449s2.386-2.234 2.08-3.867l-2.04.853c.923 1.811 2.602 3.374 4.757 3.353.99.004 1.948-.354 2.691-1.006.117-.105.832-.813.757-.97-.601.138-.7.26-.295.366l.275.116c.235.089.478.159.726.207 1.851.36 4.01-.396 4.682-2.277.605-1.693-.256-3.747-2.058-4.221-1.089-.286-1.892 1.381-.794 1.878a1.25 1.25 0 0 1 .474.391c.123.168.201.364.228.57a1.24 1.24 0 0 1-.074.609 1.23 1.23 0 0 1-.358.5c-1.121.9-2.207-.195-3.348-.158-1.342.042-1.457 1.646-2.779 1.785-1.409.147-2.401-1.155-2.964-2.261-.602-1.184-2.243-.308-2.028.853.083.445-1.192 1.474-1.49 1.737-.584.517-1.339 1.016-2.163.9-1.959-.281-1.179-2.736-.416-3.749.624-.85-.813-1.972-1.483-1.138l-.01.002zm5.616 19.429c-.699-.828-1.506-2.387-.048-3.004.853-.36 1.787.592.984 1.242-1.04.851.308 2.546 1.427 1.84 1.192-.749 2.833-.896 3.866.245s.783 2.738-.049 3.875c-.77 1.051.936 2.343 1.807 1.387 1.749-1.923 1.751-5.045-.067-6.947s-4.971-2.023-6.984-.4l1.664 1.656c2.059-2.142.068-5.839-2.912-5.044-2.912.778-3.509 5.071-.714 6.448.176.123.392.174.604.142s.404-.144.535-.313.191-.382.168-.595-.127-.407-.292-.545l.011.013zm47.478-31.336c-.971-.251-1.998-.174-2.921.217s-1.69 1.076-2.181 1.946c-1.04 1.899-.495 4.238.899 5.796 1.545 1.729 4.112 2.217 6.3 1.656 1.04-.263 2.155-.79 2.552-1.846a2.08 2.08 0 0 0 .036-1.466 2.09 2.09 0 0 0-.941-1.128c-.855-.484-1.757.147-1.834 1.048-.14 1.602-.05 3.332.888 4.705.786 1.151 2.105 1.97 3.536 1.931.324 0 .701-.192 1.017-.159s.743.399 1.082.507c.681.207 1.409.207 2.09 0 1.614-.48 2.535-1.902 3.236-3.312.666-1.348-1.231-2.484-2.04-1.186-.478.77-1.04 1.881-2.007 2.124-.495.124-.832-.17-1.271-.356-.517-.23-1.092-.297-1.647-.191-2.382.414-2.578-2.306-2.44-4.051l-1.835 1.047c.015-.296-.05-.399-.191-.306l-.152.085c-.218.021-.489.195-.718.255-.559.148-1.141.193-1.716.13a3.55 3.55 0 0 1-2.752-1.712c-.488-.857-.636-1.96-.089-2.827s1.581-1.449 2.633-1.201c1.103.269 1.571-1.404.47-1.693l-.004-.013zm.751-16.715c-1.816 1.656-1.294 4.581.742 5.796 2.465 1.468 5.367.271 7.166-1.656 1.071-1.14-.624-2.848-1.725-1.718-.994 1.035-2.31 1.971-3.823 1.621-1.233-.286-2.19-1.772-1.108-2.797.832-.786-.416-2.012-1.248-1.242l-.004-.004zm-14.329 12.306c.499-.066.69.714.693 1.035 0 .621-.227 1.317-.385 1.919-.258.979 1.248 1.695 1.699.714.585-1.242 1.04-2.691.345-3.987a2.64 2.64 0 0 0-1.178-1.181 2.66 2.66 0 0 0-1.655-.241c-1.16.197-.647 1.888.481 1.735v.006zM34.289 177.252c-.081-.733.499-1.788 1.398-1.511.53.164.876.946.595 1.416-.749 1.254.911 2.374 1.945 1.492.909-.774 2.319-1.26 3.295-.304.813.797.416 1.938-.651 2.219-1.285.342-1.019 2.296.312 2.3 2.977.01 4.252-3.581 2.608-5.796-1.81-2.432-5.294-2.176-7.315-.166l2.07 1.199c.545-1.863-.512-4.03-2.536-4.366-2.18-.36-3.848 1.727-3.513 3.751.164 1 1.907.778 1.793-.24v.006zm10.413-20.748c-.229 1.863.083 4.128 1.841 5.192 1.547.936 3.586.604 4.576-.936.782-1.215-1.163-2.337-1.941-1.128-.393.621-1.425.454-1.922.06-.936-.737-.967-2.119-.851-3.188s-1.572-1.066-1.703 0zm-24.349 4.141c-1.77-.603-1.645-2.818-.603-4.008.482-.555 1.385-1.188 2.028-.517.611.639.416 1.716.108 2.446-.245.584.208 1.286.743 1.505.624.265 1.213 0 1.599-.521.51-.682 1.527-1.102 2.271-.541.659.493.52 1.373-.312 1.536-1.05.207-1.331 1.927-.312 2.381 1.333.594 1.976 2.277.726 3.339-1.171.993-2.868.308-3.328-1.079-.468-1.436-2.556-.847-2.261.621.664 3.312 4.686 4.585 7.238 2.484s1.959-6.268-1.065-7.607l-.312 2.38c2.665-.525 3.449-3.902 1.614-5.74-1.997-1.999-4.967-1.118-6.483.946l2.388.644c.208-1.722.187-3.478-1.314-4.649-1.456-1.135-3.328-.652-4.576.55-2.305 2.228-2.08 6.548 1.402 7.438 1.04.269 1.456-1.259.443-1.6l.006-.008zm10.31-10.425a2.34 2.34 0 0 0 .109 1.477 2.35 2.35 0 0 0 .976 1.117c.971.596 2.155.399 3.207.165 1.404-.314.807-2.531-.597-2.156-.416.107-.915.291-1.348.207-.164-.034-.497-.193-.476-.294.231-1.207-1.531-1.725-1.872-.514v-.002zm87.96-5.81c1.404 1.283 3.594 1.709 5.185.496.986-.751.156-2.326-1.002-1.705-.868.467-2.064.559-2.848-.118-.911-.787-2.238.503-1.335 1.327z" class="B"/></svg>