<svg xmlns="http://www.w3.org/2000/svg" width="115" height="115" fill="none" xmlns:v="https://vecta.io/nano"><style><![CDATA[.B{fill:#232323}.C{fill:#fff}.D{fill:#2969ff}]]></style><path d="M77.823 47.229c-4.154 4.893-9.628 8.799-15.838 10.406a26.3 26.3 0 0 1-18.764-2.237c-5.336-2.844-9.508-7.455-13.137-12.291-1.559-2.079-3.068-4.276-3.733-6.785-.202-.764-.322-1.579-.115-2.34 1.204-4.388 8.34.182 10.26 1.65 2.566 1.963 4.733 4.39 7.044 6.647s4.839 4.393 7.841 5.587c.268.106.552.207.838.174.268-.03.508-.174.738-.314 4.907-2.99 9.734-6.103 14.483-9.338" class="C"/><g class="B"><path d="M78.093 47.495c-5.06 6.025-12.044 10.521-19.99 11.306a26.81 26.81 0 0 1-12.237-1.657c-3.795-1.471-7.147-3.84-10.065-6.661-1.478-1.443-2.869-2.973-4.165-4.582-1.308-1.61-2.599-3.256-3.715-5.004-1.086-1.7-2.133-3.701-2.282-5.75-.092-1.289.436-2.698 1.673-3.252 1.064-.476 2.318-.274 3.395.051 1.288.387 2.514.999 3.672 1.674 2.838 1.655 5.184 3.926 7.475 6.25 1.513 1.532 3.022 3.075 4.688 4.444.83.687 1.708 1.313 2.628 1.874.421.255.852.493 1.294.712.483.239 1.258.748 1.812.604.506-.131 1.035-.592 1.472-.862l1.524-.942 3.032-1.904 5.908-3.848 2.982-1.979c.523-.345.989.48.488.833-3.721 2.619-7.56 5.076-11.421 7.483l-2.953 1.819c-.373.23-.751.442-1.198.443-.508 0-.987-.236-1.443-.435-1.823-.795-3.47-1.938-4.993-3.205-4.912-4.088-8.832-10.052-15.239-11.985-.905-.274-2.133-.553-2.979.038-1.434 1.003-.704 3.248-.192 4.551.752 1.917 1.955 3.628 3.186 5.267 1.193 1.595 2.439 3.152 3.77 4.636 2.626 2.929 5.601 5.584 9.071 7.475 3.538 1.904 7.472 2.955 11.488 3.069s8.003-.713 11.643-2.414c3.46-1.61 6.494-3.904 9.228-6.548.666-.644 1.291-1.331 1.899-2.03.324-.375.853.167.54.539l.005-.008z"/><path d="M104.765 25.621l-.324-4.461c-.023-.482-.083-.962-.179-1.435-.502-2.176-2.722-2.875-4.485-3.925l-5.913-3.495-12.19-6.943c-.4-.223-.814-.45-1.265-.498-.642-.069-1.265.223-1.831.526-1.902 1.012-3.498 2.499-5.365 3.519-1.7.911-3.335 1.938-4.895 3.072a100.4 100.4 0 0 0-6.938 5.599c-1.79 1.586-4.263 3.041-4.149 5.66.182 4.181.534 8.776 3.473 11.755 1.454 1.473 3.385 2.366 5.308 3.128 5.952 2.355 12.361 3.751 18.745 3.368 2.169-.13 4.377-.481 6.278-1.533 1.869-1.035 3.318-2.674 4.674-4.325 1.849-2.251 3.597-4.579 5.244-6.985"/><path d="M104.345 25.621l-.249-3.35c-.073-.974-.031-2.07-.425-2.98-.609-1.415-2.185-2.07-3.45-2.75l-5.39-3.162-5.789-3.352-5.81-3.288-1.38-.773c-.467-.26-.958-.599-1.501-.655-.955-.098-2 .69-2.76 1.187L75.125 8.23c-.805.56-1.65 1.035-2.504 1.519a46.92 46.92 0 0 0-5.124 3.398l-5.047 4.122c-1.217 1.073-2.602 2.044-3.672 3.269-.49.561-.883 1.219-1.014 1.955-.144.805 0 1.696.052 2.505.115 1.749.315 3.503.798 5.193.471 1.645 1.24 3.214 2.453 4.44 1.355 1.37 3.14 2.213 4.906 2.916 3.91 1.559 8.017 2.715 12.203 3.199a37.59 37.59 0 0 0 6.271.212c1.992-.103 4.052-.366 5.865-1.25 1.757-.856 3.134-2.256 4.386-3.727 1.38-1.623 2.688-3.315 3.946-5.036l1.835-2.582c.406-.589 1.38-.033.967.565a99.5 99.5 0 0 1-4.025 5.483c-1.302 1.653-2.619 3.365-4.236 4.725-3.344 2.814-7.838 3.105-12.034 2.927-4.457-.19-8.864-1.15-13.067-2.621-3.713-1.3-7.605-2.843-9.49-6.549-.837-1.648-1.265-3.459-1.505-5.281-.121-.897-.2-1.8-.255-2.704-.053-.854-.167-1.75-.017-2.599.289-1.642 1.558-2.844 2.783-3.862l4.625-3.861c1.751-1.418 3.533-2.824 5.416-4.065 1.757-1.158 3.654-2.078 5.371-3.295.875-.619 1.733-1.265 2.645-1.823.814-.495 1.764-1.068 2.754-.987s1.933.805 2.776 1.277l3.153 1.78 12.38 7.182c.821.488 1.638.975 2.482 1.424.699.372 1.397.753 2.012 1.258a4.29 4.29 0 0 1 1.3 1.741c.376.96.358 2.07.431 3.08l.251 3.461c.04.545-.805.543-.849 0z"/></g><path d="M97.817 26.584a26.44 26.44 0 0 0-.164-6.792l.213.167-31.791.728c-.643.022-1.343-.024-1.971.129-.788.191-.965.84-.994 1.57l-.083 4.395c-.006.322-.506.323-.5 0l.082-4.227c.023-.836.146-1.698.988-2.088.415-.192.886-.215 1.335-.23l2.286-.077 4.116-.13 16.925-.396 9.607-.122a.23.23 0 0 1 .219.167c.364 2.287.409 4.612.136 6.912-.031.254-.433.263-.407 0l.005-.005z" class="C"/><g class="D"><path d="M84.41 33.35c-4.83 1.806-9.574-1.565-13.764-3.744-3.908-2.029-7.708-4.26-11.385-6.684-1.872-1.236-2.784-1.332-3.15 1.107-.205 1.364-.085 2.745-.097 4.117-.021 2.615.131 5.266.259 7.877.177 3.617-.268 8.628 1.217 12.046.128.342.324.655.575.92.273.235.589.414.93.529 3.753 1.453 9.067.642 13.057.682a288.32 288.32 0 0 0 14.835-.23 137.43 137.43 0 0 0 14.046-1.324c1.198-.174 2.471-.4 3.345-1.213 1.223-1.139 1.249-2.997 1.185-4.641l-.607-13.519c-.097-1.886.02-3.795-.06-5.68-.038-.92 1.035-5.298-1.359-3.894-4.6 2.692-8.323 6.562-12.542 9.765-1.621 1.241-4.024 2.966-6.485 3.886z"/><path d="M84.507 33.704c-4.963 1.817-9.691-1.439-13.915-3.648-2.559-1.337-5.085-2.727-7.558-4.219-1.227-.739-2.438-1.499-3.634-2.279-.473-.308-1.548-1.242-2.185-1.003-.243.091-.345.401-.427.622-.21.614-.268 1.286-.298 1.929-.063 1.38 0 2.778.017 4.16.032 2.806.279 5.603.32 8.408.035 2.376-.035 4.778.327 7.13.17 1.117.413 2.317.949 3.324.546 1.026 2.07 1.251 3.123 1.439 2.45.438 4.981.275 7.451.159 2.689-.125 5.374-.084 8.064-.101 5.925-.037 11.86-.197 17.758-.777a144.3 144.3 0 0 0 4.453-.511c1.302-.169 2.742-.242 3.974-.736 2.457-.987 2.001-4.048 1.918-6.181-.23-5.954-.651-11.908-.606-17.868.008-1.067.446-2.256.141-3.307-.057-.199-.095-.259-.15-.256-.215 0-.608.271-.839.412a37.26 37.26 0 0 0-3.32 2.275c-4.073 3.093-7.685 6.806-12.082 9.464-1.092.67-2.244 1.235-3.442 1.689-.61.23-.859-.735-.267-.967 2.516-.987 4.761-2.62 6.873-4.278 2.22-1.742 4.309-3.642 6.493-5.426 1.076-.88 2.174-1.734 3.313-2.53.551-.384 1.112-.754 1.684-1.105.407-.25.83-.538 1.306-.633 1.572-.307 1.687 1.601 1.617 2.675-.039.611-.152 1.217-.182 1.827-.064 1.343.014 2.722.016 4.069.006 3.199.274 6.409.417 9.605l.203 4.813c.045 1.249.136 2.514-.13 3.748-.239 1.105-.835 2.086-1.803 2.693-1.085.681-2.415.82-3.652.995-6.238.879-12.494 1.279-18.789 1.417a279.74 279.74 0 0 1-9.59.047c-2.53-.028-5.046.206-7.572.153-1.278-.011-2.553-.136-3.809-.375-1.08-.22-2.48-.522-3.193-1.434s-1.005-2.23-1.217-3.335c-.224-1.24-.355-2.496-.392-3.756-.107-2.601-.062-5.203-.183-7.804l-.154-4.622c-.017-1.542-.085-3.08 0-4.6.086-1.463.475-4.01 2.539-3.25 1.111.409 2.088 1.22 3.075 1.854a137.52 137.52 0 0 0 3.939 2.416c2.548 1.505 5.175 2.862 7.764 4.295 2.347 1.299 4.801 2.694 7.499 3.069a8.3 8.3 0 0 0 3.955-.398c.454-.161.644.552.2.714z"/></g><path d="M28.152 65.857c-.367 3.397-3.426 3.848-2.47 7.13 1.117 3.827 1.435 7.851 1.739 11.838.566 7.435.68 14.989 1.419 22.381.04.396.097.823.354 1.113.219.247.542.345.849.428 3.091.817 6.325.754 9.468.299.777-.115 1.622-.29 2.113-.938a1.04 1.04 0 0 0 .209-.397c.04-.146.047-.298.021-.447-.068-.207-.182-.396-.335-.551-.846-1.002-2.293-2.056-2.859-3.247-.747-1.569-.504-3.942-.428-5.626a169.39 169.39 0 0 0-.48-22.362c-.59-6.724-.47-10.046-4.782-15.031" class="C"/><path d="M28.482 65.857c-.148 1.232-.64 2.264-1.359 3.261-.621.862-1.293 1.703-1.24 2.824.038.817.377 1.619.575 2.407l.564 2.768.664 5.635c.669 7.843.784 15.724 1.525 23.561.041.445.037.932.168 1.363.156.519.637.593 1.107.708a18.27 18.27 0 0 0 2.875.46c1.943.141 3.895.069 5.821-.216.697-.096 1.779-.191 2.146-.907.316-.62-1.011-1.585-1.411-1.974-1.095-1.066-1.908-2.132-2.137-3.68s-.068-3.129 0-4.688a169.44 169.44 0 0 0 .138-6.048c.021-4.036-.103-8.069-.371-12.099-.214-3.22-.388-6.494-.849-9.69-.362-2.52-1.179-4.84-2.633-6.94a25.09 25.09 0 0 0-1.416-1.83c-.383-.46.261-1.117.66-.661 1.858 2.116 3.308 4.507 3.979 7.26.704 2.893.805 5.943 1.045 8.899.344 4.212.531 8.433.56 12.663.014 2.132-.012 4.263-.077 6.393-.056 1.814-.246 3.643-.192 5.457.023.817.1 1.689.452 2.44s.987 1.348 1.574 1.921c.517.504 1.161 1.017 1.519 1.657.385.69.061 1.459-.501 1.935-.598.506-1.38.661-2.13.768-.971.137-1.947.241-2.927.291a22.29 22.29 0 0 1-5.949-.43c-.69-.153-1.554-.286-1.955-.949-.432-.705-.371-1.748-.442-2.541-.186-2.082-.328-4.167-.447-6.253l-.662-12.45c-.259-4.106-.494-8.266-1.393-12.291-.308-1.38-.955-2.819-.439-4.231.383-1.049 1.22-1.826 1.791-2.766a5.06 5.06 0 0 0 .709-2.024c.052-.415.711-.422.66 0l-.002-.003z" class="B"/><path d="M39.511 109.044c.777-.115 1.622-.29 2.113-.938.098-.115.169-.251.209-.397s.047-.298.021-.447c-.068-.207-.182-.396-.335-.551-.846-1.002-2.293-2.056-2.859-3.247-.747-1.569-.504-3.942-.428-5.626l.131-4.046c-1.588-.076-3.144.365-4.76.266-1.955-.115-3.977-.261-5.698-1.265.245 4.822.46 9.65.938 14.414.04.395.097.822.354 1.113.219.246.542.345.849.428 3.088.814 6.323.751 9.464.296z" class="D"/><path d="M29.8 65.745c-.176 1.15-.759 2.12-1.519 2.99-.675.769-1.573 1.495-1.904 2.493-.186.566-.127 1.128.018 1.695l.612 2.868c.3 1.867.505 3.748.615 5.635.531 7.989.386 16.003.855 23.995l.092 1.461c.032.46 0 1.047.435 1.317.345.217.863.289 1.256.384a20.24 20.24 0 0 0 1.487.296c1.92.303 3.886.306 5.821.148.813-.067 1.768-.065 2.506-.46.473-.251.759-.66.421-1.138-.243-.313-.509-.607-.796-.879-1.053-1.089-2.103-2.131-2.398-3.68s-.103-3.118.014-4.667a158.35 158.35 0 0 0 .335-6.003c.153-4.032.162-8.067.025-12.104-.115-3.299-.081-6.742-1.337-9.852-.983-2.435-2.709-4.469-4.37-6.468l-1.533-1.874c-.369-.46.273-1.126.66-.661 1.87 2.239 3.929 4.432 5.361 6.99 1.55 2.769 1.955 5.778 2.102 8.902.209 4.259.255 8.522.14 12.789a168.85 168.85 0 0 1-.298 6.5c-.115 1.749-.38 3.528-.286 5.283.044.844.202 1.678.673 2.394s1.113 1.3 1.7 1.914c.46.485 1.15 1.094 1.14 1.823-.01.763-.66 1.357-1.31 1.642-.752.329-1.618.37-2.425.443-1.008.092-2.02.133-3.033.122-1.955-.028-4.061-.219-5.91-.888-.73-.264-1.117-.767-1.219-1.534-.132-.986-.145-2-.195-2.99-.115-2.149-.179-4.299-.23-6.45l-.321-12.698c-.169-4.14-.357-8.31-1.341-12.353-.285-1.169-.129-2.237.597-3.211.672-.91 1.592-1.609 2.227-2.546a4.4 4.4 0 0 0 .698-1.803c.066-.42.699-.24.636.175z" class="B"/><g class="D"><path d="M21.269 57.693c-.48 2.356-.937 4.81-.345 7.142.701 2.775 2.77 4.963 3.518 7.713.48 1.763.651 3.604.715 5.425.05 1.408-.371 3.364.218 4.685 1.135 2.544 6.785 2.566 9.033 2.493 1.38-.044 5.156.155 5.802-1.65.327-.913-.477-1.61-.816-2.349-.409-.894-.366-1.937-.353-2.9.059-4.191-.497-8.446-1.762-12.449a27.77 27.77 0 0 0-1.566-3.941 22.2 22.2 0 0 0-1.197-2.127"/><path d="M21.745 57.824c-.527 2.6-.997 5.29-.041 7.851.788 2.111 2.225 3.91 2.99 6.036.805 2.24 1.06 4.899.936 7.268-.056 1.075-.247 2.282.132 3.319.241.661.798 1.084 1.408 1.392 1.415.712 3.12.872 4.678.95 1.287.064 2.581.029 3.869 0a11.46 11.46 0 0 0 2.377-.25c.592-.141 1.397-.386 1.64-1.019.189-.49-.154-.952-.406-1.347-.304-.45-.525-.952-.651-1.481-.253-1.17-.115-2.406-.132-3.592-.097-5.825-1.3-11.986-4.453-16.966-.345-.538.513-1.035.853-.498 2.977 4.701 4.248 10.439 4.534 15.941.071 1.367-.013 2.738.061 4.103.013.629.188 1.244.508 1.786.275.447.592.88.69 1.405.37 1.889-1.869 2.59-3.29 2.778s-2.917.172-4.361.163c-1.714-.011-3.485-.125-5.135-.616-1.556-.46-2.99-1.341-3.294-3.05-.212-1.172-.028-2.356 0-3.536.019-1.4-.097-2.798-.345-4.176a13.54 13.54 0 0 0-1.406-4.119c-.637-1.197-1.364-2.348-1.902-3.596-1.265-2.936-.83-5.968-.215-9.007.127-.623 1.08-.36.953.262l.001-.003z"/></g><g class="B"><path d="M34.393 81.709a8 8 0 0 0 4.614-.898c.561-.304 1.063.56.499.853a7.84 7.84 0 0 1-5.212.773c-.404-.081-.32-.768.099-.728zm7.122 25.002c-.846-1.002-2.293-2.056-2.859-3.247-.531-1.116-.561-2.645-.507-4.03a7.78 7.78 0 0 0-1.495.035c-.425.045-.886.109-1.184.432-.698.757.057 2.157-.438 3.079-.345.65-1.166.787-1.871.764-1.464-.048-2.922-.483-4.379-.338a.85.85 0 0 0-.268.056l.324 3.743c.04.396.097.822.354 1.113.218.246.542.345.849.428 3.091.817 6.325.753 9.468.299.777-.115 1.622-.29 2.113-.938a1.04 1.04 0 0 0 .209-.397 1.03 1.03 0 0 0 .021-.447 1.41 1.41 0 0 0-.336-.551z"/><path d="M41.17 107.065c-.928-1.073-2.185-1.931-2.865-3.205-.71-1.333-.699-2.953-.646-4.422l.494.493c-.596-.038-1.265-.054-1.84.088-.559.138-.665.516-.651 1.045.025.892.214 1.874-.5 2.567-.69.674-1.755.651-2.645.565l-1.863-.238c-.622-.074-1.38-.195-1.994-.017l.362-.477.179 2.205.115 1.209c.03.312.024.69.177.969.285.531 1.332.588 1.861.69.772.148 1.552.248 2.337.298a25.86 25.86 0 0 0 4.329-.097c.586-.064 4.233-.36 3.15-1.674-.401-.486.294-1.189.699-.698 1.208 1.464-.23 2.766-1.718 3.073-1.885.39-3.902.49-5.821.417a21.41 21.41 0 0 1-2.935-.31c-.767-.136-1.823-.23-2.433-.769s-.608-1.469-.681-2.233l-.26-3.084a.5.5 0 0 1 .102-.299c.065-.086.157-.149.261-.178 1.157-.335 2.517.028 3.68.171.942.115 2.608.389 2.654-.979.029-.867-.273-1.84.358-2.569.683-.791 2.132-.729 3.072-.668a.5.5 0 0 1 .493.495c-.047 1.332-.115 2.875.592 4.064.66 1.117 1.789 1.893 2.63 2.864.416.479-.279 1.18-.692.703z"/></g><path d="M29.108 95.98a19.09 19.09 0 0 0 7.545.323c.312-.049.454.419.133.483a15.54 15.54 0 0 1-7.772-.468.17.17 0 0 1-.096-.085c-.02-.04-.025-.085-.013-.127s.039-.079.076-.103.082-.032.126-.024zm8.153 7.159a1.86 1.86 0 0 1 .785-.484c.298-.093.615-.11.921-.048.23.048.183.44-.056.415-.242-.034-.488-.015-.722.057a1.66 1.66 0 0 0-.63.357c-.198.181-.49-.106-.297-.297zm1.035 1.369c.294-.331.692-.552 1.128-.626.275-.043.399.368.115.424a1.71 1.71 0 0 0-.941.507c-.192.201-.491-.101-.305-.305h.002zm1.416.626l.698-.254c.24-.087.345.298.106.384l-.7.247c-.238.085-.337-.289-.103-.375v-.002z" class="C"/><path d="M35.009 59.685c2.202 2.807 3.031 6.383 3.747 9.812.406 1.903.663 3.834.768 5.776.091 1.829-.27 3.917.642 5.587.399.73.913 1.452.864 2.325-.044.745-.438 1.38-1.15 1.632-.608.212-.87-.753-.266-.964.995-.345.069-1.826-.214-2.323-.463-.826-.735-1.745-.797-2.69-.091-1.112-.013-2.234-.055-3.35-.045-1.139-.149-2.275-.312-3.403-.308-2.137-.805-4.244-1.365-6.325-.53-1.978-1.202-3.976-2.395-5.659-.223-.315.299-.725.539-.416l-.006-.002z" class="B"/><path d="M21.711 65.957c-.733 3.335-3.824 3.45-3.228 6.818.69 3.926.575 7.96.445 11.96-.244 7.452-.951 14.974-1.017 22.404 0 .397.007.828.23 1.15.191.268.501.402.798.517 2.983 1.15 6.21 1.434 9.379 1.324.784-.028 1.643-.115 2.201-.704.202-.215.357-.513.316-.814a1.39 1.39 0 0 0-.273-.584c-.733-1.088-2.056-2.294-2.49-3.538-.575-1.642-.072-3.974.185-5.635a169.57 169.57 0 0 0 1.948-22.281c.143-6.748.621-10.038-3.123-15.461" class="C"/><path d="M22.029 66.046c-.276 1.181-.889 2.145-1.689 3.038-.698.777-1.466 1.533-1.542 2.636-.059.841.195 1.705.305 2.53l.262 2.809.043 5.779c-.193 7.879-.936 15.735-1.035 23.616 0 .394-.07.857.022 1.243.125.521.614.644 1.068.805.866.307 1.753.55 2.654.728a25.95 25.95 0 0 0 5.571.441c.747-.014 1.777.064 2.383-.468.447-.394.243-.753-.052-1.157-.244-.335-.514-.65-.779-.968-.998-1.202-1.781-2.34-1.886-3.94s.26-3.195.497-4.764a184.62 184.62 0 0 0 .784-5.914 169.1 169.1 0 0 0 .931-11.719c.149-3.335.32-6.701.23-10.034-.07-2.608-.622-5.067-1.881-7.366-.377-.69-.797-1.355-1.234-2.007-.337-.504.46-.959.805-.471 1.656 2.36 2.801 4.945 3.153 7.82.384 3.15.128 6.413.025 9.574a169.61 169.61 0 0 1-.858 12.407 171.71 171.71 0 0 1-.754 6.072c-.254 1.79-.664 3.595-.754 5.405-.043.836-.018 1.725.345 2.493s.957 1.424 1.495 2.077c.43.523 1.111 1.183 1.164 1.896.053.742-.538 1.355-1.168 1.642-.73.334-1.558.339-2.346.353-.954.019-1.909 0-2.861-.071-1.94-.144-3.877-.487-5.711-1.15-.668-.239-1.358-.483-1.626-1.202-.306-.818-.124-1.881-.106-2.737.046-2.07.134-4.14.241-6.216l.69-12.461c.182-4.066.383-8.184-.077-12.239-.162-1.427-.616-2.864.086-4.216.511-.981 1.436-1.651 2.087-2.53.421-.569.72-1.22.879-1.91.098-.413.733-.238.637.176h.002z" class="B"/><path d="M28.32 110.122c.784-.028 1.643-.115 2.201-.704.202-.215.357-.513.316-.814a1.4 1.4 0 0 0-.272-.584c-.733-1.088-2.056-2.293-2.49-3.538-.575-1.642-.072-3.974.185-5.635l.575-4.007c-1.571-.248-3.166.021-4.761-.253-1.926-.33-3.925-.69-5.527-1.877-.279 4.82-.588 9.644-.63 14.43 0 .398.007.828.23 1.15.191.268.501.403.798.518 2.979 1.131 6.202 1.423 9.375 1.313z" class="D"/><path d="M22.856 65.901c-.267 1.135-.912 2.059-1.739 2.862-.72.7-1.639 1.332-2.077 2.264-.246.52-.268 1.083-.18 1.643l.39 2.846a53.92 53.92 0 0 1 .185 5.88c-.107 7.988-.882 15.949-1.048 23.935l-.023 1.465c0 .394-.091.968.201 1.287.268.292.829.404 1.194.526.469.158.944.296 1.424.415a23.9 23.9 0 0 0 5.651.656c.828 0 1.738.066 2.545-.148.397-.106.979-.369.96-.85-.015-.392-.451-.805-.69-1.097-.977-1.202-2.031-2.326-2.248-3.919-.214-1.574.108-3.164.354-4.716a141.2 141.2 0 0 0 .805-5.933c.469-3.968.796-7.948.982-11.94.155-3.329.48-6.81-.514-10.045-.793-2.581-2.394-4.798-3.932-6.982l-1.367-1.972c-.345-.503.46-.957.805-.472 1.717 2.425 3.646 4.817 4.844 7.559 1.324 3.027 1.38 6.174 1.265 9.43a169.99 169.99 0 0 1-.906 12.629 171.58 171.58 0 0 1-.775 6.071c-.259 1.779-.696 3.59-.69 5.395 0 .863.157 1.662.617 2.402.471.759 1.091 1.411 1.639 2.113.44.565.944 1.178.69 1.933-.246.718-.979 1.151-1.683 1.31-.84.196-1.747.163-2.602.157-.99-.003-1.979-.058-2.964-.165-1.84-.204-3.795-.552-5.491-1.343-.716-.336-.999-.935-1.027-1.703-.036-1.021.024-2.056.054-3.077l.279-6.335.68-12.572c.161-4.194.274-8.375-.369-12.535-.177-1.15.077-2.155.829-3.043.728-.858 1.7-1.47 2.415-2.341a4.32 4.32 0 0 0 .87-1.77c.099-.413.734-.238.637.176l.009.001z" class="B"/><g class="D"><path d="M18.135 54.328c-2.539 2.568-4.012 6.181-3.502 9.829.396 2.834 2.215 5.234 2.66 8.05.285 1.805.256 3.652.123 5.471-.104 1.404-.734 3.303-.291 4.68.852 2.652 6.461 3.286 8.709 3.458 1.38.107 5.11.713 5.948-1.012.423-.872-.301-1.649-.558-2.423-.309-.934-.154-1.965-.036-2.922.511-4.158.425-8.452-.398-12.566a27.94 27.94 0 0 0-1.13-4.087 22.32 22.32 0 0 0-.959-2.245"/><path d="M18.485 54.678c-1.7 1.743-2.908 3.933-3.32 6.346a9.71 9.71 0 0 0 .066 3.671c.272 1.252.793 2.428 1.294 3.602.47 1.103.938 2.217 1.178 3.397.266 1.313.325 2.676.302 4.012-.018 1.218-.129 2.433-.331 3.634-.167.982-.442 2.21.039 3.146.698 1.358 2.62 1.88 3.978 2.213 1.463.359 2.946.51 4.442.65 1.436.135 3.343.507 4.671-.23 1.086-.608.325-1.601 0-2.447-.446-1.17-.195-2.437-.06-3.639.682-6.055.247-12.674-2.47-18.218-.28-.569.575-1.071.852-.499 2.577 5.256 3.195 11.426 2.75 17.203-.055.714-.131 1.426-.219 2.137s-.202 1.495-.057 2.221c.23 1.141 1.236 2.07.559 3.275-.846 1.501-3.151 1.413-4.615 1.317a45.9 45.9 0 0 1-4.645-.508c-1.739-.302-3.656-.744-5.074-1.866-1.789-1.408-1.337-3.558-1.014-5.548.452-2.781.358-5.875-.642-8.524-.534-1.417-1.232-2.772-1.671-4.224a10.67 10.67 0 0 1-.394-4.255c.317-2.875 1.679-5.502 3.68-7.558.444-.46 1.143.243.698.699l.003-.006z"/></g><g class="B"><path d="M26.255 82.403c1.573.331 3.21.182 4.697-.429.584-.239.853.723.262.952a7.73 7.73 0 0 1-5.155.192c-.46-.145-.269-.812.197-.715zm4.31 25.617c-.733-1.088-2.056-2.293-2.49-3.538-.407-1.167-.271-2.684-.067-4.063a8.07 8.07 0 0 0-1.488-.127c-.427 0-.892.012-1.224.302-.776.676-.177 2.151-.769 3.013-.418.607-1.245.656-1.944.557-1.45-.207-2.852-.797-4.316-.812-.092-.005-.184.004-.273.027l-.084 3.756c0 .398.007.828.23 1.15.191.268.501.403.798.518 2.983 1.15 6.21 1.434 9.379 1.324.784-.028 1.643-.115 2.201-.704.202-.215.357-.513.316-.814a1.4 1.4 0 0 0-.271-.589z"/><path d="M30.139 108.269c-.811-1.17-1.955-2.151-2.482-3.5-.552-1.41-.338-3.024-.127-4.485l.345.608c-.575-.101-1.291-.199-1.872-.086-.561.115-.633.575-.66 1.068-.049.859-.023 1.799-.769 2.383s-1.766.46-2.638.29l-1.84-.438c-.613-.145-1.352-.366-1.969-.258l.361-.466-.062 2.321-.018 1.214c0 .295-.048.66.067.939.236.575 1.38.755 1.904.913a19.76 19.76 0 0 0 2.161.506c1.454.252 2.928.376 4.403.371.69 0 4.177.115 3.196-1.38-.351-.532.505-1.028.852-.499.442.672.45 1.391-.115 1.998-.529.562-1.299.748-2.04.819-1.881.177-3.85.046-5.718-.221a20.72 20.72 0 0 1-2.895-.618c-.745-.217-1.751-.423-2.32-.995-.59-.592-.484-1.52-.474-2.28l.076-3.094c.007-.2.147-.439.363-.477 1.183-.207 2.479.262 3.617.536.911.22 2.599.722 2.82-.629.138-.849-.086-1.84.597-2.516.789-.773 2.27-.52 3.242-.345.285.051.381.366.345.608-.193 1.332-.407 2.894.218 4.14.575 1.15 1.566 2.029 2.288 3.073.358.526-.499 1.021-.858.5z"/></g><path d="M19.376 96.001c2.407.877 4.965 1.265 7.523 1.142.327-.015.317.473 0 .501a15.51 15.51 0 0 1-7.659-1.323c-.179-.083-.052-.388.136-.321zm7.335 8.022c.503-.395 1.128-.569 1.748-.367.053.017.097.053.123.101a.22.22 0 0 1 .018.159c-.014.053-.05.098-.098.125s-.104.036-.158.022c-.237-.055-.483-.058-.722-.008a1.67 1.67 0 0 0-.658.297c-.19.139-.441-.182-.254-.329h.001zm.87 1.473a2.01 2.01 0 0 1 1.243-.52c.286-.012.278.415 0 .441a1.66 1.66 0 0 0-.938.384c-.209.176-.514-.115-.305-.305zm1.341.764l.722-.178c.248-.061.354.324.106.384l-.724.17c-.244.058-.345-.315-.104-.376zm3.2-71.103c2.155 3.973 1.853 6.872 2.277 11.27.174 1.808.345 3.621.709 5.399.298 1.472 1.078 3.084.92 4.621-.076.754-.677 1.326-1.29 1.717-1.782 1.137-3.933 1.393-6.007 1.431-3.712.066-7.515-.515-10.773-2.39-.68-.391-1.38-.899-1.61-1.683-.265-.896.162-1.84.469-2.717.79-2.259.968-4.945.937-7.334-.047-3.68.666-8.644 3.843-11.02.2-.15.418-.297.53-.52.251-.498-.123-1.101-.012-1.647.091-.448.513-.78.961-.873s.92.011 1.345.177" class="C"/><g class="B"><path d="M32.45 34.96c1.159 2.092 1.784 4.306 2.054 6.67l.749 7.906a27.41 27.41 0 0 0 .891 4.054c.32 1.087.727 2.467.258 3.565-.46 1.082-1.627 1.725-2.662 2.151-1.15.48-2.394.699-3.637.805a24.91 24.91 0 0 1-7.859-.582 18.15 18.15 0 0 1-3.698-1.329c-1.017-.498-2.185-1.109-2.658-2.202-.547-1.265.101-2.51.482-3.715a17.58 17.58 0 0 0 .724-4.004l.345-6.732c.345-2.3 1.097-4.651 2.645-6.44a8.8 8.8 0 0 1 1.233-1.135c.345-.276.353-.415.29-.859-.053-.27-.067-.547-.043-.821.209-1.462 1.873-1.617 2.999-1.192.611.23.361 1.21-.275.994-.46-.156-1.302-.381-1.586.198-.202.415.129 1.027.054 1.487-.145.901-1.204 1.38-1.772 2.014-1.265 1.408-1.902 3.28-2.265 5.102-.382 1.918-.345 3.825-.378 5.767-.017 1.203-.114 2.404-.291 3.595-.185 1.205-.537 2.326-.92 3.478-.182.542-.377 1.157-.16 1.718.204.524.69.868 1.15 1.15a14.91 14.91 0 0 0 3.195 1.431c2.268.729 4.648.995 7.023.989 1.189 0 2.387-.055 3.552-.314 1.088-.241 2.333-.65 3.137-1.463.876-.886.387-2.331.087-3.376a26.2 26.2 0 0 1-.785-3.511c-.381-2.637-.542-5.297-.718-7.953-.166-2.49-.666-4.83-1.817-7.058-.223-.432.419-.814.657-.384v-.001zm-8.151 28.988c.434 1.035.911 2.645-.41 3.297-.273.133-.704.123-.92.345-.19.194-.2.575-.216.83-.03.618-.023 1.238.02 1.856l.33 5.188.064 5.467c-.004.061-.032.118-.076.16a.24.24 0 0 1-.165.065c-.061 0-.12-.023-.165-.065a.24.24 0 0 1-.076-.16c-.136-1.776-.076-3.575-.128-5.356l-.317-5.089-.037-1.784c.009-.437.016-.996.285-1.366.359-.495 1.057-.338 1.459-.756.658-.682.28-1.778-.011-2.53-.088-.23.273-.321.365-.101l-.001-.002zm36.383 42.559a5.12 5.12 0 0 0 1.812-1.425 5.11 5.11 0 0 0 1.002-2.076l.404.23-2.476 1.973a.28.28 0 0 1-.163.077.28.28 0 0 1-.177-.036c-.053-.031-.095-.079-.119-.136s-.029-.12-.014-.18c.17-.876.547-1.894.489-2.791-.038-.596-.517-.909-1.035-.515-.423.325-.509.92-.604 1.409-.067.345-.567.24-.584-.079-.075-1.525-.467-3.018-1.15-4.383-.17-.334-.386-.777-.831-.567-.354.168-.493.69-.591 1.035a5.83 5.83 0 0 0-.144 2.464c.046.303-.4.575-.548.23-.473-1.082-1.766-2.148-3.005-1.587-.905.41-1.356 1.777-.598 2.517.23.22-.009.568-.294.506-.535-.115-1.136-.26-1.674-.08-.517.174-.93.775-.569 1.278.224.314-.293.612-.516.302-.438-.606-.186-1.426.367-1.872.719-.581 1.725-.391 2.554-.213l-.295.508c-1.003-.98-.558-2.718.583-3.396 1.51-.901 3.35.314 3.968 1.735l-.548.23c-.159-1.06-.106-2.157.269-3.171.242-.653.846-1.442 1.636-1.097.756.33 1.088 1.532 1.337 2.237a11.84 11.84 0 0 1 .642 3.321l-.584-.078c.125-.638.289-1.34.844-1.744.447-.327 1.079-.405 1.521-.028s.46.963.404 1.482c-.094.836-.324 1.675-.504 2.496l-.416-.321 2.53-1.908c.177-.134.399.089.353.273a5.59 5.59 0 0 1-3.081 3.711c-.23.106-.427-.23-.198-.338l.007.007zm-4.26-.276c-.026-.69-1.018-1.016-1.475-.526-.205.219-.528-.107-.329-.329.729-.805 2.222-.213 2.246.855.006.286-.431.284-.442 0z"/><path d="M65.22 90.505c-2.875 3.474-4.565 7.569-5.426 11.96-.064.33-.542.183-.496-.137.64-4.443 2.801-8.673 5.676-12.071.144-.17.384.075.244.244l.001.005z"/><path d="M60.72 96.839a5.99 5.99 0 0 0-.212-1.075 4.47 4.47 0 0 0-.294-.606c-.09-.171-.115-.434-.109-.081a7.41 7.41 0 0 0 .155 1.341c.062.294.129.894.338 1.113l-.237-.062.04-.014c.23-.073.378.23.23.389l-.03.032c-.038.038-.088.062-.142.069s-.107-.004-.154-.031c-.436-.297-.513-1.282-.588-1.764-.064-.416-.301-1.299.017-1.65.345-.381.724.147.89.417.332.542.555 1.232.48 1.869-.024.197-.345.292-.385.053zm1.416-2.134c.444-.313 2.175-1.057 2.317-.028.056.406-.332.654-.684.714-.266.041-.538.026-.799-.042a1.93 1.93 0 0 1-.715-.359c-.17-.147.01-.444.219-.376.263.086.508.212.784.258.155.034.316.037.473.008.144-.054.214-.148.066-.223-.177-.09-.582.06-.758.115-.261.072-.507.178-.76.273-.208.078-.301-.23-.143-.336v-.003zm1.124-2.352a2.5 2.5 0 0 0 .018-.965c-.033-.171-.147-.711-.352-.69s-.149.564-.115.731a1.84 1.84 0 0 0 .322.726c.182.261-.237.493-.421.246a2.07 2.07 0 0 1-.401-1.4c.025-.315.115-.862.515-.896.42-.036.629.471.735.793a2.71 2.71 0 0 1 .045 1.551c-.061.222-.383.127-.345-.094l-.001-.003z"/></g><path d="M21.168 46.331c3.704 6.313 11.298 9.703 18.616 9.632 8.139-.074 16.145-4.134 21.02-10.654 1.003-1.341 1.899-2.804 3.135-3.95 1.073-.995 2.696-1.135 3.674-2.056.744-.7.362-1.929-.067-2.855.566.367 1.352-.301 1.317-.975s-.587-1.205-1.16-1.559c.75-.115 1.129-1.063.914-1.791s-.833-1.259-1.448-1.703c.647.055 1.068-.798.832-1.403s-.864-.957-1.472-1.187c-3.335-1.255-7.04-.17-10.604-.044-.191.007-.406 0-.539-.134-.099-.126-.147-.284-.136-.444-.013-.766.115-1.808-.613-2.037-.403-.125-.822.13-1.14.409-1.275 1.12-1.955 2.749-2.604 4.319-1.08 2.631-2.002 4.776-3.773 7.03-2.087 2.659-4.269 5.239-6.546 7.741-.167.183-.345.374-.587.437-.262.07-.537-.03-.791-.129A84.28 84.28 0 0 1 24.52 37.49" class="C"/><g class="B"><path d="M21.505 46.133c3.786 6.227 11.248 9.445 18.369 9.337 7.568-.115 14.965-3.711 19.78-9.538 1.423-1.725 2.505-3.974 4.353-5.29.819-.584 1.813-.818 2.681-1.311.46-.264.819-.555.816-1.123 0-.511-.209-1.028-.417-1.486s.23-.968.719-.719c.392.198.562-.46.486-.707-.123-.409-.521-.7-.861-.92-.361-.23-.335-.856.127-.963.5-.115.673-.684.546-1.143-.166-.597-.73-1.035-1.206-1.388-.404-.296-.293-.976.267-.983.358 0 .423-.494.308-.755-.168-.384-.636-.611-1.001-.762-.936-.389-1.969-.553-2.976-.6-2.079-.098-4.14.27-6.21.453-.698.061-1.868.355-2.367-.309-.45-.599.017-1.41-.285-2.041-.362-.756-1.678 1.074-1.886 1.396-.498.781-.882 1.641-1.227 2.506-.704 1.704-1.395 3.418-2.315 5.02-.981 1.709-2.251 3.22-3.495 4.745a139.18 139.18 0 0 1-4.162 4.852c-.617.69-1.166 1.465-2.197 1.199-.943-.243-1.876-.735-2.77-1.117-4.273-1.827-8.433-3.989-12.305-6.555-.534-.354-.048-1.209.506-.867 3.758 2.315 7.621 4.432 11.666 6.21 1.006.44 2.04.96 3.093 1.275.546.163 1.001-.613 1.327-.977l1.242-1.403c1.498-1.716 2.955-3.468 4.37-5.256a23.84 23.84 0 0 0 3.052-5.117c.797-1.786 1.38-3.747 2.523-5.354.504-.707 1.203-1.61 2.105-1.79.761-.154 1.38.368 1.55 1.08a4.48 4.48 0 0 1 .084 1.067c0 .087-.058.39 0 .45.091.099.621 0 .775-.009 1.096-.069 2.185-.208 3.279-.326 2.339-.251 4.83-.414 7.051.51.792.33 1.657.941 1.708 1.883.045.849-.543 1.65-1.423 1.661l.266-.983c.813.596 1.688 1.359 1.762 2.439.062.894-.45 1.809-1.355 2.018l.108-.973c.796.514 1.655 1.396 1.371 2.439-.245.896-1.214 1.432-2.058 1.004l.719-.719c.36.795.723 1.725.493 2.612s-1.082 1.38-1.867 1.725c-.943.422-1.864.741-2.608 1.488-.805.805-1.454 1.741-2.112 2.663-2.369 3.318-5.32 6.101-8.868 8.132-6.862 3.926-15.36 4.867-22.725 1.787-3.91-1.636-7.343-4.37-9.483-8.068-.254-.437.414-.826.676-.396l.002.001zm6.636-24.135c-.137.497-.097 1.025.115 1.495.289.635.873 1.62 1.634 1.665a11.68 11.68 0 0 0 3.484-.307 2.79 2.79 0 0 0 1.08-.477c.309-.248.531-.634.497-1.035-.054-.611-.69-.767-1.196-.851-.086-.014-.321 0-.386-.055-.145-.115-.062-.067.021-.246.182-.393.329-.726.339-1.173a1.91 1.91 0 0 0-.183-.912c-.202-.397-.891-1.086-2.394-1.343"/><path d="M28.572 22.118c-.159.724.131 1.38.558 1.955.485.656 1.023.622 1.789.592.782-.023 1.559-.134 2.316-.33.381-.102.897-.24 1.099-.619.178-.334.066-.504-.26-.621-.393-.141-.912-.023-1.183-.41-.324-.46.216-.979.307-1.447.254-1.327-1.133-1.815-2.169-2.034-.588-.125-.33-.986.245-.89.938.155 1.955.523 2.549 1.312.606.805.524 2.171-.081 2.969l.053-.4c-.051-.345-.402-.223-.04-.23.135.007.269.03.399.068a2.29 2.29 0 0 1 .633.23 1.33 1.33 0 0 1 .69 1.244c-.069 1.502-1.859 1.886-3.039 2.052-1.15.161-2.76.419-3.673-.46-.851-.818-1.336-2.06-1.058-3.22.134-.562.987-.323.862.238l.002.001z"/></g><path d="M29.818 22.255c1.24 1.183 1.532 3.481 1.658 5.1.035.438.047.888-.085 1.308-.324 1.025-1.299 1.405-2.264 1.551-.46.07-.59.376-.562.819l.1 1.627c.048.773.047 1.667-.543 2.168-.366.31-.882.385-1.361.345a2.52 2.52 0 0 1-.92-.259c-1.013-.528-1.597-1.889-1.696-2.973-.128-1.55-.158-3.106-.09-4.66l.134-2.807c.018-.69.198-1.233.716-1.725.439-.415.96-.733 1.531-.932a4.29 4.29 0 0 1 1.778-.225" class="C"/><g class="B"><path d="M30.105 21.965c.769.752 1.188 1.766 1.446 2.796.263 1.049.485 2.262.415 3.347-.071 1.136-.762 1.965-1.812 2.356-.242.086-.491.153-.744.2-.31.063-.345.059-.345.367 0 .711.129 1.42.132 2.131 0 1.183-.475 2.293-1.751 2.505-1.183.195-2.293-.345-2.979-1.296-.713-.989-.878-2.141-.953-3.326-.088-1.545-.088-3.093 0-4.638.069-1.339-.115-2.892.852-3.958.954-1.046 2.451-1.549 3.842-1.433.712.06.729 1.162 0 1.124-1.049-.056-2.132.259-2.898 1.006s-.575 2.049-.636 3.045l-.086 3.634c.017 1.065-.02 2.223.39 3.227.368.903 1.094 1.662 2.145 1.588 1.319-.091 1.046-1.667.995-2.594-.044-.77-.278-1.856.616-2.232.833-.345 1.832-.24 2.193-1.28.176-.505.087-1.089.045-1.61l-.193-1.525c-.192-1.028-.504-2.091-1.251-2.857-.367-.376.2-.943.575-.575l.003-.001z"/><path d="M26.68 29.473a10.98 10.98 0 0 0 2.778.171c.546-.029.69.887.131.971a5.53 5.53 0 0 1-3.2-.451c-.412-.184-.105-.772.291-.69v-.001zm5.026-8.847c-.493 1.38-1.253 2.768-2.56 3.42a.95.95 0 0 1-.468.127.7.7 0 0 1-.585-.515 1.43 1.43 0 0 1 .041-.817c-.23.23-.474.46-.789.523s-.7-.153-.69-.473c-.308.079-.42.453-.473.768a23.49 23.49 0 0 0-.281 2.554 2.42 2.42 0 0 0-.128-1.074c-.128-.359-.429-.73-.805-.68a.69.69 0 0 0-.515.46 2.2 2.2 0 0 0-.115.711l-.181 1.911c-.02.142-.075.316-.216.33-.061.002-.121-.017-.17-.053-.301-.185-.48-.512-.638-.828-.549-1.089-1.14-2.031-1.426-3.25-.091-.39-.158-.805-.026-1.187a.96.96 0 0 1 .897-.634c-.025-1.271 1.826-1.981 2.792-2.372a12.55 12.55 0 0 1 4.276-.868c1.137-.039 2.368.085 3.229.83"/><path d="M32.074 20.727c-.434 1.294-1.051 2.581-2.165 3.421-.493.373-1.116.726-1.725.401-.69-.366-.727-1.181-.562-1.85l.887.516c-.376.372-.813.729-1.374.69-.489-.037-.93-.369-1.011-.866l.805.328c-.317.135-.299.92-.338 1.216l-.154 1.634H25.36c.025-.275.07-.69-.082-.939-.328-.531-.401.015-.419.354-.033.676-.029 1.394-.171 2.059-.1.473-.474.833-.978.684-.55-.161-.844-.728-1.084-1.203-.701-1.38-3.029-5.443-.048-5.756l-.506.506c.07-1.861 2.563-2.726 4.045-3.191a13.14 13.14 0 0 1 3.898-.588c1.171 0 2.318.23 3.234.998.519.435-.22 1.139-.735.735-.757-.596-1.751-.69-2.681-.675a12.29 12.29 0 0 0-3.232.475 12.68 12.68 0 0 0-2.197.836c-.553.283-1.299.703-1.313 1.406 0 .3-.23.473-.507.507-.991.123-.115 2.047.115 2.545l.622 1.216c.168.32.39 1.041.771 1.15l-.422.056c.014-.008.076-.874.091-1.023l.094-1.107c.064-.508.284-1.009.784-1.221 1.279-.543 1.84 1.244 1.8 2.169-.03.69-1.102.69-1.075 0 .036-.798.116-1.593.242-2.382.082-.55.203-1.173.773-1.415.279-.115.752-.063.805.328.036.266.505-.208.575-.28.084-.079.191-.13.306-.143s.231.011.33.069a.54.54 0 0 1 .25.589c-.063.247-.165.643.216.644.137 0 .367-.186.486-.266a3.97 3.97 0 0 0 .857-.791c.497-.603.848-1.322 1.135-2.044.177-.444.892-.271.734.202l.001.005zm-2.215 5.282l.216.667a3.14 3.14 0 0 1 .177.63c.028.378-.481.404-.746.398a.23.23 0 1 1 0-.46c.092 0 .284.014.356-.048l-.068.164c-.012-.203-.108-.424-.159-.621l-.147-.631a.19.19 0 0 1 .022-.142c.026-.042.066-.074.114-.087s.099-.007.143.017.076.064.091.111v.002z"/><path d="M29.071 25.307c-.128-.019-.257-.03-.386-.033-.13.009-.261.005-.39-.013-.23-.049-.181-.345 0-.421.278-.115.66.014.911.147.19.101.047.345-.135.32zm1.163-.375c.144-.11.298-.206.46-.287.057-.032.124-.04.187-.024s.117.057.151.112a.25.25 0 0 1-.089.338 3.14 3.14 0 0 1-.547.24c-.048.014-.099.009-.144-.012s-.081-.058-.101-.103-.02-.098-.005-.145.047-.088.09-.114l-.002-.006zm.878.996c.008.049.006.1-.007.148s-.035.094-.067.133a.37.37 0 0 1-.115.094c-.044.023-.093.036-.143.038s-.1-.006-.146-.024-.089-.046-.124-.082a.35.35 0 0 1-.079-.125c-.017-.047-.024-.097-.021-.147-.005-.101.03-.201.097-.276a.38.38 0 0 1 .264-.127.37.37 0 0 1 .271.105c.041.041.071.092.087.147a.3.3 0 0 1-.022.237.23.23 0 0 1-.206.115c-.041 0-.082-.011-.118-.031s-.066-.049-.088-.084c-.017-.028-.029-.058-.037-.09-.008-.024 0-.014.013.029-.013-.021-.006-.011.021.027-.017-.017-.008-.01.028.019-.021-.013-.01-.008.033.012-.036-.01.074 0 .017 0 .048-.009.061-.01.036 0 .043-.02.053-.024.031-.012l.023-.018c-.018.016-.011.012.017-.023-.02.03.02-.068.007-.014s.007-.072 0-.015c0 .038-.016-.069 0-.014s-.024-.043-.006-.011-.048-.045-.008-.012l-.026-.021c-.043-.016-.053-.021-.03-.014h-.033c-.043.008-.053.009-.029 0a.13.13 0 0 0-.058.033c.016-.016.013-.01-.01.017a.21.21 0 0 0 .012-.021c-.013.032-.016.038-.008.016v-.025.018a.21.21 0 0 1 .42 0l.004-.002z"/><path d="M29.053 26.01a.37.37 0 0 1-.082.284c-.032.039-.072.071-.118.095s-.095.037-.146.04a.38.38 0 0 1-.254-.12c-.066-.071-.102-.166-.1-.263-.005-.102.03-.201.098-.277s.163-.122.264-.128a.37.37 0 0 1 .27.106.36.36 0 0 1 .088.147.3.3 0 0 1-.022.237.23.23 0 0 1-.206.115c-.041 0-.082-.011-.118-.031s-.066-.049-.088-.084c-.017-.028-.029-.058-.037-.09-.008-.024 0-.015.013.029-.014-.021 0-.013.021.025-.017-.016-.008-.01.028.02-.021-.011-.01-.007.033.013-.036-.01.074 0 .017 0 .048-.008.061-.009.036 0 .043-.02.052-.023.031-.012.033-.029.041-.035.023-.017s-.012.01.017-.023c-.02.03.02-.068.007-.014s.007-.074 0-.015c0 .038-.016-.069 0-.014s-.024-.043 0-.012-.048-.045-.008-.011l-.026-.021c-.042-.016-.053-.021-.031-.014-.046 0-.056-.006-.032-.006-.043.007-.053.008-.029 0-.022.006-.042.018-.057.035.016-.016.013-.01-.01.017a.13.13 0 0 0 .011-.022c-.013.033-.016.038-.008.016s0-.016 0-.025v.018a.21.21 0 0 1 .42 0l-.007.001zm-.195 2.324a1.18 1.18 0 0 1-.881-.358c-.158-.178.045-.484.266-.345a2.06 2.06 0 0 0 .668.311c.222.047.17.396-.053.392zm1.244 31.143a19.98 19.98 0 0 1 1.293 3.211c.42 1.342.598 2.869-.105 4.14-.168.304-.63.033-.466-.273.727-1.344.486-2.767.02-4.154-.301-.933-.657-1.847-1.066-2.738-.102-.217.215-.409.327-.191l-.002.005z"/><path d="M29.202 61.016a32.2 32.2 0 0 1 2.715 10.31c.168 1.811.189 3.632.063 5.446-.131 1.873-.646 3.819.134 5.612.316.725.665 1.46.503 2.272-.133.667-.575 1.25-1.257 1.406-.627.144-.893-.82-.266-.964.973-.23.44-1.556.193-2.123-.4-.92-.623-1.809-.607-2.821.016-1.061.206-2.116.291-3.174a35.58 35.58 0 0 0 .102-3.248 36.17 36.17 0 0 0-2.5-12.452c-.14-.36.468-.62.628-.266zm-14.748 3.767c.519.05 1.602.064 1.887.587.14.257.134.607.223.887a7.42 7.42 0 0 0 .587 1.286c.334.617.88 1.365.797 2.107a.98.98 0 0 1-.297.642.99.99 0 0 1-.651.278c-.33.015-.316-.469 0-.504 1.126-.123-.529-2.665-.735-3.145-.157-.37-.189-.805-.345-1.159-.183-.419-1.114-.443-1.519-.585-.194-.069-.183-.409.053-.387l.001-.005zm-2.221 41.16a2.04 2.04 0 0 0 .51-.731c.114-.279.165-.579.149-.879-.028-.441-.271-.92-.788-.7-.294.125-.446.424-.595.69a.3.3 0 0 1-.552-.15c.064-1.451.186-3.068-.597-4.37-.085-.14-.23-.428-.447-.312-.105.055-.152.46-.182.589-.107.444-.177.895-.208 1.35-.058.864.011 1.731.205 2.574a.29.29 0 0 1-.315.354c-.062-.007-.12-.033-.165-.076-.354-.292-.994-.778-1.359-.264-.173.24-.158.486-.422.666-.285.192-.61.24-.864.503a1.76 1.76 0 0 0-.467 1.241c0 .354-.52.345-.545 0a2.1 2.1 0 0 1 .452-1.473c.363-.46.968-.597 1.248-1.092.582-1.035 1.619-.598 2.363.013l-.48.28a9.36 9.36 0 0 1-.158-3.377c.079-.575.2-2.148 1.13-1.955.781.168 1.15 1.495 1.294 2.161.221 1.043.183 2.13.108 3.187l-.552-.15c.293-.406.607-.857 1.125-.981a.94.94 0 0 1 1.035.406c.553.894.085 2.147-.629 2.79-.202.182-.498-.115-.3-.3l.005.006zm-8.161-1.075c-.088-.053-.187-.084-.289-.091a.65.65 0 0 0-.299.049c-.094.04-.178.102-.243.18a.65.65 0 0 0-.135.271c-.063.3-.528.174-.46-.127.156-.709 1.052-1.078 1.661-.68.247.162.018.559-.23.398h-.005zm29.772-62.524c-3.259 2.629-3.314 7.052-3.381 10.877-.013.682-1.065.684-1.061 0 .016-4.099.399-8.827 4.012-11.434.324-.23.745.304.43.558zm62.21 1.896c-3.172-2.095-6.388-4.13-9.645-6.105l-4.912-2.913c-1.636-.944-3.402-1.766-4.945-2.849-.357-.248-.147-.954.321-.762 1.712.706 3.315 1.757 4.914 2.686l4.995 2.99a179.78 179.78 0 0 1 9.606 6.389c.338.239.025.798-.329.564h-.005zm-20.007-6.031c-2.89 2.76-5.821 5.558-8.979 8.017-.429.335-1.045-.24-.614-.614 3.036-2.635 6.143-5.167 9.085-7.916.345-.319.851.189.513.513h-.005z"/></g><g class="C"><path d="M81.795 12.034c-1.525 2.864-5.205-.505-2.977-2.811 1.645-1.7 3.903 1.072 2.977 2.811z"/><path d="M82.137 12.234c-.487.894-1.306 1.528-2.367 1.322-.948-.184-1.711-.964-2.023-1.857-.366-1.049-.022-2.22.788-2.967.882-.815 2.084-.729 2.962.038.996.868 1.404 2.359.794 3.555-.339.665-1.302.082-.993-.575.36-.773-.058-1.793-.722-2.266-.823-.584-1.705.187-1.894 1.035-.163.734.212 1.495.828 1.904.757.499 1.513.152 1.942-.585.258-.445.927-.052.684.396zm9.279 11.777c-.94.739-2.236-.102-1.827-1.265a.23.23 0 0 1 .311-.133.23.23 0 0 1 .096.08c.606.857-.194 1.94-1.117 2.07-.805.115-1.343-.327-2.034-.601-.558-.221-.805.084-1.265.298a3.31 3.31 0 0 1-.948.262c-.729.1-1.465.012-2.194-.048l-2.708-.143a50.55 50.55 0 0 0-5.644.22c-.32.029-.313-.46 0-.497 3.06-.333 6.087-.22 9.148 0 .661.049 1.363.076 1.994-.16.437-.163.822-.616 1.321-.559.264.03.478.197.704.324.381.217.79.415 1.234.444.696.044 1.653-.62 1.124-1.388l.407-.053c-.279.771.514 1.325 1.158.84.178-.133.416.172.24.312v-.002zm-19.897.431h-.889c-.057 0-.112-.023-.152-.063s-.063-.095-.063-.152.023-.112.063-.152.095-.063.152-.063h.889c.057 0 .112.023.152.063s.063.095.063.152-.023.112-.063.152-.095.063-.152.063zm14.055 3.733a25.11 25.11 0 0 1-5.495.273c-.289-.018-.291-.47 0-.452 1.8.126 3.608.064 5.395-.185.237-.035.345.327.1.365zm-8.163.377c-.054-.004-.104-.028-.14-.067s-.057-.091-.057-.145.02-.105.057-.145.087-.063.14-.067c.054.004.104.028.14.067s.057.091.057.145-.02.105-.057.145-.087.063-.14.067zm19.703 18.813c.169 3.987 3.227 7.802 7.346 7.802 6.573 0 9.952-7.787 5.929-12.824-2.284-2.86-7.22-4.226-10.277-1.704-.943.79-1.702 1.778-2.221 2.894a8.4 8.4 0 0 0-.784 3.563 4.83 4.83 0 0 0 .007.269z"/></g><g class="B"><path d="M97.607 47.365c.161 3.097 2.152 6.236 5.246 7.091 2.669.736 5.61-.392 7.245-2.581.756-1.014 1.249-2.199 1.435-3.449a7.68 7.68 0 0 0-.365-3.718c-1.035-2.827-3.872-4.763-6.858-4.892-1.84-.081-3.46.611-4.695 1.978-1.364 1.528-2.085 3.524-2.013 5.571.022.636-.966.635-.988 0-.128-3.72 2.31-7.836 6.197-8.448 3.371-.53 6.977 1.233 8.681 4.173 1.516 2.616 1.462 5.934-.051 8.539-1.543 2.658-4.548 4.306-7.636 4-4.14-.411-6.984-4.287-7.19-8.264-.029-.636.96-.634.992 0zm8.263-2.49c-.628-.575-1.357-1.194-2.16-1.508l.645-.645c.174 1.224.222 2.473.331 3.704l.345 3.784c.022.63-1.024.799-1.126.152-.189-1.223-.23-2.479-.33-3.713l-.249-3.787c0-.361.46-.703.79-.453.805.614 1.625 1.15 2.345 1.877.379.383-.196.951-.59.59h-.001z"/><path d="M106.052 50.741c-1.119-.23-2.193.642-3.284.32a.54.54 0 0 1-.278-.197c-.069-.094-.107-.207-.107-.324s.038-.23.107-.324a.54.54 0 0 1 .278-.197c.606-.179 1.303-.245 1.93-.345s1.159-.083 1.735.161c.542.23.134 1.007-.381.903v.004z"/></g></svg>