<svg xmlns="http://www.w3.org/2000/svg" width="24" height="24" fill="none" xmlns:v="https://vecta.io/nano"><path d="M11.905 3.553c-3.934 0-7.868 1.499-10.865 4.496a.75.75 0 0 0-.231.533.75.75 0 0 0 .22.538.75.75 0 0 0 .538.22.75.75 0 0 0 .533-.231 13.86 13.86 0 0 1 19.61 0 .75.75 0 0 0 .533.231.75.75 0 0 0 .538-.22.75.75 0 0 0 .164-.247c.038-.092.057-.191.056-.291a.75.75 0 0 0-.23-.533 15.32 15.32 0 0 0-10.866-4.496zm0 4.46a10.87 10.87 0 0 0-7.712 3.189.75.75 0 0 0-.231.534.75.75 0 0 0 .22.538.75.75 0 0 0 .247.164c.092.038.191.057.291.056a.75.75 0 0 0 .533-.23 9.4 9.4 0 0 1 13.304 0 .75.75 0 0 0 .534.23c.1.001.199-.018.291-.056a.75.75 0 0 0 .411-.411.75.75 0 0 0-.006-.581.75.75 0 0 0-.169-.244c-2.127-2.127-4.92-3.189-7.713-3.189zm0 4.459c-1.652 0-3.304.628-4.56 1.884a.75.75 0 0 0 0 1.061.75.75 0 0 0 1.061 0c1.938-1.938 5.059-1.938 6.997 0a.75.75 0 0 0 .533.231.75.75 0 0 0 .538-.22.75.75 0 0 0 .22-.538.75.75 0 0 0-.23-.533 6.43 6.43 0 0 0-4.56-1.884zM12 17a2 2 0 0 0-2 2 2 2 0 0 0 2 2 2 2 0 0 0 2-2 2 2 0 0 0-2-2z" fill="#292d32"/></svg>