<svg width="100" height="100" viewBox="0 0 100 100" fill="none" xmlns="http://www.w3.org/2000/svg">
<rect width="100" height="100" rx="24" fill="#2969FF"/>
<path d="M81.8657 45.6603H84.4028V49.6612C84.4028 52.2471 82.7439 53.7597 80.1824 53.7597H74.2542C74.1566 53.7597 74.0103 53.6865 74.0103 52.4911C74.0103 51.2713 74.1566 51.1249 74.2542 51.1249H80.1824C81.1826 51.1249 81.8657 50.5882 81.8657 49.588V45.6603ZM81.1582 56.614V58.9804H74.4982V56.614H81.1582ZM76.5962 62.5422V60.2733H79.0358V62.5422H76.5962Z" fill="white"/>
<path d="M74.2592 51.125C74.3568 51.125 74.5032 51.2469 74.5032 52.4911C74.5032 53.6621 74.3568 53.7597 74.2592 53.7597H72.088C71.7708 57.4679 69.4044 59.6635 65.7939 59.6635H62.6468L62.4272 57.0287H65.867C68.1846 57.0287 69.5996 55.7602 69.624 53.7597H67.526C64.0374 53.7597 62.6956 52.3448 62.6956 49.3685C62.6956 46.2214 64.6229 44.0746 67.4772 44.0746C70.3559 44.0746 72.1368 46.1238 72.1368 49.4904V51.125H74.2592ZM65.2328 49.2465C65.2328 50.5883 65.8183 51.125 67.6479 51.125H69.624V49.5392C69.624 47.5876 68.7945 46.6117 67.3552 46.6117C65.989 46.6117 65.2328 47.6852 65.2328 49.2465Z" fill="white"/>
<path d="M54.571 51.1249C55.5712 51.1249 56.2543 50.5638 56.2543 49.588V38H58.7915V49.6612C58.7915 52.2471 57.1325 53.7597 54.571 53.7597H53.7659C53.6683 53.7597 53.522 53.6865 53.522 52.4911C53.522 51.2713 53.6683 51.1249 53.7659 51.1249H54.571Z" fill="white"/>
<path d="M53.7552 51.1249C53.8528 51.1249 53.9992 51.2469 53.9992 52.4667C53.9992 53.6621 53.8528 53.7597 53.7552 53.7597H52.8282C51.4376 53.7597 50.4374 53.3449 49.9495 52.4423C49.364 53.3449 48.3393 53.7597 46.9732 53.7597H44.0457C43.9481 53.7597 43.8017 53.6865 43.8017 52.4911C43.8017 51.2713 43.9481 51.1249 44.0457 51.1249H46.9732C47.9978 51.1249 48.7053 50.5638 48.7053 49.588V45.6603H51.2424V49.4904C51.2424 50.5882 51.8035 51.1249 52.9257 51.1249H53.7552ZM49.12 56.614V58.9804H42.46V56.614H49.12Z" fill="white"/>
<path d="M41.3759 42.8792H38.4728V40.464H41.3759V42.8792ZM37.253 51.1249C38.2776 51.1249 38.9851 50.5638 38.9851 49.588V45.6603H41.5223V49.4904C41.5223 50.5882 42.0834 51.1249 43.2056 51.1249H44.035C44.1326 51.1249 44.279 51.2469 44.279 52.4667C44.279 53.6621 44.1326 53.7597 44.035 53.7597H43.108C41.7174 53.7597 40.7172 53.345 40.2293 52.4423C39.6438 53.345 38.6192 53.7597 37.253 53.7597H34.3255C34.2279 53.7597 34.0815 53.6865 34.0815 52.4911C34.0815 51.2713 34.2279 51.1249 34.3255 51.1249H37.253Z" fill="white"/>
<path d="M34.33 51.125C34.4276 51.125 34.574 51.2469 34.574 52.4911C34.574 53.6621 34.4276 53.7597 34.33 53.7597H32.1588C31.8416 57.4679 29.4752 59.6635 25.8647 59.6635H22.7176L22.498 57.0287H25.9378C28.2554 57.0287 29.6704 55.7602 29.6948 53.7597H27.5968C24.1082 53.7597 22.7664 52.3448 22.7664 49.3685C22.7664 46.2214 24.6937 44.0746 27.548 44.0746C30.4267 44.0746 32.2076 46.1238 32.2076 49.4904V51.125H34.33ZM25.3036 49.2465C25.3036 50.5883 25.8891 51.125 27.7187 51.125H29.6948V49.5392C29.6948 47.5876 28.8653 46.6117 27.426 46.6117C26.0598 46.6117 25.3036 47.6852 25.3036 49.2465Z" fill="white"/>
<path d="M17.5369 53.7597C16.5123 53.7597 16 53.2961 16 52.1007C16 50.9053 16.5123 50.515 17.5369 50.515C18.5616 50.515 19.0983 50.9053 19.0983 52.1007C19.0983 53.2961 18.5616 53.7597 17.5369 53.7597Z" fill="white"/>
</svg>
