<svg width="32" height="32" viewBox="0 0 32 32" fill="none" xmlns="http://www.w3.org/2000/svg">
<path d="M25.8935 15.6666H21.3335C20.7868 15.6666 20.3335 15.2133 20.3335 14.6666V5.34662C20.3335 4.35996 20.7202 3.43996 21.4135 2.74663C22.1068 2.05329 23.0268 1.66663 24.0135 1.66663H24.0268C25.6935 1.67996 27.2668 2.33329 28.4668 3.51996C29.6668 4.73329 30.3202 6.33329 30.3202 7.99996V11.2266C30.3335 13.88 28.5468 15.6666 25.8935 15.6666ZM22.3335 13.6666H25.8935C27.4402 13.6666 28.3335 12.7733 28.3335 11.2266V7.99996C28.3335 6.85329 27.8802 5.75996 27.0668 4.93329C26.2535 4.13329 25.1602 3.67996 24.0268 3.66663C24.0268 3.66663 24.0268 3.66663 24.0135 3.66663C23.5735 3.66663 23.1468 3.83996 22.8268 4.15996C22.5068 4.47996 22.3335 4.89329 22.3335 5.34662V13.6666Z" fill="#292D32"/>
<path d="M11.9998 31.1066C11.3732 31.1066 10.7865 30.8666 10.3465 30.4133L8.13317 28.1866C8.01317 28.0666 7.8265 28.0533 7.69317 28.16L5.39984 29.8666C4.69317 30.4 3.75984 30.4933 2.95984 30.0933C2.15984 29.6933 1.6665 28.8933 1.6665 28V7.99996C1.6665 3.97329 3.97317 1.66663 7.99984 1.66663H23.9998C24.5465 1.66663 24.9998 2.11996 24.9998 2.66663C24.9998 3.21329 24.5465 3.66663 23.9998 3.66663C23.0798 3.66663 22.3332 4.41329 22.3332 5.33329V28C22.3332 28.8933 21.8398 29.6933 21.0398 30.0933C20.2398 30.4933 19.3065 30.4133 18.5998 29.88L16.3198 28.1733C16.1865 28.0666 15.9998 28.0933 15.8932 28.2L13.6532 30.44C13.2132 30.8666 12.6265 31.1066 11.9998 31.1066ZM7.87984 26.0933C8.49317 26.0933 9.09317 26.32 9.5465 26.7866L11.7598 29.0133C11.8398 29.0933 11.9465 29.1066 11.9998 29.1066C12.0532 29.1066 12.1598 29.0933 12.2398 29.0133L14.4798 26.7733C15.3065 25.9466 16.6132 25.8666 17.5332 26.5733L19.7998 28.2666C19.9465 28.3733 20.0798 28.3333 20.1465 28.2933C20.2132 28.2533 20.3332 28.1733 20.3332 28V5.33329C20.3332 4.73329 20.4798 4.15996 20.7332 3.66663H7.99984C5.03984 3.66663 3.6665 5.03996 3.6665 7.99996V28C3.6665 28.1866 3.7865 28.2666 3.85317 28.3066C3.93317 28.3466 4.0665 28.3733 4.19984 28.2666L6.47984 26.56C6.89317 26.2533 7.3865 26.0933 7.87984 26.0933Z" fill="#292D32"/>
<path d="M16 18.3467H12C11.4533 18.3467 11 17.8933 11 17.3467C11 16.8 11.4533 16.3467 12 16.3467H16C16.5467 16.3467 17 16.8 17 17.3467C17 17.8933 16.5467 18.3467 16 18.3467Z" fill="#2969FF"/>
<path d="M16 13.0133H12C11.4533 13.0133 11 12.56 11 12.0133C11 11.4666 11.4533 11.0133 12 11.0133H16C16.5467 11.0133 17 11.4666 17 12.0133C17 12.56 16.5467 13.0133 16 13.0133Z" fill="#2969FF"/>
<path d="M7.96029 13.3467C7.22695 13.3467 6.62695 12.7467 6.62695 12.0134C6.62695 11.2801 7.22695 10.6801 7.96029 10.6801C8.69362 10.6801 9.29362 11.2801 9.29362 12.0134C9.29362 12.7467 8.69362 13.3467 7.96029 13.3467Z" fill="#2969FF"/>
<path d="M7.96029 18.68C7.22695 18.68 6.62695 18.08 6.62695 17.3466C6.62695 16.6133 7.22695 16.0133 7.96029 16.0133C8.69362 16.0133 9.29362 16.6133 9.29362 17.3466C9.29362 18.08 8.69362 18.68 7.96029 18.68Z" fill="#2969FF"/>
</svg>
